<?xml version="1.0" encoding="UTF-8" standalone="no"?>
<svg
   inkscape:version="1.2.2 (b0a8486541, 2022-12-01)"
   sodipodi:docname="module-disconnect-24.svg"
   id="svg3202"
   height="24"
   width="24"
   version="1.1"
   xmlns:inkscape="http://www.inkscape.org/namespaces/inkscape"
   xmlns:sodipodi="http://sodipodi.sourceforge.net/DTD/sodipodi-0.dtd"
   xmlns:xlink="http://www.w3.org/1999/xlink"
   xmlns="http://www.w3.org/2000/svg"
   xmlns:svg="http://www.w3.org/2000/svg"
   xmlns:rdf="http://www.w3.org/1999/02/22-rdf-syntax-ns#"
   xmlns:cc="http://creativecommons.org/ns#"
   xmlns:dc="http://purl.org/dc/elements/1.1/">
  <sodipodi:namedview
     inkscape:current-layer="svg3202"
     inkscape:window-maximized="1"
     inkscape:window-y="0"
     inkscape:window-x="0"
     inkscape:cy="-0.80133557"
     inkscape:cx="17.148581"
     inkscape:zoom="12.479167"
     showgrid="false"
     id="namedview57"
     inkscape:window-height="1025"
     inkscape:window-width="1920"
     inkscape:pageshadow="2"
     inkscape:pageopacity="0"
     guidetolerance="10"
     gridtolerance="10"
     objecttolerance="10"
     borderopacity="1"
     bordercolor="#666666"
     pagecolor="#ffffff"
     inkscape:showpageshadow="2"
     inkscape:pagecheckerboard="0"
     inkscape:deskcolor="#d1d1d1" />
  <defs
     id="defs3204">
    <linearGradient
       gradientTransform="matrix(0.48571425,0,0,0.5,0.34285661,7.750001)"
       gradientUnits="userSpaceOnUse"
       xlink:href="#linearGradient3125"
       id="linearGradient3110"
       y2="44.137077"
       x2="21.381216"
       y1="5.0524864"
       x1="21.381216" />
    <linearGradient
       id="linearGradient3125">
      <stop
         offset="0"
         style="stop-color:#ffffff;stop-opacity:1"
         id="stop3127" />
      <stop
         offset="0.08125819"
         style="stop-color:#ffffff;stop-opacity:0.23529412"
         id="stop3129" />
      <stop
         offset="0.92327863"
         style="stop-color:#ffffff;stop-opacity:0.15686275"
         id="stop3131" />
      <stop
         offset="1"
         style="stop-color:#ffffff;stop-opacity:0.39215687"
         id="stop3133" />
    </linearGradient>
    <radialGradient
       gradientTransform="matrix(0.48613594,0,0,0.19884311,0.65625012,19.220963)"
       gradientUnits="userSpaceOnUse"
       xlink:href="#linearGradient23419"
       id="radialGradient3984"
       fy="41.63604"
       fx="23.334524"
       r="22.627417"
       cy="41.63604"
       cx="23.334524" />
    <linearGradient
       id="linearGradient23419">
      <stop
         offset="0"
         style="stop-color:#000000;stop-opacity:1"
         id="stop23421" />
      <stop
         offset="1"
         style="stop-color:#000000;stop-opacity:0"
         id="stop23423" />
    </linearGradient>
    <linearGradient
       spreadMethod="reflect"
       gradientTransform="matrix(0.37654594,0,0,0.35839049,-27.150809,31.67023)"
       gradientUnits="userSpaceOnUse"
       xlink:href="#linearGradient2793"
       id="linearGradient2864"
       y2="-7.6656942"
       x2="89.423676"
       y1="-7.6656942"
       x1="103.95014" />
    <linearGradient
       id="linearGradient2793">
      <stop
         offset="0"
         style="stop-color:#868688;stop-opacity:1"
         id="stop2795" />
      <stop
         offset="1"
         style="stop-color:#d9d9da;stop-opacity:1"
         id="stop2797" />
    </linearGradient>
    <linearGradient
       gradientTransform="matrix(0.8224499,0,0,0.82905873,-65.448598,8.0771844)"
       gradientUnits="userSpaceOnUse"
       xlink:href="#linearGradient3858"
       id="linearGradient2866"
       y2="27.54611"
       x2="89.01844"
       y1="22.536863"
       x1="89.01844" />
    <linearGradient
       id="linearGradient3858">
      <stop
         offset="0"
         style="stop-color:#a0a0a0;stop-opacity:1"
         id="stop3860" />
      <stop
         offset="1"
         style="stop-color:#4a4a4a;stop-opacity:1"
         id="stop3862" />
    </linearGradient>
    <linearGradient
       spreadMethod="reflect"
       gradientTransform="matrix(0.37654594,0,0,0.35839049,-27.150809,26.670231)"
       gradientUnits="userSpaceOnUse"
       xlink:href="#linearGradient2793-4"
       id="linearGradient3813"
       y2="-7.6656942"
       x2="89.423676"
       y1="-7.6656942"
       x1="103.95014" />
    <linearGradient
       id="linearGradient2793-4">
      <stop
         offset="0"
         style="stop-color:#868688;stop-opacity:1"
         id="stop2795-9" />
      <stop
         offset="1"
         style="stop-color:#d9d9da;stop-opacity:1"
         id="stop2797-8" />
    </linearGradient>
    <linearGradient
       gradientTransform="matrix(0.8224499,0,0,0.82905873,-65.448598,3.077185)"
       gradientUnits="userSpaceOnUse"
       xlink:href="#linearGradient3858-22"
       id="linearGradient3815"
       y2="27.54611"
       x2="89.01844"
       y1="22.536863"
       x1="89.01844" />
    <linearGradient
       id="linearGradient3858-22">
      <stop
         offset="0"
         style="stop-color:#a0a0a0;stop-opacity:1"
         id="stop3860-52" />
      <stop
         offset="1"
         style="stop-color:#4a4a4a;stop-opacity:1"
         id="stop3862-32" />
    </linearGradient>
    <linearGradient
       spreadMethod="reflect"
       gradientTransform="matrix(0.37654594,0,0,0.352792,-27.150809,21.746031)"
       gradientUnits="userSpaceOnUse"
       xlink:href="#linearGradient2793-3-0"
       id="linearGradient3878"
       y2="-7.6656942"
       x2="89.423676"
       y1="-7.6656942"
       x1="103.95014" />
    <linearGradient
       id="linearGradient2793-3-0">
      <stop
         offset="0"
         style="stop-color:#868688;stop-opacity:1"
         id="stop2795-3-9" />
      <stop
         offset="1"
         style="stop-color:#d9d9da;stop-opacity:1"
         id="stop2797-7-4" />
    </linearGradient>
    <linearGradient
       gradientTransform="matrix(0.8224499,0,0,0.81610786,-65.448598,-1.478464)"
       gradientUnits="userSpaceOnUse"
       xlink:href="#linearGradient3858-4-6"
       id="linearGradient3880"
       y2="27.54611"
       x2="89.01844"
       y1="22.536863"
       x1="89.01844" />
    <linearGradient
       id="linearGradient3858-4-6">
      <stop
         offset="0"
         style="stop-color:#a0a0a0;stop-opacity:1"
         id="stop3860-9-8" />
      <stop
         offset="1"
         style="stop-color:#4a4a4a;stop-opacity:1"
         id="stop3862-9-2" />
    </linearGradient>
    <linearGradient
       id="linearGradient3844-4-1">
      <stop
         offset="0"
         style="stop-color:#a5a6a8;stop-opacity:1"
         id="stop3846-6-6" />
      <stop
         offset="1"
         style="stop-color:#e8e8e8;stop-opacity:1"
         id="stop3848-9-0" />
    </linearGradient>
    <linearGradient
       id="linearGradient2509-9-1">
      <stop
         offset="0"
         style="stop-color:#b3b3b3;stop-opacity:1"
         id="stop2511-0-9" />
      <stop
         offset="1"
         style="stop-color:#dadada;stop-opacity:1"
         id="stop2513-3-1" />
    </linearGradient>
    <linearGradient
       spreadMethod="reflect"
       gradientTransform="matrix(0.37845152,0,0,0.34136193,-27.338025,17.61463)"
       gradientUnits="userSpaceOnUse"
       xlink:href="#linearGradient3844-4-1"
       id="linearGradient3198"
       y2="-24.582239"
       x2="102.30806"
       y1="-2.3925467"
       x1="102.30806" />
    <linearGradient
       gradientTransform="matrix(0.37845152,0,0,0.34136193,-27.338025,17.61463)"
       gradientUnits="userSpaceOnUse"
       xlink:href="#linearGradient2509-9-1"
       id="linearGradient3200"
       y2="-2.3757858"
       x2="109.95628"
       y1="-24.91135"
       x1="109.95628" />
    <radialGradient
       gradientTransform="matrix(0,0.52544994,-0.5716256,0,46.193389,-21.123812)"
       gradientUnits="userSpaceOnUse"
       xlink:href="#linearGradient3242-7-3-8-0-4-58-06"
       id="radialGradient3900-3"
       fy="48.216358"
       fx="65.297462"
       r="31.000002"
       cy="48.216358"
       cx="65.297462" />
    <linearGradient
       id="linearGradient3242-7-3-8-0-4-58-06">
      <stop
         id="stop3244-5-8-5-6-4-3-8"
         style="stop-color:#cdf87e;stop-opacity:1"
         offset="0" />
      <stop
         id="stop3246-9-5-1-5-3-0-7"
         style="stop-color:#a2e34f;stop-opacity:1"
         offset="0.26238" />
      <stop
         id="stop3248-7-2-0-7-5-35-9"
         style="stop-color:#68b723;stop-opacity:1"
         offset="0.66093999" />
      <stop
         id="stop3250-8-2-8-5-6-40-4"
         style="stop-color:#1d7e0d;stop-opacity:1"
         offset="1" />
    </linearGradient>
    <linearGradient
       gradientTransform="matrix(0.2817955,0,0,0.2800956,12.196562,12.014885)"
       gradientUnits="userSpaceOnUse"
       xlink:href="#linearGradient4154-3"
       id="linearGradient3030"
       y2="35.62291"
       x2="24.138529"
       y1="10.631441"
       x1="24.138529" />
    <linearGradient
       id="linearGradient4154-3">
      <stop
         offset="0"
         style="stop-color:#ffffff;stop-opacity:1"
         id="stop4156-4" />
      <stop
         offset="0.00000002"
         style="stop-color:#ffffff;stop-opacity:0.23529412"
         id="stop4158-4" />
      <stop
         offset="1"
         style="stop-color:#ffffff;stop-opacity:0.15686275"
         id="stop4160-52" />
      <stop
         offset="1"
         style="stop-color:#ffffff;stop-opacity:0.39215687"
         id="stop4162-8" />
    </linearGradient>
    <linearGradient
       gradientTransform="matrix(0.2817955,0,0,0.2800956,12.178741,12.02218)"
       gradientUnits="userSpaceOnUse"
       xlink:href="#linearGradient4333"
       id="linearGradient3030-1"
       y2="24.912279"
       x2="24.138529"
       y1="21.34207"
       x1="24.138529" />
    <linearGradient
       id="linearGradient4333">
      <stop
         id="stop4335"
         style="stop-color:#ffffff;stop-opacity:1"
         offset="0" />
      <stop
         id="stop4337"
         style="stop-color:#ffffff;stop-opacity:0.23529412"
         offset="0.00000019" />
      <stop
         id="stop4339"
         style="stop-color:#ffffff;stop-opacity:0.15686275"
         offset="1" />
      <stop
         id="stop4341"
         style="stop-color:#ffffff;stop-opacity:0.39215687"
         offset="1" />
    </linearGradient>
    <radialGradient
       cx="99.157013"
       cy="186.17059"
       r="62.769119"
       fx="99.157013"
       fy="186.17059"
       id="radialGradient3315"
       xlink:href="#linearGradient3820-7-2-2"
       gradientUnits="userSpaceOnUse"
       gradientTransform="matrix(0.06165963,0,0,0.01961898,12.267421,19.100934)" />
    <linearGradient
       id="linearGradient3820-7-2-2">
      <stop
         id="stop3822-2-6-36"
         style="stop-color:#3d3d3d;stop-opacity:1"
         offset="0" />
      <stop
         id="stop3864-8-7-6"
         style="stop-color:#686868;stop-opacity:0.49803922"
         offset="0.5" />
      <stop
         id="stop3824-1-2-4"
         style="stop-color:#686868;stop-opacity:0"
         offset="1" />
    </linearGradient>
    <radialGradient
       cx="0.96534902"
       cy="8.4497671"
       r="19.99999"
       fx="0.96534902"
       fy="8.4497671"
       id="radialGradient3092"
       xlink:href="#linearGradient2867-449-88-871-390-598-476-591-434-148-57-177-8-3-3-6-4-8-8-8-5"
       gradientUnits="userSpaceOnUse"
       gradientTransform="matrix(0,1.6712755,-1.7680101,-4.6981546e-8,33.320707,6.5385823)" />
    <linearGradient
       id="linearGradient2867-449-88-871-390-598-476-591-434-148-57-177-8-3-3-6-4-8-8-8-5">
      <stop
         id="stop3750-1-0-7-6-6-1-3-9-3"
         style="stop-color:#ed5353;stop-opacity:1;"
         offset="0" />
      <stop
         id="stop3756-1-6-2-6-6-1-96-6-0"
         style="stop-color:#c6262e;stop-opacity:1;"
         offset="1" />
    </linearGradient>
    <linearGradient
       x1="71.204407"
       y1="6.2375584"
       x2="71.204407"
       y2="44.340794"
       id="linearGradient3089"
       xlink:href="#linearGradient4011-4"
       gradientUnits="userSpaceOnUse"
       gradientTransform="matrix(0.2495101,0,0,0.24950778,0.48312696,12.028693)" />
    <linearGradient
       id="linearGradient4011-4">
      <stop
         id="stop4013-8"
         style="stop-color:#ffffff;stop-opacity:1"
         offset="0" />
      <stop
         id="stop4015-5"
         style="stop-color:#ffffff;stop-opacity:0.23529412"
         offset="0.507761" />
      <stop
         id="stop4017-6"
         style="stop-color:#ffffff;stop-opacity:0.15686275"
         offset="0.83456558" />
      <stop
         id="stop4019-1"
         style="stop-color:#ffffff;stop-opacity:0.39215687"
         offset="1" />
    </linearGradient>
  </defs>
  <metadata
     id="metadata3207">
    <rdf:RDF>
      <cc:Work
         rdf:about="">
        <dc:format>image/svg+xml</dc:format>
        <dc:type
           rdf:resource="http://purl.org/dc/dcmitype/StillImage" />
      </cc:Work>
    </rdf:RDF>
  </metadata>
  <g
     id="layer1"
     transform="translate(0,-8)">
    <g
       id="layer1-0">
      <path
         style="opacity:0.3;fill:url(#radialGradient3984);fill-opacity:1;fill-rule:evenodd;stroke:none;stroke-width:2;marker:none;visibility:visible;display:inline;overflow:visible"
         id="path23417"
         d="M 23,27.500001 C 23.000931,29.985169 18.075796,32 12,32 5.9242042,32 0.99906174,29.985169 1.0000001,27.500001 0.99906089,25.014831 5.9242042,23 12,23 c 6.075796,0 11.000939,2.014831 11,4.500001 z" />
      <path
         style="fill:url(#linearGradient2864);fill-opacity:1;stroke:url(#linearGradient2866);stroke-width:0.99999994;stroke-miterlimit:4;stroke-opacity:1;stroke-dasharray:none"
         id="path4834"
         d="m 21.441286,26.825403 c 0,2.028375 -4.234572,3.674596 -9.452159,3.674596 -5.2175947,0 -9.4521646,-1.646221 -9.4521646,-3.674596 0,-6.488122 -1.1553118,-3.598097 9.4521646,-3.674595 10.850407,-0.07892 9.452159,-2.849032 9.452159,3.674595 z" />
      <path
         style="fill:none;stroke:#d8d8d8;stroke-width:1;stroke-miterlimit:4;stroke-opacity:1;stroke-dasharray:none"
         id="path4838"
         d="M 21.5,23.000001 C 21.5,24.932997 17.246704,26.5 12.000001,26.5 6.7532954,26.5 2.5,24.932997 2.5,23.000001 2.5,21.067003 6.7532954,19.5 12.000001,19.5 17.246704,19.5 21.5,21.067003 21.5,23.000001 l 0,0 z" />
      <path
         style="fill:url(#linearGradient3813);fill-opacity:1;stroke:url(#linearGradient3815);stroke-width:0.99999994;stroke-miterlimit:4;stroke-opacity:1;stroke-dasharray:none"
         id="path4834-7"
         d="m 21.441286,21.825404 c 0,2.028375 -4.234572,3.674596 -9.452159,3.674596 -5.2175947,0 -9.4521646,-1.646221 -9.4521646,-3.674596 0,-6.488122 -1.1553118,-3.598097 9.4521646,-3.674595 10.850407,-0.07892 9.452159,-2.849032 9.452159,3.674595 z" />
      <path
         style="fill:none;stroke:#d8d8d8;stroke-width:1;stroke-miterlimit:4;stroke-opacity:1;stroke-dasharray:none"
         id="path4838-3"
         d="m 21.5,18.000002 c 0,1.932996 -4.253296,3.499999 -9.499999,3.499999 C 6.7532954,21.500001 2.5,19.932998 2.5,18.000002 c 0,-1.932998 4.2532954,-3.500001 9.500001,-3.500001 5.246703,0 9.499999,1.567003 9.499999,3.500001 l 0,0 z" />
      <path
         style="fill:url(#linearGradient3878);fill-opacity:1;stroke:url(#linearGradient3880);stroke-width:0.99999994;stroke-miterlimit:4;stroke-opacity:1;stroke-dasharray:none"
         id="path3878"
         d="m 21.441286,16.976886 c 0,1.99669 -4.234572,3.523114 -9.452159,3.523114 -5.2175947,0 -9.4521646,-1.526424 -9.4521646,-3.523114 0,-7.1907048 -1.1553118,-3.541892 9.4521646,-3.617194 10.850407,-0.0777 9.452159,-3.109574 9.452159,3.617194 z" />
      <path
         style="fill:url(#linearGradient3198);fill-opacity:1;stroke:url(#linearGradient3200);stroke-width:0.99999994;stroke-miterlimit:4;stroke-opacity:1;stroke-dasharray:none"
         id="path3880"
         d="m 21.5,13 c 0,1.932997 -4.253296,3.5 -9.499999,3.5 C 6.7532955,16.5 2.5,14.932997 2.5,13 2.5,11.067004 6.7532955,9.5 12.000001,9.5 17.246704,9.5 21.5,11.067004 21.5,13 l 0,0 z" />
    </g>
    <rect
       style="opacity:0.5;color:#000000;fill:none;stroke:url(#linearGradient3110);stroke-width:1;stroke-opacity:1;marker:none;visibility:visible;display:inline;overflow:visible;enable-background:accumulate"
       id="rect3145"
       y="10.5"
       x="3.5"
       ry="3"
       rx="17.5"
       height="19"
       width="17" />
  </g>
  <path
     d="m 22.251725,22.753409 a 3.8703203,1.2314655 0 1 1 -7.74064,0 3.8703203,1.2314655 0 1 1 7.74064,0 z"
     id="path3818-0-2"
     style="fill:url(#radialGradient3315);fill-opacity:1;stroke:none;stroke-width:1;stroke-dasharray:none" />
  <path
     d="m 18.381405,13.253735 c -2.814989,0 -5.101786,2.286796 -5.101786,5.101786 0,2.81499 2.286797,5.101787 5.101786,5.101786 2.814989,0 5.101787,-2.286796 5.101785,-5.101786 0,-2.81499 -2.286796,-5.101786 -5.101785,-5.101786 z"
     id="path2555"
     style="color:#000000;display:inline;overflow:visible;visibility:visible;fill:url(#radialGradient3092);fill-opacity:1;fill-rule:nonzero;stroke:none;stroke-width:1;stroke-dasharray:none;marker:none;enable-background:accumulate" />
  <path
     d="m 18.381405,13.253735 c -2.814989,0 -5.101786,2.286797 -5.101786,5.101787 0,2.814989 2.286797,5.101786 5.101786,5.101785 2.814989,0 5.101789,-2.286796 5.101785,-5.101785 0,-2.81499 -2.286796,-5.101787 -5.101785,-5.101787 z"
     id="path2555-6"
     style="color:#000000;clip-rule:nonzero;display:inline;overflow:visible;visibility:visible;opacity:0.5;isolation:auto;mix-blend-mode:normal;color-interpolation:sRGB;color-interpolation-filters:linearRGB;solid-color:#000000;solid-opacity:1;fill:none;fill-opacity:1;fill-rule:nonzero;stroke:#7a0000;stroke-width:1;stroke-linecap:round;stroke-linejoin:round;stroke-miterlimit:4;stroke-dasharray:none;stroke-dashoffset:0;stroke-opacity:1;marker:none;color-rendering:auto;image-rendering:auto;shape-rendering:auto;text-rendering:auto;enable-background:accumulate" />
  <path
     d="m 22.997297,18.355357 c 0,2.549371 -2.066778,4.616057 -4.615878,4.616057 -2.549335,0 -4.615996,-2.06671 -4.615996,-4.616057 0,-2.549253 2.066661,-4.615729 4.615996,-4.615729 2.5491,0 4.615878,2.066476 4.615878,4.615729 z"
     id="path8655"
     style="color:#000000;display:inline;overflow:visible;visibility:visible;opacity:0.3;fill:none;stroke:url(#linearGradient3089);stroke-width:0.971784;stroke-linecap:round;stroke-linejoin:round;stroke-miterlimit:4;stroke-dasharray:none;stroke-dashoffset:0;stroke-opacity:1;marker:none;enable-background:accumulate" />
  <path
     style="color:#000000;clip-rule:nonzero;display:inline;overflow:visible;visibility:visible;opacity:0.15;isolation:auto;mix-blend-mode:normal;color-interpolation:sRGB;color-interpolation-filters:linearRGB;solid-color:#000000;solid-opacity:1;fill:#1c2c38;fill-opacity:1;fill-rule:nonzero;stroke:none;stroke-width:1;stroke-linecap:butt;stroke-linejoin:miter;stroke-miterlimit:4;stroke-dasharray:none;stroke-dashoffset:0;stroke-opacity:1;marker:none;color-rendering:auto;image-rendering:auto;shape-rendering:auto;text-rendering:auto;enable-background:accumulate"
     id="path4670"
     d="m 18.381405,14.696173 c -0.445903,0 -0.815022,0.37046 -0.815022,0.815707 v 0.660401 c -0.15153,-0.208544 -0.361515,-0.366278 -0.635661,-0.366278 -0.164259,0 -0.280854,0.05651 -0.353222,0.09071 a 0.36022024,0.36022024 0 0 0 -0.0323,0.01718 l -0.14225,0.0859 a 0.36022024,0.36022024 0 0 0 -0.01237,0.0076 c -0.724677,0.47799 -1.224462,1.220176 -1.425252,2.076036 -0.0053,0.0053 -0.01649,0.01581 -0.01649,0.01581 -9e-6,1.2e-5 -0.06459,0.148423 -0.0646,0.148436 a 0.36022024,0.36022024 0 0 0 -0.0014,0.0062 c -0.02332,0.138421 -0.014,0.166467 -0.0014,0.07972 l 7.01e-4,-0.0021 c -0.02091,0.139469 -0.04674,0.298191 -0.04674,0.480354 0,1.898641 1.598675,3.431886 3.54596,3.431886 1.947287,0 3.545961,-1.533245 3.545962,-3.431886 0,-0.151687 -0.01296,-0.295425 -0.03093,-0.431562 a 0.36022024,0.36022024 0 0 0 -7.01e-4,-7.01e-4 c -0.01426,-0.106273 -0.03359,-0.147345 -0.03027,-0.128477 -0.164614,-0.93446 -0.717798,-1.73221 -1.49329,-2.243714 a 0.36022024,0.36022024 0 0 0 -0.01237,-0.0076 l -0.142245,-0.08589 a 0.36022024,0.36022024 0 0 0 -0.0323,-0.01718 c -0.07238,-0.03421 -0.188967,-0.09071 -0.353221,-0.09071 -0.274147,0 -0.484132,0.157733 -0.635661,0.366278 v -0.660402 c 0,-0.445248 -0.369119,-0.815708 -0.815022,-0.815708 z m -0.815022,2.438191 v 1.108456 c 0,0.445248 0.369773,0.815022 0.815022,0.815022 0.445248,0 0.815021,-0.369773 0.815021,-0.815022 v -1.108456 c 0.04106,0.0514 0.07436,0.110744 0.124384,0.151184 0.05314,0.04296 0.116199,0.0866 0.200662,0.122323 l -0.0591,-0.0323 c 0.370307,0.24641 0.643061,0.614434 0.763482,1.036987 0.0372,0.130517 0.04508,0.144349 0.01237,0.02405 0.03905,0.143478 0.0591,0.288181 0.0591,0.445994 0,1.010101 -0.846015,1.830706 -1.91592,1.830706 -1.069905,0 -1.915918,-0.820605 -1.915918,-1.830706 0,-0.157812 0.02004,-0.302515 0.0591,-0.445994 a 0.36022024,0.36022024 0 0 0 0,-7.01e-4 c -0.03175,0.117078 -0.02592,0.110913 0.01237,-0.02337 0.120422,-0.422553 0.393174,-0.790577 0.763482,-1.036987 l -0.0591,0.0323 c 0.08447,-0.03573 0.147533,-0.07937 0.200663,-0.122322 0.05002,-0.04044 0.08333,-0.09979 0.124383,-0.151185 z" />
  <path
     d="m 16.930573,16.165865 c -0.07166,0 -0.138381,0.02818 -0.199134,0.05689 l -0.142238,0.08534 c -0.698149,0.460491 -1.190219,1.172102 -1.337041,2.005561 -1.56e-4,9.27e-4 -0.01407,-8.5e-4 -0.01422,0 -0.0039,0.02296 0.0034,0.04798 0,0.07112 -0.02107,0.140569 -0.04267,0.279731 -0.04267,0.426716 0,1.696811 1.426483,3.072348 3.186139,3.072348 1.759656,0 3.186138,-1.375537 3.186138,-3.072348 0,-0.130522 -0.01177,-0.257706 -0.02845,-0.384044 -0.0053,-0.03929 -0.02161,-0.07504 -0.02845,-0.11379 -0.146822,-0.833459 -0.638891,-1.545071 -1.337041,-2.005561 l -0.142236,-0.08534 c -0.06075,-0.02872 -0.127475,-0.05689 -0.199134,-0.05689 -0.25919,0 -0.469386,0.210196 -0.469386,0.469387 0,0.147509 0.07848,0.283785 0.18491,0.36982 0.03382,0.02735 0.07316,0.05394 0.11379,0.07112 0.439811,0.29266 0.765739,0.730126 0.910326,1.237474 0.0027,0.0097 0.01159,0.01874 0.01422,0.02845 0.04731,0.173785 0.07112,0.351926 0.07112,0.540505 0,1.212008 -1.018916,2.190471 -2.275814,2.190471 -1.256897,0 -2.275814,-0.978463 -2.275814,-2.190471 0,-0.188579 0.02382,-0.36672 0.07112,-0.540505 0.0027,-0.01012 0.01136,-0.01839 0.01422,-0.02845 0.144587,-0.507348 0.470515,-0.944814 0.910326,-1.237474 0.04062,-0.01718 0.07997,-0.04378 0.11379,-0.07112 0.106426,-0.08604 0.18491,-0.222311 0.18491,-0.36982 0,-0.259191 -0.210196,-0.469387 -0.469386,-0.469387 z m 1.450832,-1.109459 c 0.252159,0 0.455163,0.203002 0.455163,0.455162 v 2.730976 c 0,0.252161 -0.203004,0.455163 -0.455163,0.455163 -0.252162,0 -0.455163,-0.203002 -0.455163,-0.455163 v -2.730976 c 0,-0.25216 0.203001,-0.455162 0.455163,-0.455162 z"
     id="path3782-3"
     style="color:#000000;clip-rule:nonzero;display:inline;overflow:visible;visibility:visible;opacity:0.3;isolation:auto;mix-blend-mode:normal;color-interpolation:sRGB;color-interpolation-filters:linearRGB;solid-color:#000000;solid-opacity:1;fill:#1c2c38;fill-opacity:1;fill-rule:nonzero;stroke:none;stroke-width:1;stroke-linecap:butt;stroke-linejoin:miter;stroke-miterlimit:4;stroke-dasharray:none;stroke-dashoffset:0;stroke-opacity:1;marker:none;color-rendering:auto;image-rendering:auto;shape-rendering:auto;text-rendering:auto;enable-background:accumulate" />
  <path
     d="m 16.930573,15.813946 c -0.07166,0 -0.138381,0.02818 -0.199134,0.05689 l -0.142238,0.08534 c -0.698149,0.46049 -1.190219,1.172103 -1.337041,2.005561 -1.56e-4,9.28e-4 -0.01407,-8.5e-4 -0.01422,0 -0.0039,0.02296 0.0034,0.04798 0,0.07112 -0.02107,0.140568 -0.04267,0.279729 -0.04267,0.426714 0,1.696812 1.426483,3.072349 3.186139,3.072349 1.759656,0 3.186138,-1.375537 3.186138,-3.072349 0,-0.130521 -0.01177,-0.257705 -0.02845,-0.384043 -0.0053,-0.03929 -0.02161,-0.07504 -0.02845,-0.11379 -0.146822,-0.833459 -0.638891,-1.545071 -1.337041,-2.005561 l -0.142236,-0.08534 c -0.06075,-0.02872 -0.127475,-0.05689 -0.199134,-0.05689 -0.25919,0 -0.469386,0.210196 -0.469386,0.469387 0,0.147509 0.07848,0.283785 0.18491,0.369819 0.03382,0.02735 0.07316,0.05394 0.11379,0.07112 0.439811,0.29266 0.765739,0.730126 0.910326,1.237475 0.0027,0.0097 0.01159,0.01874 0.01422,0.02845 0.04731,0.173784 0.07112,0.351926 0.07112,0.540505 0,1.212009 -1.018916,2.190471 -2.275814,2.190471 -1.256897,0 -2.275814,-0.978462 -2.275814,-2.190471 0,-0.188579 0.02382,-0.366721 0.07112,-0.540505 0.0027,-0.01012 0.01136,-0.01839 0.01422,-0.02845 0.144587,-0.507349 0.470515,-0.944815 0.910326,-1.237475 0.04062,-0.01718 0.07997,-0.04378 0.11379,-0.07112 0.106426,-0.08603 0.18491,-0.22231 0.18491,-0.369819 0,-0.259191 -0.210196,-0.469387 -0.469386,-0.469387 z m 1.450832,-1.10946 c 0.252159,0 0.455163,0.203003 0.455163,0.455163 v 2.730976 c 0,0.25216 -0.203004,0.455163 -0.455163,0.455163 -0.252162,0 -0.455163,-0.203003 -0.455163,-0.455163 v -2.730976 c 0,-0.25216 0.203001,-0.455163 0.455163,-0.455163 z"
     id="path3782"
     style="color:#000000;display:inline;overflow:visible;visibility:visible;fill:#ffffff;fill-opacity:1;fill-rule:nonzero;stroke:none;stroke-width:1;stroke-dasharray:none;marker:none;enable-background:accumulate" />
</svg>
