<?xml version="1.0" encoding="utf-8"?>
<!-- Generator: Adobe Illustrator 16.0.0, SVG Export Plug-In . SVG Version: 6.00 Build 0)  -->
<!DOCTYPE svg PUBLIC "-//W3C//DTD SVG 1.1//EN" "http://www.w3.org/Graphics/SVG/1.1/DTD/svg11.dtd">
<svg version="1.1" id="Layer_1" xmlns="http://www.w3.org/2000/svg" xmlns:xlink="http://www.w3.org/1999/xlink" x="0px" y="0px"
	 width="1920px" height="1080px" viewBox="0 0 1920 1080" enable-background="new 0 0 1920 1080" xml:space="preserve">
<g id="Layer_x0020_1">
	
		<radialGradient id="SVGID_1_" cx="-108.2339" cy="1187.8887" r="162.5596" gradientTransform="matrix(11.8098 0 0 -6.6419 2238.1221 8429.6299)" gradientUnits="userSpaceOnUse">
		<stop  offset="0" style="stop-color:#FFC44B"/>
		<stop  offset="0.562" style="stop-color:#FF9D7C"/>
		<stop  offset="1" style="stop-color:#C65300"/>
	</radialGradient>
	<rect fill="url(#SVGID_1_)" width="1919.803" height="1079.694"/>
	
		<linearGradient id="SVGID_2_" gradientUnits="userSpaceOnUse" x1="111.0005" y1="908.3672" x2="457.5103" y2="908.3672" gradientTransform="matrix(2.8346 0 0 -2.8346 537.2062 3307.5923)">
		<stop  offset="0" style="stop-color:#FFA426"/>
		<stop  offset="0.251" style="stop-color:#DB5F32"/>
		<stop  offset="1" style="stop-color:#C4679C"/>
	</linearGradient>
	<path fill="url(#SVGID_2_)" d="M1833.996,1109.301l-25.226-25.221 M1804.385,1079.694l-765.819-765.676l-3.861-4.052l-4.052-3.858
		l-4.231-3.665l-4.402-3.464l-4.573-3.25l-4.736-3.03l-4.882-2.809l-5.029-2.575l-5.167-2.335l-5.293-2.089l-5.419-1.833
		l-5.533-1.572l-5.644-1.3l-5.745-1.027l-5.834-0.74l-5.922-0.452l-6.001-0.15l-0.661,0.002l-0.659,0.004l-0.657,0.01l-0.651,0.012
		l-0.651,0.017l-0.645,0.018l-0.639,0.022l-0.633,0.024l-0.626,0.031l-0.619,0.03l-0.61,0.035l-0.602,0.037l-0.592,0.041
		l-0.58,0.043l-0.569,0.044l-0.558,0.049l-1.025,0.106l-0.983,0.333l-0.913,0.537l-0.814,0.716l-0.686,0.871l-0.525,1l-0.337,1.108
		l-0.118,1.19v11.122l-4.481,0.792l-4.411,0.988l-4.333,1.178l-4.253,1.367l-4.17,1.546l-4.079,1.725l-3.987,1.896l-3.886,2.064
		l-3.784,2.228l-3.676,2.386l-3.562,2.541l-3.442,2.687l-3.324,2.832l-3.194,2.971l-3.064,3.108l-2.927,3.234l-2.785,3.364
		l-2.641,3.482l-2.49,3.598l-2.335,3.71l-2.175,3.818l-2.01,3.919l-1.841,4.015l-1.668,4.108l-1.487,4.198l-1.306,4.279
		l-1.117,4.358l-0.926,4.432l-0.727,4.503l-0.526,4.566l-0.317,4.625l-0.108,4.682l0.13,5.165l0.389,5.097l0.637,5.022l0.885,4.944
		l1.121,4.855l1.351,4.763l1.581,4.662l1.796,4.558l2.01,4.446l2.217,4.326l2.417,4.206l2.61,4.068l2.799,3.938l2.98,3.791
		l3.155,3.641l3.324,3.486l3.487,3.324c162.313,145.846,109.115,98.194,109.185,98.275l-0.358-0.064l-0.268-0.195l-0.293-0.188
		l-0.322-0.171l-0.346-0.154l-0.374-0.146l-0.398-0.13l-0.424-0.114l-0.447-0.105l-0.476-0.082l-0.501-0.081l-0.524-0.057
		l-0.55-0.049l-0.577-0.032l-0.603-0.024l-0.631-0.009l-0.639,0.009l-0.61,0.024l-0.586,0.032l-0.562,0.049l-0.536,0.065
		l-0.505,0.072l-0.48,0.098l-0.455,0.106l-0.428,0.113l-0.402,0.139l-0.375,0.146l-0.35,0.154l-0.325,0.18l-0.293,0.187
		l-0.269,0.203l-0.244,0.212l-0.439,0.505l-0.383,0.577l-0.321,0.676l-0.265,0.765l-0.203,0.846l-0.146,0.943l-0.09,1.033
		l-0.032,1.115l0.032,1.065l0.082,0.984l0.146,0.896l0.195,0.813l0.252,0.732l0.313,0.643l0.37,0.562l0.423,0.472l9.667,9.665
		l-0.154-0.017l-0.456-0.024l-0.476-0.016l-0.501-0.017l-0.528-0.008l-0.554-0.009l-0.549,0.009l-0.525,0.008l-0.504,0.017
		l-0.48,0.016l-0.456,0.024l-0.427,0.033l-0.402,0.04l-0.383,0.041l-0.35,0.049l-0.338,0.057l-0.317,0.058l-0.306,0.064l-0.28,0.065
		l-0.265,0.073l-0.252,0.073l-0.229,0.081l-0.215,0.081l-0.199,0.09l-0.184,0.09l-0.167,0.098l-0.146,0.105l-0.13,0.105
		l-0.114,0.114l-0.094,0.114l-0.085,0.113l-0.077,0.122l-0.065,0.13l-0.053,0.131l-0.041,0.138l-0.028,0.139l-0.021,0.139
		l-0.004,0.146v16.873l-15.123-15.116l-0.699-0.684l-0.749-0.65l-0.793-0.603l-0.838-0.553l-0.883-0.521l-0.93-0.473l-0.484-0.228
		l-0.496-0.203l-0.511-0.195l-0.525-0.179l-0.537-0.163l-0.551-0.154l-0.565-0.139l-0.578-0.122l-0.594-0.105l-0.606-0.09
		l-0.621-0.081l-0.633-0.065l-0.649-0.049l-0.661-0.032l-0.675-0.024l-0.688-0.008l-0.631,0.016l-0.628,0.024l-0.625,0.049
		l-0.623,0.065l-0.621,0.09l-0.616,0.105l-0.612,0.122l-0.608,0.138l-0.608,0.163l-0.604,0.179l-0.598,0.204l-0.598,0.22
		l-0.594,0.235l-0.59,0.261l-0.588,0.276l-0.584,0.293l-0.584,0.317l-0.584,0.333l-0.583,0.351l-0.58,0.366l-0.58,0.39l-0.578,0.407
		l-0.576,0.423l-0.576,0.447l-0.574,0.464l-0.096,0.082l-27.266-27.264l-0.244-0.211l-0.269-0.195l-0.295-0.188l-0.321-0.171
		l-0.346-0.154l-0.373-0.146l-0.399-0.13l-0.423-0.114l-0.45-0.105l-0.474-0.082l-0.5-0.081l-0.527-0.057l-0.551-0.049l-0.578-0.032
		l-0.602-0.024l-0.628-0.009l-0.639,0.009l-0.612,0.024l-0.586,0.032l-0.56,0.049l-0.533,0.065l-0.508,0.072l-0.48,0.098
		l-0.456,0.106l-0.427,0.113l-0.403,0.139l-0.374,0.146l-0.35,0.154l-0.321,0.18l-0.297,0.187l-0.271,0.203l-0.244,0.212
		l-0.439,0.505l-0.38,0.577l-0.321,0.676l-0.265,0.765l-0.206,0.846l-0.145,0.943l-0.089,1.033l-0.03,1.115l0.028,1.065l0.085,0.984
		l0.142,0.896l0.197,0.813l0.257,0.732l0.309,0.643l0.37,0.562l0.423,0.472l9.667,9.665l-0.153-0.017l-0.454-0.024l-0.48-0.016
		l-0.502-0.017l-0.527-0.008l-0.551-0.009l-0.552,0.009l-0.526,0.008l-0.525,0.017l-18.565-18.542l-0.21-0.187l-0.226-0.18
		l-0.238-0.162l-0.254-0.154l-0.265-0.131l-0.279-0.122l-0.293-0.113l-0.303-0.098l-0.317-0.09l-0.332-0.073L877,567.491
		l-0.362-0.049l-0.376-0.032l-0.391-0.017l-0.405-0.008h-10.833l-0.553,0.008l-0.542,0.017l-0.521,0.032l-0.506,0.058l-0.491,0.057
		l-0.474,0.081l-0.456,0.098l-0.438,0.106l-0.415,0.13l-0.405,0.146l-0.391,0.163l-0.378,0.187l-0.362,0.203l-0.35,0.229
		l-0.336,0.244l-0.319,0.26l-0.309,0.285l-0.297,0.309l-0.291,0.326l-0.279,0.341l-0.271,0.375l-0.265,0.382l-0.252,0.407
		l-0.246,0.431l-0.232,0.456l-0.228,0.479l-0.226,0.505l-0.218,0.528l-0.216,0.554l-0.209,0.578l-0.201,0.602l-0.2,0.626
		l-8.647,23.041l-29.695-29.688l-0.342-0.301l-0.354-0.276l-0.376-0.253l-0.393-0.244l-0.411-0.211l-0.429-0.204l-0.446-0.179
		l-0.463-0.162l-0.482-0.139l-0.499-0.13l-0.515-0.106l-0.539-0.098l-0.567-0.081l-0.592-0.057l-0.619-0.058l-0.643-0.032
		l-0.667-0.017l-0.691-0.008h-10.499l-0.678,0.024l-0.639,0.073l-0.604,0.13l-0.57,0.18l-0.531,0.228l-0.499,0.284l-0.466,0.334
		l-0.431,0.391l-0.387,0.439l-0.335,0.479l-0.283,0.529l-0.232,0.569l-0.179,0.618l-0.126,0.667l-0.078,0.708l-0.026,0.757v70.374
		l0.006,0.155l0.014,0.138l0.024,0.146l0.037,0.139l0.047,0.138l0.057,0.139l0.069,0.122l0.08,0.13l0.093,0.114l0.112,0.114
		l434.269,434.188 M1833.996,1109.309l0.09-0.098L1833.996,1109.309z M1668.868,1114.922l-0.13-0.113L1668.868,1114.922
		 M1668.355,1151.176l-0.569-0.521L1668.355,1151.176 M1372.236,1189.471l-0.131-0.131 M1334.536,1189.576l-0.089-0.105
		L1334.536,1189.576 M1655.531,1162.793l0.594,0.594l-0.438-0.447L1655.531,1162.793z M1372.105,1189.34l0.131,0.131"/>
	<g>
		<path fill="#FDD7FF" d="M936.905,293.109c-48.151,7.387-85.029,48.988-85.029,99.2c0,55.433,44.942,100.367,100.382,100.367
			c50.613,0,92.475-37.449,99.383-86.142h11.046c3.264,0,5.904-2.644,5.867-5.465c0.203-2.561,0.325-5.646,0.325-8.76
			c0-64.397-52.216-116.602-116.622-116.602c-3.523,0-7.012,0.157-9.952,0.419c-2.756-0.042-5.401,2.602-5.401,5.862V293.109z
			 M973.541,375.833c-3.259,0-5.903-2.644-5.903-5.905l-0.017-61.852c34.592,6.261,61.957,33.318,68.674,67.757H973.541z
			 M936.905,392.309c0,7.855,6.37,14.225,14.228,14.225h69.046c-6.559,31.489-34.478,55.144-67.921,55.144
			c-38.32,0-69.381-31.056-69.381-69.369c0-33.038,23.097-60.683,54.028-67.667V392.309L936.905,392.309z M936.905,392.309v-67.667
			V392.309z M936.905,293.109v-11.122V293.109z M936.905,392.309v-67.667V392.309z M936.905,293.109v-11.122V293.109z"/>
		<path id="_1" fill="none" stroke="#FEFEFE" stroke-width="0.0762" stroke-miterlimit="22.9256" d="M936.905,293.109
			c-48.151,7.387-85.029,48.988-85.029,99.2c0,55.433,44.942,100.367,100.382,100.367c50.613,0,92.475-37.449,99.383-86.142h11.046
			c3.264,0,5.904-2.644,5.867-5.465c0.203-2.561,0.325-5.646,0.325-8.76c0-64.397-52.216-116.602-116.622-116.602
			c-3.523,0-7.012,0.157-9.952,0.419c-2.756-0.042-5.401,2.602-5.401,5.862 M973.541,375.833c-3.259,0-5.903-2.644-5.903-5.905
			l-0.017-61.852c34.592,6.261,61.961,33.318,68.678,67.757H973.541z M936.905,392.309c0,7.855,6.37,14.225,14.228,14.225h69.046
			c-6.559,31.489-34.478,55.144-67.921,55.144c-38.32,0-69.381-31.056-69.381-69.369c0-33.038,23.097-60.683,54.028-67.667
			 M936.905,392.309v-67.667 M936.905,293.109v-11.122 M936.905,392.309v-67.667 M936.905,293.109v-11.122"/>
	</g>
	<path fill="#FDD7FF" d="M881.51,643.496c0,0.398-0.104,0.772-0.333,1.106c-0.228,0.317-0.645,0.586-1.229,0.789
		c-0.582,0.187-1.375,0.357-2.354,0.479c-0.979,0.131-2.229,0.188-3.729,0.188c-1.479,0-2.708-0.057-3.686-0.188
		c-0.979-0.122-1.751-0.293-2.333-0.479c-0.563-0.203-0.98-0.472-1.208-0.789c-0.25-0.334-0.375-0.708-0.375-1.106v-64.289h-0.126
		l-22.811,64.231c-0.167,0.521-0.415,0.96-0.792,1.311c-0.375,0.357-0.854,0.626-1.499,0.829c-0.625,0.195-1.438,0.334-2.395,0.399
		c-0.98,0.064-2.168,0.081-3.542,0.081c-1.398,0-2.563-0.041-3.542-0.146c-0.98-0.098-1.792-0.269-2.417-0.496
		s-1.125-0.496-1.501-0.813c-0.354-0.334-0.602-0.725-0.729-1.164l-22.017-64.231h-0.126v64.289c0,0.398-0.104,0.772-0.332,1.106
		c-0.23,0.317-0.647,0.586-1.251,0.789c-0.625,0.187-1.416,0.357-2.376,0.479c-0.958,0.131-2.187,0.188-3.687,0.188
		c-1.479,0-2.708-0.057-3.688-0.188c-0.979-0.122-1.77-0.293-2.354-0.479c-0.582-0.203-0.999-0.472-1.229-0.789
		c-0.23-0.334-0.333-0.708-0.333-1.106v-70.375c0-2.082,0.543-3.66,1.648-4.768c1.103-1.106,2.561-1.643,4.414-1.643h10.499
		c1.876,0,3.499,0.146,4.833,0.455c1.355,0.317,2.521,0.813,3.499,1.521c0.958,0.708,1.792,1.644,2.437,2.815
		c0.647,1.163,1.229,2.603,1.709,4.304l17.019,47.049h0.25l17.623-46.943c0.521-1.709,1.104-3.141,1.729-4.328
		c0.647-1.172,1.375-2.123,2.209-2.855c0.832-0.725,1.831-1.245,2.956-1.563c1.146-0.309,2.48-0.455,3.979-0.455h10.833
		c1.103,0,2.041,0.146,2.832,0.439c0.793,0.268,1.458,0.683,1.959,1.244c0.521,0.545,0.897,1.212,1.166,2.002
		c0.272,0.789,0.396,1.708,0.396,2.725V643.496z M907.607,643.626c0,0.391-0.124,0.749-0.374,1.058
		c-0.23,0.317-0.647,0.569-1.249,0.773c-0.584,0.187-1.377,0.357-2.335,0.455c-0.979,0.105-2.228,0.146-3.727,0.146
		c-1.501,0-2.75-0.041-3.73-0.146c-0.956-0.098-1.75-0.269-2.332-0.455c-0.606-0.204-1.021-0.456-1.251-0.773
		c-0.25-0.309-0.375-0.667-0.375-1.058v-54.363c0-0.391,0.124-0.748,0.375-1.058c0.23-0.317,0.645-0.586,1.251-0.797
		c0.582-0.229,1.375-0.391,2.332-0.521c0.98-0.121,2.229-0.187,3.73-0.187c1.5,0,2.749,0.065,3.727,0.187
		c0.958,0.131,1.751,0.293,2.335,0.521c0.602,0.211,1.019,0.479,1.249,0.797c0.25,0.31,0.374,0.667,0.374,1.058V643.626z
		 M908.856,570.648c0,3.1-0.624,5.223-1.894,6.411c-1.271,1.188-3.605,1.773-7.041,1.773c-3.458,0-5.814-0.562-7-1.709
		c-1.208-1.146-1.813-3.205-1.813-6.167c0-3.1,0.625-5.247,1.876-6.451c1.229-1.188,3.582-1.798,7.059-1.798
		c3.418,0,5.751,0.586,6.98,1.749C908.252,565.604,908.856,567.671,908.856,570.648z M969.285,643.626
		c0,0.391-0.126,0.749-0.378,1.058c-0.229,0.317-0.644,0.569-1.204,0.773c-0.586,0.187-1.376,0.357-2.377,0.455
		c-1,0.105-2.229,0.146-3.688,0.146c-1.52,0-2.771-0.041-3.77-0.146c-0.999-0.098-1.792-0.269-2.374-0.455
		c-0.563-0.204-0.981-0.456-1.21-0.773c-0.249-0.309-0.375-0.667-0.375-1.058v-31.054c0-2.645-0.187-4.728-0.582-6.232
		c-0.374-1.514-0.938-2.807-1.666-3.873c-0.73-1.082-1.688-1.911-2.833-2.521c-1.168-0.578-2.5-0.871-4.042-0.871
		c-1.957,0-3.916,0.708-5.916,2.148c-1.979,1.415-4.063,3.498-6.208,6.207v36.196c0,0.391-0.124,0.749-0.375,1.058
		c-0.228,0.317-0.645,0.569-1.249,0.773c-0.584,0.187-1.375,0.357-2.333,0.455c-0.979,0.105-2.228,0.146-3.729,0.146
		c-1.5,0-2.75-0.041-3.729-0.146c-0.958-0.098-1.75-0.269-2.333-0.455c-0.604-0.204-1.021-0.456-1.249-0.773
		c-0.25-0.309-0.374-0.667-0.374-1.058v-54.485c0-0.398,0.104-0.748,0.311-1.065c0.187-0.31,0.563-0.562,1.084-0.765
		c0.541-0.188,1.208-0.358,2.04-0.464c0.834-0.098,1.896-0.146,3.146-0.146c1.312,0,2.376,0.049,3.23,0.146
		c0.852,0.105,1.52,0.276,1.998,0.464c0.459,0.203,0.791,0.455,1,0.765c0.208,0.317,0.312,0.667,0.312,1.065v6.289
		c3-3.246,6.062-5.662,9.187-7.289c3.104-1.628,6.355-2.434,9.728-2.434c3.708,0,6.833,0.603,9.374,1.831
		c2.543,1.204,4.583,2.872,6.17,4.979c1.563,2.082,2.686,4.539,3.373,7.346c0.688,2.815,1.041,6.191,1.041,10.121V643.626z
		 M994.092,643.626c0,0.391-0.126,0.749-0.375,1.058c-0.228,0.317-0.646,0.569-1.253,0.773c-0.582,0.187-1.375,0.357-2.331,0.455
		c-0.98,0.105-2.226,0.146-3.73,0.146c-1.498,0-2.751-0.041-3.728-0.146c-0.96-0.098-1.749-0.269-2.335-0.455
		c-0.603-0.204-1.018-0.456-1.245-0.773c-0.252-0.309-0.374-0.667-0.374-1.058v-54.363c0-0.391,0.122-0.748,0.374-1.058
		c0.228-0.317,0.643-0.586,1.245-0.797c0.586-0.229,1.375-0.391,2.335-0.521c0.977-0.121,2.229-0.187,3.728-0.187
		c1.505,0,2.75,0.065,3.73,0.187c0.956,0.131,1.749,0.293,2.331,0.521c0.606,0.211,1.025,0.479,1.253,0.797
		c0.249,0.31,0.375,0.667,0.375,1.058V643.626z M995.341,570.648c0,3.1-0.623,5.223-1.896,6.411
		c-1.27,1.188-3.601,1.773-7.042,1.773c-3.459,0-5.811-0.562-6.998-1.709c-1.205-1.146-1.814-3.205-1.814-6.167
		c0-3.1,0.626-5.247,1.879-6.451c1.229-1.188,3.581-1.798,7.06-1.798c3.417,0,5.749,0.586,6.978,1.749
		C994.734,565.604,995.341,567.671,995.341,570.648z M1075.643,605.282c0,6.541-0.814,12.391-2.441,17.557
		c-1.623,5.167-4.04,9.56-7.267,13.14c-3.21,3.604-7.185,6.354-11.917,8.25c-4.748,1.896-10.229,2.831-16.457,2.831
		c-6.144,0-11.498-0.813-16.059-2.417c-4.586-1.603-8.394-4.035-11.462-7.346c-3.039-3.296-5.329-7.485-6.852-12.563
		c-1.521-5.084-2.29-11.104-2.29-18.061c0-6.371,0.81-12.123,2.437-17.224c1.628-5.102,4.04-9.43,7.267-13.018
		c3.215-3.579,7.193-6.329,11.921-8.226c4.744-1.911,10.245-2.871,16.519-2.871c5.977,0,11.246,0.789,15.831,2.375
		c4.561,1.579,8.394,4.02,11.453,7.331c3.084,3.286,5.399,7.436,6.961,12.455C1074.849,592.533,1075.643,598.448,1075.643,605.282z
		 M1058.766,606.096c0-4.149-0.334-7.916-0.977-11.309c-0.646-3.4-1.749-6.313-3.312-8.729c-1.563-2.417-3.646-4.288-6.249-5.622
		c-2.604-1.31-5.855-1.977-9.749-1.977c-3.938,0-7.229,0.748-9.854,2.229c-2.645,1.473-4.793,3.475-6.421,5.956
		c-1.619,2.473-2.767,5.369-3.434,8.681c-0.667,3.336-1.001,6.834-1.001,10.544c0,4.304,0.334,8.185,0.977,11.618
		c0.651,3.433,1.754,6.37,3.296,8.827c1.538,2.44,3.604,4.295,6.208,5.581c2.604,1.277,5.875,1.92,9.81,1.92s7.23-0.725,9.854-2.205
		c2.645-1.456,4.788-3.458,6.416-5.979c1.623-2.522,2.767-5.459,3.434-8.812C1058.432,613.467,1058.766,609.887,1058.766,606.096z
		 M1130.401,621.985c0,4.165-0.769,7.785-2.315,10.934c-1.563,3.125-3.646,5.728-6.29,7.835c-2.665,2.083-5.744,3.661-9.288,4.727
		c-3.544,1.059-7.336,1.579-11.372,1.579c-2.733,0-5.248-0.229-7.608-0.684c-2.327-0.464-4.394-1.001-6.184-1.644
		c-1.79-0.626-3.292-1.294-4.5-2.001c-1.204-0.708-2.063-1.335-2.604-1.855c-0.521-0.545-0.896-1.31-1.123-2.311
		c-0.232-1.001-0.334-2.416-0.334-4.296c0-1.269,0.041-2.311,0.122-3.164c0.081-0.854,0.212-1.538,0.398-2.083
		c0.188-0.521,0.436-0.896,0.725-1.123c0.317-0.228,0.667-0.333,1.09-0.333c0.562,0,1.371,0.333,2.413,1.024
		c1.041,0.659,2.376,1.416,3.999,2.222c1.628,0.813,3.581,1.562,5.855,2.229c2.249,0.691,4.87,1.025,7.852,1.025
		c1.957,0,3.707-0.228,5.253-0.691c1.563-0.48,2.872-1.123,3.955-1.977c1.082-0.854,1.896-1.896,2.481-3.141
		c0.562-1.253,0.851-2.652,0.851-4.19c0-1.79-0.477-3.335-1.457-4.604c-0.98-1.294-2.25-2.416-3.836-3.417
		c-1.563-0.993-3.354-1.937-5.351-2.807c-1.981-0.879-4.04-1.79-6.164-2.774c-2.124-0.977-4.19-2.083-6.168-3.328
		c-2.002-1.229-3.792-2.709-5.354-4.441c-1.582-1.725-2.855-3.768-3.832-6.143c-0.977-2.352-1.457-5.183-1.457-8.478
		c0-3.767,0.708-7.103,2.104-9.975c1.396-2.855,3.292-5.224,5.668-7.119c2.392-1.896,5.184-3.311,8.413-4.255
		c3.23-0.936,6.665-1.391,10.29-1.391c1.852,0,3.73,0.146,5.603,0.439c1.88,0.268,3.625,0.667,5.248,1.139
		c1.628,0.504,3.067,1.05,4.337,1.651c1.245,0.618,2.084,1.123,2.498,1.538c0.399,0.398,0.668,0.748,0.814,1.024
		c0.146,0.285,0.269,0.659,0.374,1.14c0.105,0.464,0.163,1.041,0.208,1.773c0.044,0.708,0.061,1.586,0.061,2.644
		c0,1.164-0.017,2.165-0.081,2.979c-0.065,0.813-0.167,1.48-0.313,2.025c-0.143,0.521-0.354,0.911-0.606,1.139
		c-0.269,0.253-0.622,0.375-1.082,0.375c-0.436,0-1.147-0.293-2.124-0.854s-2.188-1.18-3.604-1.871
		c-1.433-0.667-3.084-1.27-4.956-1.814c-1.875-0.562-3.914-0.83-6.168-0.83c-1.749,0-3.271,0.212-4.581,0.643
		c-1.294,0.415-2.376,1.025-3.251,1.773c-0.874,0.749-1.542,1.644-1.957,2.71c-0.439,1.058-0.643,2.18-0.643,3.352
		c0,1.749,0.477,3.271,1.433,4.54c0.96,1.293,2.254,2.433,3.856,3.433c1.604,0.985,3.434,1.921,5.477,2.791
		c2.021,0.879,4.105,1.814,6.229,2.774c2.128,0.977,4.211,2.083,6.229,3.327c2.042,1.253,3.853,2.733,5.46,4.459
		c1.578,1.732,2.872,3.75,3.849,6.102C1129.921,616.07,1130.401,618.82,1130.401,621.985L1130.401,621.985z"/>
</g>
</svg>
