<?xml version="1.0" encoding="utf-8"?>
<!-- Generator: Adobe Illustrator 16.0.0, SVG Export Plug-In . SVG Version: 6.00 Build 0)  -->
<!DOCTYPE svg PUBLIC "-//W3C//DTD SVG 1.1//EN" "http://www.w3.org/Graphics/SVG/1.1/DTD/svg11.dtd">
<svg version="1.1" id="Layer_1" xmlns="http://www.w3.org/2000/svg" xmlns:xlink="http://www.w3.org/1999/xlink" x="0px" y="0px"
	 width="1920px" height="1080px" viewBox="0 0 1920 1080" enable-background="new 0 0 1920 1080" xml:space="preserve">
<g id="Layer_0">
	
		<radialGradient id="SVGID_1_" cx="1100.6504" cy="-48.2471" r="162.5596" gradientTransform="matrix(11.811 0 0 6.6437 -12039.7783 860.5371)" gradientUnits="userSpaceOnUse">
		<stop  offset="0" style="stop-color:#355873"/>
		<stop  offset="0.7098" style="stop-color:#00001A"/>
		<stop  offset="1" style="stop-color:#000000"/>
	</radialGradient>
	<rect fill="url(#SVGID_1_)" width="1920" height="1080"/>
	
		<linearGradient id="SVGID_2_" gradientUnits="userSpaceOnUse" x1="781.5684" y1="378.0928" x2="1796.2305" y2="378.0928" gradientTransform="matrix(1 0 0 -1 8.3398 1056.04)">
		<stop  offset="0" style="stop-color:#264054"/>
		<stop  offset="0.5719" style="stop-color:#000026"/>
		<stop  offset="1" style="stop-color:#000000"/>
	</linearGradient>
	<path fill="url(#SVGID_2_)" d="M1804.57,1080l-765.9-765.893l-3.857-4.054l-4.053-3.858l-4.232-3.667l-4.401-3.465l-4.572-3.251
		l-4.737-3.032l-4.882-2.811l-5.03-2.575l-5.166-2.335l-5.3-2.09l-5.42-1.833l-5.533-1.571l-5.64-1.3l-5.746-1.028l-5.834-0.741
		l-5.925-0.452l-6.002-0.149l-0.663,0.002l-0.66,0.004l-0.65,0.01l-0.655,0.012l-0.651,0.017l-0.646,0.019l-0.636,0.022
		l-0.635,0.023l-0.627,0.03l-0.618,0.031l-0.61,0.035l-0.603,0.036l-0.594,0.041l-0.579,0.043l-0.569,0.045l-0.558,0.049
		l-1.026,0.105l-0.979,0.333l-0.915,0.537l-0.814,0.717l-0.688,0.87l-0.521,1.001l-0.341,1.109l-0.115,1.189V293.3l-4.483,0.792
		l-4.411,0.989l-4.333,1.178l-4.252,1.367l-4.175,1.546l-4.077,1.726l-3.988,1.896l-3.886,2.065l-3.785,2.228l-3.674,2.388
		l-3.564,2.54l-3.441,2.688l-3.324,2.832l-3.195,2.973l-3.063,3.108l-2.926,3.235l-2.787,3.364l-2.642,3.483l-2.489,3.599
		l-2.336,3.71l-2.173,3.819l-2.01,3.92l-1.843,4.016l-1.668,4.11l-1.485,4.199l-1.31,4.281l-1.115,4.359l-0.927,4.434l-0.726,4.504
		l-0.528,4.566l-0.317,4.626l-0.104,4.685l0.13,5.166l0.39,5.098l0.635,5.023l0.888,4.945l1.119,4.856l1.351,4.765l1.583,4.664
		l1.794,4.56l2.01,4.446l2.218,4.328l2.418,4.205l2.612,4.074l2.799,3.937l2.979,3.793l3.158,3.642l3.319,3.487l3.491,3.323
		c162.329,145.891,109.123,98.227,109.195,98.307l-0.357-0.063l-0.268-0.195l-0.293-0.188l-0.327-0.17l-0.341-0.155l-0.374-0.146
		l-0.398-0.13l-0.423-0.114l-0.449-0.105l-0.479-0.086l-0.496-0.077l-0.529-0.057l-0.546-0.05l-0.577-0.037l-0.603-0.02
		l-0.636-0.009l-0.635,0.009l-0.609,0.02l-0.586,0.037l-0.563,0.05l-0.536,0.064l-0.505,0.072l-0.479,0.095l-0.456,0.104
		l-0.433,0.118l-0.397,0.135l-0.375,0.15l-0.351,0.154l-0.325,0.179l-0.291,0.188l-0.27,0.203l-0.244,0.212l-0.439,0.5l-0.383,0.583
		l-0.325,0.675l-0.261,0.766l-0.203,0.848l-0.146,0.943l-0.089,1.029l-0.032,1.119l0.032,1.065l0.081,0.984l0.146,0.895l0.194,0.814
		l0.252,0.731l0.31,0.645l0.374,0.557l0.425,0.477l9.668,9.668l-0.155-0.017l-0.456-0.024l-0.479-0.021l-0.506-0.012l-0.521-0.009
		l-0.554-0.009l-0.554,0.009l-0.521,0.009l-0.505,0.012l-0.479,0.021l-0.456,0.024l-0.431,0.033l-0.399,0.04l-0.383,0.041
		l-0.35,0.049l-0.342,0.057l-0.317,0.057l-0.301,0.062l-0.285,0.07l-0.261,0.069l-0.252,0.076l-0.229,0.081l-0.22,0.081
		l-0.195,0.089l-0.187,0.092l-0.164,0.098l-0.146,0.104l-0.131,0.105l-0.114,0.11l-0.098,0.112l-0.081,0.118l-0.081,0.122
		l-0.064,0.131l-0.05,0.13l-0.041,0.139l-0.031,0.14l-0.018,0.139l-0.008,0.146v16.879l-15.12-15.121l-0.7-0.688l-0.748-0.647
		l-0.798-0.602l-0.838-0.558l-0.879-0.519l-0.932-0.472l-0.485-0.229l-0.496-0.208l-0.513-0.19l-0.521-0.179l-0.537-0.168
		l-0.553-0.149l-0.565-0.139l-0.582-0.123l-0.591-0.104l-0.605-0.089l-0.619-0.081l-0.634-0.065l-0.651-0.05l-0.659-0.032
		l-0.675-0.023l-0.688-0.01l-0.631,0.014l-0.626,0.027l-0.628,0.051l-0.622,0.064l-0.622,0.089l-0.615,0.103l-0.614,0.126
		l-0.61,0.139l-0.603,0.163l-0.606,0.178l-0.598,0.205l-0.598,0.219l-0.595,0.236l-0.59,0.26l-0.586,0.273l-0.585,0.297
		l-0.586,0.313l-0.586,0.333l-0.578,0.35l-0.582,0.371l-0.582,0.391l-0.578,0.407l-0.573,0.423l-0.573,0.447l-0.578,0.464
		l-0.093,0.083l-27.268-27.272l-0.244-0.21l-0.27-0.195l-0.296-0.188l-0.321-0.17l-0.346-0.155l-0.37-0.146l-0.398-0.13
		l-0.424-0.114l-0.452-0.104l-0.476-0.087l-0.496-0.076l-0.529-0.058l-0.554-0.05l-0.578-0.037l-0.603-0.02l-0.626-0.009
		l-0.64,0.009l-0.613,0.02l-0.586,0.037l-0.559,0.05l-0.533,0.064l-0.508,0.072l-0.479,0.095l-0.456,0.104l-0.428,0.118
		l-0.402,0.135l-0.374,0.15l-0.351,0.154l-0.32,0.179l-0.297,0.188l-0.272,0.203l-0.245,0.212l-0.438,0.5l-0.378,0.583l-0.321,0.676
		l-0.265,0.765l-0.209,0.848l-0.146,0.943l-0.086,1.029l-0.028,1.12l0.024,1.064l0.09,0.984l0.138,0.895l0.199,0.814l0.257,0.731
		l0.31,0.645l0.37,0.557l0.423,0.478l9.668,9.668l-0.15-0.018l-0.456-0.023l-0.479-0.021l-0.505-0.012l-0.524-0.008l-0.55-0.01
		l-0.553,0.01l-0.529,0.008l-0.521,0.012l-18.57-18.543l-0.208-0.188l-0.225-0.179l-0.244-0.163l-0.252-0.154l-0.261-0.129
		l-0.28-0.123l-0.293-0.114l-0.305-0.099l-0.318-0.089l-0.33-0.075l-0.346-0.063l-0.357-0.049l-0.383-0.032l-0.391-0.021
		l-0.402-0.005H864.72l-0.553,0.005l-0.537,0.021l-0.521,0.032l-0.51,0.053l-0.491,0.063l-0.473,0.08l-0.456,0.094l-0.438,0.108
		l-0.415,0.128l-0.403,0.146l-0.391,0.166l-0.378,0.188l-0.366,0.201l-0.346,0.226l-0.339,0.243l-0.316,0.266l-0.31,0.284
		l-0.297,0.306l-0.289,0.325l-0.28,0.346l-0.272,0.37l-0.26,0.387l-0.252,0.407l-0.248,0.432l-0.232,0.456l-0.228,0.479
		l-0.229,0.505l-0.216,0.528l-0.216,0.555l-0.212,0.576l-0.203,0.603l-0.195,0.627l-8.65,23.045L815.503,570.1l-0.342-0.298
		l-0.354-0.276l-0.378-0.257l-0.392-0.24l-0.411-0.216l-0.427-0.198l-0.447-0.18l-0.464-0.163l-0.48-0.142l-0.5-0.127l-0.517-0.109
		l-0.538-0.094l-0.569-0.08l-0.59-0.063l-0.618-0.053l-0.643-0.032l-0.667-0.021l-0.691-0.004H795.97l-0.675,0.023l-0.639,0.073
		l-0.606,0.13l-0.569,0.179l-0.528,0.229l-0.497,0.283l-0.468,0.334l-0.428,0.392l-0.391,0.436l-0.334,0.483l-0.285,0.525
		l-0.231,0.573l-0.18,0.618l-0.126,0.666l-0.077,0.709l-0.027,0.757v70.395l0.008,0.15l0.017,0.143l0.024,0.147l0.032,0.138
		l0.049,0.138l0.057,0.135l0.065,0.128l0.082,0.129l0.098,0.113l0.11,0.114l434.313,434.31"/>
	<g>
		<path fill="#CFDCE5" d="M937.001,293.192c-48.156,7.389-85.038,49.001-85.038,99.227c0,55.447,44.946,100.396,100.396,100.396
			c50.617,0,92.479-37.46,99.389-86.166h11.053c3.263,0,5.899-2.646,5.867-5.467c0.203-2.562,0.325-5.647,0.325-8.764
			c0-64.415-52.223-116.634-116.635-116.634c-3.523,0-7.015,0.157-9.953,0.419c-2.759-0.043-5.403,2.603-5.403,5.863V293.192
			L937.001,293.192z M973.64,375.94c-3.256,0-5.9-2.646-5.9-5.906l-0.017-61.87c34.596,6.263,61.963,33.327,68.679,67.776H973.64z
			 M937.001,392.419c0,7.858,6.373,14.229,14.229,14.229h69.056c-6.56,31.499-34.479,55.16-67.928,55.16
			c-38.326,0-69.394-31.065-69.394-69.391c0-33.046,23.104-60.7,54.036-67.686V392.419L937.001,392.419z M937.001,392.419v-67.686
			V392.419z M937.001,293.192v-11.125V293.192z M937.001,392.419v-67.686V392.419z M937.001,293.192v-11.125V293.192z"/>
		<path id="_1" fill="none" stroke="#FEFEFE" stroke-width="0.0762" stroke-miterlimit="22.9256" d="M937.001,293.192
			c-48.156,7.389-85.038,49.001-85.038,99.227c0,55.447,44.946,100.396,100.396,100.396c50.617,0,92.479-37.46,99.389-86.166h11.053
			c3.263,0,5.899-2.646,5.867-5.467c0.203-2.562,0.325-5.647,0.325-8.764c0-64.415-52.223-116.634-116.635-116.634
			c-3.523,0-7.015,0.157-9.953,0.419c-2.759-0.043-5.403,2.603-5.403,5.863 M973.64,375.94c-3.256,0-5.9-2.646-5.9-5.906
			l-0.017-61.87c34.596,6.263,61.963,33.327,68.679,67.776H973.64z M937.001,392.419c0,7.858,6.373,14.229,14.229,14.229h69.056
			c-6.56,31.499-34.479,55.16-67.928,55.16c-38.326,0-69.394-31.065-69.394-69.391c0-33.046,23.104-60.7,54.036-67.686
			 M937.001,392.419v-67.686 M937.001,293.192v-11.125 M937.001,392.419v-67.686 M937.001,293.192v-11.125"/>
	</g>
	<path fill="#B8CED8" d="M881.598,643.681c0,0.397-0.102,0.771-0.333,1.106c-0.228,0.313-0.643,0.586-1.229,0.788
		c-0.578,0.188-1.375,0.357-2.354,0.479c-0.976,0.127-2.229,0.188-3.727,0.188c-1.481,0-2.71-0.062-3.688-0.188
		c-0.983-0.122-1.753-0.292-2.335-0.479c-0.562-0.202-0.979-0.477-1.208-0.788c-0.249-0.335-0.375-0.709-0.375-1.106v-64.309h-0.126
		l-22.811,64.25c-0.171,0.521-0.416,0.956-0.793,1.312c-0.375,0.354-0.855,0.626-1.501,0.83c-0.623,0.189-1.437,0.333-2.394,0.398
		c-0.979,0.064-2.169,0.081-3.539,0.081c-1.4,0-2.563-0.041-3.545-0.146c-0.979-0.103-1.794-0.269-2.417-0.496
		c-0.622-0.228-1.127-0.501-1.501-0.813c-0.354-0.335-0.602-0.729-0.729-1.165l-22.018-64.25h-0.13v64.309
		c0,0.397-0.102,0.771-0.329,1.106c-0.231,0.313-0.646,0.586-1.248,0.788c-0.628,0.188-1.418,0.357-2.378,0.479
		c-0.96,0.127-2.188,0.188-3.687,0.188c-1.48,0-2.71-0.062-3.69-0.188c-0.98-0.122-1.77-0.292-2.354-0.479
		c-0.579-0.202-0.997-0.477-1.229-0.788c-0.228-0.335-0.334-0.709-0.334-1.106v-70.396c0-2.084,0.545-3.662,1.652-4.77
		c1.099-1.106,2.56-1.645,4.411-1.645h10.502c1.876,0,3.5,0.146,4.834,0.456c1.354,0.313,2.519,0.813,3.5,1.521
		c0.956,0.709,1.794,1.645,2.437,2.812c0.647,1.169,1.229,2.604,1.709,4.311l17.021,47.063h0.249l17.626-46.957
		c0.521-1.709,1.106-3.142,1.729-4.328c0.647-1.173,1.376-2.125,2.21-2.857c0.83-0.728,1.831-1.248,2.954-1.563
		c1.147-0.31,2.481-0.456,3.979-0.456h10.836c1.103,0,2.038,0.146,2.832,0.437c0.793,0.271,1.46,0.688,1.957,1.249
		c0.521,0.546,0.898,1.208,1.167,2.002c0.271,0.79,0.395,1.71,0.395,2.727L881.598,643.681L881.598,643.681z M907.701,643.811
		c0,0.391-0.126,0.748-0.375,1.059c-0.232,0.316-0.647,0.564-1.25,0.771c-0.585,0.188-1.375,0.354-2.335,0.456
		c-0.978,0.105-2.229,0.146-3.729,0.146c-1.501,0-2.75-0.041-3.73-0.146c-0.956-0.103-1.75-0.269-2.331-0.456
		c-0.606-0.207-1.022-0.455-1.253-0.771c-0.249-0.311-0.374-0.668-0.374-1.059v-54.378c0-0.396,0.125-0.749,0.374-1.06
		c0.23-0.316,0.646-0.586,1.253-0.797c0.582-0.229,1.375-0.391,2.331-0.521c0.98-0.122,2.229-0.187,3.73-0.187
		c1.498,0,2.751,0.063,3.729,0.187c0.96,0.132,1.75,0.294,2.335,0.521c0.603,0.211,1.018,0.479,1.25,0.797
		c0.248,0.311,0.375,0.663,0.375,1.06V643.811z M908.951,570.807c0,3.104-0.627,5.229-1.897,6.419
		c-1.27,1.188-3.604,1.773-7.039,1.773c-3.459,0-5.813-0.565-6.999-1.71c-1.212-1.147-1.813-3.21-1.813-6.169
		c0-3.104,0.626-5.249,1.876-6.457c1.229-1.188,3.584-1.794,7.06-1.794c3.418,0,5.753,0.585,6.983,1.749
		C908.348,565.766,908.951,567.829,908.951,570.807L908.951,570.807z M969.383,643.811c0,0.391-0.121,0.748-0.374,1.059
		c-0.228,0.316-0.644,0.564-1.204,0.771c-0.586,0.188-1.376,0.354-2.377,0.456c-1.001,0.105-2.229,0.146-3.689,0.146
		c-1.52,0-2.771-0.041-3.771-0.146c-0.997-0.103-1.791-0.269-2.373-0.456c-0.564-0.207-0.979-0.455-1.208-0.771
		c-0.252-0.311-0.375-0.668-0.375-1.059v-31.063c0-2.646-0.187-4.73-0.585-6.231c-0.375-1.52-0.937-2.81-1.669-3.875
		c-0.724-1.082-1.685-1.911-2.832-2.522c-1.164-0.578-2.498-0.871-4.04-0.871c-1.958,0-3.919,0.708-5.917,2.146
		c-1.981,1.42-4.064,3.504-6.209,6.209v36.211c0,0.391-0.126,0.748-0.375,1.059c-0.228,0.316-0.646,0.564-1.249,0.771
		c-0.586,0.188-1.375,0.354-2.335,0.456c-0.977,0.105-2.226,0.146-3.727,0.146c-1.498,0-2.75-0.041-3.728-0.146
		c-0.96-0.103-1.75-0.269-2.336-0.456c-0.602-0.207-1.021-0.455-1.249-0.771c-0.249-0.311-0.374-0.668-0.374-1.059v-54.501
		c0-0.396,0.102-0.748,0.313-1.065c0.188-0.311,0.562-0.562,1.083-0.771c0.542-0.186,1.208-0.354,2.043-0.459
		c0.83-0.102,1.896-0.146,3.141-0.146c1.314,0,2.376,0.045,3.231,0.146c0.854,0.105,1.521,0.273,2.001,0.459
		c0.457,0.209,0.79,0.46,1.001,0.771c0.203,0.317,0.309,0.669,0.309,1.065v6.291c3.003-3.247,6.063-5.668,9.188-7.292
		c3.104-1.627,6.355-2.438,9.729-2.438c3.707,0,6.832,0.606,9.375,1.837c2.543,1.204,4.585,2.872,6.173,4.976
		c1.563,2.084,2.686,4.546,3.368,7.354c0.692,2.816,1.042,6.188,1.042,10.125L969.383,643.811L969.383,643.811z M994.196,643.811
		c0,0.391-0.131,0.748-0.375,1.059c-0.229,0.316-0.65,0.564-1.254,0.771c-0.585,0.188-1.375,0.354-2.335,0.456
		c-0.977,0.105-2.222,0.146-3.729,0.146c-1.497,0-2.75-0.041-3.727-0.146c-0.961-0.103-1.75-0.269-2.336-0.456
		c-0.603-0.207-1.019-0.455-1.245-0.771c-0.252-0.311-0.384-0.668-0.384-1.059v-54.378c0-0.396,0.132-0.749,0.384-1.06
		c0.228-0.316,0.644-0.586,1.245-0.797c0.586-0.229,1.375-0.391,2.336-0.521c0.977-0.122,2.229-0.187,3.727-0.187
		c1.507,0,2.752,0.063,3.729,0.187c0.96,0.132,1.75,0.294,2.335,0.521c0.604,0.211,1.025,0.479,1.254,0.797
		c0.244,0.311,0.375,0.663,0.375,1.06V643.811z M995.44,570.807c0,3.104-0.618,5.229-1.896,6.419
		c-1.271,1.188-3.597,1.773-7.04,1.773c-3.458,0-5.811-0.565-6.999-1.71c-1.203-1.147-1.813-3.21-1.813-6.169
		c0-3.104,0.628-5.249,1.88-6.457c1.229-1.188,3.581-1.794,7.057-1.794c3.417,0,5.753,0.585,6.981,1.749
		C994.84,565.766,995.44,567.829,995.44,570.807L995.44,570.807z M1075.755,605.456c0,6.543-0.813,12.396-2.442,17.563
		c-1.627,5.168-4.043,9.562-7.266,13.143c-3.215,3.604-7.187,6.355-11.923,8.252c-4.744,1.897-10.229,2.833-16.456,2.833
		c-6.145,0-11.499-0.813-16.063-2.417c-4.584-1.604-8.392-4.041-11.459-7.354c-3.044-3.292-5.331-7.482-6.854-12.563
		c-1.521-5.086-2.294-11.107-2.294-18.065c0-6.372,0.813-12.126,2.44-17.229s4.036-9.433,7.268-13.021
		c3.214-3.581,7.193-6.331,11.922-8.229c4.745-1.916,10.246-2.872,16.52-2.872c5.975,0,11.248,0.789,15.829,2.376
		c4.565,1.578,8.398,4.021,11.459,7.332c3.084,3.288,5.396,7.439,6.957,12.46C1074.957,592.703,1075.755,598.62,1075.755,605.456z
		 M1058.877,606.27c0-4.15-0.335-7.919-0.979-11.315c-0.648-3.398-1.748-6.312-3.313-8.728c-1.561-2.419-3.646-4.294-6.249-5.624
		c-2.604-1.315-5.858-1.979-9.749-1.979c-3.938,0-7.234,0.749-9.854,2.228c-2.646,1.477-4.795,3.478-6.423,5.961
		c-1.628,2.474-2.767,5.371-3.435,8.684c-0.667,3.336-1.001,6.836-1.001,10.544c0,4.309,0.334,8.187,0.977,11.623
		c0.651,3.436,1.75,6.373,3.296,8.831c1.539,2.44,3.605,4.297,6.211,5.582c2.604,1.273,5.875,1.921,9.807,1.921
		c3.938,0,7.234-0.729,9.854-2.209c2.646-1.457,4.793-3.46,6.422-5.979c1.618-2.522,2.768-5.46,3.434-8.813
		C1058.542,613.643,1058.877,610.058,1058.877,606.27z M1130.516,622.162c0,4.168-0.765,7.789-2.312,10.938
		c-1.563,3.125-3.646,5.729-6.291,7.833c-2.669,2.084-5.745,3.666-9.294,4.729c-3.54,1.063-7.331,1.583-11.368,1.583
		c-2.734,0-5.248-0.229-7.608-0.688c-2.336-0.46-4.396-0.997-6.186-1.645c-1.79-0.622-3.296-1.29-4.499-1.998
		c-1.214-0.711-2.068-1.335-2.604-1.854c-0.521-0.545-0.896-1.314-1.125-2.313c-0.234-1.001-0.332-2.416-0.332-4.296
		c0-1.27,0.04-2.312,0.121-3.166c0.082-0.854,0.211-1.538,0.399-2.083c0.188-0.521,0.431-0.896,0.725-1.124
		c0.317-0.228,0.667-0.333,1.082-0.333c0.57,0,1.375,0.333,2.417,1.021c1.041,0.662,2.376,1.416,4.004,2.226
		c1.627,0.814,3.581,1.563,5.852,2.229c2.254,0.69,4.876,1.024,7.854,1.024c1.961,0,3.711-0.229,5.257-0.69
		c1.563-0.48,2.873-1.123,3.955-1.979c1.084-0.854,1.896-1.896,2.482-3.146c0.563-1.247,0.847-2.648,0.847-4.188
		c0-1.79-0.473-3.336-1.457-4.604c-0.976-1.294-2.246-2.418-3.833-3.418c-1.563-0.997-3.353-1.938-5.354-2.809
		c-1.979-0.879-4.036-1.794-6.16-2.773c-2.124-0.978-4.19-2.084-6.169-3.33c-2.002-1.232-3.793-2.71-5.354-4.442
		c-1.587-1.726-2.856-3.769-3.833-6.144c-0.978-2.354-1.457-5.187-1.457-8.48c0-3.769,0.708-7.104,2.101-9.978
		c1.398-2.855,3.296-5.229,5.672-7.125c2.393-1.896,5.184-3.313,8.415-4.252c3.229-0.937,6.665-1.393,10.286-1.393
		c1.854,0,3.734,0.146,5.605,0.437c1.881,0.271,3.622,0.667,5.25,1.144c1.628,0.504,3.069,1.045,4.337,1.648
		c1.245,0.621,2.085,1.126,2.499,1.541c0.398,0.398,0.667,0.749,0.813,1.021c0.146,0.289,0.269,0.663,0.374,1.144
		c0.105,0.46,0.163,1.042,0.204,1.774c0.049,0.709,0.063,1.582,0.063,2.646c0,1.164-0.016,2.165-0.081,2.978
		c-0.064,0.814-0.171,1.482-0.316,2.023c-0.14,0.521-0.351,0.915-0.604,1.143c-0.269,0.252-0.626,0.374-1.082,0.374
		c-0.438,0-1.146-0.291-2.124-0.854c-0.976-0.563-2.188-1.186-3.604-1.872c-1.439-0.667-3.083-1.271-4.955-1.814
		c-1.88-0.562-3.914-0.83-6.17-0.83c-1.749,0-3.271,0.207-4.58,0.644c-1.295,0.416-2.377,1.024-3.256,1.773
		c-0.871,0.749-1.539,1.645-1.954,2.706c-0.438,1.063-0.643,2.187-0.643,3.356c0,1.75,0.473,3.271,1.433,4.542
		c0.96,1.289,2.255,2.434,3.857,3.434c1.604,0.98,3.435,1.916,5.477,2.791c2.02,0.88,4.103,1.815,6.227,2.771
		c2.131,0.979,4.215,2.088,6.233,3.334c2.043,1.252,3.85,2.729,5.46,4.459c1.579,1.729,2.874,3.752,3.85,6.104
		C1130.035,616.247,1130.516,618.998,1130.516,622.162L1130.516,622.162z"/>
</g>
</svg>
