<?xml version="1.0" encoding="utf-8"?>
<!-- Generator: Adobe Illustrator 16.0.0, SVG Export Plug-In . SVG Version: 6.00 Build 0)  -->
<!DOCTYPE svg PUBLIC "-//W3C//DTD SVG 1.1//EN" "http://www.w3.org/Graphics/SVG/1.1/DTD/svg11.dtd">
<svg version="1.1" id="Layer_1" xmlns="http://www.w3.org/2000/svg" xmlns:xlink="http://www.w3.org/1999/xlink" x="0px" y="0px"
	 width="1920px" height="1080px" viewBox="0 0 1920 1080" enable-background="new 0 0 1920 1080" xml:space="preserve">
<g id="Layer_0">
	
		<radialGradient id="SVGID_1_" cx="502.2705" cy="966.752" r="162.5596" gradientTransform="matrix(11.811 0 0 -6.6437 -4972.3169 6962.8237)" gradientUnits="userSpaceOnUse">
		<stop  offset="0" style="stop-color:#737373"/>
		<stop  offset="0.7098" style="stop-color:#1A1A1A"/>
		<stop  offset="1" style="stop-color:#000000"/>
	</radialGradient>
	<rect y="0.018" fill="url(#SVGID_1_)" width="1920" height="1080"/>
	
		<linearGradient id="SVGID_2_" gradientUnits="userSpaceOnUse" x1="721.0396" y1="740.3125" x2="1057.7323" y2="740.3125" gradientTransform="matrix(2.8346 0 0 -2.8346 -1193.6833 2776.4541)">
		<stop  offset="0" style="stop-color:#4D4D4D"/>
		<stop  offset="0.251" style="stop-color:#333333"/>
		<stop  offset="1" style="stop-color:#000000"/>
	</linearGradient>
	<path fill="url(#SVGID_2_)" d="M1804.57,1080.018l-765.9-765.893l-3.857-4.053l-4.053-3.859l-4.232-3.667l-4.402-3.465
		l-4.572-3.251l-4.737-3.032l-4.882-2.81l-5.03-2.576l-5.167-2.335l-5.299-2.089l-5.42-1.833l-5.533-1.572l-5.64-1.3l-5.746-1.028
		l-5.834-0.741l-5.925-0.452l-6.002-0.15l-0.663,0.002l-0.66,0.004l-0.651,0.01l-0.655,0.012l-0.651,0.016l-0.646,0.019
		l-0.635,0.022l-0.635,0.024l-0.627,0.03l-0.618,0.031l-0.611,0.035l-0.602,0.037l-0.594,0.041l-0.579,0.043l-0.569,0.044
		l-0.558,0.049l-1.026,0.106l-0.98,0.333l-0.915,0.537l-0.814,0.717l-0.688,0.87l-0.521,1.001l-0.341,1.109l-0.115,1.19v11.124
		l-4.484,0.792l-4.411,0.989l-4.333,1.178l-4.252,1.367l-4.175,1.546l-4.077,1.725l-3.988,1.896l-3.886,2.065l-3.785,2.228
		l-3.674,2.387l-3.564,2.541l-3.442,2.688l-3.324,2.832l-3.195,2.973l-3.063,3.108l-2.926,3.235l-2.787,3.365l-2.641,3.483
		l-2.49,3.599l-2.335,3.71l-2.173,3.819l-2.01,3.92l-1.843,4.016l-1.668,4.11l-1.485,4.199l-1.31,4.281l-1.115,4.36l-0.927,4.433
		l-0.725,4.504l-0.529,4.567l-0.317,4.626l-0.105,4.684l0.13,5.166l0.39,5.098l0.635,5.023l0.887,4.946l1.119,4.856l1.351,4.765
		l1.583,4.664l1.794,4.559l2.01,4.447l2.218,4.328l2.417,4.205l2.613,4.074l2.799,3.936l2.979,3.793l3.158,3.642l3.32,3.487
		l3.491,3.324c162.329,145.89,109.123,98.226,109.195,98.306l-0.357-0.063l-0.268-0.196l-0.293-0.188l-0.327-0.17l-0.341-0.155
		l-0.374-0.146l-0.398-0.13l-0.423-0.114l-0.449-0.105l-0.479-0.086l-0.496-0.077l-0.529-0.057l-0.546-0.05l-0.577-0.037
		l-0.603-0.02l-0.635-0.008l-0.635,0.008l-0.61,0.02l-0.586,0.037l-0.562,0.05l-0.536,0.064l-0.505,0.073l-0.48,0.094l-0.456,0.105
		l-0.432,0.118l-0.398,0.135l-0.375,0.15l-0.35,0.154l-0.325,0.179l-0.292,0.188l-0.269,0.203l-0.244,0.212l-0.44,0.5l-0.382,0.583
		l-0.326,0.675l-0.26,0.765l-0.203,0.848l-0.147,0.943l-0.089,1.029l-0.032,1.12l0.032,1.065l0.081,0.984l0.147,0.895l0.194,0.814
		l0.252,0.732l0.31,0.644l0.374,0.557l0.424,0.477l9.668,9.668l-0.155-0.017l-0.456-0.024l-0.479-0.021l-0.505-0.012l-0.521-0.008
		l-0.554-0.009l-0.553,0.009l-0.521,0.008l-0.505,0.012l-0.479,0.021l-0.456,0.024l-0.431,0.033l-0.399,0.04l-0.383,0.041
		l-0.35,0.049l-0.342,0.057l-0.317,0.056l-0.301,0.062l-0.285,0.07l-0.261,0.069l-0.252,0.077l-0.228,0.081l-0.22,0.081
		l-0.195,0.089l-0.187,0.091l-0.164,0.098l-0.146,0.105l-0.131,0.105l-0.114,0.11l-0.098,0.113l-0.081,0.118l-0.081,0.122
		l-0.065,0.131l-0.049,0.13l-0.041,0.138l-0.032,0.14l-0.017,0.139l-0.008,0.146v16.879l-15.12-15.121l-0.7-0.688l-0.748-0.647
		l-0.798-0.602l-0.838-0.557l-0.879-0.519l-0.932-0.472l-0.485-0.228l-0.496-0.208l-0.513-0.19l-0.521-0.179l-0.537-0.168
		l-0.553-0.149l-0.566-0.139l-0.582-0.123l-0.59-0.105l-0.606-0.089l-0.619-0.081l-0.634-0.065l-0.651-0.05l-0.659-0.032
		l-0.675-0.024l-0.688-0.009l-0.631,0.013l-0.626,0.028l-0.627,0.05l-0.623,0.065l-0.622,0.089l-0.615,0.102l-0.614,0.126
		l-0.61,0.139l-0.603,0.163l-0.606,0.178l-0.598,0.205l-0.598,0.219l-0.594,0.236l-0.59,0.26l-0.586,0.273l-0.585,0.297
		l-0.586,0.313l-0.586,0.333l-0.578,0.35l-0.582,0.371l-0.582,0.391l-0.578,0.407l-0.574,0.423l-0.573,0.447l-0.578,0.464
		l-0.093,0.083l-27.267-27.272l-0.244-0.21l-0.27-0.196l-0.296-0.188l-0.321-0.17l-0.346-0.155l-0.37-0.146l-0.398-0.13
		l-0.424-0.114l-0.452-0.105l-0.476-0.086l-0.496-0.077l-0.529-0.057l-0.554-0.05l-0.578-0.037l-0.603-0.02l-0.626-0.008
		l-0.639,0.008l-0.614,0.02l-0.586,0.037l-0.558,0.05l-0.533,0.064l-0.508,0.073l-0.48,0.094l-0.456,0.105l-0.427,0.118
		l-0.403,0.135l-0.374,0.15l-0.35,0.154l-0.321,0.179l-0.297,0.188l-0.272,0.203l-0.245,0.212l-0.439,0.5l-0.378,0.583l-0.321,0.675
		l-0.265,0.765l-0.208,0.848l-0.146,0.943l-0.086,1.029l-0.028,1.12l0.024,1.065l0.09,0.984l0.138,0.895l0.199,0.814l0.257,0.732
		l0.309,0.644l0.37,0.557l0.423,0.477l9.668,9.668l-0.15-0.017l-0.456-0.024l-0.48-0.021l-0.505-0.012l-0.524-0.008l-0.55-0.009
		l-0.553,0.009l-0.529,0.008l-0.521,0.012l-18.571-18.543l-0.208-0.188l-0.224-0.178l-0.244-0.163l-0.252-0.155l-0.261-0.129
		l-0.28-0.123l-0.293-0.114l-0.305-0.098l-0.318-0.089l-0.33-0.076l-0.346-0.063l-0.358-0.049l-0.382-0.032l-0.391-0.021
		l-0.402-0.004H864.72l-0.553,0.004l-0.537,0.021l-0.521,0.032l-0.509,0.053l-0.492,0.063l-0.472,0.08l-0.456,0.094l-0.439,0.109
		l-0.415,0.127l-0.403,0.146l-0.391,0.166l-0.378,0.188l-0.366,0.202l-0.346,0.225l-0.338,0.243l-0.317,0.266l-0.309,0.284
		l-0.297,0.306l-0.289,0.325l-0.281,0.346l-0.272,0.37l-0.26,0.387l-0.252,0.407l-0.248,0.431l-0.232,0.456l-0.228,0.48
		l-0.228,0.505l-0.216,0.528l-0.216,0.555l-0.212,0.576l-0.203,0.603l-0.195,0.627l-8.651,23.044l-29.695-29.696l-0.342-0.298
		l-0.354-0.276l-0.378-0.257l-0.392-0.24l-0.411-0.216l-0.427-0.198l-0.447-0.18l-0.464-0.163l-0.48-0.142l-0.5-0.127l-0.517-0.109
		l-0.538-0.094l-0.569-0.08l-0.59-0.063l-0.618-0.053l-0.643-0.032l-0.667-0.021l-0.691-0.004H795.97l-0.675,0.024l-0.639,0.073
		l-0.606,0.13l-0.57,0.179l-0.528,0.229l-0.497,0.283l-0.468,0.334l-0.427,0.392l-0.391,0.435l-0.334,0.484l-0.285,0.525
		l-0.232,0.573l-0.179,0.619l-0.126,0.666l-0.077,0.709l-0.028,0.756v70.395l0.008,0.15l0.017,0.143l0.024,0.147l0.032,0.138
		l0.049,0.138l0.057,0.135l0.065,0.127l0.082,0.129l0.098,0.114l0.11,0.114l434.313,434.31"/>
	<g>
		<path fill="#B2B2B2" d="M937.001,293.21c-48.156,7.389-85.038,49.001-85.038,99.227c0,55.447,44.946,100.396,100.395,100.396
			c50.618,0,92.479-37.46,99.389-86.166h11.053c3.263,0,5.899-2.645,5.867-5.467c0.203-2.561,0.325-5.647,0.325-8.763
			c0-64.415-52.222-116.634-116.634-116.634c-3.524,0-7.015,0.157-9.953,0.419c-2.759-0.043-5.404,2.602-5.404,5.863V293.21
			L937.001,293.21z M973.64,375.958c-3.256,0-5.901-2.645-5.901-5.906l-0.016-61.87c34.595,6.263,61.963,33.327,68.678,67.776
			H973.64z M937.001,392.437c0,7.858,6.373,14.229,14.23,14.229h69.055c-6.559,31.499-34.479,55.16-67.928,55.16
			c-38.326,0-69.393-31.065-69.393-69.39c0-33.046,23.104-60.7,54.036-67.686V392.437L937.001,392.437z M937.001,392.437v-67.686
			V392.437z M937.001,293.21v-11.125V293.21z M937.001,392.437v-67.686V392.437z M937.001,293.21v-11.125V293.21z"/>
		<path id="_1" fill="none" stroke="#FEFEFE" stroke-width="0.0762" stroke-miterlimit="22.9256" d="M937.001,293.21
			c-48.156,7.389-85.038,49.001-85.038,99.227c0,55.447,44.946,100.396,100.395,100.396c50.618,0,92.479-37.46,99.389-86.166h11.053
			c3.263,0,5.899-2.645,5.867-5.467c0.203-2.561,0.325-5.647,0.325-8.763c0-64.415-52.222-116.634-116.634-116.634
			c-3.524,0-7.015,0.157-9.953,0.419c-2.759-0.043-5.404,2.602-5.404,5.863 M973.64,375.958c-3.256,0-5.901-2.645-5.901-5.906
			l-0.016-61.87c34.595,6.263,61.963,33.327,68.678,67.776H973.64z M937.001,392.437c0,7.858,6.373,14.229,14.23,14.229h69.055
			c-6.559,31.499-34.479,55.16-67.928,55.16c-38.326,0-69.393-31.065-69.393-69.39c0-33.046,23.104-60.7,54.036-67.686
			 M937.001,392.437v-67.686 M937.001,293.21v-11.125 M937.001,392.437v-67.686 M937.001,293.21v-11.125"/>
	</g>
	<path fill="#B2B2B2" d="M881.598,643.698c0,0.398-0.102,0.772-0.333,1.107c-0.228,0.312-0.643,0.586-1.229,0.788
		c-0.578,0.188-1.375,0.357-2.353,0.479c-0.976,0.127-2.229,0.188-3.727,0.188c-1.481,0-2.71-0.062-3.687-0.188
		c-0.984-0.122-1.753-0.292-2.335-0.479c-0.562-0.202-0.98-0.477-1.208-0.788c-0.249-0.335-0.375-0.709-0.375-1.107v-64.308h-0.126
		l-22.811,64.25c-0.171,0.521-0.416,0.956-0.793,1.311c-0.375,0.354-0.855,0.626-1.501,0.83c-0.623,0.19-1.436,0.333-2.393,0.399
		c-0.98,0.064-2.169,0.081-3.54,0.081c-1.4,0-2.563-0.041-3.544-0.147c-0.98-0.102-1.794-0.268-2.417-0.496
		c-0.623-0.227-1.127-0.501-1.501-0.813c-0.354-0.335-0.602-0.729-0.729-1.165l-22.017-64.25h-0.13v64.308
		c0,0.398-0.102,0.772-0.329,1.107c-0.232,0.312-0.647,0.586-1.249,0.788c-0.627,0.188-1.417,0.357-2.377,0.479
		c-0.96,0.127-2.189,0.188-3.687,0.188c-1.48,0-2.71-0.062-3.69-0.188c-0.981-0.122-1.77-0.292-2.355-0.479
		c-0.579-0.202-0.997-0.477-1.229-0.788c-0.228-0.335-0.334-0.709-0.334-1.107v-70.395c0-2.084,0.545-3.662,1.652-4.77
		c1.099-1.106,2.56-1.644,4.411-1.644h10.502c1.876,0,3.5,0.146,4.834,0.456c1.355,0.313,2.519,0.813,3.5,1.521
		c0.956,0.709,1.794,1.645,2.437,2.812c0.647,1.169,1.229,2.604,1.709,4.31l17.021,47.063h0.249l17.626-46.957
		c0.521-1.709,1.107-3.142,1.729-4.328c0.647-1.173,1.376-2.125,2.21-2.858c0.83-0.727,1.831-1.248,2.954-1.562
		c1.147-0.31,2.481-0.456,3.979-0.456h10.836c1.103,0,2.038,0.146,2.832,0.436c0.793,0.272,1.46,0.688,1.957,1.249
		c0.521,0.546,0.899,1.208,1.167,2.002c0.272,0.79,0.395,1.71,0.395,2.727V643.698L881.598,643.698z M907.701,643.828
		c0,0.391-0.126,0.748-0.375,1.059c-0.232,0.316-0.647,0.564-1.25,0.771c-0.585,0.188-1.375,0.354-2.335,0.456
		c-0.977,0.106-2.229,0.147-3.728,0.147c-1.501,0-2.75-0.041-3.731-0.147c-0.956-0.102-1.75-0.268-2.331-0.456
		c-0.606-0.207-1.022-0.455-1.253-0.771c-0.249-0.311-0.374-0.668-0.374-1.059V589.45c0-0.396,0.125-0.749,0.374-1.059
		c0.231-0.317,0.647-0.586,1.253-0.797c0.582-0.229,1.375-0.391,2.331-0.522c0.981-0.122,2.23-0.186,3.731-0.186
		c1.498,0,2.751,0.063,3.728,0.186c0.96,0.132,1.75,0.294,2.335,0.522c0.603,0.211,1.018,0.479,1.25,0.797
		c0.248,0.31,0.375,0.663,0.375,1.059V643.828z M908.951,570.824c0,3.105-0.627,5.229-1.897,6.419
		c-1.27,1.188-3.605,1.774-7.039,1.774c-3.459,0-5.814-0.566-6.999-1.71c-1.212-1.148-1.814-3.21-1.814-6.169
		c0-3.104,0.626-5.249,1.876-6.457c1.229-1.188,3.584-1.794,7.06-1.794c3.418,0,5.753,0.585,6.983,1.749
		C908.348,565.783,908.951,567.847,908.951,570.824L908.951,570.824z M969.383,643.828c0,0.391-0.121,0.748-0.374,1.059
		c-0.228,0.316-0.644,0.564-1.204,0.771c-0.586,0.188-1.376,0.354-2.377,0.456c-1.001,0.106-2.229,0.147-3.69,0.147
		c-1.519,0-2.771-0.041-3.771-0.147c-0.997-0.102-1.791-0.268-2.373-0.456c-0.565-0.207-0.98-0.455-1.208-0.771
		c-0.252-0.311-0.375-0.668-0.375-1.059v-31.063c0-2.647-0.187-4.731-0.585-6.232c-0.375-1.519-0.937-2.809-1.669-3.875
		c-0.724-1.082-1.685-1.911-2.832-2.522c-1.164-0.578-2.498-0.871-4.04-0.871c-1.958,0-3.919,0.708-5.917,2.145
		c-1.982,1.42-4.065,3.504-6.209,6.209v36.211c0,0.391-0.126,0.748-0.375,1.059c-0.228,0.316-0.646,0.564-1.249,0.771
		c-0.586,0.188-1.375,0.354-2.335,0.456c-0.977,0.106-2.226,0.147-3.727,0.147c-1.498,0-2.75-0.041-3.727-0.147
		c-0.96-0.102-1.75-0.268-2.336-0.456c-0.602-0.207-1.021-0.455-1.249-0.771c-0.249-0.311-0.374-0.668-0.374-1.059v-54.501
		c0-0.397,0.101-0.748,0.313-1.065c0.188-0.311,0.562-0.562,1.083-0.771c0.542-0.186,1.208-0.353,2.043-0.459
		c0.83-0.102,1.896-0.146,3.141-0.146c1.314,0,2.376,0.044,3.231,0.146c0.854,0.106,1.521,0.273,2.001,0.459
		c0.457,0.209,0.79,0.46,1.001,0.771c0.203,0.317,0.309,0.668,0.309,1.065v6.291c3.003-3.247,6.063-5.668,9.188-7.292
		c3.105-1.627,6.356-2.438,9.729-2.438c3.707,0,6.832,0.606,9.375,1.836c2.543,1.205,4.585,2.872,6.173,4.976
		c1.562,2.084,2.685,4.546,3.368,7.353c0.692,2.817,1.042,6.189,1.042,10.125V643.828L969.383,643.828z M994.196,643.828
		c0,0.391-0.131,0.748-0.375,1.059c-0.228,0.316-0.65,0.564-1.254,0.771c-0.585,0.188-1.375,0.354-2.335,0.456
		c-0.976,0.106-2.221,0.147-3.728,0.147c-1.497,0-2.75-0.041-3.727-0.147c-0.961-0.102-1.75-0.268-2.335-0.456
		c-0.603-0.207-1.019-0.455-1.246-0.771c-0.252-0.311-0.383-0.668-0.383-1.059V589.45c0-0.396,0.131-0.749,0.383-1.059
		c0.228-0.317,0.644-0.586,1.246-0.797c0.585-0.229,1.374-0.391,2.335-0.522c0.977-0.122,2.229-0.186,3.727-0.186
		c1.507,0,2.752,0.063,3.728,0.186c0.96,0.132,1.75,0.294,2.335,0.522c0.604,0.211,1.026,0.479,1.254,0.797
		c0.244,0.31,0.375,0.663,0.375,1.059V643.828z M995.44,570.824c0,3.105-0.618,5.229-1.896,6.419
		c-1.271,1.188-3.597,1.774-7.04,1.774c-3.458,0-5.811-0.566-6.999-1.71c-1.203-1.148-1.814-3.21-1.814-6.169
		c0-3.104,0.628-5.249,1.88-6.457c1.229-1.188,3.581-1.794,7.057-1.794c3.417,0,5.753,0.585,6.981,1.749
		C994.84,565.783,995.44,567.847,995.44,570.824L995.44,570.824z M1075.755,605.474c0,6.543-0.813,12.395-2.442,17.562
		c-1.627,5.168-4.044,9.562-7.266,13.143c-3.215,3.604-7.187,6.355-11.923,8.252c-4.744,1.897-10.229,2.833-16.456,2.833
		c-6.144,0-11.499-0.813-16.063-2.417c-4.583-1.604-8.391-4.041-11.459-7.354c-3.043-3.292-5.331-7.482-6.853-12.562
		c-1.521-5.086-2.294-11.108-2.294-18.066c0-6.372,0.813-12.126,2.44-17.228c1.628-5.103,4.037-9.433,7.268-13.021
		c3.214-3.581,7.194-6.331,11.922-8.228c4.745-1.916,10.246-2.872,16.52-2.872c5.974,0,11.248,0.789,15.829,2.376
		c4.565,1.578,8.398,4.021,11.459,7.332c3.084,3.288,5.396,7.439,6.957,12.46C1074.957,592.721,1075.755,598.638,1075.755,605.474z
		 M1058.877,606.287c0-4.15-0.335-7.919-0.978-11.315c-0.649-3.399-1.749-6.312-3.313-8.728c-1.561-2.419-3.646-4.294-6.249-5.624
		c-2.604-1.315-5.858-1.979-9.749-1.979c-3.938,0-7.234,0.749-9.854,2.227c-2.646,1.477-4.795,3.478-6.422,5.961
		c-1.628,2.474-2.767,5.371-3.435,8.684c-0.667,3.336-1.001,6.836-1.001,10.544c0,4.308,0.334,8.186,0.977,11.623
		c0.651,3.435,1.75,6.373,3.296,8.831c1.539,2.44,3.605,4.297,6.21,5.582c2.604,1.273,5.876,1.921,9.807,1.921
		c3.938,0,7.235-0.729,9.854-2.209c2.645-1.457,4.793-3.46,6.421-5.979c1.619-2.522,2.768-5.46,3.434-8.813
		C1058.542,613.66,1058.877,610.075,1058.877,606.287z M1130.516,622.18c0,4.168-0.765,7.789-2.312,10.938
		c-1.563,3.125-3.646,5.729-6.291,7.833c-2.669,2.084-5.745,3.666-9.294,4.729c-3.54,1.062-7.331,1.583-11.368,1.583
		c-2.734,0-5.248-0.229-7.608-0.688c-2.336-0.46-4.396-0.997-6.186-1.644c-1.79-0.622-3.296-1.29-4.499-1.998
		c-1.214-0.711-2.068-1.335-2.604-1.855c-0.521-0.545-0.896-1.314-1.125-2.312c-0.235-1.001-0.332-2.416-0.332-4.296
		c0-1.27,0.04-2.312,0.121-3.166c0.082-0.854,0.211-1.538,0.399-2.083c0.188-0.521,0.431-0.896,0.725-1.124
		c0.317-0.228,0.667-0.333,1.082-0.333c0.57,0,1.375,0.333,2.417,1.021c1.041,0.662,2.376,1.416,4.004,2.226
		c1.627,0.814,3.581,1.562,5.851,2.229c2.254,0.691,4.876,1.025,7.854,1.025c1.961,0,3.711-0.23,5.257-0.691
		c1.563-0.48,2.873-1.123,3.955-1.979c1.084-0.854,1.896-1.896,2.482-3.146c0.563-1.247,0.847-2.648,0.847-4.187
		c0-1.79-0.473-3.336-1.457-4.605c-0.976-1.294-2.246-2.418-3.833-3.418c-1.563-0.997-3.353-1.937-5.354-2.808
		c-1.978-0.879-4.036-1.794-6.16-2.774c-2.124-0.977-4.19-2.084-6.169-3.33c-2.002-1.232-3.793-2.71-5.354-4.442
		c-1.587-1.726-2.857-3.769-3.833-6.144c-0.978-2.353-1.457-5.186-1.457-8.48c0-3.769,0.708-7.104,2.1-9.978
		c1.399-2.855,3.296-5.229,5.672-7.125c2.393-1.896,5.184-3.313,8.415-4.252c3.23-0.936,6.665-1.392,10.286-1.392
		c1.855,0,3.735,0.146,5.606,0.436c1.881,0.271,3.622,0.667,5.25,1.144c1.628,0.504,3.069,1.045,4.337,1.648
		c1.245,0.621,2.085,1.126,2.499,1.541c0.398,0.399,0.667,0.749,0.813,1.021c0.147,0.289,0.269,0.663,0.374,1.143
		c0.106,0.46,0.163,1.042,0.204,1.775c0.049,0.709,0.064,1.582,0.064,2.645c0,1.164-0.016,2.165-0.081,2.978
		c-0.065,0.814-0.171,1.482-0.317,2.023c-0.139,0.521-0.35,0.915-0.603,1.143c-0.269,0.252-0.626,0.374-1.082,0.374
		c-0.439,0-1.147-0.291-2.124-0.854c-0.976-0.562-2.189-1.185-3.605-1.872c-1.439-0.667-3.083-1.27-4.955-1.814
		c-1.88-0.562-3.914-0.83-6.17-0.83c-1.749,0-3.271,0.207-4.58,0.643c-1.295,0.416-2.377,1.025-3.256,1.774
		c-0.871,0.749-1.539,1.644-1.954,2.706c-0.438,1.062-0.642,2.186-0.642,3.356c0,1.75,0.472,3.271,1.432,4.542
		c0.96,1.289,2.255,2.434,3.858,3.434c1.603,0.98,3.434,1.916,5.476,2.791c2.02,0.88,4.103,1.815,6.227,2.771
		c2.131,0.98,4.215,2.088,6.233,3.334c2.043,1.252,3.85,2.729,5.46,4.459c1.579,1.729,2.874,3.752,3.85,6.104
		C1130.035,616.265,1130.516,619.016,1130.516,622.18L1130.516,622.18z"/>
</g>
</svg>
