<?xml version="1.0" encoding="UTF-8" standalone="no"?>
<!-- Creator: CorelDRAW 2021 (64-Bit) -->

<svg
   xml:space="preserve"
   width="162.56mm"
   height="91.44mm"
   version="1.1"
   style="shape-rendering:geometricPrecision; text-rendering:geometricPrecision; image-rendering:optimizeQuality; fill-rule:evenodd; clip-rule:evenodd"
   viewBox="0 0 162.56 91.44"
   id="svg33"
   sodipodi:docname="MiniOS-wallpaper-blue.svg"
   inkscape:version="1.1 (c68e22c387, 2021-05-23)"
   xmlns:inkscape="http://www.inkscape.org/namespaces/inkscape"
   xmlns:sodipodi="http://sodipodi.sourceforge.net/DTD/sodipodi-0.dtd"
   xmlns="http://www.w3.org/2000/svg"
   xmlns:svg="http://www.w3.org/2000/svg"><sodipodi:namedview
   id="namedview35"
   pagecolor="#ffffff"
   bordercolor="#666666"
   borderopacity="1.0"
   inkscape:pageshadow="2"
   inkscape:pageopacity="0.0"
   inkscape:pagecheckerboard="0"
   inkscape:document-units="mm"
   showgrid="false"
   inkscape:zoom="1.7643229"
   inkscape:cx="306.9166"
   inkscape:cy="172.58745"
   inkscape:window-width="2560"
   inkscape:window-height="1377"
   inkscape:window-x="-8"
   inkscape:window-y="-8"
   inkscape:window-maximized="1"
   inkscape:current-layer="Слой_x0020_1" />
 <defs
   id="defs18">
  <style
   type="text/css"
   id="style2">
   <![CDATA[
    .str0 {stroke:#FEFEFE;stroke-width:0.0762;stroke-miterlimit:22.9256}
    .fil3 {fill:none}
    .fil2 {fill:#FEFEFE}
    .fil4 {fill:#FEFEFE;fill-rule:nonzero}
    .fil1 {fill:url(#id0)}
    .fil0 {fill:url(#id1)}
   ]]>
  </style>
  <linearGradient
   id="id0"
   gradientUnits="userSpaceOnUse"
   x1="72.1314"
   y1="58.5878"
   x2="155.3022"
   y2="58.5878">
   <stop
   offset="0"
   style="stop-opacity:1;stop-color:#106fce"
   id="stop4" />
   <stop
   offset="0.25098"
   style="stop-opacity:1;stop-color:#0858b3"
   id="stop6" />
   <stop
   offset="1"
   style="stop-opacity:1;stop-color:#003d98"
   id="stop8" />
  </linearGradient>
  <radialGradient
   id="id1"
   gradientUnits="userSpaceOnUse"
   gradientTransform="matrix(1 -0 -0 0.5625 0 20)"
   cx="81.28"
   cy="45.6547"
   r="162.56"
   fx="81.28"
   fy="45.6547">
   <stop
   offset="0"
   style="stop-opacity:1;stop-color:#6eaff0"
   id="stop11" />
   <stop
   offset="0.709804"
   style="stop-opacity:1;stop-color:#4f8fcd"
   id="stop13" />
   <stop
   offset="1"
   style="stop-opacity:1;stop-color:#306fad"
   id="stop15" />
  </radialGradient>
 </defs>
 <g
   id="Слой_x0020_1"
   inkscape:label="Слой 1">
  <metadata
   id="CorelCorpID_0Corel-Layer" />
  <rect
   class="fil0"
   y="-0.0653"
   width="162.56"
   height="91.44"
   id="rect21" />
  <path
   class="fil1"
   d="M155.2942 93.882l-2.136 -2.136m-0.3714 -0.3714l-64.8457 -64.8457 -0.327 -0.343 -0.343 -0.3269 -0.3583 -0.3104 -0.373 -0.2932 -0.3872 -0.2753 -0.4007 -0.2568 -0.4135 -0.2378 -0.4258 -0.2181 -0.4374 -0.1977 -0.4484 -0.1769 -0.4589 -0.1552 -0.4686 -0.1331 -0.4777 -0.1102 -0.4863 -0.0869 -0.4942 -0.0628 -0.5016 -0.0381 -0.5081 -0.0129 -0.0559 0.0002 -0.0558 0.0004 -0.0556 0.0008 -0.0553 0.001 -0.055 0.0014 -0.0546 0.0016 -0.0541 0.0019 -0.0536 0.0021 -0.0531 0.0025 -0.0524 0.0026 -0.0517 0.0029 -0.0509 0.0032 -0.0501 0.0034 -0.0492 0.0036 -0.0482 0.0039 -0.0472 0.0041 -0.0867 0.0089 -0.0832 0.0283 -0.0774 0.0454 -0.0689 0.0606 -0.058 0.0738 -0.0445 0.0848 -0.0285 0.0938 -0.0101 0.1007 0 0.9419 -0.3794 0.0671 -0.3734 0.0837 -0.367 0.0998 -0.3602 0.1157 -0.3531 0.131 -0.3454 0.146 -0.3375 0.1606 -0.3291 0.1748 -0.3204 0.1886 -0.3112 0.202 -0.3016 0.2151 -0.2916 0.2276 -0.2813 0.2398 -0.2706 0.2517 -0.2594 0.2631 -0.2478 0.274 -0.2359 0.2848 -0.2236 0.2949 -0.2108 0.3048 -0.1977 0.3142 -0.1841 0.3233 -0.1702 0.3319 -0.1559 0.3401 -0.1412 0.348 -0.126 0.3554 -0.1106 0.3625 -0.0946 0.3691 -0.0783 0.3754 -0.0616 0.3813 -0.0445 0.3867 -0.0269 0.3918 -0.0091 0.3964 0.011 0.4374 0.0329 0.4317 0.054 0.4254 0.0748 0.4186 0.0949 0.4112 0.1145 0.4034 0.1337 0.3949 0.1522 0.386 0.1702 0.3765 0.1877 0.3665 0.2047 0.356 0.221 0.3448 0.237 0.3333 0.2524 0.3211 0.2671 0.3084 0.2815 0.2952 0.2952 0.2815c13.744,12.3518 9.2394,8.3161 9.2451,8.3233l-0.03 -0.0056 -0.0228 -0.0167 -0.025 -0.0157 -0.0271 -0.0144 -0.0294 -0.0133 -0.0315 -0.0122 -0.0337 -0.011 -0.0359 -0.0098 -0.038 -0.0087 -0.0402 -0.0075 -0.0424 -0.0064 -0.0445 -0.0052 -0.0467 -0.0041 -0.0489 -0.0029 -0.051 -0.0017 -0.0532 -0.0006 -0.0541 0.0006 -0.0519 0.0018 -0.0496 0.003 -0.0474 0.0042 -0.0452 0.0054 -0.043 0.0065 -0.0407 0.0077 -0.0385 0.009 -0.0362 0.0101 -0.034 0.0112 -0.0318 0.0125 -0.0296 0.0136 -0.0273 0.0148 -0.0251 0.0159 -0.0229 0.0172 -0.0206 0.0182 -0.0372 0.0421 -0.0323 0.0496 -0.0272 0.057 -0.0224 0.0645 -0.0173 0.0721 -0.0124 0.0796 -0.0075 0.0872 -0.0025 0.0947 0.0024 0.0904 0.0072 0.0832 0.012 0.0761 0.0168 0.0689 0.0216 0.0617 0.0263 0.0545 0.0312 0.0473 0.036 0.04 0.8185 0.8186 -0.013 -0.001 -0.0384 -0.0022 -0.0406 -0.0018 -0.0426 -0.0012 -0.0446 -0.0007 -0.0466 -0.0003 -0.0467 0.0003 -0.0446 0.0007 -0.0426 0.0012 -0.0405 0.0018 -0.0385 0.0022 -0.0364 0.0027 -0.0343 0.0033 -0.0322 0.0037 -0.0297 0.0041 -0.0284 0.0045 -0.027 0.0049 -0.0256 0.0052 -0.024 0.0057 -0.0225 0.0061 -0.021 0.0065 -0.0193 0.0071 -0.0185 0.0068 -0.0169 0.0074 -0.0155 0.0078 -0.014 0.0082 -0.0124 0.0086 -0.011 0.0091 -0.0096 0.0094 -0.008 0.0097 -0.0074 0.0101 -0.0065 0.0104 -0.0054 0.0108 -0.0045 0.0111 -0.0035 0.0114 -0.0024 0.0117 -0.0015 0.0121 -0.0005 0.0124 0 1.4289 -1.2805 -1.2804 -0.0595 -0.0581 -0.0633 -0.0545 -0.0671 -0.051 -0.0709 -0.0474 -0.0748 -0.0437 -0.0787 -0.0402 -0.041 -0.0189 -0.042 -0.0177 -0.0433 -0.0164 -0.0444 -0.0152 -0.0455 -0.014 -0.0467 -0.0127 -0.0479 -0.0115 -0.049 -0.0103 -0.0502 -0.0091 -0.0514 -0.0078 -0.0525 -0.0066 -0.0536 -0.0055 -0.0549 -0.0042 -0.0559 -0.003 -0.0572 -0.0018 -0.0583 -0.0006 -0.0534 0.0008 -0.0532 0.0024 -0.053 0.0041 -0.0527 0.0056 -0.0524 0.0073 -0.0522 0.0088 -0.0519 0.0105 -0.0516 0.0121 -0.0514 0.0137 -0.0511 0.0153 -0.0508 0.017 -0.0506 0.0185 -0.0503 0.0202 -0.0499 0.0217 -0.0498 0.0234 -0.0494 0.025 -0.0495 0.0266 -0.0495 0.0282 -0.0493 0.0297 -0.0491 0.0313 -0.0491 0.0329 -0.0489 0.0346 -0.0488 0.0361 -0.0487 0.0377 -0.0486 0.0393 -0.0081 0.0069 -2.3088 -2.3088 -0.0206 -0.018 -0.0228 -0.0167 -0.025 -0.0157 -0.0271 -0.0144 -0.0294 -0.0133 -0.0315 -0.0122 -0.0337 -0.011 -0.0359 -0.0098 -0.038 -0.0087 -0.0402 -0.0075 -0.0424 -0.0064 -0.0445 -0.0052 -0.0467 -0.0041 -0.0489 -0.0029 -0.051 -0.0017 -0.0532 -0.0006 -0.0541 0.0006 -0.0519 0.0018 -0.0496 0.003 -0.0474 0.0042 -0.0452 0.0054 -0.043 0.0065 -0.0407 0.0077 -0.0385 0.009 -0.0362 0.0101 -0.034 0.0112 -0.0318 0.0125 -0.0296 0.0136 -0.0273 0.0148 -0.0251 0.0159 -0.0229 0.0172 -0.0206 0.0182 -0.0372 0.0421 -0.0323 0.0496 -0.0272 0.057 -0.0224 0.0645 -0.0173 0.0721 -0.0124 0.0796 -0.0075 0.0872 -0.0025 0.0947 0.0024 0.0904 0.0072 0.0832 0.012 0.0761 0.0168 0.0689 0.0216 0.0617 0.0263 0.0545 0.0312 0.0473 0.036 0.04 0.8185 0.8186 -0.013 -0.001 -0.0384 -0.0022 -0.0406 -0.0018 -0.0426 -0.0012 -0.0446 -0.0007 -0.0466 -0.0003 -0.0467 0.0003 -0.0446 0.0007 -0.0445 0.0013 -1.572 -1.57 -0.0178 -0.0161 -0.019 -0.015 -0.0203 -0.0138 -0.0214 -0.0127 -0.0225 -0.0115 -0.0236 -0.0103 -0.0247 -0.0092 -0.0257 -0.0087 -0.0269 -0.0075 -0.0281 -0.0064 -0.0293 -0.0052 -0.0305 -0.004 -0.0319 -0.0029 -0.0331 -0.0017 -0.0344 -0.0006 -0.9172 0 -0.0469 0.0006 -0.0457 0.0017 -0.0442 0.003 -0.0429 0.0042 -0.0414 0.0054 -0.0401 0.0067 -0.0386 0.0079 -0.0371 0.0093 -0.0352 0.0107 -0.0342 0.0124 -0.0331 0.0141 -0.032 0.0157 -0.0308 0.0174 -0.0296 0.019 -0.0284 0.0206 -0.0271 0.0224 -0.0261 0.024 -0.0252 0.0259 -0.0245 0.0276 -0.0237 0.0294 -0.0229 0.0312 -0.0223 0.0328 -0.0215 0.0345 -0.0208 0.0362 -0.0197 0.0387 -0.0193 0.0407 -0.019 0.0428 -0.0185 0.0447 -0.0182 0.0469 -0.0177 0.0489 -0.0172 0.0511 -0.0168 0.0531 -0.7323 1.9509 -2.5144 -2.5143 -0.0289 -0.0253 -0.0299 -0.0234 -0.0319 -0.0216 -0.0333 -0.0201 -0.0348 -0.0184 -0.0363 -0.0168 -0.0378 -0.0153 -0.0393 -0.0137 -0.0407 -0.0122 -0.0423 -0.0106 -0.0435 -0.0093 -0.0457 -0.0079 -0.048 -0.0067 -0.0502 -0.0054 -0.0523 -0.0042 -0.0544 -0.003 -0.0565 -0.0017 -0.0586 -0.0006 -0.889 0 -0.0573 0.0021 -0.0542 0.0065 -0.0511 0.0108 -0.0482 0.0152 -0.0451 0.0195 -0.0422 0.024 -0.0394 0.0284 -0.0364 0.0328 -0.0329 0.037 -0.0283 0.0408 -0.024 0.0446 -0.0196 0.0485 -0.0151 0.0524 -0.0108 0.0563 -0.0065 0.0602 -0.0022 0.0642 0 5.9601 0.0004 0.0125 0.0013 0.0122 0.0021 0.0121 0.0031 0.0119 0.0039 0.0116 0.0048 0.0114 0.0058 0.011 0.0068 0.0108 0.008 0.0097 0.0095 0.0094 36.772 36.7719m51.5973 2.5075l0.008 -0.0081 -0.008 0.0081zm-13.9822 0.4759l-0.011 -0.01 0.011 0.01m-0.043 3.0699l-0.0482 -0.0437 0.0482 0.0437m-25.0744 3.2431l-0.0109 -0.0109m-3.1813 0.0201l-0.0075 -0.0092 0.0075 0.0092m27.1803 -2.268l0.0503 0.0503 -0.0369 -0.0378 -0.0134 -0.0125zm-23.999 2.2479l0.0109 0.0109"
   id="path23" />
  <g
   id="g28">
   <path
   class="fil2"
   d="M79.333 24.7582c-4.0773,0.6257 -7.2,4.1488 -7.2,8.4012 0,4.6944 3.8056,8.5 8.5,8.5 4.2855,0 7.8303,-3.1715 8.4153,-7.2953l0.9353 0c0.2761,0 0.5,-0.2239 0.4969,-0.4628 0.0171,-0.2169 0.0275,-0.4782 0.0275,-0.7419 0,-5.4538 -4.4212,-9.875 -9.875,-9.875 -0.2984,0 -0.5938,0.0132 -0.8427,0.0355 -0.2334,-0.0036 -0.4573,0.2203 -0.4573,0.4964l0 0.9419zm3.1021 7.0059c-0.2762,0 -0.5,-0.2239 -0.5,-0.5l-0.001 -5.2383c2.929,0.5302 5.2462,2.8217 5.8148,5.7383l-5.3138 0zm-3.1021 1.3953c0,0.6653 0.5393,1.2047 1.2047,1.2047l5.8467 0c-0.5557,2.6668 -2.9195,4.6703 -5.7514,4.6703 -3.2448,0 -5.875,-2.6303 -5.875,-5.875 0,-2.798 1.9558,-5.1392 4.575,-5.7307l0 5.7307zm0 0l0 -5.7307 0 5.7307zm0 -8.4012l0 -0.9419 0 0.9419zm0 8.4012l0 -5.7307 0 5.7307zm0 -8.4012l0 -0.9419 0 0.9419z"
   id="path25" />
   <path
   id="_1"
   class="fil3 str0"
   d="M79.333 24.7582c-4.0773,0.6257 -7.2,4.1488 -7.2,8.4012 0,4.6944 3.8056,8.5 8.5,8.5 4.2855,0 7.8303,-3.1715 8.4153,-7.2953l0.9353 0c0.2761,0 0.5,-0.2239 0.4969,-0.4628 0.0171,-0.2169 0.0275,-0.4782 0.0275,-0.7419 0,-5.4538 -4.4212,-9.875 -9.875,-9.875 -0.2984,0 -0.5938,0.0132 -0.8427,0.0355 -0.2334,-0.0036 -0.4573,0.2203 -0.4573,0.4964m3.1021 7.9478c-0.2762,0 -0.5,-0.2239 -0.5,-0.5l-0.001 -5.2383c2.929,0.5302 5.2462,2.8217 5.8148,5.7383l-5.3138 0zm-3.1021 1.3953c0,0.6653 0.5393,1.2047 1.2047,1.2047l5.8467 0c-0.5557,2.6668 -2.9195,4.6703 -5.7514,4.6703 -3.2448,0 -5.875,-2.6303 -5.875,-5.875 0,-2.798 1.9558,-5.1392 4.575,-5.7307m0 5.7307l0 -5.7307m0 -2.6705l0 -0.9419m0 9.3431l0 -5.7307m0 -2.6705l0 -0.9419" />
  </g>
  <path
   class="fil4"
   d="M74.6423 54.4329c0,0.0335 -0.0088,0.0653 -0.0282,0.0935 -0.0194,0.0265 -0.0547,0.0494 -0.1041,0.067 -0.0493,0.0159 -0.1164,0.03 -0.1993,0.0406 -0.0829,0.0106 -0.1887,0.0159 -0.3157,0.0159 -0.1252,0 -0.2293,-0.0053 -0.3122,-0.0159 -0.0829,-0.0106 -0.1482,-0.0247 -0.1976,-0.0406 -0.0476,-0.0176 -0.0829,-0.0405 -0.1023,-0.067 -0.0211,-0.0282 -0.0317,-0.06 -0.0317,-0.0935l0 -5.445 -0.0106 0 -1.9315 5.4397c-0.0141,0.0441 -0.0352,0.0812 -0.067,0.1112 -0.0317,0.0299 -0.0723,0.0529 -0.127,0.0705 -0.0529,0.0159 -0.1217,0.0282 -0.2028,0.0335 -0.0829,0.0053 -0.1835,0.0071 -0.2999,0.0071 -0.1182,0 -0.217,-0.0036 -0.2999,-0.0124 -0.0829,-0.0088 -0.1517,-0.0229 -0.2046,-0.0423 -0.0529,-0.0194 -0.0952,-0.0423 -0.127,-0.0688 -0.03,-0.0282 -0.0511,-0.0617 -0.0617,-0.0988l-1.8644 -5.4397 -0.0106 0 0 5.445c0,0.0335 -0.0088,0.0653 -0.0282,0.0935 -0.0194,0.0265 -0.0547,0.0494 -0.1059,0.067 -0.0529,0.0159 -0.1199,0.03 -0.2011,0.0406 -0.0811,0.0106 -0.1852,0.0159 -0.3122,0.0159 -0.1252,0 -0.2293,-0.0053 -0.3122,-0.0159 -0.0829,-0.0106 -0.1499,-0.0247 -0.1993,-0.0406 -0.0494,-0.0176 -0.0847,-0.0405 -0.1041,-0.067 -0.0194,-0.0282 -0.0282,-0.06 -0.0282,-0.0935l0 -5.9601c0,-0.1764 0.0459,-0.3104 0.1394,-0.4039 0.0935,-0.0935 0.2169,-0.1394 0.3739,-0.1394l0.889 0c0.1588,0 0.2963,0.0124 0.4092,0.0388 0.1147,0.0265 0.2135,0.0688 0.2964,0.1288 0.0811,0.06 0.1517,0.1393 0.2063,0.2381 0.0547,0.0988 0.1041,0.2205 0.1447,0.3651l1.4411 3.9846 0.0211 0 1.4923 -3.9757c0.0441,-0.1447 0.0935,-0.2664 0.1464,-0.3669 0.0547,-0.0988 0.1164,-0.1799 0.187,-0.2417 0.0705,-0.0617 0.1552,-0.1058 0.2504,-0.1323 0.097,-0.0264 0.2099,-0.0388 0.3369,-0.0388l0.9172 0c0.0935,0 0.1729,0.0124 0.2399,0.0371 0.0671,0.0229 0.1235,0.0582 0.1658,0.1058 0.0441,0.0459 0.0759,0.1023 0.0988,0.1693 0.0229,0.0671 0.0335,0.1447 0.0335,0.2311l0 5.9601zm2.2098 0.0106c0,0.0335 -0.0105,0.0635 -0.0317,0.09 -0.0194,0.0264 -0.0547,0.0476 -0.1058,0.0652 -0.0494,0.0159 -0.1165,0.03 -0.1976,0.0388 -0.0829,0.0088 -0.1887,0.0124 -0.3157,0.0124 -0.127,0 -0.2329,-0.0036 -0.3158,-0.0124 -0.0811,-0.0088 -0.1481,-0.0229 -0.1975,-0.0388 -0.0512,-0.0176 -0.0865,-0.0388 -0.1059,-0.0652 -0.0211,-0.0265 -0.0317,-0.0565 -0.0317,-0.09l0 -4.6037c0,-0.0335 0.0106,-0.0635 0.0317,-0.0899 0.0194,-0.0265 0.0547,-0.0494 0.1059,-0.0671 0.0494,-0.0194 0.1164,-0.0335 0.1975,-0.0441 0.0829,-0.0106 0.1888,-0.0158 0.3158,-0.0158 0.127,0 0.2328,0.0052 0.3157,0.0158 0.0811,0.0106 0.1482,0.0247 0.1976,0.0441 0.0511,0.0177 0.0864,0.0406 0.1058,0.0671 0.0212,0.0264 0.0317,0.0564 0.0317,0.0899l0 4.6037zm0.1059 -6.1806c0,0.2628 -0.0529,0.4427 -0.1605,0.5433 -0.1076,0.1005 -0.3052,0.1499 -0.5962,0.1499 -0.2928,0 -0.4922,-0.0476 -0.5927,-0.1446 -0.1023,-0.097 -0.1535,-0.2717 -0.1535,-0.5221 0,-0.2629 0.053,-0.4445 0.1588,-0.5468 0.1041,-0.1006 0.3034,-0.1517 0.5979,-0.1517 0.2893,0 0.4869,0.0494 0.5909,0.1481 0.1041,0.097 0.1553,0.2717 0.1553,0.5239zm5.1167 6.1806c0,0.0335 -0.0106,0.0635 -0.0318,0.09 -0.0194,0.0264 -0.0546,0.0476 -0.1023,0.0652 -0.0494,0.0159 -0.1164,0.03 -0.201,0.0388 -0.0847,0.0088 -0.1888,0.0124 -0.3123,0.0124 -0.1287,0 -0.2346,-0.0036 -0.3193,-0.0124 -0.0846,-0.0088 -0.1517,-0.0229 -0.201,-0.0388 -0.0477,-0.0176 -0.083,-0.0388 -0.1024,-0.0652 -0.0211,-0.0265 -0.0317,-0.0565 -0.0317,-0.09l0 -2.6299c0,-0.2241 -0.0159,-0.4005 -0.0494,-0.5275 -0.0317,-0.1287 -0.0794,-0.2381 -0.1411,-0.328 -0.0617,-0.0918 -0.1429,-0.1623 -0.2399,-0.2135 -0.0988,-0.0494 -0.2117,-0.074 -0.3422,-0.074 -0.1658,0 -0.3316,0.0599 -0.5009,0.1816 -0.1676,0.12 -0.344,0.2964 -0.5257,0.5257l0 3.0656c0,0.0335 -0.0105,0.0635 -0.0317,0.09 -0.0194,0.0264 -0.0547,0.0476 -0.1058,0.0652 -0.0494,0.0159 -0.1165,0.03 -0.1976,0.0388 -0.0829,0.0088 -0.1887,0.0124 -0.3157,0.0124 -0.127,0 -0.2329,-0.0036 -0.3158,-0.0124 -0.0811,-0.0088 -0.1481,-0.0229 -0.1975,-0.0388 -0.0512,-0.0176 -0.0865,-0.0388 -0.1059,-0.0652 -0.0211,-0.0265 -0.0317,-0.0565 -0.0317,-0.09l0 -4.6143c0,-0.0335 0.0088,-0.0635 0.0264,-0.0899 0.0159,-0.0265 0.0477,-0.0477 0.0918,-0.0653 0.0458,-0.0159 0.1023,-0.03 0.1728,-0.0388 0.0706,-0.0088 0.1605,-0.0123 0.2664,-0.0123 0.1111,0 0.2011,0.0035 0.2734,0.0123 0.0723,0.0088 0.1287,0.0229 0.1693,0.0388 0.0388,0.0176 0.067,0.0388 0.0847,0.0653 0.0176,0.0264 0.0264,0.0564 0.0264,0.0899l0 0.5327c0.254,-0.2751 0.5133,-0.4798 0.7779,-0.6173 0.2628,-0.1376 0.538,-0.2064 0.8237,-0.2064 0.314,0 0.5786,0.0511 0.7938,0.1552 0.2152,0.1023 0.3881,0.2434 0.5221,0.4216 0.1323,0.1764 0.2276,0.3845 0.2858,0.6226 0.0582,0.2381 0.0882,0.5239 0.0882,0.8572l0 2.8487zm2.1004 0c0,0.0335 -0.0105,0.0635 -0.0317,0.09 -0.0194,0.0264 -0.0547,0.0476 -0.1058,0.0652 -0.0494,0.0159 -0.1165,0.03 -0.1976,0.0388 -0.0829,0.0088 -0.1887,0.0124 -0.3157,0.0124 -0.127,0 -0.2329,-0.0036 -0.3158,-0.0124 -0.0811,-0.0088 -0.1481,-0.0229 -0.1975,-0.0388 -0.0512,-0.0176 -0.0865,-0.0388 -0.1059,-0.0652 -0.0211,-0.0265 -0.0317,-0.0565 -0.0317,-0.09l0 -4.6037c0,-0.0335 0.0106,-0.0635 0.0317,-0.0899 0.0194,-0.0265 0.0547,-0.0494 0.1059,-0.0671 0.0494,-0.0194 0.1164,-0.0335 0.1975,-0.0441 0.0829,-0.0106 0.1888,-0.0158 0.3158,-0.0158 0.127,0 0.2328,0.0052 0.3157,0.0158 0.0811,0.0106 0.1482,0.0247 0.1976,0.0441 0.0511,0.0177 0.0864,0.0406 0.1058,0.0671 0.0212,0.0264 0.0317,0.0564 0.0317,0.0899l0 4.6037zm0.1059 -6.1806c0,0.2628 -0.0529,0.4427 -0.1605,0.5433 -0.1076,0.1005 -0.3052,0.1499 -0.5962,0.1499 -0.2928,0 -0.4922,-0.0476 -0.5927,-0.1446 -0.1023,-0.097 -0.1535,-0.2717 -0.1535,-0.5221 0,-0.2629 0.053,-0.4445 0.1588,-0.5468 0.1041,-0.1006 0.3034,-0.1517 0.5979,-0.1517 0.2893,0 0.4869,0.0494 0.5909,0.1481 0.1041,0.097 0.1553,0.2717 0.1553,0.5239zm6.7994 2.9333c0,0.5539 -0.0688,1.0495 -0.2064,1.4869 -0.1376,0.4375 -0.3422,0.8097 -0.6156,1.1131 -0.2716,0.3051 -0.6085,0.5379 -1.0089,0.6985 -0.4022,0.1605 -0.8661,0.2398 -1.3935,0.2398 -0.5203,0 -0.9737,-0.0688 -1.3599,-0.2046 -0.3881,-0.1358 -0.7109,-0.3422 -0.9702,-0.6226 -0.2575,-0.2787 -0.4515,-0.6333 -0.5803,-1.0636 -0.1288,-0.4304 -0.194,-0.9402 -0.194,-1.5293 0,-0.5398 0.0688,-1.0266 0.2063,-1.4587 0.1376,-0.4322 0.3422,-0.799 0.6156,-1.1024 0.2717,-0.3034 0.6086,-0.5363 1.009,-0.6968 0.4021,-0.1622 0.8678,-0.2434 1.3987,-0.2434 0.5063,0 0.9525,0.067 1.3406,0.2011 0.3863,0.1341 0.7108,0.3404 0.9701,0.6209 0.2611,0.2787 0.4569,0.6297 0.5892,1.0548 0.1323,0.4268 0.1993,0.9277 0.1993,1.5063zm-1.4288 0.0688c0,-0.351 -0.0282,-0.6703 -0.0829,-0.9578 -0.0546,-0.2875 -0.1481,-0.5344 -0.2804,-0.739 -0.1323,-0.2046 -0.3087,-0.3634 -0.5292,-0.4763 -0.2205,-0.1111 -0.4956,-0.1675 -0.8255,-0.1675 -0.3334,0 -0.612,0.0635 -0.8343,0.1887 -0.224,0.1252 -0.4057,0.2946 -0.5433,0.5045 -0.1376,0.2099 -0.2346,0.455 -0.291,0.7355 -0.0565,0.2822 -0.0847,0.5785 -0.0847,0.8925 0,0.3651 0.0282,0.6932 0.0829,0.9842 0.0547,0.2911 0.1482,0.5398 0.2787,0.7479 0.1305,0.2064 0.3052,0.3634 0.5257,0.4727 0.2204,0.1076 0.4974,0.1623 0.8307,0.1623 0.3334,0 0.6121,-0.0617 0.8344,-0.187 0.224,-0.1234 0.4057,-0.2928 0.5432,-0.5062 0.1376,-0.2134 0.2346,-0.4621 0.2911,-0.7461 0.0564,-0.284 0.0846,-0.5874 0.0846,-0.9084zm6.0657 1.3458c0,0.3528 -0.0653,0.6597 -0.1958,0.9261 -0.1323,0.2645 -0.3087,0.485 -0.5327,0.6632 -0.2258,0.1764 -0.4868,0.3104 -0.7867,0.4004 -0.2998,0.0899 -0.6209,0.134 -0.963,0.134 -0.2311,0 -0.4445,-0.0194 -0.6439,-0.0582 -0.1975,-0.0388 -0.3721,-0.0846 -0.5238,-0.1393 -0.1517,-0.0529 -0.2787,-0.1094 -0.381,-0.1693 -0.1023,-0.06 -0.1747,-0.1129 -0.2205,-0.157 -0.0441,-0.0459 -0.0759,-0.1112 -0.0953,-0.1958 -0.0194,-0.0847 -0.0282,-0.2046 -0.0282,-0.3634 0,-0.1076 0.0035,-0.1958 0.0106,-0.2681 0.007,-0.0723 0.0176,-0.1305 0.0335,-0.1764 0.0159,-0.0441 0.037,-0.0758 0.0617,-0.0952 0.0265,-0.0194 0.0565,-0.0283 0.0918,-0.0283 0.0476,0 0.1164,0.0283 0.2046,0.0865 0.0882,0.0564 0.2011,0.1199 0.3386,0.1887 0.1376,0.0688 0.3034,0.1323 0.4957,0.1887 0.1905,0.0583 0.4127,0.0865 0.665,0.0865 0.1658,0 0.3139,-0.0194 0.4445,-0.0582 0.1323,-0.0406 0.2434,-0.0953 0.3351,-0.1676 0.0917,-0.0723 0.1605,-0.1605 0.2099,-0.2663 0.0476,-0.1059 0.0723,-0.2241 0.0723,-0.3546 0,-0.1517 -0.0405,-0.2822 -0.1234,-0.3898 -0.0829,-0.1094 -0.1905,-0.2046 -0.3246,-0.2893 -0.1323,-0.0846 -0.284,-0.164 -0.4533,-0.2381 -0.1676,-0.0741 -0.3422,-0.1517 -0.5221,-0.2346 -0.1799,-0.0829 -0.3546,-0.1764 -0.5221,-0.2822 -0.1694,-0.1041 -0.3211,-0.2293 -0.4534,-0.3757 -0.134,-0.1464 -0.2416,-0.3193 -0.3245,-0.5204 -0.0829,-0.1992 -0.1235,-0.4391 -0.1235,-0.7178 0,-0.3193 0.06,-0.6015 0.1782,-0.8449 0.1182,-0.2417 0.2787,-0.4428 0.4798,-0.6033 0.2028,-0.1605 0.4392,-0.2804 0.7126,-0.3598 0.2734,-0.0794 0.5644,-0.1182 0.8713,-0.1182 0.157,0 0.3158,0.0124 0.4745,0.0371 0.1588,0.0229 0.3069,0.0564 0.4445,0.097 0.1376,0.0423 0.2593,0.0882 0.3669,0.1393 0.1058,0.0529 0.1764,0.0953 0.2117,0.1305 0.0335,0.0336 0.0564,0.0635 0.0687,0.0865 0.0124,0.0247 0.023,0.0564 0.0318,0.097 0.0088,0.0388 0.0141,0.0882 0.0176,0.1499 0.0036,0.06 0.0053,0.1341 0.0053,0.224 0,0.0988 -0.0017,0.1835 -0.007,0.2523 -0.0053,0.0688 -0.0141,0.1252 -0.0265,0.1711 -0.0123,0.0441 -0.03,0.0776 -0.0511,0.097 -0.023,0.0211 -0.053,0.0317 -0.0918,0.0317 -0.037,0 -0.097,-0.0247 -0.1799,-0.0723 -0.0829,-0.0476 -0.1852,-0.1005 -0.3051,-0.1587 -0.1217,-0.0565 -0.2611,-0.1076 -0.4198,-0.1535 -0.1588,-0.0476 -0.3316,-0.0706 -0.5221,-0.0706 -0.1482,0 -0.277,0.0177 -0.3881,0.0547 -0.1094,0.0353 -0.2011,0.0865 -0.2752,0.15 -0.074,0.0635 -0.1305,0.1393 -0.1658,0.2293 -0.037,0.0899 -0.0546,0.1852 -0.0546,0.2839 0,0.1482 0.0405,0.277 0.1217,0.3846 0.0811,0.1093 0.1905,0.2063 0.3263,0.291 0.1358,0.0829 0.291,0.1622 0.4639,0.2363 0.1711,0.0741 0.3475,0.1535 0.5274,0.2346 0.1799,0.0829 0.3563,0.1764 0.5274,0.2822 0.1728,0.1059 0.3263,0.2311 0.4621,0.3775 0.1341,0.1464 0.2434,0.3175 0.3263,0.5168 0.0829,0.1976 0.1235,0.4304 0.1235,0.6985z"
   id="path30" />
 </g>
</svg>
