<?xml version="1.0" encoding="UTF-8" standalone="no"?>
<svg
   inkscape:version="1.2.2 (b0a8486541, 2022-12-01)"
   sodipodi:docname="module-connect-48.svg"
   version="1.1"
   width="48"
   height="48"
   id="svg4007"
   xmlns:inkscape="http://www.inkscape.org/namespaces/inkscape"
   xmlns:sodipodi="http://sodipodi.sourceforge.net/DTD/sodipodi-0.dtd"
   xmlns:xlink="http://www.w3.org/1999/xlink"
   xmlns="http://www.w3.org/2000/svg"
   xmlns:svg="http://www.w3.org/2000/svg"
   xmlns:rdf="http://www.w3.org/1999/02/22-rdf-syntax-ns#"
   xmlns:cc="http://creativecommons.org/ns#"
   xmlns:dc="http://purl.org/dc/elements/1.1/">
  <sodipodi:namedview
     inkscape:current-layer="svg4007"
     inkscape:window-maximized="0"
     inkscape:window-y="0"
     inkscape:window-x="960"
     inkscape:cy="23.479131"
     inkscape:cx="26.283806"
     inkscape:zoom="12.479167"
     showgrid="false"
     id="namedview52"
     inkscape:window-height="1015"
     inkscape:window-width="950"
     inkscape:pageshadow="2"
     inkscape:pageopacity="0"
     guidetolerance="10"
     gridtolerance="10"
     objecttolerance="10"
     borderopacity="1"
     bordercolor="#666666"
     pagecolor="#ffffff"
     inkscape:showpageshadow="2"
     inkscape:pagecheckerboard="0"
     inkscape:deskcolor="#d1d1d1">
    <inkscape:grid
       id="grid877"
       type="xygrid" />
  </sodipodi:namedview>
  <defs
     id="defs4009">
    <linearGradient
       id="linearGradient4645">
      <stop
         style="stop-color:#000000;stop-opacity:0.25"
         offset="0"
         id="stop4647" />
      <stop
         id="stop4653"
         offset="0.22935779"
         style="stop-color:#000000;stop-opacity:0.3" />
      <stop
         style="stop-color:#000000;stop-opacity:0.3"
         offset="0.82798165"
         id="stop4655" />
      <stop
         style="stop-color:#000000;stop-opacity:0.5"
         offset="1"
         id="stop4649" />
    </linearGradient>
    <linearGradient
       id="linearGradient3923">
      <stop
         id="stop3925"
         style="stop-color:#ffffff;stop-opacity:1"
         offset="0" />
      <stop
         id="stop3927"
         style="stop-color:#ffffff;stop-opacity:0.23529412"
         offset="0.1303179" />
      <stop
         id="stop3929"
         style="stop-color:#ffffff;stop-opacity:0.15686275"
         offset="0.92186069" />
      <stop
         id="stop3931"
         style="stop-color:#ffffff;stop-opacity:0.39215687"
         offset="1" />
    </linearGradient>
    <linearGradient
       id="linearGradient3844">
      <stop
         id="stop3846"
         style="stop-color:#a5a6a8;stop-opacity:1"
         offset="0" />
      <stop
         id="stop3848"
         style="stop-color:#e8e8e8;stop-opacity:1"
         offset="1" />
    </linearGradient>
    <linearGradient
       id="linearGradient2793">
      <stop
         id="stop2795"
         style="stop-color:#868688;stop-opacity:1"
         offset="0" />
      <stop
         id="stop2797"
         style="stop-color:#d9d9da;stop-opacity:1"
         offset="1" />
    </linearGradient>
    <linearGradient
       id="linearGradient23419">
      <stop
         id="stop23421"
         style="stop-color:#000000;stop-opacity:1"
         offset="0" />
      <stop
         id="stop23423"
         style="stop-color:#000000;stop-opacity:0"
         offset="1" />
    </linearGradient>
    <linearGradient
       x1="102.30806"
       y1="-2.3925467"
       x2="102.30806"
       y2="-24.582239"
       id="linearGradient2588-6"
       xlink:href="#linearGradient3844"
       gradientUnits="userSpaceOnUse"
       gradientTransform="matrix(0.71706604,0,0,0.68272381,-50.534747,39.22926)"
       spreadMethod="reflect" />
    <linearGradient
       x1="21.381216"
       y1="6.0992155"
       x2="21.381216"
       y2="42.716518"
       id="linearGradient3921-1-8"
       xlink:href="#linearGradient3923"
       gradientUnits="userSpaceOnUse"
       gradientTransform="matrix(1,0,0,0.52631579,4.5626218e-4,20.605263)" />
    <linearGradient
       xlink:href="#linearGradient4645"
       id="linearGradient4651"
       x1="70.371254"
       y1="4.383697"
       x2="70.371254"
       y2="44.988827"
       gradientUnits="userSpaceOnUse"
       gradientTransform="matrix(1,0,0,0.55,-45.999544,20.025)" />
    <radialGradient
       cx="23.334524"
       cy="41.63604"
       r="22.627417"
       fx="23.334524"
       fy="41.63604"
       id="radialGradient4005-0"
       xlink:href="#linearGradient23419"
       gradientUnits="userSpaceOnUse"
       gradientTransform="matrix(0.9516533,0,0,0.3655503,1.7940803,24.507202)" />
    <linearGradient
       x1="21.381216"
       y1="6.0992155"
       x2="21.381216"
       y2="42.716518"
       id="linearGradient3921-1-8-6"
       xlink:href="#linearGradient3923"
       gradientUnits="userSpaceOnUse"
       gradientTransform="matrix(1,0,0,0.52631579,4.563e-4,11.605263)" />
    <linearGradient
       x1="102.30806"
       y1="-2.3925467"
       x2="102.30806"
       y2="-24.582239"
       id="linearGradient2588-6-8"
       xlink:href="#linearGradient3844"
       gradientUnits="userSpaceOnUse"
       gradientTransform="matrix(0.71706604,0,0,0.68272381,-50.534747,30.22926)"
       spreadMethod="reflect" />
    <linearGradient
       xlink:href="#linearGradient4645"
       id="linearGradient4651-4"
       x1="70.371254"
       y1="4.383697"
       x2="70.371254"
       y2="44.988827"
       gradientUnits="userSpaceOnUse"
       gradientTransform="matrix(1,0,0,0.55,-45.999544,11.025)" />
    <linearGradient
       x1="103.95014"
       y1="-7.6656942"
       x2="89.423676"
       y2="-7.6656942"
       id="linearGradient2593-0-3-8"
       xlink:href="#linearGradient2793"
       gradientUnits="userSpaceOnUse"
       gradientTransform="matrix(0.71661045,0,0,0.37825027,-50.507696,21.002811)"
       spreadMethod="reflect" />
    <linearGradient
       xlink:href="#linearGradient4645"
       id="linearGradient4651-4-7"
       x1="70.371254"
       y1="4.383697"
       x2="70.371254"
       y2="44.988827"
       gradientUnits="userSpaceOnUse"
       gradientTransform="matrix(1,0,0,0.55,-45.999544,2.025)" />
    <linearGradient
       x1="102.30806"
       y1="-2.3925467"
       x2="102.30806"
       y2="-24.582239"
       id="linearGradient2588-6-8-0"
       xlink:href="#linearGradient3844"
       gradientUnits="userSpaceOnUse"
       gradientTransform="matrix(0.71706604,0,0,0.68272381,-50.534747,21.22926)"
       spreadMethod="reflect" />
    <linearGradient
       x1="21.381216"
       y1="6.0992155"
       x2="21.381216"
       y2="42.716518"
       id="linearGradient3921-1-8-6-0"
       xlink:href="#linearGradient3923"
       gradientUnits="userSpaceOnUse"
       gradientTransform="matrix(1,0,0,0.52631579,4.563e-4,2.605263)" />
    <radialGradient
       gradientTransform="matrix(0,0.95936489,-1.0436697,0,87.757589,-35.865792)"
       gradientUnits="userSpaceOnUse"
       xlink:href="#linearGradient3242-7-3-8-0-4-58-06"
       id="radialGradient3343"
       fy="48.744953"
       fx="65.59787"
       r="31.000002"
       cy="48.744953"
       cx="65.59787" />
    <linearGradient
       id="linearGradient3242-7-3-8-0-4-58-06">
      <stop
         id="stop3244-5-8-5-6-4-3-8"
         style="stop-color:#cdf87e;stop-opacity:1"
         offset="0" />
      <stop
         id="stop3246-9-5-1-5-3-0-7"
         style="stop-color:#a2e34f;stop-opacity:1"
         offset="0.26238" />
      <stop
         id="stop3248-7-2-0-7-5-35-9"
         style="stop-color:#68b723;stop-opacity:1"
         offset="0.66093999" />
      <stop
         id="stop3250-8-2-8-5-6-40-4"
         style="stop-color:#1d7e0d;stop-opacity:1"
         offset="1" />
    </linearGradient>
    <linearGradient
       gradientTransform="matrix(0.70448868,0,0,0.59520312,21.241407,23.219131)"
       gradientUnits="userSpaceOnUse"
       xlink:href="#linearGradient4154"
       id="linearGradient3030"
       y2="36.594009"
       x2="24.138529"
       y1="9.712431"
       x1="24.138529" />
    <linearGradient
       id="linearGradient4154">
      <stop
         offset="0"
         style="stop-color:#ffffff;stop-opacity:1"
         id="stop4156" />
      <stop
         offset="0"
         style="stop-color:#ffffff;stop-opacity:0.23529412"
         id="stop4158" />
      <stop
         offset="1"
         style="stop-color:#ffffff;stop-opacity:0.15686275"
         id="stop4160" />
      <stop
         offset="1"
         style="stop-color:#ffffff;stop-opacity:0.39215687"
         id="stop4162" />
    </linearGradient>
    <linearGradient
       gradientTransform="matrix(0.60015241,0,0,0.69748032,23.556108,20.861165)"
       gradientUnits="userSpaceOnUse"
       xlink:href="#linearGradient4154"
       id="linearGradient3030-1"
       y2="26.006231"
       x2="24.138529"
       y1="20.271303"
       x1="24.138529" />
    <radialGradient
       gradientTransform="matrix(0,3.1847251,-3.3690593,-8.9526421e-8,65.475109,14.420903)"
       gradientUnits="userSpaceOnUse"
       xlink:href="#linearGradient2867-449-88-871-390-598-476-591-434-148-57-177-8-3-3-6-4-8-8-8-5"
       id="radialGradient3092"
       fy="8.4497671"
       fx="0.96534902"
       r="19.99999"
       cy="8.4497671"
       cx="0.96534902" />
    <linearGradient
       id="linearGradient2867-449-88-871-390-598-476-591-434-148-57-177-8-3-3-6-4-8-8-8-5">
      <stop
         offset="0"
         style="stop-color:#cdf87e;stop-opacity:1;"
         id="stop3750-1-0-7-6-6-1-3-9-3" />
      <stop
         offset="0.25633505"
         style="stop-color:#a2e34f;stop-opacity:1;"
         id="stop25250" />
      <stop
         offset="0.65997547"
         style="stop-color:#68b723;stop-opacity:1;"
         id="stop28156" />
      <stop
         offset="1"
         style="stop-color:#1d7e0d;stop-opacity:1;"
         id="stop3756-1-6-2-6-6-1-96-6-0" />
    </linearGradient>
    <linearGradient
       xlink:href="#linearGradient4011-8"
       id="linearGradient3540"
       gradientUnits="userSpaceOnUse"
       gradientTransform="matrix(0.49986777,0,0,0.49986777,1.1500119,24.263582)"
       x1="71.204407"
       y1="6.2375584"
       x2="71.204407"
       y2="44.340794" />
    <linearGradient
       id="linearGradient4011-8">
      <stop
         offset="0"
         style="stop-color:#ffffff;stop-opacity:1"
         id="stop4013-9" />
      <stop
         offset="0.507761"
         style="stop-color:#ffffff;stop-opacity:0.23529412"
         id="stop4015-2" />
      <stop
         offset="0.83456558"
         style="stop-color:#ffffff;stop-opacity:0.15686275"
         id="stop4017-28" />
      <stop
         offset="1"
         style="stop-color:#ffffff;stop-opacity:0.39215687"
         id="stop4019-23" />
    </linearGradient>
  </defs>
  <metadata
     id="metadata4012">
    <rdf:RDF>
      <cc:Work
         rdf:about="">
        <dc:format>image/svg+xml</dc:format>
        <dc:type
           rdf:resource="http://purl.org/dc/dcmitype/StillImage" />
      </cc:Work>
    </rdf:RDF>
  </metadata>
  <rect
     style="color:#000000;clip-rule:nonzero;display:inline;overflow:visible;visibility:visible;opacity:0.6;isolation:auto;mix-blend-mode:normal;color-interpolation:sRGB;color-interpolation-filters:linearRGB;solid-color:#000000;solid-opacity:1;fill:none;fill-opacity:1;fill-rule:nonzero;stroke:none;stroke-width:0.99999988;stroke-linecap:butt;stroke-linejoin:miter;stroke-miterlimit:4;stroke-dasharray:none;stroke-dashoffset:0;stroke-opacity:1;marker:none;color-rendering:auto;image-rendering:auto;shape-rendering:auto;text-rendering:auto;enable-background:accumulate"
     id="rect4681"
     width="321"
     height="219"
     x="-107"
     y="-68"
     rx="18.5"
     ry="7.90804" />
  <path
     style="display:inline;overflow:visible;visibility:visible;opacity:0.3;fill:url(#radialGradient4005-0);fill-opacity:1;fill-rule:evenodd;stroke:none;stroke-width:2;marker:none"
     id="path23417-9"
     d="M 45.533912,39.727265 C 45.535712,44.295964 35.894354,48 24.000456,48 12.106558,48 2.4651643,44.295964 2.4670003,39.727265 2.4651783,35.158566 12.106558,31.45453 24.000456,31.45453 c 11.893898,0 21.535294,3.704036 21.533456,8.272735 z" />
  <rect
     style="color:#000000;clip-rule:nonzero;display:inline;overflow:visible;visibility:visible;opacity:1;isolation:auto;mix-blend-mode:normal;color-interpolation:sRGB;color-interpolation-filters:linearRGB;solid-color:#000000;solid-opacity:1;fill:url(#linearGradient2593-0-3-8);fill-opacity:1;fill-rule:nonzero;stroke:none;stroke-width:0.99999988;stroke-linecap:butt;stroke-linejoin:miter;stroke-miterlimit:4;stroke-dasharray:none;stroke-dashoffset:0;stroke-opacity:1;marker:none;color-rendering:auto;image-rendering:auto;shape-rendering:auto;text-rendering:auto;enable-background:accumulate;filter-blend-mode:normal;filter-gaussianBlur-deviation:0"
     id="rect3145-8-9-5"
     y="23"
     x="6.0004563"
     ry="7.4362683"
     rx="18"
     height="21"
     width="36" />
  <rect
     style="color:#000000;display:inline;overflow:visible;visibility:visible;opacity:1;fill:none;stroke:url(#linearGradient4651);stroke-width:0.99999994;stroke-opacity:1;marker:none;enable-background:accumulate"
     id="rect3145-8-9"
     y="22.5"
     x="5.5004563"
     ry="7.8645024"
     rx="18.5"
     height="22"
     width="37" />
  <path
     style="fill:url(#linearGradient2588-6);fill-opacity:1;stroke:none;stroke-width:0.99999988;stroke-miterlimit:4;stroke-dasharray:none;stroke-opacity:1"
     id="path3880-3"
     d="M 42.000456,30.000001 C 42.000456,33.865995 33.941581,37 24.000457,37 14.05933,37 6.0004563,33.865995 6.0004563,30.000001 6.0004563,26.134007 14.05933,23 24.000457,23 c 9.941124,0 17.999999,3.134007 17.999999,7.000001 l 0,0 z" />
  <path
     style="opacity:0.6;fill:none;fill-opacity:1;stroke:#ffffff;stroke-width:0.99999988;stroke-miterlimit:4;stroke-dasharray:none;stroke-opacity:1"
     d="m 5.8285813,31.5 c 1.62708,3.414852 9.1323057,6 18.1503907,6 9.018147,0 16.52535,-2.585104 18.152343,-6"
     id="path3878-3-4-78" />
  <rect
     style="color:#000000;display:inline;overflow:visible;visibility:visible;opacity:0.6;fill:none;stroke:url(#linearGradient3921-1-8);stroke-width:0.99999994;stroke-opacity:1;marker:none;enable-background:accumulate"
     id="rect3145-5-7"
     y="23.5"
     x="6.5004563"
     ry="7"
     rx="17.5"
     height="20"
     width="35" />
  <rect
     style="color:#000000;clip-rule:nonzero;display:inline;overflow:visible;visibility:visible;opacity:1;isolation:auto;mix-blend-mode:normal;color-interpolation:sRGB;color-interpolation-filters:linearRGB;solid-color:#000000;solid-opacity:1;fill:url(#linearGradient2593-0-3-8);fill-opacity:1;fill-rule:nonzero;stroke:none;stroke-width:0.99999988;stroke-linecap:butt;stroke-linejoin:miter;stroke-miterlimit:4;stroke-dasharray:none;stroke-dashoffset:0;stroke-opacity:1;marker:none;color-rendering:auto;image-rendering:auto;shape-rendering:auto;text-rendering:auto;enable-background:accumulate;filter-blend-mode:normal;filter-gaussianBlur-deviation:0"
     id="rect3145-8-9-5-4"
     y="14"
     x="6.0004563"
     ry="7.4362683"
     rx="18"
     height="21"
     width="36" />
  <rect
     style="color:#000000;display:inline;overflow:visible;visibility:visible;opacity:1;fill:none;stroke:url(#linearGradient4651-4);stroke-width:0.99999994;stroke-opacity:1;marker:none;enable-background:accumulate"
     id="rect3145-8-9-1"
     y="13.5"
     x="5.5004563"
     ry="7.8645024"
     rx="18.5"
     height="22"
     width="37" />
  <path
     style="fill:url(#linearGradient2588-6-8);fill-opacity:1;stroke:none;stroke-width:0.99999988;stroke-miterlimit:4;stroke-dasharray:none;stroke-opacity:1"
     id="path3880-3-2"
     d="M 42.000456,21.000001 C 42.000456,24.865995 33.941581,28 24.000457,28 14.05933,28 6.0004563,24.865995 6.0004563,21.000001 6.0004563,17.134007 14.05933,14 24.000457,14 c 9.941124,0 17.999999,3.134007 17.999999,7.000001 l 0,0 z" />
  <path
     style="opacity:0.6;fill:none;fill-opacity:1;stroke:#ffffff;stroke-width:0.99999988;stroke-miterlimit:4;stroke-dasharray:none;stroke-opacity:1"
     d="m 5.8285813,22.5 c 1.62708,3.414852 9.1323057,6 18.1503907,6 9.018147,0 16.52535,-2.585104 18.152343,-6"
     id="path3878-3-4-78-5" />
  <rect
     style="color:#000000;display:inline;overflow:visible;visibility:visible;opacity:0.6;fill:none;stroke:url(#linearGradient3921-1-8-6);stroke-width:0.99999994;stroke-opacity:1;marker:none;enable-background:accumulate"
     id="rect3145-5-7-5"
     y="14.5"
     x="6.5004563"
     ry="7"
     rx="17.5"
     height="20"
     width="35" />
  <rect
     style="color:#000000;clip-rule:nonzero;display:inline;overflow:visible;visibility:visible;opacity:1;isolation:auto;mix-blend-mode:normal;color-interpolation:sRGB;color-interpolation-filters:linearRGB;solid-color:#000000;solid-opacity:1;fill:url(#linearGradient2593-0-3-8);fill-opacity:1;fill-rule:nonzero;stroke:none;stroke-width:0.99999988;stroke-linecap:butt;stroke-linejoin:miter;stroke-miterlimit:4;stroke-dasharray:none;stroke-dashoffset:0;stroke-opacity:1;marker:none;color-rendering:auto;image-rendering:auto;shape-rendering:auto;text-rendering:auto;enable-background:accumulate"
     id="rect3145-8-9-5-4-6"
     y="5"
     x="6.0004563"
     ry="7.4362683"
     rx="18"
     height="21"
     width="36" />
  <rect
     style="color:#000000;display:inline;overflow:visible;visibility:visible;opacity:1;fill:none;stroke:url(#linearGradient4651-4-7);stroke-width:0.99999994;stroke-opacity:1;marker:none;enable-background:accumulate"
     id="rect3145-8-9-1-0"
     y="4.5"
     x="5.5004563"
     ry="7.8645024"
     rx="18.5"
     height="22"
     width="37" />
  <path
     style="fill:url(#linearGradient2588-6-8-0);fill-opacity:1;stroke:none;stroke-width:0.99999988;stroke-miterlimit:4;stroke-dasharray:none;stroke-opacity:1"
     id="path3880-3-2-3"
     d="M 42.000456,12.000001 C 42.000456,15.865995 33.941581,19 24.000457,19 14.05933,19 6.0004563,15.865995 6.0004563,12.000001 6.0004563,8.134007 14.05933,5 24.000457,5 c 9.941124,0 17.999999,3.134007 17.999999,7.000001 l 0,0 z" />
  <path
     style="opacity:0.6;fill:none;fill-opacity:1;stroke:#ffffff;stroke-width:0.99999988;stroke-miterlimit:4;stroke-dasharray:none;stroke-opacity:1"
     d="m 5.8285813,13.5 c 1.62708,3.414852 9.1323057,6 18.1503907,6 9.018147,0 16.52535,-2.585104 18.152343,-6"
     id="path3878-3-4-78-5-4" />
  <rect
     style="color:#000000;display:inline;overflow:visible;visibility:visible;opacity:0.6;fill:none;stroke:url(#linearGradient3921-1-8-6-0);stroke-width:0.99999994;stroke-opacity:1;marker:none;enable-background:accumulate"
     id="rect3145-5-7-5-5"
     y="5.5"
     x="6.5004563"
     ry="7"
     rx="17.5"
     height="20"
     width="35" />
  <path
     d="m 37.007288,27.217061 c -5.364147,0 -9.721789,4.35764 -9.721789,9.721787 0,5.364149 4.357642,9.721791 9.721789,9.72179 5.364145,0 9.721791,-4.357641 9.721786,-9.72179 0,-5.364147 -4.357641,-9.721787 -9.721786,-9.721787 z"
     id="path2555-3"
     style="color:#000000;display:inline;overflow:visible;visibility:visible;fill:url(#radialGradient3092);fill-opacity:1;fill-rule:nonzero;stroke:none;stroke-width:0.474234;marker:none;enable-background:accumulate" />
  <path
     d="m 46.254841,36.938522 c 0,5.107448 -4.140576,9.247881 -9.247437,9.247881 -5.107329,0 -9.247672,-4.14048 -9.247672,-9.247881 0,-5.107212 4.140343,-9.247226 9.247672,-9.247226 5.106861,0 9.247437,4.140014 9.247437,9.247226 z"
     id="path8655-4"
     style="color:#000000;display:inline;overflow:visible;visibility:visible;opacity:0.3;fill:none;stroke:url(#linearGradient3540);stroke-width:1;stroke-linecap:round;stroke-linejoin:round;stroke-miterlimit:4;stroke-dasharray:none;stroke-dashoffset:0;stroke-opacity:1;marker:none;enable-background:accumulate" />
  <path
     d="m 37.007288,27.217061 c -5.364147,0 -9.721789,4.35764 -9.721789,9.721788 0,5.364148 4.357642,9.72179 9.721789,9.721789 5.364145,0 9.721791,-4.357641 9.721786,-9.721789 0,-5.364148 -4.357641,-9.721788 -9.721786,-9.721788 z"
     id="path2555-6-0"
     style="color:#000000;clip-rule:nonzero;display:inline;overflow:visible;visibility:visible;opacity:0.5;isolation:auto;mix-blend-mode:normal;color-interpolation:sRGB;color-interpolation-filters:linearRGB;solid-color:#000000;solid-opacity:1;fill:none;fill-opacity:1;fill-rule:nonzero;stroke:#0f5a00;stroke-width:1;stroke-linecap:round;stroke-linejoin:round;stroke-miterlimit:4;stroke-dasharray:none;stroke-dashoffset:0;stroke-opacity:1;marker:none;color-rendering:auto;image-rendering:auto;shape-rendering:auto;text-rendering:auto;enable-background:accumulate" />
  <path
     style="color:#000000;clip-rule:nonzero;display:inline;overflow:visible;visibility:visible;opacity:0.15;isolation:auto;mix-blend-mode:normal;color-interpolation:sRGB;color-interpolation-filters:linearRGB;solid-color:#000000;solid-opacity:1;fill:#1c2c38;fill-opacity:1;fill-rule:nonzero;stroke:none;stroke-width:0.474234;stroke-linecap:butt;stroke-linejoin:miter;stroke-miterlimit:4;stroke-dasharray:none;stroke-dashoffset:0;stroke-opacity:1;marker:none;color-rendering:auto;image-rendering:auto;shape-rendering:auto;text-rendering:auto;enable-background:accumulate"
     id="path4235"
     d="m 37.00722,29.348401 c -0.781428,0 -1.42548,0.644052 -1.42548,1.42548 v 5.690802 c 0,0.781428 0.644052,1.425479 1.42548,1.425479 0.781427,0 1.425479,-0.644051 1.425479,-1.425479 v -5.690802 c 0,-0.781428 -0.644052,-1.42548 -1.425479,-1.42548 z m -3.023239,2.311889 c -0.274358,0 -0.479141,0.09797 -0.618727,0.163944 a 0.4769915,0.4769915 0 0 0 -0.04168,0.02223 l -0.296396,0.177838 a 0.4769915,0.4769915 0 0 0 -0.0176,0.01112 c -1.498698,0.988522 -2.561376,2.512448 -2.93432,4.292184 -6.5e-5,6.4e-5 -0.0018,0.0018 -0.0018,0.0018 -1.8e-5,2.6e-5 -0.08613,0.199113 -0.08614,0.199141 a 0.4769915,0.4769915 0 0 0 -9.48e-4,0.0046 c -0.03371,0.199982 -0.01592,0.255968 -0.0019,0.159314 l 9.49e-4,-0.0019 c -0.04367,0.291295 -0.09447,0.606559 -0.09447,0.959566 0,3.803117 3.200961,6.879165 7.116282,6.879165 3.915321,0 7.116282,-3.076048 7.116282,-6.879165 0,-0.300678 -0.02663,-0.586802 -0.06298,-0.862327 a 0.4769915,0.4769915 0 0 0 -9.49e-4,-9.48e-4 c -0.02318,-0.173047 -0.06172,-0.254666 -0.06206,-0.256568 -0.329487,-1.870389 -1.435331,-3.467828 -2.992672,-4.49503 a 0.4769915,0.4769915 0 0 0 -0.0176,-0.01112 L 40.690853,31.84644 a 0.4769915,0.4769915 0 0 0 -0.04168,-0.02223 c -0.139565,-0.06596 -0.344347,-0.163923 -0.618705,-0.163923 -0.797959,0 -1.455119,0.65716 -1.455119,1.455119 0,0.476557 0.238124,0.879119 0.562226,1.141124 0.09355,0.07564 0.20555,0.155202 0.351044,0.21674 l -0.0778,-0.04168 c 0.824456,0.548611 1.433108,1.366868 1.702424,2.311889 0.05488,0.192995 0.07252,0.218138 0.02779,0.05372 0.08753,0.321571 0.131526,0.648452 0.131526,1.001262 0,2.258274 -1.89373,4.087486 -4.265324,4.087486 -2.371594,0 -4.265323,-1.829212 -4.265323,-4.087486 0,-0.352809 0.04399,-0.679689 0.131526,-1.001262 a 0.4769915,0.4769915 0 0 0 0,-9.49e-4 c -0.0431,0.159706 -0.02842,0.144375 0.02779,-0.05279 0.269317,-0.945022 0.877968,-1.763278 1.702424,-2.311889 l -0.0778,0.04168 c 0.145495,-0.06154 0.257503,-0.141115 0.351044,-0.216739 0.324103,-0.262005 0.562226,-0.664567 0.562226,-1.141124 0,-0.79796 -0.657159,-1.455119 -1.455119,-1.455119 z" />
  <path
     style="color:#000000;clip-rule:nonzero;display:inline;overflow:visible;visibility:visible;opacity:0.3;isolation:auto;mix-blend-mode:normal;color-interpolation:sRGB;color-interpolation-filters:linearRGB;solid-color:#000000;solid-opacity:1;fill:#1c2c38;fill-opacity:1;fill-rule:nonzero;stroke:none;stroke-width:0.670467;stroke-linecap:butt;stroke-linejoin:miter;stroke-miterlimit:4;stroke-dasharray:none;stroke-dashoffset:0;stroke-opacity:1;marker:none;color-rendering:auto;image-rendering:auto;shape-rendering:auto;text-rendering:auto;enable-background:accumulate"
     id="path3782-7"
     d="m 33.983981,32.137302 c -0.149322,0 -0.288357,0.05872 -0.414955,0.118559 l -0.296396,0.177837 c -1.454802,0.959569 -2.480175,2.442426 -2.786122,4.179183 -3.26e-4,0.0019 -0.02932,-0.0018 -0.02964,0 -0.0081,0.04783 0.007,0.09998 0,0.148198 -0.04391,0.292918 -0.08892,0.582901 -0.08892,0.889188 0,3.535811 2.972502,6.402153 6.63927,6.402153 3.666767,0 6.639269,-2.866342 6.639269,-6.402153 0,-0.271981 -0.02455,-0.537006 -0.05928,-0.800269 -0.01096,-0.08187 -0.04505,-0.156372 -0.05928,-0.237117 -0.305947,-1.736757 -1.33132,-3.219614 -2.786122,-4.179183 l -0.296396,-0.177837 c -0.126598,-0.05984 -0.265633,-0.118559 -0.414955,-0.118559 -0.5401,0 -0.978106,0.438006 -0.978106,0.978107 0,0.307381 0.163546,0.591351 0.385315,0.770629 0.07048,0.05698 0.152464,0.112394 0.237116,0.148198 0.916477,0.609844 1.595645,1.521434 1.896935,2.578645 0.0057,0.02017 0.02414,0.03906 0.02964,0.05928 0.09857,0.362133 0.148198,0.733343 0.148198,1.126305 0,2.52558 -2.123216,4.564498 -4.742335,4.564498 -2.61912,0 -4.742336,-2.038918 -4.742336,-4.564498 0,-0.392962 0.04962,-0.764172 0.148198,-1.126305 0.0057,-0.02108 0.02366,-0.03832 0.02964,-0.05928 0.301289,-1.057211 0.980458,-1.968801 1.896934,-2.578645 0.08465,-0.0358 0.166631,-0.09121 0.237117,-0.148198 0.221768,-0.179278 0.385314,-0.463248 0.385314,-0.770629 0,-0.540101 -0.438005,-0.978107 -0.978106,-0.978107 z m 3.023239,-2.311888 c 0.52545,0 0.948467,0.423016 0.948467,0.948467 v 5.690802 c 0,0.525451 -0.423017,0.948467 -0.948467,0.948467 -0.525451,0 -0.948467,-0.423016 -0.948467,-0.948467 v -5.690802 c 0,-0.525451 0.423016,-0.948467 0.948467,-0.948467 z" />
  <path
     style="color:#000000;clip-rule:nonzero;display:inline;overflow:visible;visibility:visible;isolation:auto;mix-blend-mode:normal;color-interpolation:sRGB;color-interpolation-filters:linearRGB;solid-color:#000000;solid-opacity:1;fill:#ffffff;fill-opacity:1;fill-rule:nonzero;stroke:none;stroke-width:0.474234;stroke-linecap:round;stroke-linejoin:round;stroke-miterlimit:4;stroke-dasharray:none;stroke-dashoffset:0;stroke-opacity:1;marker:none;color-rendering:auto;image-rendering:auto;shape-rendering:auto;text-rendering:auto;enable-background:accumulate"
     id="path3782"
     d="m 33.983981,31.663069 c -0.149322,0 -0.288357,0.05872 -0.414955,0.118558 l -0.296396,0.177838 c -1.454802,0.959568 -2.480175,2.442426 -2.786122,4.179183 -3.26e-4,0.0019 -0.02932,-0.0018 -0.02964,0 -0.0081,0.04783 0.007,0.09998 0,0.148198 -0.04391,0.292918 -0.08892,0.5829 -0.08892,0.889188 0,3.535811 2.972502,6.402152 6.63927,6.402152 3.666767,0 6.639269,-2.866341 6.639269,-6.402152 0,-0.271982 -0.02455,-0.537006 -0.05928,-0.80027 -0.01096,-0.08187 -0.04505,-0.156371 -0.05928,-0.237116 -0.305947,-1.736757 -1.33132,-3.219615 -2.786122,-4.179183 l -0.296396,-0.177838 c -0.126598,-0.05984 -0.265633,-0.118558 -0.414955,-0.118558 -0.5401,0 -0.978106,0.438005 -0.978106,0.978106 0,0.307381 0.163546,0.591351 0.385315,0.77063 0.07048,0.05698 0.152464,0.112393 0.237116,0.148198 0.916477,0.609843 1.595645,1.521434 1.896935,2.578645 0.0057,0.02017 0.02414,0.03906 0.02964,0.05928 0.09857,0.362132 0.148198,0.733342 0.148198,1.126305 0,2.52558 -2.123216,4.564497 -4.742335,4.564497 -2.61912,0 -4.742336,-2.038917 -4.742336,-4.564497 0,-0.392963 0.04962,-0.764173 0.148198,-1.126305 0.0057,-0.02108 0.02366,-0.03832 0.02964,-0.05928 0.301289,-1.057211 0.980458,-1.968802 1.896934,-2.578645 0.08465,-0.03581 0.166631,-0.09121 0.237117,-0.148198 0.221768,-0.179279 0.385314,-0.463249 0.385314,-0.77063 0,-0.540101 -0.438005,-0.978106 -0.978106,-0.978106 z M 37.00722,29.35118 c 0.52545,0 0.948467,0.423016 0.948467,0.948467 v 5.690803 c 0,0.52545 -0.423017,0.948467 -0.948467,0.948467 -0.525451,0 -0.948467,-0.423017 -0.948467,-0.948467 v -5.690803 c 0,-0.525451 0.423016,-0.948467 0.948467,-0.948467 z" />
</svg>
