<?xml version="1.0" encoding="UTF-8"?>
<!DOCTYPE svg PUBLIC "-//W3C//DTD SVG 1.1//EN" "http://www.w3.org/Graphics/SVG/1.1/DTD/svg11.dtd">
<!-- Creator: CorelDRAW -->
<svg xmlns="http://www.w3.org/2000/svg" xml:space="preserve" width="1920px" height="1080px" version="1.1" style="shape-rendering:geometricPrecision; text-rendering:geometricPrecision; image-rendering:optimizeQuality; fill-rule:evenodd; clip-rule:evenodd"
viewBox="0 0 1920 1080"
 xmlns:xlink="http://www.w3.org/1999/xlink"
 xmlns:xodm="http://www.corel.com/coreldraw/odm/2003">
 <defs>
  <style type="text/css">
   <![CDATA[
    .fil4 {fill:none}
    .fil3 {fill:#727271}
    .fil7 {fill:#2B2A29}
    .fil0 {fill:#008DD2}
    .fil1 {fill:#666666}
    .fil2 {fill:#C8C8C8}
    .fil6 {fill:#C8C8C8;fill-rule:nonzero}
    .fil5 {fill:#C8C8C8}
   ]]>
  </style>
 </defs>
 <g id="Layer_x0020_1">
  <metadata id="CorelCorpID_0Corel-Layer"/>
  <rect class="fil0" width="1920" height="1080"/>
  <g id="_2710308707168">
   <path class="fil1" d="M859.86 328.29l200 0c6.88,0 13.12,2.81 17.65,7.34l14.15 14.15c4.53,4.53 7.34,10.78 7.34,17.65l0 150.01c0,13.74 -11.25,24.99 -25,24.99l-200 0c-6.87,0 -13.12,-2.81 -17.66,-7.34l-14.14 -14.14c-4.53,-4.53 -7.34,-10.78 -7.34,-17.66l0 -150c0,-13.75 11.25,-25 25,-25z"/>
  </g>
  <rect class="fil2" x="834.86" y="328.29" width="250" height="200" rx="28.83" ry="25"/>
  <rect class="fil3" x="859.86" y="353.29" width="200" height="150" rx="18.45" ry="15"/>
  <rect class="fil4" width="1920" height="1080"/>
  <path class="fil5" d="M957.51 377.1c-0.99,-0.01 -1.9,0.91 -1.9,2.04l0 2.59c-14.1,2.12 -24.91,14.28 -24.91,28.97 0,16.18 13.12,29.3 29.3,29.3 14.69,0 26.85,-10.81 28.97,-24.91l2.59 0c1.13,0 2.05,-0.91 2.04,-1.9 0.06,-0.72 0.09,-1.6 0.09,-2.49 0,-18.61 -15.08,-33.69 -33.69,-33.69 -0.89,0 -1.77,0.03 -2.49,0.09zm-1.9 13.56l0 0 0 20.04c0,2.43 1.96,4.39 4.39,4.39l20.04 0c-2.02,9.22 -10.22,16.12 -20.04,16.12 -11.33,0 -20.51,-9.18 -20.51,-20.51 0,-9.82 6.9,-18.02 16.12,-20.04zm8.78 -4.48l0 0c10.24,1.83 18.3,9.89 20.13,20.13l-20.13 0 0 -20.13z"/>
  <path class="fil6" d="M928.75 477.61c0,0.14 -0.04,0.29 -0.13,0.41 -0.09,0.12 -0.24,0.22 -0.46,0.3 -0.22,0.07 -0.52,0.13 -0.88,0.18 -0.37,0.04 -0.84,0.07 -1.4,0.07 -0.56,0 -1.02,-0.03 -1.38,-0.07 -0.37,-0.05 -0.66,-0.11 -0.88,-0.18 -0.21,-0.08 -0.37,-0.18 -0.45,-0.3 -0.1,-0.12 -0.14,-0.27 -0.14,-0.41l0 -24.12 -0.05 0 -8.55 24.09c-0.07,0.2 -0.16,0.36 -0.3,0.49 -0.14,0.14 -0.32,0.24 -0.56,0.32 -0.24,0.07 -0.54,0.12 -0.9,0.15 -0.37,0.02 -0.82,0.03 -1.33,0.03 -0.52,0 -0.96,-0.02 -1.33,-0.06 -0.37,-0.04 -0.67,-0.1 -0.9,-0.18 -0.24,-0.09 -0.43,-0.19 -0.57,-0.31 -0.13,-0.12 -0.22,-0.27 -0.27,-0.44l-8.26 -24.09 -0.05 0 0 24.12c0,0.14 -0.03,0.29 -0.12,0.41 -0.09,0.12 -0.24,0.22 -0.47,0.3 -0.23,0.07 -0.53,0.13 -0.89,0.18 -0.36,0.04 -0.82,0.07 -1.38,0.07 -0.56,0 -1.02,-0.03 -1.39,-0.07 -0.36,-0.05 -0.66,-0.11 -0.88,-0.18 -0.22,-0.08 -0.37,-0.18 -0.46,-0.3 -0.09,-0.12 -0.12,-0.27 -0.12,-0.41l0 -26.4c0,-0.78 0.2,-1.38 0.61,-1.79 0.42,-0.41 0.96,-0.62 1.66,-0.62l3.94 0c0.7,0 1.31,0.06 1.81,0.17 0.51,0.12 0.94,0.31 1.31,0.57 0.36,0.27 0.67,0.62 0.92,1.06 0.24,0.44 0.46,0.98 0.64,1.62l6.38 17.64 0.09 0 6.61 -17.61c0.2,-0.64 0.42,-1.17 0.65,-1.62 0.24,-0.44 0.52,-0.8 0.83,-1.07 0.31,-0.27 0.69,-0.47 1.11,-0.59 0.43,-0.11 0.93,-0.17 1.49,-0.17l4.06 0c0.42,0 0.77,0.06 1.07,0.17 0.29,0.1 0.54,0.25 0.73,0.47 0.19,0.2 0.34,0.45 0.44,0.75 0.1,0.29 0.15,0.64 0.15,1.02l0 26.4z"/>
  <path id="_1" class="fil6" d="M939.45 477.65c0,0.15 -0.04,0.28 -0.14,0.4 -0.08,0.12 -0.24,0.21 -0.46,0.29 -0.22,0.07 -0.52,0.13 -0.88,0.17 -0.37,0.04 -0.83,0.06 -1.4,0.06 -0.56,0 -1.03,-0.02 -1.4,-0.06 -0.36,-0.04 -0.65,-0.1 -0.87,-0.17 -0.23,-0.08 -0.38,-0.17 -0.47,-0.29 -0.09,-0.12 -0.14,-0.25 -0.14,-0.4l0 -20.39c0,-0.15 0.05,-0.28 0.14,-0.4 0.09,-0.11 0.24,-0.21 0.47,-0.29 0.22,-0.09 0.51,-0.15 0.87,-0.2 0.37,-0.04 0.84,-0.07 1.4,-0.07 0.57,0 1.03,0.03 1.4,0.07 0.36,0.05 0.66,0.11 0.88,0.2 0.22,0.08 0.38,0.18 0.46,0.29 0.1,0.12 0.14,0.25 0.14,0.4l0 20.39zm0.47 -27.37c0,1.16 -0.23,1.96 -0.71,2.4 -0.47,0.45 -1.35,0.67 -2.64,0.67 -1.3,0 -2.18,-0.21 -2.62,-0.64 -0.46,-0.43 -0.68,-1.21 -0.68,-2.31 0,-1.17 0.23,-1.97 0.7,-2.43 0.46,-0.44 1.34,-0.67 2.65,-0.67 1.28,0 2.16,0.22 2.62,0.66 0.46,0.43 0.68,1.2 0.68,2.32z"/>
  <path id="_2" class="fil6" d="M962.59 477.65c0,0.15 -0.05,0.28 -0.15,0.4 -0.08,0.12 -0.24,0.21 -0.45,0.29 -0.22,0.07 -0.51,0.13 -0.89,0.17 -0.37,0.04 -0.83,0.06 -1.38,0.06 -0.57,0 -1.04,-0.02 -1.41,-0.06 -0.38,-0.04 -0.68,-0.1 -0.9,-0.17 -0.21,-0.08 -0.36,-0.17 -0.45,-0.29 -0.09,-0.12 -0.14,-0.25 -0.14,-0.4l0 -11.64c0,-1 -0.07,-1.78 -0.22,-2.34 -0.14,-0.57 -0.35,-1.06 -0.62,-1.45 -0.28,-0.41 -0.64,-0.72 -1.07,-0.95 -0.43,-0.22 -0.93,-0.33 -1.51,-0.33 -0.74,0 -1.47,0.27 -2.22,0.81 -0.74,0.53 -1.52,1.31 -2.33,2.33l0 13.57c0,0.15 -0.05,0.28 -0.14,0.4 -0.09,0.12 -0.24,0.21 -0.47,0.29 -0.22,0.07 -0.51,0.13 -0.87,0.17 -0.37,0.04 -0.84,0.06 -1.4,0.06 -0.56,0 -1.03,-0.02 -1.4,-0.06 -0.36,-0.04 -0.66,-0.1 -0.87,-0.17 -0.23,-0.08 -0.39,-0.17 -0.47,-0.29 -0.1,-0.12 -0.14,-0.25 -0.14,-0.4l0 -20.43c0,-0.15 0.04,-0.28 0.11,-0.4 0.07,-0.12 0.21,-0.21 0.41,-0.29 0.2,-0.07 0.45,-0.13 0.77,-0.17 0.31,-0.04 0.71,-0.06 1.18,-0.06 0.49,0 0.89,0.02 1.21,0.06 0.32,0.04 0.57,0.1 0.75,0.17 0.17,0.08 0.29,0.17 0.37,0.29 0.08,0.12 0.12,0.25 0.12,0.4l0 2.36c1.12,-1.22 2.27,-2.13 3.44,-2.74 1.17,-0.61 2.39,-0.91 3.65,-0.91 1.39,0 2.56,0.22 3.52,0.68 0.95,0.46 1.72,1.08 2.31,1.87 0.59,0.78 1.01,1.7 1.27,2.76 0.25,1.05 0.39,2.32 0.39,3.8l0 12.61z"/>
  <path id="_3" class="fil6" d="M971.89 477.65c0,0.15 -0.05,0.28 -0.14,0.4 -0.09,0.12 -0.24,0.21 -0.47,0.29 -0.22,0.07 -0.52,0.13 -0.88,0.17 -0.36,0.04 -0.83,0.06 -1.39,0.06 -0.57,0 -1.04,-0.02 -1.4,-0.06 -0.36,-0.04 -0.66,-0.1 -0.88,-0.17 -0.22,-0.08 -0.38,-0.17 -0.47,-0.29 -0.09,-0.12 -0.14,-0.25 -0.14,-0.4l0 -20.39c0,-0.15 0.05,-0.28 0.14,-0.4 0.09,-0.11 0.25,-0.21 0.47,-0.29 0.22,-0.09 0.52,-0.15 0.88,-0.2 0.36,-0.04 0.83,-0.07 1.4,-0.07 0.56,0 1.03,0.03 1.39,0.07 0.36,0.05 0.66,0.11 0.88,0.2 0.23,0.08 0.38,0.18 0.47,0.29 0.09,0.12 0.14,0.25 0.14,0.4l0 20.39zm0.47 -27.37c0,1.16 -0.24,1.96 -0.71,2.4 -0.48,0.45 -1.35,0.67 -2.64,0.67 -1.3,0 -2.18,-0.21 -2.63,-0.64 -0.45,-0.43 -0.68,-1.21 -0.68,-2.31 0,-1.17 0.24,-1.97 0.71,-2.43 0.46,-0.44 1.34,-0.67 2.64,-0.67 1.28,0 2.16,0.22 2.62,0.66 0.46,0.43 0.69,1.2 0.69,2.32z"/>
  <path id="_4" class="fil6" d="M1003.39 463.27c0,2.45 -0.31,4.65 -0.92,6.59 -0.61,1.93 -1.51,3.58 -2.72,4.93 -1.21,1.35 -2.7,2.38 -4.47,3.09 -1.78,0.71 -3.84,1.06 -6.17,1.06 -2.31,0 -4.32,-0.3 -6.03,-0.9 -1.72,-0.61 -3.15,-1.52 -4.29,-2.76 -1.14,-1.24 -2,-2.81 -2.57,-4.71 -0.57,-1.91 -0.86,-4.17 -0.86,-6.78 0,-2.39 0.3,-4.54 0.91,-6.46 0.61,-1.91 1.52,-3.54 2.73,-4.88 1.2,-1.34 2.69,-2.37 4.47,-3.09 1.78,-0.71 3.84,-1.07 6.19,-1.07 2.24,0 4.22,0.29 5.94,0.89 1.71,0.59 3.15,1.51 4.3,2.75 1.15,1.23 2.02,2.79 2.6,4.67 0.59,1.89 0.89,4.11 0.89,6.67zm-6.33 0.31c0,-1.56 -0.13,-2.97 -0.37,-4.25 -0.24,-1.27 -0.65,-2.36 -1.24,-3.27 -0.59,-0.91 -1.37,-1.61 -2.34,-2.11 -0.98,-0.49 -2.2,-0.74 -3.66,-0.74 -1.48,0 -2.71,0.28 -3.69,0.83 -1,0.56 -1.8,1.31 -2.41,2.24 -0.61,0.93 -1.04,2.01 -1.29,3.26 -0.25,1.25 -0.37,2.56 -0.37,3.95 0,1.62 0.12,3.07 0.36,4.36 0.24,1.29 0.66,2.39 1.24,3.31 0.57,0.91 1.35,1.61 2.32,2.09 0.98,0.48 2.21,0.72 3.68,0.72 1.48,0 2.71,-0.27 3.7,-0.82 0.99,-0.55 1.8,-1.3 2.41,-2.25 0.6,-0.94 1.03,-2.04 1.28,-3.3 0.25,-1.26 0.38,-2.6 0.38,-4.02z"/>
  <path id="_5" class="fil6" d="M1025.75 469.54c0,1.56 -0.29,2.92 -0.86,4.1 -0.59,1.17 -1.37,2.15 -2.36,2.93 -1,0.79 -2.16,1.38 -3.49,1.78 -1.33,0.4 -2.75,0.59 -4.26,0.59 -1.03,0 -1.97,-0.08 -2.86,-0.26 -0.87,-0.17 -1.64,-0.37 -2.32,-0.61 -0.67,-0.24 -1.23,-0.49 -1.68,-0.75 -0.46,-0.27 -0.78,-0.5 -0.98,-0.7 -0.2,-0.2 -0.34,-0.49 -0.42,-0.86 -0.09,-0.38 -0.13,-0.91 -0.13,-1.61 0,-0.48 0.02,-0.87 0.05,-1.19 0.03,-0.32 0.08,-0.58 0.15,-0.78 0.07,-0.2 0.16,-0.34 0.27,-0.43 0.12,-0.08 0.25,-0.12 0.41,-0.12 0.21,0 0.51,0.12 0.9,0.38 0.39,0.25 0.89,0.53 1.5,0.84 0.61,0.3 1.35,0.58 2.2,0.83 0.84,0.26 1.83,0.39 2.94,0.39 0.74,0 1.4,-0.09 1.97,-0.26 0.59,-0.18 1.08,-0.42 1.49,-0.74 0.4,-0.32 0.71,-0.71 0.93,-1.18 0.21,-0.47 0.32,-0.99 0.32,-1.57 0,-0.67 -0.18,-1.25 -0.55,-1.73 -0.37,-0.48 -0.84,-0.91 -1.44,-1.28 -0.58,-0.38 -1.25,-0.73 -2,-1.05 -0.75,-0.33 -1.52,-0.68 -2.32,-1.04 -0.79,-0.37 -1.57,-0.79 -2.31,-1.25 -0.75,-0.47 -1.42,-1.02 -2.01,-1.67 -0.59,-0.65 -1.07,-1.41 -1.43,-2.3 -0.37,-0.89 -0.55,-1.95 -0.55,-3.18 0,-1.42 0.26,-2.67 0.79,-3.74 0.52,-1.07 1.23,-1.97 2.12,-2.68 0.9,-0.71 1.95,-1.24 3.16,-1.59 1.21,-0.35 2.5,-0.52 3.86,-0.52 0.69,0 1.4,0.05 2.1,0.16 0.7,0.1 1.36,0.25 1.97,0.43 0.61,0.19 1.15,0.39 1.62,0.62 0.47,0.23 0.78,0.42 0.94,0.58 0.15,0.14 0.25,0.28 0.31,0.38 0.05,0.11 0.1,0.25 0.14,0.43 0.04,0.17 0.06,0.39 0.07,0.66 0.02,0.27 0.03,0.6 0.03,0.99 0,0.44 -0.01,0.82 -0.03,1.12 -0.03,0.31 -0.07,0.56 -0.12,0.76 -0.06,0.19 -0.13,0.34 -0.23,0.43 -0.1,0.09 -0.23,0.14 -0.4,0.14 -0.17,0 -0.43,-0.11 -0.8,-0.32 -0.37,-0.21 -0.82,-0.45 -1.35,-0.7 -0.54,-0.25 -1.16,-0.48 -1.86,-0.68 -0.7,-0.21 -1.47,-0.32 -2.31,-0.32 -0.66,0 -1.23,0.08 -1.72,0.25 -0.49,0.15 -0.89,0.38 -1.22,0.66 -0.33,0.28 -0.58,0.62 -0.74,1.02 -0.16,0.39 -0.24,0.82 -0.24,1.25 0,0.66 0.18,1.23 0.54,1.71 0.36,0.48 0.85,0.91 1.45,1.29 0.6,0.36 1.29,0.71 2.05,1.04 0.76,0.33 1.54,0.68 2.34,1.04 0.79,0.37 1.58,0.78 2.33,1.25 0.77,0.47 1.45,1.02 2.05,1.67 0.59,0.65 1.08,1.41 1.45,2.29 0.36,0.88 0.54,1.91 0.54,3.1z"/>
  <g id="_2710308708752">
   <path class="fil1" d="M839.86 595.79l2.4 0 0 -2.62c0,-2.75 2.25,-5 5,-5l15 0c1.38,0 2.63,0.57 3.53,1.47l6.15 6.15 0.32 0 0 -2.62c0,-2.75 2.25,-5 5,-5l15 0c1.38,0 2.63,0.57 3.53,1.47l6.16 6.15 0.31 0 0 -2.62c0,-2.75 2.25,-5 5,-5l15 0c1.38,0 2.63,0.57 3.54,1.47l6.15 6.15 0.32 0 0 -2.62c0,-2.75 2.24,-5 4.99,-5l15 0c1.38,0 2.63,0.57 3.54,1.47l6.15 6.15 0.32 0 0 -2.62c0,-2.75 2.25,-5 5,-5l15 0c1.37,0 2.62,0.57 3.53,1.47l6.15 6.15 0.32 0 0 -2.62c0,-2.75 2.25,-5 5,-5l15 0c1.37,0 2.62,0.57 3.53,1.47l6.15 6.15 0.32 0 0 -2.62c0,-2.75 2.25,-5 5,-5l15 0c1.37,0 2.62,0.57 3.53,1.47l6.15 6.15 0.32 0 0 -2.62c0,-2.75 2.25,-5 5,-5l15 0c1.37,0 2.63,0.57 3.53,1.47l14.14 14.14c0.11,0.11 0.22,0.23 0.32,0.35l7.27 7.27c0.91,0.91 1.47,2.16 1.47,3.54l0 15c0,2.75 -2.25,5 -5,5l-240 0c-1.37,0 -2.62,-0.57 -3.53,-1.47l-14.14 -14.14c-0.91,-0.91 -1.47,-2.16 -1.47,-3.54l0 -15c0,-2.75 2.25,-5 5,-5z"/>
  </g>
  <path class="fil2" d="M839.86 595.79l2.4 0 0 -2.62c0,-2.75 2.25,-5 5,-5l15 0c2.75,0 5,2.25 5,5l0 2.62 5 0 0 -2.62c0,-2.75 2.25,-5 5,-5l15 0c2.75,0 5,2.25 5,5l0 2.62 5 0 0 -2.62c0,-2.75 2.25,-5 5,-5l15 0c2.75,0 5,2.25 5,5l0 2.62 5.01 0 0 -2.62c0,-2.75 2.24,-5 4.99,-5l15 0c2.76,0 5,2.25 5,5l0 2.62 5.01 0 0 -2.62c0,-2.75 2.25,-5 5,-5l15 0c2.75,0 5,2.25 5,5l0 2.62 5 0 0 -2.62c0,-2.75 2.25,-5 5,-5l15 0c2.75,0 5,2.25 5,5l0 2.62 5 0 0 -2.62c0,-2.75 2.25,-5 5,-5l15 0c2.75,0 5,2.25 5,5l0 2.62 5 0 0 -2.62c0,-2.75 2.25,-5 5,-5l15 0c2.75,0 5,2.25 5,5l0 2.62 2.59 0c2.75,0 5,2.25 5,5l0 15c0,2.75 -2.25,5 -5,5l-240 0c-2.75,0 -5,-2.25 -5,-5l0 -15c0,-2.75 2.25,-5 5,-5z"/>
  <g id="_2710308706160">
   <path class="fil1" d="M909.86 530.79l100 0c3.44,0 6.56,1.41 8.83,3.67l0.06 0.07c0.01,0.01 0.03,0.02 0.04,0.04l14.04 14.04c2.27,2.26 3.67,5.39 3.67,8.82l0 10.01c0,1.37 -1.12,2.49 -2.5,2.49l-120 0c-0.69,0 -1.31,-0.28 -1.76,-0.73l-14.15 -14.14c-0.45,-0.46 -0.73,-1.08 -0.73,-1.77l0 -10c0,-6.87 5.62,-12.5 12.5,-12.5z"/>
  </g>
  <path class="fil2" d="M909.86 530.79l100 0c6.88,0 12.5,5.63 12.5,12.5l0 10c0,1.38 -1.12,2.5 -2.5,2.5l-120 0c-1.38,0 -2.5,-1.12 -2.5,-2.5l0 -10c0,-6.87 5.62,-12.5 12.5,-12.5z"/>
  <g id="_2710304892128">
   <polygon class="fil0" points="1690.2,841.97 1840.2,841.97 1840.2,991.97 1690.2,991.97 "/>
   <g>
    <g>
     <path class="fil7" d="M1736.75 844.55c0,-1.42 -1.16,-2.58 -2.58,-2.58 -1.43,0 -2.59,1.16 -2.59,2.58 0,1.43 1.16,2.59 2.59,2.59 1.42,0 2.58,-1.16 2.58,-2.59z"/>
     <path class="fil7" d="M1741.92 844.55c0,-1.42 -1.15,-2.58 -2.58,-2.58 -1.43,0 -2.59,1.16 -2.59,2.58 0,1.43 1.16,2.59 2.59,2.59 1.43,0 2.58,-1.16 2.58,-2.59z"/>
     <path class="fil7" d="M1747.1 844.55c0,-1.42 -1.16,-2.58 -2.59,-2.58 -1.43,0 -2.59,1.16 -2.59,2.58 0,1.43 1.16,2.59 2.59,2.59 1.43,0 2.59,-1.16 2.59,-2.59z"/>
     <path class="fil7" d="M1767.79 844.55c0,-1.42 -1.16,-2.58 -2.59,-2.58 -1.43,0 -2.59,1.16 -2.59,2.58 0,1.43 1.16,2.59 2.59,2.59 1.43,0 2.59,-1.16 2.59,-2.59z"/>
     <path class="fil7" d="M1772.96 844.55c0,-1.42 -1.16,-2.58 -2.59,-2.58 -1.43,0 -2.58,1.16 -2.58,2.58 0,1.43 1.15,2.59 2.58,2.59 1.43,0 2.59,-1.16 2.59,-2.59z"/>
     <path class="fil7" d="M1778.13 844.55c0,-1.42 -1.16,-2.58 -2.58,-2.58 -1.43,0 -2.59,1.16 -2.59,2.58 0,1.43 1.16,2.59 2.59,2.59 1.42,0 2.58,-1.16 2.58,-2.59z"/>
     <path class="fil7" d="M1783.3 844.55c0,-1.42 -1.15,-2.58 -2.58,-2.58 -1.43,0 -2.59,1.16 -2.59,2.58 0,1.43 1.16,2.59 2.59,2.59 1.43,0 2.58,-1.16 2.58,-2.59z"/>
     <path class="fil7" d="M1788.48 844.55c0,-1.42 -1.16,-2.58 -2.59,-2.58 -1.43,0 -2.59,1.16 -2.59,2.58 0,1.43 1.16,2.59 2.59,2.59 1.43,0 2.59,-1.16 2.59,-2.59z"/>
     <path class="fil7" d="M1736.75 849.73c0,-1.43 -1.16,-2.59 -2.58,-2.59 -1.43,0 -2.59,1.16 -2.59,2.59 0,1.42 1.16,2.58 2.59,2.58 1.42,0 2.58,-1.16 2.58,-2.58z"/>
     <path class="fil7" d="M1741.92 849.73c0,-1.43 -1.15,-2.59 -2.58,-2.59 -1.43,0 -2.59,1.16 -2.59,2.59 0,1.42 1.16,2.58 2.59,2.58 1.43,0 2.58,-1.16 2.58,-2.58z"/>
     <path class="fil7" d="M1747.1 849.73c0,-1.43 -1.16,-2.59 -2.59,-2.59 -1.43,0 -2.59,1.16 -2.59,2.59 0,1.42 1.16,2.58 2.59,2.58 1.43,0 2.59,-1.16 2.59,-2.58z"/>
     <path class="fil7" d="M1762.61 849.73c0,-1.43 -1.15,-2.59 -2.58,-2.59 -1.43,0 -2.59,1.16 -2.59,2.59 0,1.42 1.16,2.58 2.59,2.58 1.43,0 2.58,-1.16 2.58,-2.58z"/>
     <path class="fil7" d="M1767.79 849.73c0,-1.43 -1.16,-2.59 -2.59,-2.59 -1.43,0 -2.59,1.16 -2.59,2.59 0,1.42 1.16,2.58 2.59,2.58 1.43,0 2.59,-1.16 2.59,-2.58z"/>
     <path class="fil7" d="M1778.13 849.73c0,-1.43 -1.16,-2.59 -2.58,-2.59 -1.43,0 -2.59,1.16 -2.59,2.59 0,1.42 1.16,2.58 2.59,2.58 1.42,0 2.58,-1.16 2.58,-2.58z"/>
     <path class="fil7" d="M1788.48 849.73c0,-1.43 -1.16,-2.59 -2.59,-2.59 -1.43,0 -2.59,1.16 -2.59,2.59 0,1.42 1.16,2.58 2.59,2.58 1.43,0 2.59,-1.16 2.59,-2.58z"/>
     <path class="fil7" d="M1793.65 849.73c0,-1.43 -1.16,-2.59 -2.59,-2.59 -1.43,0 -2.58,1.16 -2.58,2.59 0,1.42 1.15,2.58 2.58,2.58 1.43,0 2.59,-1.16 2.59,-2.58z"/>
     <path class="fil7" d="M1747.1 854.9c0,-1.43 -1.16,-2.59 -2.59,-2.59 -1.43,0 -2.59,1.16 -2.59,2.59 0,1.43 1.16,2.58 2.59,2.58 1.43,0 2.59,-1.15 2.59,-2.58z"/>
     <path class="fil7" d="M1757.44 854.9c0,-1.43 -1.16,-2.59 -2.59,-2.59 -1.42,0 -2.58,1.16 -2.58,2.59 0,1.43 1.16,2.58 2.58,2.58 1.43,0 2.59,-1.15 2.59,-2.58z"/>
     <path class="fil7" d="M1772.96 854.9c0,-1.43 -1.16,-2.59 -2.59,-2.59 -1.43,0 -2.58,1.16 -2.58,2.59 0,1.43 1.15,2.58 2.58,2.58 1.43,0 2.59,-1.15 2.59,-2.58z"/>
     <path class="fil7" d="M1778.13 854.9c0,-1.43 -1.16,-2.59 -2.58,-2.59 -1.43,0 -2.59,1.16 -2.59,2.59 0,1.43 1.16,2.58 2.59,2.58 1.42,0 2.58,-1.15 2.58,-2.58z"/>
     <path class="fil7" d="M1783.3 854.9c0,-1.43 -1.15,-2.59 -2.58,-2.59 -1.43,0 -2.59,1.16 -2.59,2.59 0,1.43 1.16,2.58 2.59,2.58 1.43,0 2.58,-1.15 2.58,-2.58z"/>
     <path class="fil7" d="M1788.48 854.9c0,-1.43 -1.16,-2.59 -2.59,-2.59 -1.43,0 -2.59,1.16 -2.59,2.59 0,1.43 1.16,2.58 2.59,2.58 1.43,0 2.59,-1.15 2.59,-2.58z"/>
     <path class="fil7" d="M1793.65 854.9c0,-1.43 -1.16,-2.59 -2.59,-2.59 -1.43,0 -2.58,1.16 -2.58,2.59 0,1.43 1.15,2.58 2.58,2.58 1.43,0 2.59,-1.15 2.59,-2.58z"/>
     <path class="fil7" d="M1798.82 854.9c0,-1.43 -1.16,-2.59 -2.59,-2.59 -1.42,0 -2.58,1.16 -2.58,2.59 0,1.43 1.16,2.58 2.58,2.58 1.43,0 2.59,-1.15 2.59,-2.58z"/>
     <path class="fil7" d="M1736.75 860.07c0,-1.43 -1.16,-2.59 -2.58,-2.59 -1.43,0 -2.59,1.16 -2.59,2.59 0,1.43 1.16,2.59 2.59,2.59 1.42,0 2.58,-1.16 2.58,-2.59z"/>
     <path class="fil7" d="M1752.27 860.07c0,-1.43 -1.16,-2.59 -2.59,-2.59 -1.43,0 -2.58,1.16 -2.58,2.59 0,1.43 1.15,2.59 2.58,2.59 1.43,0 2.59,-1.16 2.59,-2.59z"/>
     <path class="fil7" d="M1757.44 860.07c0,-1.43 -1.16,-2.59 -2.59,-2.59 -1.42,0 -2.58,1.16 -2.58,2.59 0,1.43 1.16,2.59 2.58,2.59 1.43,0 2.59,-1.16 2.59,-2.59z"/>
     <path class="fil7" d="M1762.61 860.07c0,-1.43 -1.15,-2.59 -2.58,-2.59 -1.43,0 -2.59,1.16 -2.59,2.59 0,1.43 1.16,2.59 2.59,2.59 1.43,0 2.58,-1.16 2.58,-2.59z"/>
     <path class="fil7" d="M1767.79 860.07c0,-1.43 -1.16,-2.59 -2.59,-2.59 -1.43,0 -2.59,1.16 -2.59,2.59 0,1.43 1.16,2.59 2.59,2.59 1.43,0 2.59,-1.16 2.59,-2.59z"/>
     <path class="fil7" d="M1788.48 860.07c0,-1.43 -1.16,-2.59 -2.59,-2.59 -1.43,0 -2.59,1.16 -2.59,2.59 0,1.43 1.16,2.59 2.59,2.59 1.43,0 2.59,-1.16 2.59,-2.59z"/>
     <path class="fil7" d="M1736.75 865.24c0,-1.43 -1.16,-2.58 -2.58,-2.58 -1.43,0 -2.59,1.15 -2.59,2.58 0,1.43 1.16,2.59 2.59,2.59 1.42,0 2.58,-1.16 2.58,-2.59z"/>
     <path class="fil7" d="M1741.92 865.24c0,-1.43 -1.15,-2.58 -2.58,-2.58 -1.43,0 -2.59,1.15 -2.59,2.58 0,1.43 1.16,2.59 2.59,2.59 1.43,0 2.58,-1.16 2.58,-2.59z"/>
     <path class="fil7" d="M1752.27 865.24c0,-1.43 -1.16,-2.58 -2.59,-2.58 -1.43,0 -2.58,1.15 -2.58,2.58 0,1.43 1.15,2.59 2.58,2.59 1.43,0 2.59,-1.16 2.59,-2.59z"/>
     <path class="fil7" d="M1762.61 865.24c0,-1.43 -1.15,-2.58 -2.58,-2.58 -1.43,0 -2.59,1.15 -2.59,2.58 0,1.43 1.16,2.59 2.59,2.59 1.43,0 2.58,-1.16 2.58,-2.59z"/>
     <path class="fil7" d="M1767.79 865.24c0,-1.43 -1.16,-2.58 -2.59,-2.58 -1.43,0 -2.59,1.15 -2.59,2.58 0,1.43 1.16,2.59 2.59,2.59 1.43,0 2.59,-1.16 2.59,-2.59z"/>
     <path class="fil7" d="M1772.96 865.24c0,-1.43 -1.16,-2.58 -2.59,-2.58 -1.43,0 -2.58,1.15 -2.58,2.58 0,1.43 1.15,2.59 2.58,2.59 1.43,0 2.59,-1.16 2.59,-2.59z"/>
     <path class="fil7" d="M1778.13 865.24c0,-1.43 -1.16,-2.58 -2.58,-2.58 -1.43,0 -2.59,1.15 -2.59,2.58 0,1.43 1.16,2.59 2.59,2.59 1.42,0 2.58,-1.16 2.58,-2.59z"/>
     <path class="fil7" d="M1788.48 865.24c0,-1.43 -1.16,-2.58 -2.59,-2.58 -1.43,0 -2.59,1.15 -2.59,2.58 0,1.43 1.16,2.59 2.59,2.59 1.43,0 2.59,-1.16 2.59,-2.59z"/>
     <path class="fil7" d="M1736.75 870.41c0,-1.42 -1.16,-2.58 -2.58,-2.58 -1.43,0 -2.59,1.16 -2.59,2.58 0,1.43 1.16,2.59 2.59,2.59 1.42,0 2.58,-1.16 2.58,-2.59z"/>
     <path class="fil7" d="M1747.1 870.41c0,-1.42 -1.16,-2.58 -2.59,-2.58 -1.43,0 -2.59,1.16 -2.59,2.58 0,1.43 1.16,2.59 2.59,2.59 1.43,0 2.59,-1.16 2.59,-2.59z"/>
     <path class="fil7" d="M1757.44 870.41c0,-1.42 -1.16,-2.58 -2.59,-2.58 -1.42,0 -2.58,1.16 -2.58,2.58 0,1.43 1.16,2.59 2.58,2.59 1.43,0 2.59,-1.16 2.59,-2.59z"/>
     <path class="fil7" d="M1762.61 870.41c0,-1.42 -1.15,-2.58 -2.58,-2.58 -1.43,0 -2.59,1.16 -2.59,2.58 0,1.43 1.16,2.59 2.59,2.59 1.43,0 2.58,-1.16 2.58,-2.59z"/>
     <path class="fil7" d="M1767.79 870.41c0,-1.42 -1.16,-2.58 -2.59,-2.58 -1.43,0 -2.59,1.16 -2.59,2.58 0,1.43 1.16,2.59 2.59,2.59 1.43,0 2.59,-1.16 2.59,-2.59z"/>
     <path class="fil7" d="M1772.96 870.41c0,-1.42 -1.16,-2.58 -2.59,-2.58 -1.43,0 -2.58,1.16 -2.58,2.58 0,1.43 1.15,2.59 2.58,2.59 1.43,0 2.59,-1.16 2.59,-2.59z"/>
     <path class="fil7" d="M1793.65 870.41c0,-1.42 -1.16,-2.58 -2.59,-2.58 -1.43,0 -2.58,1.16 -2.58,2.58 0,1.43 1.15,2.59 2.58,2.59 1.43,0 2.59,-1.16 2.59,-2.59z"/>
     <path class="fil7" d="M1736.75 875.59c0,-1.43 -1.16,-2.59 -2.58,-2.59 -1.43,0 -2.59,1.16 -2.59,2.59 0,1.43 1.16,2.58 2.59,2.58 1.42,0 2.58,-1.15 2.58,-2.58z"/>
     <path class="fil7" d="M1747.1 875.59c0,-1.43 -1.16,-2.59 -2.59,-2.59 -1.43,0 -2.59,1.16 -2.59,2.59 0,1.43 1.16,2.58 2.59,2.58 1.43,0 2.59,-1.15 2.59,-2.58z"/>
     <path class="fil7" d="M1757.44 875.59c0,-1.43 -1.16,-2.59 -2.59,-2.59 -1.42,0 -2.58,1.16 -2.58,2.59 0,1.43 1.16,2.58 2.58,2.58 1.43,0 2.59,-1.15 2.59,-2.58z"/>
     <path class="fil7" d="M1767.79 875.59c0,-1.43 -1.16,-2.59 -2.59,-2.59 -1.43,0 -2.59,1.16 -2.59,2.59 0,1.43 1.16,2.58 2.59,2.58 1.43,0 2.59,-1.15 2.59,-2.58z"/>
     <path class="fil7" d="M1778.13 875.59c0,-1.43 -1.16,-2.59 -2.58,-2.59 -1.43,0 -2.59,1.16 -2.59,2.59 0,1.43 1.16,2.58 2.59,2.58 1.42,0 2.58,-1.15 2.58,-2.58z"/>
     <path class="fil7" d="M1788.48 875.59c0,-1.43 -1.16,-2.59 -2.59,-2.59 -1.43,0 -2.59,1.16 -2.59,2.59 0,1.43 1.16,2.58 2.59,2.58 1.43,0 2.59,-1.15 2.59,-2.58z"/>
     <path class="fil7" d="M1798.82 875.59c0,-1.43 -1.16,-2.59 -2.59,-2.59 -1.42,0 -2.58,1.16 -2.58,2.59 0,1.43 1.16,2.58 2.58,2.58 1.43,0 2.59,-1.15 2.59,-2.58z"/>
     <path class="fil7" d="M1762.61 880.76c0,-1.43 -1.15,-2.59 -2.58,-2.59 -1.43,0 -2.59,1.16 -2.59,2.59 0,1.43 1.16,2.59 2.59,2.59 1.43,0 2.58,-1.16 2.58,-2.59z"/>
     <path class="fil7" d="M1783.3 880.76c0,-1.43 -1.15,-2.59 -2.58,-2.59 -1.43,0 -2.59,1.16 -2.59,2.59 0,1.43 1.16,2.59 2.59,2.59 1.43,0 2.58,-1.16 2.58,-2.59z"/>
     <path class="fil7" d="M1788.48 880.76c0,-1.43 -1.16,-2.59 -2.59,-2.59 -1.43,0 -2.59,1.16 -2.59,2.59 0,1.43 1.16,2.59 2.59,2.59 1.43,0 2.59,-1.16 2.59,-2.59z"/>
     <path class="fil7" d="M1710.89 885.93c0,-1.43 -1.16,-2.58 -2.59,-2.58 -1.43,0 -2.58,1.15 -2.58,2.58 0,1.43 1.15,2.59 2.58,2.59 1.43,0 2.59,-1.16 2.59,-2.59z"/>
     <path class="fil7" d="M1726.41 885.93c0,-1.43 -1.16,-2.58 -2.59,-2.58 -1.43,0 -2.59,1.15 -2.59,2.58 0,1.43 1.16,2.59 2.59,2.59 1.43,0 2.59,-1.16 2.59,-2.59z"/>
     <path class="fil7" d="M1752.27 885.93c0,-1.43 -1.16,-2.58 -2.59,-2.58 -1.43,0 -2.58,1.15 -2.58,2.58 0,1.43 1.15,2.59 2.58,2.59 1.43,0 2.59,-1.16 2.59,-2.59z"/>
     <path class="fil7" d="M1778.13 885.93c0,-1.43 -1.16,-2.58 -2.58,-2.58 -1.43,0 -2.59,1.15 -2.59,2.58 0,1.43 1.16,2.59 2.59,2.59 1.42,0 2.58,-1.16 2.58,-2.59z"/>
     <path class="fil7" d="M1783.3 885.93c0,-1.43 -1.15,-2.58 -2.58,-2.58 -1.43,0 -2.59,1.15 -2.59,2.58 0,1.43 1.16,2.59 2.59,2.59 1.43,0 2.58,-1.16 2.58,-2.59z"/>
     <path class="fil7" d="M1788.48 885.93c0,-1.43 -1.16,-2.58 -2.59,-2.58 -1.43,0 -2.59,1.15 -2.59,2.58 0,1.43 1.16,2.59 2.59,2.59 1.43,0 2.59,-1.16 2.59,-2.59z"/>
     <path class="fil7" d="M1793.65 885.93c0,-1.43 -1.16,-2.58 -2.59,-2.58 -1.43,0 -2.58,1.15 -2.58,2.58 0,1.43 1.15,2.59 2.58,2.59 1.43,0 2.59,-1.16 2.59,-2.59z"/>
     <path class="fil7" d="M1798.82 885.93c0,-1.43 -1.16,-2.58 -2.59,-2.58 -1.42,0 -2.58,1.15 -2.58,2.58 0,1.43 1.16,2.59 2.58,2.59 1.43,0 2.59,-1.16 2.59,-2.59z"/>
     <path class="fil7" d="M1814.34 885.93c0,-1.43 -1.16,-2.58 -2.59,-2.58 -1.43,0 -2.58,1.15 -2.58,2.58 0,1.43 1.15,2.59 2.58,2.59 1.43,0 2.59,-1.16 2.59,-2.59z"/>
     <path class="fil7" d="M1819.51 885.93c0,-1.43 -1.16,-2.58 -2.59,-2.58 -1.42,0 -2.58,1.15 -2.58,2.58 0,1.43 1.16,2.59 2.58,2.59 1.43,0 2.59,-1.16 2.59,-2.59z"/>
     <path class="fil7" d="M1824.68 885.93c0,-1.43 -1.15,-2.58 -2.58,-2.58 -1.43,0 -2.59,1.15 -2.59,2.58 0,1.43 1.16,2.59 2.59,2.59 1.43,0 2.58,-1.16 2.58,-2.59z"/>
     <path class="fil7" d="M1835.03 885.93c0,-1.43 -1.16,-2.58 -2.59,-2.58 -1.43,0 -2.59,1.15 -2.59,2.58 0,1.43 1.16,2.59 2.59,2.59 1.43,0 2.59,-1.16 2.59,-2.59z"/>
     <path class="fil7" d="M1840.2 885.93c0,-1.43 -1.16,-2.58 -2.59,-2.58 -1.42,0 -2.58,1.15 -2.58,2.58 0,1.43 1.16,2.59 2.58,2.59 1.43,0 2.59,-1.16 2.59,-2.59z"/>
     <path class="fil7" d="M1700.55 891.1c0,-1.42 -1.16,-2.58 -2.59,-2.58 -1.43,0 -2.59,1.16 -2.59,2.58 0,1.43 1.16,2.59 2.59,2.59 1.43,0 2.59,-1.16 2.59,-2.59z"/>
     <path class="fil7" d="M1705.72 891.1c0,-1.42 -1.16,-2.58 -2.59,-2.58 -1.43,0 -2.58,1.16 -2.58,2.58 0,1.43 1.15,2.59 2.58,2.59 1.43,0 2.59,-1.16 2.59,-2.59z"/>
     <path class="fil7" d="M1710.89 891.1c0,-1.42 -1.16,-2.58 -2.59,-2.58 -1.43,0 -2.58,1.16 -2.58,2.58 0,1.43 1.15,2.59 2.58,2.59 1.43,0 2.59,-1.16 2.59,-2.59z"/>
     <path class="fil7" d="M1716.06 891.1c0,-1.42 -1.16,-2.58 -2.58,-2.58 -1.43,0 -2.59,1.16 -2.59,2.58 0,1.43 1.16,2.59 2.59,2.59 1.42,0 2.58,-1.16 2.58,-2.59z"/>
     <path class="fil7" d="M1731.58 891.1c0,-1.42 -1.16,-2.58 -2.59,-2.58 -1.42,0 -2.58,1.16 -2.58,2.58 0,1.43 1.16,2.59 2.58,2.59 1.43,0 2.59,-1.16 2.59,-2.59z"/>
     <path class="fil7" d="M1747.1 891.1c0,-1.42 -1.16,-2.58 -2.59,-2.58 -1.43,0 -2.59,1.16 -2.59,2.58 0,1.43 1.16,2.59 2.59,2.59 1.43,0 2.59,-1.16 2.59,-2.59z"/>
     <path class="fil7" d="M1752.27 891.1c0,-1.42 -1.16,-2.58 -2.59,-2.58 -1.43,0 -2.58,1.16 -2.58,2.58 0,1.43 1.15,2.59 2.58,2.59 1.43,0 2.59,-1.16 2.59,-2.59z"/>
     <path class="fil7" d="M1762.61 891.1c0,-1.42 -1.15,-2.58 -2.58,-2.58 -1.43,0 -2.59,1.16 -2.59,2.58 0,1.43 1.16,2.59 2.59,2.59 1.43,0 2.58,-1.16 2.58,-2.59z"/>
     <path class="fil7" d="M1767.79 891.1c0,-1.42 -1.16,-2.58 -2.59,-2.58 -1.43,0 -2.59,1.16 -2.59,2.58 0,1.43 1.16,2.59 2.59,2.59 1.43,0 2.59,-1.16 2.59,-2.59z"/>
     <path class="fil7" d="M1772.96 891.1c0,-1.42 -1.16,-2.58 -2.59,-2.58 -1.43,0 -2.58,1.16 -2.58,2.58 0,1.43 1.15,2.59 2.58,2.59 1.43,0 2.59,-1.16 2.59,-2.59z"/>
     <path class="fil7" d="M1788.48 891.1c0,-1.42 -1.16,-2.58 -2.59,-2.58 -1.43,0 -2.59,1.16 -2.59,2.58 0,1.43 1.16,2.59 2.59,2.59 1.43,0 2.59,-1.16 2.59,-2.59z"/>
     <path class="fil7" d="M1793.65 891.1c0,-1.42 -1.16,-2.58 -2.59,-2.58 -1.43,0 -2.58,1.16 -2.58,2.58 0,1.43 1.15,2.59 2.58,2.59 1.43,0 2.59,-1.16 2.59,-2.59z"/>
     <path class="fil7" d="M1803.99 891.1c0,-1.42 -1.16,-2.58 -2.58,-2.58 -1.43,0 -2.59,1.16 -2.59,2.58 0,1.43 1.16,2.59 2.59,2.59 1.42,0 2.58,-1.16 2.58,-2.59z"/>
     <path class="fil7" d="M1814.34 891.1c0,-1.42 -1.16,-2.58 -2.59,-2.58 -1.43,0 -2.58,1.16 -2.58,2.58 0,1.43 1.15,2.59 2.58,2.59 1.43,0 2.59,-1.16 2.59,-2.59z"/>
     <path class="fil7" d="M1824.68 891.1c0,-1.42 -1.15,-2.58 -2.58,-2.58 -1.43,0 -2.59,1.16 -2.59,2.58 0,1.43 1.16,2.59 2.59,2.59 1.43,0 2.58,-1.16 2.58,-2.59z"/>
     <path class="fil7" d="M1840.2 891.1c0,-1.42 -1.16,-2.58 -2.59,-2.58 -1.42,0 -2.58,1.16 -2.58,2.58 0,1.43 1.16,2.59 2.58,2.59 1.43,0 2.59,-1.16 2.59,-2.59z"/>
     <path class="fil7" d="M1700.55 896.28c0,-1.43 -1.16,-2.59 -2.59,-2.59 -1.43,0 -2.59,1.16 -2.59,2.59 0,1.43 1.16,2.58 2.59,2.58 1.43,0 2.59,-1.15 2.59,-2.58z"/>
     <path class="fil7" d="M1710.89 896.28c0,-1.43 -1.16,-2.59 -2.59,-2.59 -1.43,0 -2.58,1.16 -2.58,2.59 0,1.43 1.15,2.58 2.58,2.58 1.43,0 2.59,-1.15 2.59,-2.58z"/>
     <path class="fil7" d="M1721.23 896.28c0,-1.43 -1.15,-2.59 -2.58,-2.59 -1.43,0 -2.59,1.16 -2.59,2.59 0,1.43 1.16,2.58 2.59,2.58 1.43,0 2.58,-1.15 2.58,-2.58z"/>
     <path class="fil7" d="M1726.41 896.28c0,-1.43 -1.16,-2.59 -2.59,-2.59 -1.43,0 -2.59,1.16 -2.59,2.59 0,1.43 1.16,2.58 2.59,2.58 1.43,0 2.59,-1.15 2.59,-2.58z"/>
     <path class="fil7" d="M1731.58 896.28c0,-1.43 -1.16,-2.59 -2.59,-2.59 -1.42,0 -2.58,1.16 -2.58,2.59 0,1.43 1.16,2.58 2.58,2.58 1.43,0 2.59,-1.15 2.59,-2.58z"/>
     <path class="fil7" d="M1736.75 896.28c0,-1.43 -1.16,-2.59 -2.58,-2.59 -1.43,0 -2.59,1.16 -2.59,2.59 0,1.43 1.16,2.58 2.59,2.58 1.42,0 2.58,-1.15 2.58,-2.58z"/>
     <path class="fil7" d="M1747.1 896.28c0,-1.43 -1.16,-2.59 -2.59,-2.59 -1.43,0 -2.59,1.16 -2.59,2.59 0,1.43 1.16,2.58 2.59,2.58 1.43,0 2.59,-1.15 2.59,-2.58z"/>
     <path class="fil7" d="M1757.44 896.28c0,-1.43 -1.16,-2.59 -2.59,-2.59 -1.42,0 -2.58,1.16 -2.58,2.59 0,1.43 1.16,2.58 2.58,2.58 1.43,0 2.59,-1.15 2.59,-2.58z"/>
     <path class="fil7" d="M1772.96 896.28c0,-1.43 -1.16,-2.59 -2.59,-2.59 -1.43,0 -2.58,1.16 -2.58,2.59 0,1.43 1.15,2.58 2.58,2.58 1.43,0 2.59,-1.15 2.59,-2.58z"/>
     <path class="fil7" d="M1783.3 896.28c0,-1.43 -1.15,-2.59 -2.58,-2.59 -1.43,0 -2.59,1.16 -2.59,2.59 0,1.43 1.16,2.58 2.59,2.58 1.43,0 2.58,-1.15 2.58,-2.58z"/>
     <path class="fil7" d="M1788.48 896.28c0,-1.43 -1.16,-2.59 -2.59,-2.59 -1.43,0 -2.59,1.16 -2.59,2.59 0,1.43 1.16,2.58 2.59,2.58 1.43,0 2.59,-1.15 2.59,-2.58z"/>
     <path class="fil7" d="M1793.65 896.28c0,-1.43 -1.16,-2.59 -2.59,-2.59 -1.43,0 -2.58,1.16 -2.58,2.59 0,1.43 1.15,2.58 2.58,2.58 1.43,0 2.59,-1.15 2.59,-2.58z"/>
     <path class="fil7" d="M1809.17 896.28c0,-1.43 -1.16,-2.59 -2.59,-2.59 -1.43,0 -2.59,1.16 -2.59,2.59 0,1.43 1.16,2.58 2.59,2.58 1.43,0 2.59,-1.15 2.59,-2.58z"/>
     <path class="fil7" d="M1814.34 896.28c0,-1.43 -1.16,-2.59 -2.59,-2.59 -1.43,0 -2.58,1.16 -2.58,2.59 0,1.43 1.15,2.58 2.58,2.58 1.43,0 2.59,-1.15 2.59,-2.58z"/>
     <path class="fil7" d="M1835.03 896.28c0,-1.43 -1.16,-2.59 -2.59,-2.59 -1.43,0 -2.59,1.16 -2.59,2.59 0,1.43 1.16,2.58 2.59,2.58 1.43,0 2.59,-1.15 2.59,-2.58z"/>
     <path class="fil7" d="M1695.37 901.45c0,-1.43 -1.16,-2.59 -2.58,-2.59 -1.43,0 -2.59,1.16 -2.59,2.59 0,1.43 1.16,2.59 2.59,2.59 1.42,0 2.58,-1.16 2.58,-2.59z"/>
     <path class="fil7" d="M1705.72 901.45c0,-1.43 -1.16,-2.59 -2.59,-2.59 -1.43,0 -2.58,1.16 -2.58,2.59 0,1.43 1.15,2.59 2.58,2.59 1.43,0 2.59,-1.16 2.59,-2.59z"/>
     <path class="fil7" d="M1741.92 901.45c0,-1.43 -1.15,-2.59 -2.58,-2.59 -1.43,0 -2.59,1.16 -2.59,2.59 0,1.43 1.16,2.59 2.59,2.59 1.43,0 2.58,-1.16 2.58,-2.59z"/>
     <path class="fil7" d="M1752.27 901.45c0,-1.43 -1.16,-2.59 -2.59,-2.59 -1.43,0 -2.58,1.16 -2.58,2.59 0,1.43 1.15,2.59 2.58,2.59 1.43,0 2.59,-1.16 2.59,-2.59z"/>
     <path class="fil7" d="M1772.96 901.45c0,-1.43 -1.16,-2.59 -2.59,-2.59 -1.43,0 -2.58,1.16 -2.58,2.59 0,1.43 1.15,2.59 2.58,2.59 1.43,0 2.59,-1.16 2.59,-2.59z"/>
     <path class="fil7" d="M1778.13 901.45c0,-1.43 -1.16,-2.59 -2.58,-2.59 -1.43,0 -2.59,1.16 -2.59,2.59 0,1.43 1.16,2.59 2.59,2.59 1.42,0 2.58,-1.16 2.58,-2.59z"/>
     <path class="fil7" d="M1793.65 901.45c0,-1.43 -1.16,-2.59 -2.59,-2.59 -1.43,0 -2.58,1.16 -2.58,2.59 0,1.43 1.15,2.59 2.58,2.59 1.43,0 2.59,-1.16 2.59,-2.59z"/>
     <path class="fil7" d="M1798.82 901.45c0,-1.43 -1.16,-2.59 -2.59,-2.59 -1.42,0 -2.58,1.16 -2.58,2.59 0,1.43 1.16,2.59 2.58,2.59 1.43,0 2.59,-1.16 2.59,-2.59z"/>
     <path class="fil7" d="M1803.99 901.45c0,-1.43 -1.16,-2.59 -2.58,-2.59 -1.43,0 -2.59,1.16 -2.59,2.59 0,1.43 1.16,2.59 2.59,2.59 1.42,0 2.58,-1.16 2.58,-2.59z"/>
     <path class="fil7" d="M1809.17 901.45c0,-1.43 -1.16,-2.59 -2.59,-2.59 -1.43,0 -2.59,1.16 -2.59,2.59 0,1.43 1.16,2.59 2.59,2.59 1.43,0 2.59,-1.16 2.59,-2.59z"/>
     <path class="fil7" d="M1814.34 901.45c0,-1.43 -1.16,-2.59 -2.59,-2.59 -1.43,0 -2.58,1.16 -2.58,2.59 0,1.43 1.15,2.59 2.58,2.59 1.43,0 2.59,-1.16 2.59,-2.59z"/>
     <path class="fil7" d="M1819.51 901.45c0,-1.43 -1.16,-2.59 -2.59,-2.59 -1.42,0 -2.58,1.16 -2.58,2.59 0,1.43 1.16,2.59 2.58,2.59 1.43,0 2.59,-1.16 2.59,-2.59z"/>
     <path class="fil7" d="M1824.68 901.45c0,-1.43 -1.15,-2.59 -2.58,-2.59 -1.43,0 -2.59,1.16 -2.59,2.59 0,1.43 1.16,2.59 2.59,2.59 1.43,0 2.58,-1.16 2.58,-2.59z"/>
     <path class="fil7" d="M1829.85 901.45c0,-1.43 -1.15,-2.59 -2.58,-2.59 -1.43,0 -2.59,1.16 -2.59,2.59 0,1.43 1.16,2.59 2.59,2.59 1.43,0 2.58,-1.16 2.58,-2.59z"/>
     <path class="fil7" d="M1835.03 901.45c0,-1.43 -1.16,-2.59 -2.59,-2.59 -1.43,0 -2.59,1.16 -2.59,2.59 0,1.43 1.16,2.59 2.59,2.59 1.43,0 2.59,-1.16 2.59,-2.59z"/>
     <path class="fil7" d="M1700.55 906.62c0,-1.43 -1.16,-2.58 -2.59,-2.58 -1.43,0 -2.59,1.15 -2.59,2.58 0,1.43 1.16,2.59 2.59,2.59 1.43,0 2.59,-1.16 2.59,-2.59z"/>
     <path class="fil7" d="M1705.72 906.62c0,-1.43 -1.16,-2.58 -2.59,-2.58 -1.43,0 -2.58,1.15 -2.58,2.58 0,1.43 1.15,2.59 2.58,2.59 1.43,0 2.59,-1.16 2.59,-2.59z"/>
     <path class="fil7" d="M1710.89 906.62c0,-1.43 -1.16,-2.58 -2.59,-2.58 -1.43,0 -2.58,1.15 -2.58,2.58 0,1.43 1.15,2.59 2.58,2.59 1.43,0 2.59,-1.16 2.59,-2.59z"/>
     <path class="fil7" d="M1726.41 906.62c0,-1.43 -1.16,-2.58 -2.59,-2.58 -1.43,0 -2.59,1.15 -2.59,2.58 0,1.43 1.16,2.59 2.59,2.59 1.43,0 2.59,-1.16 2.59,-2.59z"/>
     <path class="fil7" d="M1731.58 906.62c0,-1.43 -1.16,-2.58 -2.59,-2.58 -1.42,0 -2.58,1.15 -2.58,2.58 0,1.43 1.16,2.59 2.58,2.59 1.43,0 2.59,-1.16 2.59,-2.59z"/>
     <path class="fil7" d="M1736.75 906.62c0,-1.43 -1.16,-2.58 -2.58,-2.58 -1.43,0 -2.59,1.15 -2.59,2.58 0,1.43 1.16,2.59 2.59,2.59 1.42,0 2.58,-1.16 2.58,-2.59z"/>
     <path class="fil7" d="M1747.1 906.62c0,-1.43 -1.16,-2.58 -2.59,-2.58 -1.43,0 -2.59,1.15 -2.59,2.58 0,1.43 1.16,2.59 2.59,2.59 1.43,0 2.59,-1.16 2.59,-2.59z"/>
     <path class="fil7" d="M1752.27 906.62c0,-1.43 -1.16,-2.58 -2.59,-2.58 -1.43,0 -2.58,1.15 -2.58,2.58 0,1.43 1.15,2.59 2.58,2.59 1.43,0 2.59,-1.16 2.59,-2.59z"/>
     <path class="fil7" d="M1767.79 906.62c0,-1.43 -1.16,-2.58 -2.59,-2.58 -1.43,0 -2.59,1.15 -2.59,2.58 0,1.43 1.16,2.59 2.59,2.59 1.43,0 2.59,-1.16 2.59,-2.59z"/>
     <path class="fil7" d="M1772.96 906.62c0,-1.43 -1.16,-2.58 -2.59,-2.58 -1.43,0 -2.58,1.15 -2.58,2.58 0,1.43 1.15,2.59 2.58,2.59 1.43,0 2.59,-1.16 2.59,-2.59z"/>
     <path class="fil7" d="M1778.13 906.62c0,-1.43 -1.16,-2.58 -2.58,-2.58 -1.43,0 -2.59,1.15 -2.59,2.58 0,1.43 1.16,2.59 2.59,2.59 1.42,0 2.58,-1.16 2.58,-2.59z"/>
     <path class="fil7" d="M1788.48 906.62c0,-1.43 -1.16,-2.58 -2.59,-2.58 -1.43,0 -2.59,1.15 -2.59,2.58 0,1.43 1.16,2.59 2.59,2.59 1.43,0 2.59,-1.16 2.59,-2.59z"/>
     <path class="fil7" d="M1798.82 906.62c0,-1.43 -1.16,-2.58 -2.59,-2.58 -1.42,0 -2.58,1.15 -2.58,2.58 0,1.43 1.16,2.59 2.58,2.59 1.43,0 2.59,-1.16 2.59,-2.59z"/>
     <path class="fil7" d="M1809.17 906.62c0,-1.43 -1.16,-2.58 -2.59,-2.58 -1.43,0 -2.59,1.15 -2.59,2.58 0,1.43 1.16,2.59 2.59,2.59 1.43,0 2.59,-1.16 2.59,-2.59z"/>
     <path class="fil7" d="M1814.34 906.62c0,-1.43 -1.16,-2.58 -2.59,-2.58 -1.43,0 -2.58,1.15 -2.58,2.58 0,1.43 1.15,2.59 2.58,2.59 1.43,0 2.59,-1.16 2.59,-2.59z"/>
     <path class="fil7" d="M1700.55 911.79c0,-1.42 -1.16,-2.58 -2.59,-2.58 -1.43,0 -2.59,1.16 -2.59,2.58 0,1.43 1.16,2.59 2.59,2.59 1.43,0 2.59,-1.16 2.59,-2.59z"/>
     <path class="fil7" d="M1731.58 911.79c0,-1.42 -1.16,-2.58 -2.59,-2.58 -1.42,0 -2.58,1.16 -2.58,2.58 0,1.43 1.16,2.59 2.58,2.59 1.43,0 2.59,-1.16 2.59,-2.59z"/>
     <path class="fil7" d="M1736.75 911.79c0,-1.42 -1.16,-2.58 -2.58,-2.58 -1.43,0 -2.59,1.16 -2.59,2.58 0,1.43 1.16,2.59 2.59,2.59 1.42,0 2.58,-1.16 2.58,-2.59z"/>
     <path class="fil7" d="M1752.27 911.79c0,-1.42 -1.16,-2.58 -2.59,-2.58 -1.43,0 -2.58,1.16 -2.58,2.58 0,1.43 1.15,2.59 2.58,2.59 1.43,0 2.59,-1.16 2.59,-2.59z"/>
     <path class="fil7" d="M1762.61 911.79c0,-1.42 -1.15,-2.58 -2.58,-2.58 -1.43,0 -2.59,1.16 -2.59,2.58 0,1.43 1.16,2.59 2.59,2.59 1.43,0 2.58,-1.16 2.58,-2.59z"/>
     <path class="fil7" d="M1772.96 911.79c0,-1.42 -1.16,-2.58 -2.59,-2.58 -1.43,0 -2.58,1.16 -2.58,2.58 0,1.43 1.15,2.59 2.58,2.59 1.43,0 2.59,-1.16 2.59,-2.59z"/>
     <path class="fil7" d="M1778.13 911.79c0,-1.42 -1.16,-2.58 -2.58,-2.58 -1.43,0 -2.59,1.16 -2.59,2.58 0,1.43 1.16,2.59 2.59,2.59 1.42,0 2.58,-1.16 2.58,-2.59z"/>
     <path class="fil7" d="M1783.3 911.79c0,-1.42 -1.15,-2.58 -2.58,-2.58 -1.43,0 -2.59,1.16 -2.59,2.58 0,1.43 1.16,2.59 2.59,2.59 1.43,0 2.58,-1.16 2.58,-2.59z"/>
     <path class="fil7" d="M1788.48 911.79c0,-1.42 -1.16,-2.58 -2.59,-2.58 -1.43,0 -2.59,1.16 -2.59,2.58 0,1.43 1.16,2.59 2.59,2.59 1.43,0 2.59,-1.16 2.59,-2.59z"/>
     <path class="fil7" d="M1793.65 911.79c0,-1.42 -1.16,-2.58 -2.59,-2.58 -1.43,0 -2.58,1.16 -2.58,2.58 0,1.43 1.15,2.59 2.58,2.59 1.43,0 2.59,-1.16 2.59,-2.59z"/>
     <path class="fil7" d="M1798.82 911.79c0,-1.42 -1.16,-2.58 -2.59,-2.58 -1.42,0 -2.58,1.16 -2.58,2.58 0,1.43 1.16,2.59 2.58,2.59 1.43,0 2.59,-1.16 2.59,-2.59z"/>
     <path class="fil7" d="M1803.99 911.79c0,-1.42 -1.16,-2.58 -2.58,-2.58 -1.43,0 -2.59,1.16 -2.59,2.58 0,1.43 1.16,2.59 2.59,2.59 1.42,0 2.58,-1.16 2.58,-2.59z"/>
     <path class="fil7" d="M1814.34 911.79c0,-1.42 -1.16,-2.58 -2.59,-2.58 -1.43,0 -2.58,1.16 -2.58,2.58 0,1.43 1.15,2.59 2.58,2.59 1.43,0 2.59,-1.16 2.59,-2.59z"/>
     <path class="fil7" d="M1824.68 911.79c0,-1.42 -1.15,-2.58 -2.58,-2.58 -1.43,0 -2.59,1.16 -2.59,2.58 0,1.43 1.16,2.59 2.59,2.59 1.43,0 2.58,-1.16 2.58,-2.59z"/>
     <path class="fil7" d="M1695.37 916.97c0,-1.43 -1.16,-2.59 -2.58,-2.59 -1.43,0 -2.59,1.16 -2.59,2.59 0,1.42 1.16,2.58 2.59,2.58 1.42,0 2.58,-1.16 2.58,-2.58z"/>
     <path class="fil7" d="M1710.89 916.97c0,-1.43 -1.16,-2.59 -2.59,-2.59 -1.43,0 -2.58,1.16 -2.58,2.59 0,1.42 1.15,2.58 2.58,2.58 1.43,0 2.59,-1.16 2.59,-2.58z"/>
     <path class="fil7" d="M1721.23 916.97c0,-1.43 -1.15,-2.59 -2.58,-2.59 -1.43,0 -2.59,1.16 -2.59,2.59 0,1.42 1.16,2.58 2.59,2.58 1.43,0 2.58,-1.16 2.58,-2.58z"/>
     <path class="fil7" d="M1726.41 916.97c0,-1.43 -1.16,-2.59 -2.59,-2.59 -1.43,0 -2.59,1.16 -2.59,2.59 0,1.42 1.16,2.58 2.59,2.58 1.43,0 2.59,-1.16 2.59,-2.58z"/>
     <path class="fil7" d="M1736.75 916.97c0,-1.43 -1.16,-2.59 -2.58,-2.59 -1.43,0 -2.59,1.16 -2.59,2.59 0,1.42 1.16,2.58 2.59,2.58 1.42,0 2.58,-1.16 2.58,-2.58z"/>
     <path class="fil7" d="M1741.92 916.97c0,-1.43 -1.15,-2.59 -2.58,-2.59 -1.43,0 -2.59,1.16 -2.59,2.59 0,1.42 1.16,2.58 2.59,2.58 1.43,0 2.58,-1.16 2.58,-2.58z"/>
     <path class="fil7" d="M1757.44 916.97c0,-1.43 -1.16,-2.59 -2.59,-2.59 -1.42,0 -2.58,1.16 -2.58,2.59 0,1.42 1.16,2.58 2.58,2.58 1.43,0 2.59,-1.16 2.59,-2.58z"/>
     <path class="fil7" d="M1778.13 916.97c0,-1.43 -1.16,-2.59 -2.58,-2.59 -1.43,0 -2.59,1.16 -2.59,2.59 0,1.42 1.16,2.58 2.59,2.58 1.42,0 2.58,-1.16 2.58,-2.58z"/>
     <path class="fil7" d="M1783.3 916.97c0,-1.43 -1.15,-2.59 -2.58,-2.59 -1.43,0 -2.59,1.16 -2.59,2.59 0,1.42 1.16,2.58 2.59,2.58 1.43,0 2.58,-1.16 2.58,-2.58z"/>
     <path class="fil7" d="M1798.82 916.97c0,-1.43 -1.16,-2.59 -2.59,-2.59 -1.42,0 -2.58,1.16 -2.58,2.59 0,1.42 1.16,2.58 2.58,2.58 1.43,0 2.59,-1.16 2.59,-2.58z"/>
     <path class="fil7" d="M1803.99 916.97c0,-1.43 -1.16,-2.59 -2.58,-2.59 -1.43,0 -2.59,1.16 -2.59,2.59 0,1.42 1.16,2.58 2.59,2.58 1.42,0 2.58,-1.16 2.58,-2.58z"/>
     <path class="fil7" d="M1835.03 916.97c0,-1.43 -1.16,-2.59 -2.59,-2.59 -1.43,0 -2.59,1.16 -2.59,2.59 0,1.42 1.16,2.58 2.59,2.58 1.43,0 2.59,-1.16 2.59,-2.58z"/>
     <path class="fil7" d="M1840.2 916.97c0,-1.43 -1.16,-2.59 -2.59,-2.59 -1.42,0 -2.58,1.16 -2.58,2.59 0,1.42 1.16,2.58 2.58,2.58 1.43,0 2.59,-1.16 2.59,-2.58z"/>
     <path class="fil7" d="M1700.55 922.14c0,-1.43 -1.16,-2.59 -2.59,-2.59 -1.43,0 -2.59,1.16 -2.59,2.59 0,1.43 1.16,2.59 2.59,2.59 1.43,0 2.59,-1.16 2.59,-2.59z"/>
     <path class="fil7" d="M1705.72 922.14c0,-1.43 -1.16,-2.59 -2.59,-2.59 -1.43,0 -2.58,1.16 -2.58,2.59 0,1.43 1.15,2.59 2.58,2.59 1.43,0 2.59,-1.16 2.59,-2.59z"/>
     <path class="fil7" d="M1710.89 922.14c0,-1.43 -1.16,-2.59 -2.59,-2.59 -1.43,0 -2.58,1.16 -2.58,2.59 0,1.43 1.15,2.59 2.58,2.59 1.43,0 2.59,-1.16 2.59,-2.59z"/>
     <path class="fil7" d="M1721.23 922.14c0,-1.43 -1.15,-2.59 -2.58,-2.59 -1.43,0 -2.59,1.16 -2.59,2.59 0,1.43 1.16,2.59 2.59,2.59 1.43,0 2.58,-1.16 2.58,-2.59z"/>
     <path class="fil7" d="M1747.1 922.14c0,-1.43 -1.16,-2.59 -2.59,-2.59 -1.43,0 -2.59,1.16 -2.59,2.59 0,1.43 1.16,2.59 2.59,2.59 1.43,0 2.59,-1.16 2.59,-2.59z"/>
     <path class="fil7" d="M1752.27 922.14c0,-1.43 -1.16,-2.59 -2.59,-2.59 -1.43,0 -2.58,1.16 -2.58,2.59 0,1.43 1.15,2.59 2.58,2.59 1.43,0 2.59,-1.16 2.59,-2.59z"/>
     <path class="fil7" d="M1757.44 922.14c0,-1.43 -1.16,-2.59 -2.59,-2.59 -1.42,0 -2.58,1.16 -2.58,2.59 0,1.43 1.16,2.59 2.58,2.59 1.43,0 2.59,-1.16 2.59,-2.59z"/>
     <path class="fil7" d="M1762.61 922.14c0,-1.43 -1.15,-2.59 -2.58,-2.59 -1.43,0 -2.59,1.16 -2.59,2.59 0,1.43 1.16,2.59 2.59,2.59 1.43,0 2.58,-1.16 2.58,-2.59z"/>
     <path class="fil7" d="M1767.79 922.14c0,-1.43 -1.16,-2.59 -2.59,-2.59 -1.43,0 -2.59,1.16 -2.59,2.59 0,1.43 1.16,2.59 2.59,2.59 1.43,0 2.59,-1.16 2.59,-2.59z"/>
     <path class="fil7" d="M1772.96 922.14c0,-1.43 -1.16,-2.59 -2.59,-2.59 -1.43,0 -2.58,1.16 -2.58,2.59 0,1.43 1.15,2.59 2.58,2.59 1.43,0 2.59,-1.16 2.59,-2.59z"/>
     <path class="fil7" d="M1783.3 922.14c0,-1.43 -1.15,-2.59 -2.58,-2.59 -1.43,0 -2.59,1.16 -2.59,2.59 0,1.43 1.16,2.59 2.59,2.59 1.43,0 2.58,-1.16 2.58,-2.59z"/>
     <path class="fil7" d="M1788.48 922.14c0,-1.43 -1.16,-2.59 -2.59,-2.59 -1.43,0 -2.59,1.16 -2.59,2.59 0,1.43 1.16,2.59 2.59,2.59 1.43,0 2.59,-1.16 2.59,-2.59z"/>
     <path class="fil7" d="M1793.65 922.14c0,-1.43 -1.16,-2.59 -2.59,-2.59 -1.43,0 -2.58,1.16 -2.58,2.59 0,1.43 1.15,2.59 2.58,2.59 1.43,0 2.59,-1.16 2.59,-2.59z"/>
     <path class="fil7" d="M1798.82 922.14c0,-1.43 -1.16,-2.59 -2.59,-2.59 -1.42,0 -2.58,1.16 -2.58,2.59 0,1.43 1.16,2.59 2.58,2.59 1.43,0 2.59,-1.16 2.59,-2.59z"/>
     <path class="fil7" d="M1803.99 922.14c0,-1.43 -1.16,-2.59 -2.58,-2.59 -1.43,0 -2.59,1.16 -2.59,2.59 0,1.43 1.16,2.59 2.59,2.59 1.42,0 2.58,-1.16 2.58,-2.59z"/>
     <path class="fil7" d="M1809.17 922.14c0,-1.43 -1.16,-2.59 -2.59,-2.59 -1.43,0 -2.59,1.16 -2.59,2.59 0,1.43 1.16,2.59 2.59,2.59 1.43,0 2.59,-1.16 2.59,-2.59z"/>
     <path class="fil7" d="M1814.34 922.14c0,-1.43 -1.16,-2.59 -2.59,-2.59 -1.43,0 -2.58,1.16 -2.58,2.59 0,1.43 1.15,2.59 2.58,2.59 1.43,0 2.59,-1.16 2.59,-2.59z"/>
     <path class="fil7" d="M1840.2 922.14c0,-1.43 -1.16,-2.59 -2.59,-2.59 -1.42,0 -2.58,1.16 -2.58,2.59 0,1.43 1.16,2.59 2.58,2.59 1.43,0 2.59,-1.16 2.59,-2.59z"/>
     <path class="fil7" d="M1695.37 927.31c0,-1.43 -1.16,-2.58 -2.58,-2.58 -1.43,0 -2.59,1.15 -2.59,2.58 0,1.43 1.16,2.59 2.59,2.59 1.42,0 2.58,-1.16 2.58,-2.59z"/>
     <path class="fil7" d="M1700.55 927.31c0,-1.43 -1.16,-2.58 -2.59,-2.58 -1.43,0 -2.59,1.15 -2.59,2.58 0,1.43 1.16,2.59 2.59,2.59 1.43,0 2.59,-1.16 2.59,-2.59z"/>
     <path class="fil7" d="M1716.06 927.31c0,-1.43 -1.16,-2.58 -2.58,-2.58 -1.43,0 -2.59,1.15 -2.59,2.58 0,1.43 1.16,2.59 2.59,2.59 1.42,0 2.58,-1.16 2.58,-2.59z"/>
     <path class="fil7" d="M1721.23 927.31c0,-1.43 -1.15,-2.58 -2.58,-2.58 -1.43,0 -2.59,1.15 -2.59,2.58 0,1.43 1.16,2.59 2.59,2.59 1.43,0 2.58,-1.16 2.58,-2.59z"/>
     <path class="fil7" d="M1726.41 927.31c0,-1.43 -1.16,-2.58 -2.59,-2.58 -1.43,0 -2.59,1.15 -2.59,2.58 0,1.43 1.16,2.59 2.59,2.59 1.43,0 2.59,-1.16 2.59,-2.59z"/>
     <path class="fil7" d="M1731.58 927.31c0,-1.43 -1.16,-2.58 -2.59,-2.58 -1.42,0 -2.58,1.15 -2.58,2.58 0,1.43 1.16,2.59 2.58,2.59 1.43,0 2.59,-1.16 2.59,-2.59z"/>
     <path class="fil7" d="M1736.75 927.31c0,-1.43 -1.16,-2.58 -2.58,-2.58 -1.43,0 -2.59,1.15 -2.59,2.58 0,1.43 1.16,2.59 2.59,2.59 1.42,0 2.58,-1.16 2.58,-2.59z"/>
     <path class="fil7" d="M1741.92 927.31c0,-1.43 -1.15,-2.58 -2.58,-2.58 -1.43,0 -2.59,1.15 -2.59,2.58 0,1.43 1.16,2.59 2.59,2.59 1.43,0 2.58,-1.16 2.58,-2.59z"/>
     <path class="fil7" d="M1757.44 927.31c0,-1.43 -1.16,-2.58 -2.59,-2.58 -1.42,0 -2.58,1.15 -2.58,2.58 0,1.43 1.16,2.59 2.58,2.59 1.43,0 2.59,-1.16 2.59,-2.59z"/>
     <path class="fil7" d="M1767.79 927.31c0,-1.43 -1.16,-2.58 -2.59,-2.58 -1.43,0 -2.59,1.15 -2.59,2.58 0,1.43 1.16,2.59 2.59,2.59 1.43,0 2.59,-1.16 2.59,-2.59z"/>
     <path class="fil7" d="M1772.96 927.31c0,-1.43 -1.16,-2.58 -2.59,-2.58 -1.43,0 -2.58,1.15 -2.58,2.58 0,1.43 1.15,2.59 2.58,2.59 1.43,0 2.59,-1.16 2.59,-2.59z"/>
     <path class="fil7" d="M1783.3 927.31c0,-1.43 -1.15,-2.58 -2.58,-2.58 -1.43,0 -2.59,1.15 -2.59,2.58 0,1.43 1.16,2.59 2.59,2.59 1.43,0 2.58,-1.16 2.58,-2.59z"/>
     <path class="fil7" d="M1788.48 927.31c0,-1.43 -1.16,-2.58 -2.59,-2.58 -1.43,0 -2.59,1.15 -2.59,2.58 0,1.43 1.16,2.59 2.59,2.59 1.43,0 2.59,-1.16 2.59,-2.59z"/>
     <path class="fil7" d="M1798.82 927.31c0,-1.43 -1.16,-2.58 -2.59,-2.58 -1.42,0 -2.58,1.15 -2.58,2.58 0,1.43 1.16,2.59 2.58,2.59 1.43,0 2.59,-1.16 2.59,-2.59z"/>
     <path class="fil7" d="M1803.99 927.31c0,-1.43 -1.16,-2.58 -2.58,-2.58 -1.43,0 -2.59,1.15 -2.59,2.58 0,1.43 1.16,2.59 2.59,2.59 1.42,0 2.58,-1.16 2.58,-2.59z"/>
     <path class="fil7" d="M1809.17 927.31c0,-1.43 -1.16,-2.58 -2.59,-2.58 -1.43,0 -2.59,1.15 -2.59,2.58 0,1.43 1.16,2.59 2.59,2.59 1.43,0 2.59,-1.16 2.59,-2.59z"/>
     <path class="fil7" d="M1835.03 927.31c0,-1.43 -1.16,-2.58 -2.59,-2.58 -1.43,0 -2.59,1.15 -2.59,2.58 0,1.43 1.16,2.59 2.59,2.59 1.43,0 2.59,-1.16 2.59,-2.59z"/>
     <path class="fil7" d="M1840.2 927.31c0,-1.43 -1.16,-2.58 -2.59,-2.58 -1.42,0 -2.58,1.15 -2.58,2.58 0,1.43 1.16,2.59 2.58,2.59 1.43,0 2.59,-1.16 2.59,-2.59z"/>
     <path class="fil7" d="M1700.55 932.48c0,-1.42 -1.16,-2.58 -2.59,-2.58 -1.43,0 -2.59,1.16 -2.59,2.58 0,1.43 1.16,2.59 2.59,2.59 1.43,0 2.59,-1.16 2.59,-2.59z"/>
     <path class="fil7" d="M1705.72 932.48c0,-1.42 -1.16,-2.58 -2.59,-2.58 -1.43,0 -2.58,1.16 -2.58,2.58 0,1.43 1.15,2.59 2.58,2.59 1.43,0 2.59,-1.16 2.59,-2.59z"/>
     <path class="fil7" d="M1710.89 932.48c0,-1.42 -1.16,-2.58 -2.59,-2.58 -1.43,0 -2.58,1.16 -2.58,2.58 0,1.43 1.15,2.59 2.58,2.59 1.43,0 2.59,-1.16 2.59,-2.59z"/>
     <path class="fil7" d="M1736.75 932.48c0,-1.42 -1.16,-2.58 -2.58,-2.58 -1.43,0 -2.59,1.16 -2.59,2.58 0,1.43 1.16,2.59 2.59,2.59 1.42,0 2.58,-1.16 2.58,-2.59z"/>
     <path class="fil7" d="M1741.92 932.48c0,-1.42 -1.15,-2.58 -2.58,-2.58 -1.43,0 -2.59,1.16 -2.59,2.58 0,1.43 1.16,2.59 2.59,2.59 1.43,0 2.58,-1.16 2.58,-2.59z"/>
     <path class="fil7" d="M1747.1 932.48c0,-1.42 -1.16,-2.58 -2.59,-2.58 -1.43,0 -2.59,1.16 -2.59,2.58 0,1.43 1.16,2.59 2.59,2.59 1.43,0 2.59,-1.16 2.59,-2.59z"/>
     <path class="fil7" d="M1762.61 932.48c0,-1.42 -1.15,-2.58 -2.58,-2.58 -1.43,0 -2.59,1.16 -2.59,2.58 0,1.43 1.16,2.59 2.59,2.59 1.43,0 2.58,-1.16 2.58,-2.59z"/>
     <path class="fil7" d="M1783.3 932.48c0,-1.42 -1.15,-2.58 -2.58,-2.58 -1.43,0 -2.59,1.16 -2.59,2.58 0,1.43 1.16,2.59 2.59,2.59 1.43,0 2.58,-1.16 2.58,-2.59z"/>
     <path class="fil7" d="M1788.48 932.48c0,-1.42 -1.16,-2.58 -2.59,-2.58 -1.43,0 -2.59,1.16 -2.59,2.58 0,1.43 1.16,2.59 2.59,2.59 1.43,0 2.59,-1.16 2.59,-2.59z"/>
     <path class="fil7" d="M1793.65 932.48c0,-1.42 -1.16,-2.58 -2.59,-2.58 -1.43,0 -2.58,1.16 -2.58,2.58 0,1.43 1.15,2.59 2.58,2.59 1.43,0 2.59,-1.16 2.59,-2.59z"/>
     <path class="fil7" d="M1803.99 932.48c0,-1.42 -1.16,-2.58 -2.58,-2.58 -1.43,0 -2.59,1.16 -2.59,2.58 0,1.43 1.16,2.59 2.59,2.59 1.42,0 2.58,-1.16 2.58,-2.59z"/>
     <path class="fil7" d="M1835.03 932.48c0,-1.42 -1.16,-2.58 -2.59,-2.58 -1.43,0 -2.59,1.16 -2.59,2.58 0,1.43 1.16,2.59 2.59,2.59 1.43,0 2.59,-1.16 2.59,-2.59z"/>
     <path class="fil7" d="M1840.2 932.48c0,-1.42 -1.16,-2.58 -2.59,-2.58 -1.42,0 -2.58,1.16 -2.58,2.58 0,1.43 1.16,2.59 2.58,2.59 1.43,0 2.59,-1.16 2.59,-2.59z"/>
     <path class="fil7" d="M1695.37 937.66c0,-1.43 -1.16,-2.59 -2.58,-2.59 -1.43,0 -2.59,1.16 -2.59,2.59 0,1.42 1.16,2.58 2.59,2.58 1.42,0 2.58,-1.16 2.58,-2.58z"/>
     <path class="fil7" d="M1705.72 937.66c0,-1.43 -1.16,-2.59 -2.59,-2.59 -1.43,0 -2.58,1.16 -2.58,2.59 0,1.42 1.15,2.58 2.58,2.58 1.43,0 2.59,-1.16 2.59,-2.58z"/>
     <path class="fil7" d="M1710.89 937.66c0,-1.43 -1.16,-2.59 -2.59,-2.59 -1.43,0 -2.58,1.16 -2.58,2.59 0,1.42 1.15,2.58 2.58,2.58 1.43,0 2.59,-1.16 2.59,-2.58z"/>
     <path class="fil7" d="M1716.06 937.66c0,-1.43 -1.16,-2.59 -2.58,-2.59 -1.43,0 -2.59,1.16 -2.59,2.59 0,1.42 1.16,2.58 2.59,2.58 1.42,0 2.58,-1.16 2.58,-2.58z"/>
     <path class="fil7" d="M1721.23 937.66c0,-1.43 -1.15,-2.59 -2.58,-2.59 -1.43,0 -2.59,1.16 -2.59,2.59 0,1.42 1.16,2.58 2.59,2.58 1.43,0 2.58,-1.16 2.58,-2.58z"/>
     <path class="fil7" d="M1726.41 937.66c0,-1.43 -1.16,-2.59 -2.59,-2.59 -1.43,0 -2.59,1.16 -2.59,2.59 0,1.42 1.16,2.58 2.59,2.58 1.43,0 2.59,-1.16 2.59,-2.58z"/>
     <path class="fil7" d="M1736.75 937.66c0,-1.43 -1.16,-2.59 -2.58,-2.59 -1.43,0 -2.59,1.16 -2.59,2.59 0,1.42 1.16,2.58 2.59,2.58 1.42,0 2.58,-1.16 2.58,-2.58z"/>
     <path class="fil7" d="M1767.79 937.66c0,-1.43 -1.16,-2.59 -2.59,-2.59 -1.43,0 -2.59,1.16 -2.59,2.59 0,1.42 1.16,2.58 2.59,2.58 1.43,0 2.59,-1.16 2.59,-2.58z"/>
     <path class="fil7" d="M1788.48 937.66c0,-1.43 -1.16,-2.59 -2.59,-2.59 -1.43,0 -2.59,1.16 -2.59,2.59 0,1.42 1.16,2.58 2.59,2.58 1.43,0 2.59,-1.16 2.59,-2.58z"/>
     <path class="fil7" d="M1793.65 937.66c0,-1.43 -1.16,-2.59 -2.59,-2.59 -1.43,0 -2.58,1.16 -2.58,2.59 0,1.42 1.15,2.58 2.58,2.58 1.43,0 2.59,-1.16 2.59,-2.58z"/>
     <path class="fil7" d="M1798.82 937.66c0,-1.43 -1.16,-2.59 -2.59,-2.59 -1.42,0 -2.58,1.16 -2.58,2.59 0,1.42 1.16,2.58 2.58,2.58 1.43,0 2.59,-1.16 2.59,-2.58z"/>
     <path class="fil7" d="M1803.99 937.66c0,-1.43 -1.16,-2.59 -2.58,-2.59 -1.43,0 -2.59,1.16 -2.59,2.59 0,1.42 1.16,2.58 2.59,2.58 1.42,0 2.58,-1.16 2.58,-2.58z"/>
     <path class="fil7" d="M1814.34 937.66c0,-1.43 -1.16,-2.59 -2.59,-2.59 -1.43,0 -2.58,1.16 -2.58,2.59 0,1.42 1.15,2.58 2.58,2.58 1.43,0 2.59,-1.16 2.59,-2.58z"/>
     <path class="fil7" d="M1819.51 937.66c0,-1.43 -1.16,-2.59 -2.59,-2.59 -1.42,0 -2.58,1.16 -2.58,2.59 0,1.42 1.16,2.58 2.58,2.58 1.43,0 2.59,-1.16 2.59,-2.58z"/>
     <path class="fil7" d="M1835.03 937.66c0,-1.43 -1.16,-2.59 -2.59,-2.59 -1.43,0 -2.59,1.16 -2.59,2.59 0,1.42 1.16,2.58 2.59,2.58 1.43,0 2.59,-1.16 2.59,-2.58z"/>
     <path class="fil7" d="M1840.2 937.66c0,-1.43 -1.16,-2.59 -2.59,-2.59 -1.42,0 -2.58,1.16 -2.58,2.59 0,1.42 1.16,2.58 2.58,2.58 1.43,0 2.59,-1.16 2.59,-2.58z"/>
     <path class="fil7" d="M1710.89 942.83c0,-1.43 -1.16,-2.59 -2.59,-2.59 -1.43,0 -2.58,1.16 -2.58,2.59 0,1.43 1.15,2.58 2.58,2.58 1.43,0 2.59,-1.15 2.59,-2.58z"/>
     <path class="fil7" d="M1731.58 942.83c0,-1.43 -1.16,-2.59 -2.59,-2.59 -1.42,0 -2.58,1.16 -2.58,2.59 0,1.43 1.16,2.58 2.58,2.58 1.43,0 2.59,-1.15 2.59,-2.58z"/>
     <path class="fil7" d="M1741.92 942.83c0,-1.43 -1.15,-2.59 -2.58,-2.59 -1.43,0 -2.59,1.16 -2.59,2.59 0,1.43 1.16,2.58 2.59,2.58 1.43,0 2.58,-1.15 2.58,-2.58z"/>
     <path class="fil7" d="M1752.27 942.83c0,-1.43 -1.16,-2.59 -2.59,-2.59 -1.43,0 -2.58,1.16 -2.58,2.59 0,1.43 1.15,2.58 2.58,2.58 1.43,0 2.59,-1.15 2.59,-2.58z"/>
     <path class="fil7" d="M1757.44 942.83c0,-1.43 -1.16,-2.59 -2.59,-2.59 -1.42,0 -2.58,1.16 -2.58,2.59 0,1.43 1.16,2.58 2.58,2.58 1.43,0 2.59,-1.15 2.59,-2.58z"/>
     <path class="fil7" d="M1772.96 942.83c0,-1.43 -1.16,-2.59 -2.59,-2.59 -1.43,0 -2.58,1.16 -2.58,2.59 0,1.43 1.15,2.58 2.58,2.58 1.43,0 2.59,-1.15 2.59,-2.58z"/>
     <path class="fil7" d="M1778.13 942.83c0,-1.43 -1.16,-2.59 -2.58,-2.59 -1.43,0 -2.59,1.16 -2.59,2.59 0,1.43 1.16,2.58 2.59,2.58 1.42,0 2.58,-1.15 2.58,-2.58z"/>
     <path class="fil7" d="M1783.3 942.83c0,-1.43 -1.15,-2.59 -2.58,-2.59 -1.43,0 -2.59,1.16 -2.59,2.59 0,1.43 1.16,2.58 2.59,2.58 1.43,0 2.58,-1.15 2.58,-2.58z"/>
     <path class="fil7" d="M1793.65 942.83c0,-1.43 -1.16,-2.59 -2.59,-2.59 -1.43,0 -2.58,1.16 -2.58,2.59 0,1.43 1.15,2.58 2.58,2.58 1.43,0 2.59,-1.15 2.59,-2.58z"/>
     <path class="fil7" d="M1798.82 942.83c0,-1.43 -1.16,-2.59 -2.59,-2.59 -1.42,0 -2.58,1.16 -2.58,2.59 0,1.43 1.16,2.58 2.58,2.58 1.43,0 2.59,-1.15 2.59,-2.58z"/>
     <path class="fil7" d="M1824.68 942.83c0,-1.43 -1.15,-2.59 -2.58,-2.59 -1.43,0 -2.59,1.16 -2.59,2.59 0,1.43 1.16,2.58 2.59,2.58 1.43,0 2.58,-1.15 2.58,-2.58z"/>
     <path class="fil7" d="M1835.03 942.83c0,-1.43 -1.16,-2.59 -2.59,-2.59 -1.43,0 -2.59,1.16 -2.59,2.59 0,1.43 1.16,2.58 2.59,2.58 1.43,0 2.59,-1.15 2.59,-2.58z"/>
     <path class="fil7" d="M1695.37 948c0,-1.43 -1.16,-2.59 -2.58,-2.59 -1.43,0 -2.59,1.16 -2.59,2.59 0,1.43 1.16,2.59 2.59,2.59 1.42,0 2.58,-1.16 2.58,-2.59z"/>
     <path class="fil7" d="M1710.89 948c0,-1.43 -1.16,-2.59 -2.59,-2.59 -1.43,0 -2.58,1.16 -2.58,2.59 0,1.43 1.15,2.59 2.58,2.59 1.43,0 2.59,-1.16 2.59,-2.59z"/>
     <path class="fil7" d="M1726.41 948c0,-1.43 -1.16,-2.59 -2.59,-2.59 -1.43,0 -2.59,1.16 -2.59,2.59 0,1.43 1.16,2.59 2.59,2.59 1.43,0 2.59,-1.16 2.59,-2.59z"/>
     <path class="fil7" d="M1731.58 948c0,-1.43 -1.16,-2.59 -2.59,-2.59 -1.42,0 -2.58,1.16 -2.58,2.59 0,1.43 1.16,2.59 2.58,2.59 1.43,0 2.59,-1.16 2.59,-2.59z"/>
     <path class="fil7" d="M1736.75 948c0,-1.43 -1.16,-2.59 -2.58,-2.59 -1.43,0 -2.59,1.16 -2.59,2.59 0,1.43 1.16,2.59 2.59,2.59 1.42,0 2.58,-1.16 2.58,-2.59z"/>
     <path class="fil7" d="M1747.1 948c0,-1.43 -1.16,-2.59 -2.59,-2.59 -1.43,0 -2.59,1.16 -2.59,2.59 0,1.43 1.16,2.59 2.59,2.59 1.43,0 2.59,-1.16 2.59,-2.59z"/>
     <path class="fil7" d="M1762.61 948c0,-1.43 -1.15,-2.59 -2.58,-2.59 -1.43,0 -2.59,1.16 -2.59,2.59 0,1.43 1.16,2.59 2.59,2.59 1.43,0 2.58,-1.16 2.58,-2.59z"/>
     <path class="fil7" d="M1772.96 948c0,-1.43 -1.16,-2.59 -2.59,-2.59 -1.43,0 -2.58,1.16 -2.58,2.59 0,1.43 1.15,2.59 2.58,2.59 1.43,0 2.59,-1.16 2.59,-2.59z"/>
     <path class="fil7" d="M1778.13 948c0,-1.43 -1.16,-2.59 -2.58,-2.59 -1.43,0 -2.59,1.16 -2.59,2.59 0,1.43 1.16,2.59 2.59,2.59 1.42,0 2.58,-1.16 2.58,-2.59z"/>
     <path class="fil7" d="M1793.65 948c0,-1.43 -1.16,-2.59 -2.59,-2.59 -1.43,0 -2.58,1.16 -2.58,2.59 0,1.43 1.15,2.59 2.58,2.59 1.43,0 2.59,-1.16 2.59,-2.59z"/>
     <path class="fil7" d="M1824.68 948c0,-1.43 -1.15,-2.59 -2.58,-2.59 -1.43,0 -2.59,1.16 -2.59,2.59 0,1.43 1.16,2.59 2.59,2.59 1.43,0 2.58,-1.16 2.58,-2.59z"/>
     <path class="fil7" d="M1829.85 948c0,-1.43 -1.15,-2.59 -2.58,-2.59 -1.43,0 -2.59,1.16 -2.59,2.59 0,1.43 1.16,2.59 2.59,2.59 1.43,0 2.58,-1.16 2.58,-2.59z"/>
     <path class="fil7" d="M1840.2 948c0,-1.43 -1.16,-2.59 -2.59,-2.59 -1.42,0 -2.58,1.16 -2.58,2.59 0,1.43 1.16,2.59 2.58,2.59 1.43,0 2.59,-1.16 2.59,-2.59z"/>
     <path class="fil7" d="M1736.75 953.17c0,-1.42 -1.16,-2.58 -2.58,-2.58 -1.43,0 -2.59,1.16 -2.59,2.58 0,1.43 1.16,2.59 2.59,2.59 1.42,0 2.58,-1.16 2.58,-2.59z"/>
     <path class="fil7" d="M1741.92 953.17c0,-1.42 -1.15,-2.58 -2.58,-2.58 -1.43,0 -2.59,1.16 -2.59,2.58 0,1.43 1.16,2.59 2.59,2.59 1.43,0 2.58,-1.16 2.58,-2.59z"/>
     <path class="fil7" d="M1747.1 953.17c0,-1.42 -1.16,-2.58 -2.59,-2.58 -1.43,0 -2.59,1.16 -2.59,2.58 0,1.43 1.16,2.59 2.59,2.59 1.43,0 2.59,-1.16 2.59,-2.59z"/>
     <path class="fil7" d="M1752.27 953.17c0,-1.42 -1.16,-2.58 -2.59,-2.58 -1.43,0 -2.58,1.16 -2.58,2.58 0,1.43 1.15,2.59 2.58,2.59 1.43,0 2.59,-1.16 2.59,-2.59z"/>
     <path class="fil7" d="M1757.44 953.17c0,-1.42 -1.16,-2.58 -2.59,-2.58 -1.42,0 -2.58,1.16 -2.58,2.58 0,1.43 1.16,2.59 2.58,2.59 1.43,0 2.59,-1.16 2.59,-2.59z"/>
     <path class="fil7" d="M1772.96 953.17c0,-1.42 -1.16,-2.58 -2.59,-2.58 -1.43,0 -2.58,1.16 -2.58,2.58 0,1.43 1.15,2.59 2.58,2.59 1.43,0 2.59,-1.16 2.59,-2.59z"/>
     <path class="fil7" d="M1778.13 953.17c0,-1.42 -1.16,-2.58 -2.58,-2.58 -1.43,0 -2.59,1.16 -2.59,2.58 0,1.43 1.16,2.59 2.59,2.59 1.42,0 2.58,-1.16 2.58,-2.59z"/>
     <path class="fil7" d="M1788.48 953.17c0,-1.42 -1.16,-2.58 -2.59,-2.58 -1.43,0 -2.59,1.16 -2.59,2.58 0,1.43 1.16,2.59 2.59,2.59 1.43,0 2.59,-1.16 2.59,-2.59z"/>
     <path class="fil7" d="M1793.65 953.17c0,-1.42 -1.16,-2.58 -2.59,-2.58 -1.43,0 -2.58,1.16 -2.58,2.58 0,1.43 1.15,2.59 2.58,2.59 1.43,0 2.59,-1.16 2.59,-2.59z"/>
     <path class="fil7" d="M1835.03 953.17c0,-1.42 -1.16,-2.58 -2.59,-2.58 -1.43,0 -2.59,1.16 -2.59,2.58 0,1.43 1.16,2.59 2.59,2.59 1.43,0 2.59,-1.16 2.59,-2.59z"/>
     <path class="fil7" d="M1840.2 953.17c0,-1.42 -1.16,-2.58 -2.59,-2.58 -1.42,0 -2.58,1.16 -2.58,2.58 0,1.43 1.16,2.59 2.58,2.59 1.43,0 2.59,-1.16 2.59,-2.59z"/>
     <path class="fil7" d="M1783.3 958.35c0,-1.43 -1.15,-2.59 -2.58,-2.59 -1.43,0 -2.59,1.16 -2.59,2.59 0,1.42 1.16,2.58 2.59,2.58 1.43,0 2.58,-1.16 2.58,-2.58z"/>
     <path class="fil7" d="M1824.68 958.35c0,-1.43 -1.15,-2.59 -2.58,-2.59 -1.43,0 -2.59,1.16 -2.59,2.59 0,1.42 1.16,2.58 2.59,2.58 1.43,0 2.58,-1.16 2.58,-2.58z"/>
     <path class="fil7" d="M1829.85 958.35c0,-1.43 -1.15,-2.59 -2.58,-2.59 -1.43,0 -2.59,1.16 -2.59,2.59 0,1.42 1.16,2.58 2.59,2.58 1.43,0 2.58,-1.16 2.58,-2.58z"/>
     <path class="fil7" d="M1835.03 958.35c0,-1.43 -1.16,-2.59 -2.59,-2.59 -1.43,0 -2.59,1.16 -2.59,2.59 0,1.42 1.16,2.58 2.59,2.58 1.43,0 2.59,-1.16 2.59,-2.58z"/>
     <path class="fil7" d="M1741.92 963.52c0,-1.43 -1.15,-2.59 -2.58,-2.59 -1.43,0 -2.59,1.16 -2.59,2.59 0,1.43 1.16,2.58 2.59,2.58 1.43,0 2.58,-1.15 2.58,-2.58z"/>
     <path class="fil7" d="M1752.27 963.52c0,-1.43 -1.16,-2.59 -2.59,-2.59 -1.43,0 -2.58,1.16 -2.58,2.59 0,1.43 1.15,2.58 2.58,2.58 1.43,0 2.59,-1.15 2.59,-2.58z"/>
     <path class="fil7" d="M1767.79 963.52c0,-1.43 -1.16,-2.59 -2.59,-2.59 -1.43,0 -2.59,1.16 -2.59,2.59 0,1.43 1.16,2.58 2.59,2.58 1.43,0 2.59,-1.15 2.59,-2.58z"/>
     <path class="fil7" d="M1772.96 963.52c0,-1.43 -1.16,-2.59 -2.59,-2.59 -1.43,0 -2.58,1.16 -2.58,2.59 0,1.43 1.15,2.58 2.58,2.58 1.43,0 2.59,-1.15 2.59,-2.58z"/>
     <path class="fil7" d="M1778.13 963.52c0,-1.43 -1.16,-2.59 -2.58,-2.59 -1.43,0 -2.59,1.16 -2.59,2.59 0,1.43 1.16,2.58 2.59,2.58 1.42,0 2.58,-1.15 2.58,-2.58z"/>
     <path class="fil7" d="M1783.3 963.52c0,-1.43 -1.15,-2.59 -2.58,-2.59 -1.43,0 -2.59,1.16 -2.59,2.59 0,1.43 1.16,2.58 2.59,2.58 1.43,0 2.58,-1.15 2.58,-2.58z"/>
     <path class="fil7" d="M1788.48 963.52c0,-1.43 -1.16,-2.59 -2.59,-2.59 -1.43,0 -2.59,1.16 -2.59,2.59 0,1.43 1.16,2.58 2.59,2.58 1.43,0 2.59,-1.15 2.59,-2.58z"/>
     <path class="fil7" d="M1829.85 963.52c0,-1.43 -1.15,-2.59 -2.58,-2.59 -1.43,0 -2.59,1.16 -2.59,2.59 0,1.43 1.16,2.58 2.59,2.58 1.43,0 2.58,-1.15 2.58,-2.58z"/>
     <path class="fil7" d="M1741.92 968.69c0,-1.43 -1.15,-2.59 -2.58,-2.59 -1.43,0 -2.59,1.16 -2.59,2.59 0,1.43 1.16,2.59 2.59,2.59 1.43,0 2.58,-1.16 2.58,-2.59z"/>
     <path class="fil7" d="M1747.1 968.69c0,-1.43 -1.16,-2.59 -2.59,-2.59 -1.43,0 -2.59,1.16 -2.59,2.59 0,1.43 1.16,2.59 2.59,2.59 1.43,0 2.59,-1.16 2.59,-2.59z"/>
     <path class="fil7" d="M1752.27 968.69c0,-1.43 -1.16,-2.59 -2.59,-2.59 -1.43,0 -2.58,1.16 -2.58,2.59 0,1.43 1.15,2.59 2.58,2.59 1.43,0 2.59,-1.16 2.59,-2.59z"/>
     <path class="fil7" d="M1757.44 968.69c0,-1.43 -1.16,-2.59 -2.59,-2.59 -1.42,0 -2.58,1.16 -2.58,2.59 0,1.43 1.16,2.59 2.58,2.59 1.43,0 2.59,-1.16 2.59,-2.59z"/>
     <path class="fil7" d="M1772.96 968.69c0,-1.43 -1.16,-2.59 -2.59,-2.59 -1.43,0 -2.58,1.16 -2.58,2.59 0,1.43 1.15,2.59 2.58,2.59 1.43,0 2.59,-1.16 2.59,-2.59z"/>
     <path class="fil7" d="M1778.13 968.69c0,-1.43 -1.16,-2.59 -2.58,-2.59 -1.43,0 -2.59,1.16 -2.59,2.59 0,1.43 1.16,2.59 2.59,2.59 1.42,0 2.58,-1.16 2.58,-2.59z"/>
     <path class="fil7" d="M1783.3 968.69c0,-1.43 -1.15,-2.59 -2.58,-2.59 -1.43,0 -2.59,1.16 -2.59,2.59 0,1.43 1.16,2.59 2.59,2.59 1.43,0 2.58,-1.16 2.58,-2.59z"/>
     <path class="fil7" d="M1788.48 968.69c0,-1.43 -1.16,-2.59 -2.59,-2.59 -1.43,0 -2.59,1.16 -2.59,2.59 0,1.43 1.16,2.59 2.59,2.59 1.43,0 2.59,-1.16 2.59,-2.59z"/>
     <path class="fil7" d="M1824.68 968.69c0,-1.43 -1.15,-2.59 -2.58,-2.59 -1.43,0 -2.59,1.16 -2.59,2.59 0,1.43 1.16,2.59 2.59,2.59 1.43,0 2.58,-1.16 2.58,-2.59z"/>
     <path class="fil7" d="M1736.75 973.86c0,-1.43 -1.16,-2.58 -2.58,-2.58 -1.43,0 -2.59,1.15 -2.59,2.58 0,1.43 1.16,2.59 2.59,2.59 1.42,0 2.58,-1.16 2.58,-2.59z"/>
     <path class="fil7" d="M1741.92 973.86c0,-1.43 -1.15,-2.58 -2.58,-2.58 -1.43,0 -2.59,1.15 -2.59,2.58 0,1.43 1.16,2.59 2.59,2.59 1.43,0 2.58,-1.16 2.58,-2.59z"/>
     <path class="fil7" d="M1747.1 973.86c0,-1.43 -1.16,-2.58 -2.59,-2.58 -1.43,0 -2.59,1.15 -2.59,2.58 0,1.43 1.16,2.59 2.59,2.59 1.43,0 2.59,-1.16 2.59,-2.59z"/>
     <path class="fil7" d="M1767.79 973.86c0,-1.43 -1.16,-2.58 -2.59,-2.58 -1.43,0 -2.59,1.15 -2.59,2.58 0,1.43 1.16,2.59 2.59,2.59 1.43,0 2.59,-1.16 2.59,-2.59z"/>
     <path class="fil7" d="M1783.3 973.86c0,-1.43 -1.15,-2.58 -2.58,-2.58 -1.43,0 -2.59,1.15 -2.59,2.58 0,1.43 1.16,2.59 2.59,2.59 1.43,0 2.58,-1.16 2.58,-2.59z"/>
     <path class="fil7" d="M1793.65 973.86c0,-1.43 -1.16,-2.58 -2.59,-2.58 -1.43,0 -2.58,1.15 -2.58,2.58 0,1.43 1.15,2.59 2.58,2.59 1.43,0 2.59,-1.16 2.59,-2.59z"/>
     <path class="fil7" d="M1798.82 973.86c0,-1.43 -1.16,-2.58 -2.59,-2.58 -1.42,0 -2.58,1.15 -2.58,2.58 0,1.43 1.16,2.59 2.58,2.59 1.43,0 2.59,-1.16 2.59,-2.59z"/>
     <path class="fil7" d="M1803.99 973.86c0,-1.43 -1.16,-2.58 -2.58,-2.58 -1.43,0 -2.59,1.15 -2.59,2.58 0,1.43 1.16,2.59 2.59,2.59 1.42,0 2.58,-1.16 2.58,-2.59z"/>
     <path class="fil7" d="M1809.17 973.86c0,-1.43 -1.16,-2.58 -2.59,-2.58 -1.43,0 -2.59,1.15 -2.59,2.58 0,1.43 1.16,2.59 2.59,2.59 1.43,0 2.59,-1.16 2.59,-2.59z"/>
     <path class="fil7" d="M1819.51 973.86c0,-1.43 -1.16,-2.58 -2.59,-2.58 -1.42,0 -2.58,1.15 -2.58,2.58 0,1.43 1.16,2.59 2.58,2.59 1.43,0 2.59,-1.16 2.59,-2.59z"/>
     <path class="fil7" d="M1840.2 973.86c0,-1.43 -1.16,-2.58 -2.59,-2.58 -1.42,0 -2.58,1.15 -2.58,2.58 0,1.43 1.16,2.59 2.58,2.59 1.43,0 2.59,-1.16 2.59,-2.59z"/>
     <path class="fil7" d="M1741.92 979.04c0,-1.43 -1.15,-2.59 -2.58,-2.59 -1.43,0 -2.59,1.16 -2.59,2.59 0,1.42 1.16,2.58 2.59,2.58 1.43,0 2.58,-1.16 2.58,-2.58z"/>
     <path class="fil7" d="M1752.27 979.04c0,-1.43 -1.16,-2.59 -2.59,-2.59 -1.43,0 -2.58,1.16 -2.58,2.59 0,1.42 1.15,2.58 2.58,2.58 1.43,0 2.59,-1.16 2.59,-2.58z"/>
     <path class="fil7" d="M1757.44 979.04c0,-1.43 -1.16,-2.59 -2.59,-2.59 -1.42,0 -2.58,1.16 -2.58,2.59 0,1.42 1.16,2.58 2.58,2.58 1.43,0 2.59,-1.16 2.59,-2.58z"/>
     <path class="fil7" d="M1767.79 979.04c0,-1.43 -1.16,-2.59 -2.59,-2.59 -1.43,0 -2.59,1.16 -2.59,2.59 0,1.42 1.16,2.58 2.59,2.58 1.43,0 2.59,-1.16 2.59,-2.58z"/>
     <path class="fil7" d="M1783.3 979.04c0,-1.43 -1.15,-2.59 -2.58,-2.59 -1.43,0 -2.59,1.16 -2.59,2.59 0,1.42 1.16,2.58 2.59,2.58 1.43,0 2.58,-1.16 2.58,-2.58z"/>
     <path class="fil7" d="M1788.48 979.04c0,-1.43 -1.16,-2.59 -2.59,-2.59 -1.43,0 -2.59,1.16 -2.59,2.59 0,1.42 1.16,2.58 2.59,2.58 1.43,0 2.59,-1.16 2.59,-2.58z"/>
     <path class="fil7" d="M1793.65 979.04c0,-1.43 -1.16,-2.59 -2.59,-2.59 -1.43,0 -2.58,1.16 -2.58,2.59 0,1.42 1.15,2.58 2.58,2.58 1.43,0 2.59,-1.16 2.59,-2.58z"/>
     <path class="fil7" d="M1798.82 979.04c0,-1.43 -1.16,-2.59 -2.59,-2.59 -1.42,0 -2.58,1.16 -2.58,2.59 0,1.42 1.16,2.58 2.58,2.58 1.43,0 2.59,-1.16 2.59,-2.58z"/>
     <path class="fil7" d="M1819.51 979.04c0,-1.43 -1.16,-2.59 -2.59,-2.59 -1.42,0 -2.58,1.16 -2.58,2.59 0,1.42 1.16,2.58 2.58,2.58 1.43,0 2.59,-1.16 2.59,-2.58z"/>
     <path class="fil7" d="M1829.85 979.04c0,-1.43 -1.15,-2.59 -2.58,-2.59 -1.43,0 -2.59,1.16 -2.59,2.59 0,1.42 1.16,2.58 2.59,2.58 1.43,0 2.58,-1.16 2.58,-2.58z"/>
     <path class="fil7" d="M1840.2 979.04c0,-1.43 -1.16,-2.59 -2.59,-2.59 -1.42,0 -2.58,1.16 -2.58,2.59 0,1.42 1.16,2.58 2.58,2.58 1.43,0 2.59,-1.16 2.59,-2.58z"/>
     <path class="fil7" d="M1741.92 984.21c0,-1.43 -1.15,-2.59 -2.58,-2.59 -1.43,0 -2.59,1.16 -2.59,2.59 0,1.43 1.16,2.58 2.59,2.58 1.43,0 2.58,-1.15 2.58,-2.58z"/>
     <path class="fil7" d="M1747.1 984.21c0,-1.43 -1.16,-2.59 -2.59,-2.59 -1.43,0 -2.59,1.16 -2.59,2.59 0,1.43 1.16,2.58 2.59,2.58 1.43,0 2.59,-1.15 2.59,-2.58z"/>
     <path class="fil7" d="M1752.27 984.21c0,-1.43 -1.16,-2.59 -2.59,-2.59 -1.43,0 -2.58,1.16 -2.58,2.59 0,1.43 1.15,2.58 2.58,2.58 1.43,0 2.59,-1.15 2.59,-2.58z"/>
     <path class="fil7" d="M1757.44 984.21c0,-1.43 -1.16,-2.59 -2.59,-2.59 -1.42,0 -2.58,1.16 -2.58,2.59 0,1.43 1.16,2.58 2.58,2.58 1.43,0 2.59,-1.15 2.59,-2.58z"/>
     <path class="fil7" d="M1772.96 984.21c0,-1.43 -1.16,-2.59 -2.59,-2.59 -1.43,0 -2.58,1.16 -2.58,2.59 0,1.43 1.15,2.58 2.58,2.58 1.43,0 2.59,-1.15 2.59,-2.58z"/>
     <path class="fil7" d="M1778.13 984.21c0,-1.43 -1.16,-2.59 -2.58,-2.59 -1.43,0 -2.59,1.16 -2.59,2.59 0,1.43 1.16,2.58 2.59,2.58 1.42,0 2.58,-1.15 2.58,-2.58z"/>
     <path class="fil7" d="M1803.99 984.21c0,-1.43 -1.16,-2.59 -2.58,-2.59 -1.43,0 -2.59,1.16 -2.59,2.59 0,1.43 1.16,2.58 2.59,2.58 1.42,0 2.58,-1.15 2.58,-2.58z"/>
     <path class="fil7" d="M1814.34 984.21c0,-1.43 -1.16,-2.59 -2.59,-2.59 -1.43,0 -2.58,1.16 -2.58,2.59 0,1.43 1.15,2.58 2.58,2.58 1.43,0 2.59,-1.15 2.59,-2.58z"/>
     <path class="fil7" d="M1835.03 984.21c0,-1.43 -1.16,-2.59 -2.59,-2.59 -1.43,0 -2.59,1.16 -2.59,2.59 0,1.43 1.16,2.58 2.59,2.58 1.43,0 2.59,-1.15 2.59,-2.58z"/>
     <path class="fil7" d="M1752.27 989.38c0,-1.43 -1.16,-2.59 -2.59,-2.59 -1.43,0 -2.58,1.16 -2.58,2.59 0,1.43 1.15,2.59 2.58,2.59 1.43,0 2.59,-1.16 2.59,-2.59z"/>
     <path class="fil7" d="M1757.44 989.38c0,-1.43 -1.16,-2.59 -2.59,-2.59 -1.42,0 -2.58,1.16 -2.58,2.59 0,1.43 1.16,2.59 2.58,2.59 1.43,0 2.59,-1.16 2.59,-2.59z"/>
     <path class="fil7" d="M1762.61 989.38c0,-1.43 -1.15,-2.59 -2.58,-2.59 -1.43,0 -2.59,1.16 -2.59,2.59 0,1.43 1.16,2.59 2.59,2.59 1.43,0 2.58,-1.16 2.58,-2.59z"/>
     <path class="fil7" d="M1772.96 989.38c0,-1.43 -1.16,-2.59 -2.59,-2.59 -1.43,0 -2.58,1.16 -2.58,2.59 0,1.43 1.15,2.59 2.58,2.59 1.43,0 2.59,-1.16 2.59,-2.59z"/>
     <path class="fil7" d="M1783.3 989.38c0,-1.43 -1.15,-2.59 -2.58,-2.59 -1.43,0 -2.59,1.16 -2.59,2.59 0,1.43 1.16,2.59 2.59,2.59 1.43,0 2.58,-1.16 2.58,-2.59z"/>
     <path class="fil7" d="M1788.48 989.38c0,-1.43 -1.16,-2.59 -2.59,-2.59 -1.43,0 -2.59,1.16 -2.59,2.59 0,1.43 1.16,2.59 2.59,2.59 1.43,0 2.59,-1.16 2.59,-2.59z"/>
     <path class="fil7" d="M1793.65 989.38c0,-1.43 -1.16,-2.59 -2.59,-2.59 -1.43,0 -2.58,1.16 -2.58,2.59 0,1.43 1.15,2.59 2.58,2.59 1.43,0 2.59,-1.16 2.59,-2.59z"/>
     <path class="fil7" d="M1798.82 989.38c0,-1.43 -1.16,-2.59 -2.59,-2.59 -1.42,0 -2.58,1.16 -2.58,2.59 0,1.43 1.16,2.59 2.58,2.59 1.43,0 2.59,-1.16 2.59,-2.59z"/>
     <path class="fil7" d="M1803.99 989.38c0,-1.43 -1.16,-2.59 -2.58,-2.59 -1.43,0 -2.59,1.16 -2.59,2.59 0,1.43 1.16,2.59 2.59,2.59 1.42,0 2.58,-1.16 2.58,-2.59z"/>
     <path class="fil7" d="M1819.51 989.38c0,-1.43 -1.16,-2.59 -2.59,-2.59 -1.42,0 -2.58,1.16 -2.58,2.59 0,1.43 1.16,2.59 2.58,2.59 1.43,0 2.59,-1.16 2.59,-2.59z"/>
     <path class="fil7" d="M1835.03 989.38c0,-1.43 -1.16,-2.59 -2.59,-2.59 -1.43,0 -2.59,1.16 -2.59,2.59 0,1.43 1.16,2.59 2.59,2.59 1.43,0 2.59,-1.16 2.59,-2.59z"/>
    </g>
    <g>
     <path class="fil7" d="M1690.2 841.97l36.21 0 0 36.2 -36.21 0 0 -36.2zm10.35 5.17l-5.18 0 0 25.86 25.86 0 0 -25.86 -20.68 0zm103.44 -5.17l36.21 0 0 36.2 -36.21 0 0 -36.2zm10.35 5.17l-5.17 0 0 25.86 25.86 0 0 -25.86 -20.69 0zm-20.69 98.27l25.86 0 0 25.87 -25.86 0 0 -25.87zm10.34 5.18l-5.17 0 0 15.51 15.52 0 0 -15.51 -10.35 0zm-113.79 5.17l36.21 0 0 36.21 -36.21 0 0 -36.21zm10.35 5.17l-5.18 0 0 25.86 25.86 0 0 -25.86 -20.68 0z"/>
    </g>
    <g>
     <path class="fil7" d="M1700.55 852.31l15.51 0 0 15.52 -15.51 0 0 -15.52zm113.79 0l15.51 0 0 15.52 -15.51 0 0 -15.52zm-10.35 103.45l5.18 0 0 5.17 -5.18 0 0 -5.17zm-103.44 10.34l15.51 0 0 15.52 -15.51 0 0 -15.52z"/>
    </g>
   </g>
  </g>
  <g id="_2710304892080">
   <path class="fil1" d="M764.86 583.29c8.25,0 15.75,3.38 21.18,8.82l14.15 14.14c5.43,5.44 8.81,12.94 8.81,21.19 0,4.12 -3.38,7.5 -7.5,7.5l-45 0c-2.06,0 -3.94,-0.85 -5.3,-2.21l-14.05 -14.05c-0.01,0 -0.01,-0.01 -0.01,-0.01l-0.08 -0.08c-1.36,-1.36 -2.2,-3.23 -2.2,-5.3 0,-16.5 13.5,-30 30,-30z"/>
  </g>
  <path class="fil2" d="M764.86 583.29l0 0c16.5,0 30,13.5 30,30l0 0c0,4.13 -3.38,7.5 -7.5,7.5l-45 0c-4.13,0 -7.5,-3.37 -7.5,-7.5l0 0c0,-16.5 13.5,-30 30,-30z"/>
 </g>
</svg>
