<?xml version="1.0" encoding="utf-8"?>
<!-- Generator: Adobe Illustrator 16.0.0, SVG Export Plug-In . SVG Version: 6.00 Build 0)  -->
<!DOCTYPE svg PUBLIC "-//W3C//DTD SVG 1.1//EN" "http://www.w3.org/Graphics/SVG/1.1/DTD/svg11.dtd">
<svg version="1.1" id="Layer_2" xmlns="http://www.w3.org/2000/svg" xmlns:xlink="http://www.w3.org/1999/xlink" x="0px" y="0px"
	 width="1920px" height="1080px" viewBox="0 0 1920 1080" enable-background="new 0 0 1920 1080" xml:space="preserve">
<g id="Layer_1">
	
		<radialGradient id="SVGID_1_" cx="1180.3281" cy="152.332" r="677.3057" gradientTransform="matrix(2.8346 0 0 1.5945 -2385.7583 297.0585)" gradientUnits="userSpaceOnUse">
		<stop  offset="0" style="stop-color:#FFD67F"/>
		<stop  offset="0.7246" style="stop-color:#FEB558"/>
		<stop  offset="1" style="stop-color:#F99034"/>
	</radialGradient>
	<rect fill="url(#SVGID_1_)" width="1920" height="1079.904"/>
	
		<linearGradient id="SVGID_2_" gradientUnits="userSpaceOnUse" x1="1141.5576" y1="154.124" x2="1478.3037" y2="154.124" gradientTransform="matrix(2.8346 0 0 2.8346 -2385.7583 241.0413)">
		<stop  offset="0" style="stop-color:#F2824B"/>
		<stop  offset="0.251" style="stop-color:#FEAA61"/>
		<stop  offset="0.6108" style="stop-color:#FFB863;stop-opacity:0.6946"/>
		<stop  offset="0.8325" style="stop-color:#FFC064;stop-opacity:0"/>
		<stop  offset="1" style="stop-color:#FFC89C;stop-opacity:0"/>
	</linearGradient>
	<path fill="url(#SVGID_2_)" d="M1804.693,1079.904l-765.97-765.709l-3.954-4.058l-3.966-3.926l-4.368-3.607l-4.293-3.472
		l-4.599-3.327l-4.707-2.99l-4.996-2.841l-4.905-2.496l-5.188-2.332l-5.271-2.165l-5.546-1.803l-5.438-1.628l-5.701-1.255
		l-5.766-1.072l-5.828-0.687l-5.884-0.496l-5.94-0.101l-0.634,0.001l-0.69,0.003l-0.761,0.007l-0.635,0.008l-0.627,0.011
		l-0.623,0.012l-0.621,0.015l-0.615,0.016l-0.611,0.021l-0.605,0.021l-0.603,0.023l-0.595,0.026l-0.588,0.027l-0.582,0.029
		l-0.572,0.201l-0.565,0.049l-1.071,0.074l-1.041,0.224l-0.804,0.552l-0.929,0.675l-0.65,0.963l-0.543,1.052l-0.238,1.126
		l-0.26,1.182v11.1l-4.345,0.721l-4.489,1.046l-4.246,1.173l-4.384,1.299l-4.137,1.611l-4.075,1.731l-4.016,1.846l-3.792,2.147
		l-3.84,2.247l-3.614,2.38l-3.538,2.473l-3.456,2.758l-3.378,2.707l-3.29,3.098l-3.012,3.044l-2.922,3.301l-2.824,3.231
		l-2.537,3.483l-2.625,3.731l-2.333,3.661l-2.033,3.878l-2.113,3.799l-1.809,4.034l-1.693,4.096l-1.38,4.157l-1.449,4.4
		l-1.132,4.264l-0.813,4.505l-0.679,4.552l-0.544,4.591l-0.404,4.635l-0.071,4.671l0.087,5.001l0.451,5.138l0.617,5.092l0.975,4.849
		l1.119,4.979l1.307,4.727l1.447,4.658l1.965,4.589l1.924,4.342l2.252,4.414l2.387,4.16l2.706,4.071l2.645,3.979l3.145,3.864
		l3.077,3.609l3.375,3.487l3.486,3.359c162.266,145.896,108.979,98.236,109.207,98.29l-0.422-0.043l-0.183-0.322l-0.387-0.125
		l-0.404-0.115l-0.233-0.295l-0.443-0.098l-0.455-0.088l-0.285-0.077l-0.494-0.241l-0.51-0.078l-0.526-0.053l-0.543-0.037
		l-0.367-0.033l-0.771-0.023l-0.422-0.015l-0.787-0.005l-0.621,0.005l-0.6,0.015l-0.586,0.023l-0.566,0.033l-0.553,0.043
		l-0.529,0.049l-0.321,0.234l-0.498,0.091l-0.478,0.081l-0.457,0.09l-0.256,0.101l-0.426,0.296l-0.219,0.12l-0.388,0.125
		l-0.18,0.327l-0.354,0.144l-0.313,0.526l-0.432,0.58l-0.406,0.646l-0.178,0.703l-0.183,0.951l-0.243,0.825l-0.062,1.071
		l-0.021,1.133l0.021,1.099l0.055,1.045l0.105,0.79l0.313,0.929l0.17,0.682l0.402,0.624l0.248,0.564l0.475,0.512l9.738,9.548
		l-0.297-0.013l-0.305-0.017l-0.511-0.015l-0.528-0.008l-0.545-0.006l-0.563-0.006l-0.559,0.006l-0.543,0.006l-0.517,0.008
		l-0.336,0.015l-0.498,0.017l-0.479,0.032l-0.461,0.209l-0.256,0.025l-0.427,0.033l-0.264,0.038l-0.369,0.038l-0.205,0.04
		l-0.379,0.047l-0.252,0.046l-0.287,0.053l-0.151,0.055l-0.336,0.245l-0.134,0.062l-0.123,0.061l-0.303,0.064l-0.1,0.07
		l-0.086,0.238l-0.076,0.1l-0.064,0.076l-0.244,0.079l-0.055,0.081l-0.045,0.089l-0.035,0.276l-0.026,0.094l-0.019,0.092
		l-0.016,0.094l-0.002,0.291v16.869l-15.119-15.117l-0.662-0.651l-0.883-0.817l-0.726-0.596l-0.752-0.563l-0.976-0.348l-1.006-0.508
		l-0.325-0.346l-0.524-0.139l-0.533-0.128l-0.543-0.313l-0.553-0.11l-0.561-0.103l-0.571-0.283l-0.581-0.082l-0.587-0.071
		l-0.599-0.06l-0.607-0.055l-0.616-0.044l-0.626-0.032l-0.634-0.022l-0.646-0.017l-0.842-0.006l-0.615,0.008l-0.613,0.021
		l-0.612,0.033l-0.606,0.045l-0.608,0.059l-0.604,0.068l-0.604,0.084l-0.6,0.271l-0.598,0.122l-0.598,0.121l-0.593,0.328
		l-0.592,0.146l-0.589,0.157l-0.588,0.366l-0.586,0.183l-0.582,0.393l-0.598,0.21l-0.57,0.415l-0.602,0.252l-0.561,0.423
		l-0.603,0.453l-0.558,0.444l-0.589,0.303l-0.566,0.492l-0.576,0.502l-0.256,0.055l-27.093-27.285l-0.354-0.141l-0.181-0.322
		l-0.389-0.125l-0.216-0.115l-0.423-0.295l-0.44-0.098l-0.269-0.088l-0.475-0.077l-0.493-0.241l-0.51-0.078l-0.526-0.053
		l-0.354-0.037l-0.563-0.033l-0.578-0.023l-0.608-0.015l-0.6-0.005l-0.812,0.005l-0.602,0.015l-0.585,0.023l-0.566,0.033
		l-0.55,0.043l-0.34,0.049l-0.514,0.234l-0.497,0.091l-0.479,0.081l-0.312,0.09l-0.4,0.101l-0.427,0.296l-0.216,0.12l-0.39,0.125
		l-0.181,0.327l-0.355,0.144l-0.306,0.526l-0.437,0.58l-0.406,0.646l-0.178,0.703l-0.157,0.951l-0.271,0.825l-0.059,1.071
		l-0.021,1.133l0.02,1.099l0.058,1.045l0.249,0.79l0.172,0.929l0.171,0.682l0.399,0.624l0.251,0.564l0.472,0.512l9.738,9.548
		l-0.104-0.013l-0.497-0.017l-0.513-0.015l-0.529-0.008l-0.544-0.006l-0.561-0.006l-0.563,0.006l-0.539,0.006l-0.52,0.008
		l-18.434-18.561l-0.313-0.125l-0.15-0.119l-0.349-0.301l-0.174-0.104l-0.363-0.088l-0.192-0.082l-0.196-0.078l-0.394-0.255
		l-0.403-0.062l-0.224-0.052l-0.423-0.041l-0.241-0.032l-0.445-0.021l-0.454-0.014l-0.271-0.003h-10.901l-0.563,0.003l-0.555,0.014
		l-0.54,0.021l-0.532,0.034l-0.331,0.041l-0.504,0.056l-0.5,0.063l-0.484,0.266l-0.468,0.086l-0.272,0.098l-0.453,0.111
		l-0.444,0.315l-0.245,0.138l-0.426,0.153l-0.226,0.353l-0.405,0.176l-0.206,0.385l-0.393,0.203l-0.34,0.41l-0.232,0.231
		l-0.182,0.439l-0.367,0.45l-0.172,0.271l-0.355,0.481l-0.157,0.497l-0.156,0.513l-0.337,0.53l-0.146,0.545l-0.337,0.563
		l-0.141,0.448l-0.136,0.726l-0.324,0.612l-8.671,22.917l-29.678-29.676l-0.229-0.198l-0.429-0.379l-0.309-0.171l-0.398-0.353
		l-0.467-0.146l-0.48-0.133l-0.319-0.313l-0.482-0.106l-0.514-0.096l-0.525-0.087l-0.536-0.265l-0.554-0.063l-0.571-0.056
		l-0.589-0.041l-0.605-0.035l-0.622-0.021l-0.64-0.014l-0.655-0.003H796.02l-0.833,0.017l-0.618,0.049l-0.604,0.087l-0.57,0.312
		l-0.548,0.154l-0.338,0.189l-0.502,0.416l-0.479,0.453l-0.445,0.293l-0.231,0.516l-0.381,0.543l-0.155,0.576l-0.122,0.605
		l-0.269,0.64l-0.06,0.839l-0.016,0.719v70.367l0.002,0.101l0.011,0.286l0.018,0.1l0.023,0.093l0.203,0.092l0.054,0.096l0.05,0.272
		l0.054,0.087l0.063,0.077l0.075,0.075l434.432,434.24"/>
	<g>
		<path fill="#FFFFFF" d="M936.923,293.278c-47.991,7.254-84.974,48.941-84.974,99.085c0,55.559,44.884,100.44,100.438,100.44
			c50.599,0,92.454-37.371,99.385-86.113h10.857c3.332,0,6.252-2.731,6.228-5.578c0.141-2.486,0.223-5.513,0.223-8.75
			c0-64.269-52.25-116.501-116.692-116.501c-3.512,0-7.001,0.107-9.929,0.285c-2.806-0.029-5.536,2.701-5.536,6.017L936.923,293.278
			L936.923,293.278z M973.742,375.953c-3.332,0-6.063-2.729-6.063-5.875l-0.012-61.971c34.686,6.304,62.033,33.451,68.836,67.846
			H973.742z M936.923,392.363c0,7.95,6.378,14.328,14.328,14.328h69.085c-6.695,31.459-34.607,55.174-67.948,55.174
			c-38.333,0-69.499-31.168-69.499-69.502c0-32.971,23.145-60.612,54.034-67.594V392.363L936.923,392.363z M936.923,392.363V324.77
			V392.363z M936.923,293.278v-11.114V293.278z M936.923,392.363V324.77V392.363z M936.923,293.278v-11.114V293.278z"/>
		<path id="_1" fill="none" stroke="#FEFEFE" stroke-width="0.0762" stroke-miterlimit="22.9256" d="M936.923,293.278
			c-47.991,7.254-84.974,48.941-84.974,99.085c0,55.559,44.884,100.44,100.438,100.44c50.599,0,92.454-37.371,99.385-86.113h10.857
			c3.332,0,6.252-2.731,6.228-5.578c0.141-2.486,0.223-5.513,0.223-8.75c0-64.269-52.25-116.501-116.692-116.501
			c-3.512,0-7.001,0.107-9.929,0.285c-2.806-0.029-5.536,2.701-5.536,6.017 M973.742,375.953c-3.332,0-6.063-2.729-6.063-5.875
			l-0.012-61.971c34.686,6.304,62.037,33.451,68.836,67.846H973.742z M936.923,392.363c0,7.95,6.378,14.328,14.328,14.328h69.085
			c-6.695,31.459-34.607,55.174-67.948,55.174c-38.333,0-69.499-31.168-69.499-69.502c0-32.971,23.145-60.612,54.034-67.594
			 M936.923,392.363V324.77 M936.923,293.278v-11.114 M936.923,392.363V324.77 M936.923,293.278v-11.114"/>
	</g>
	<path fill="#FFFFFF" d="M881.585,643.741c0,0.302-0.069,0.711-0.415,1.125c-0.153,0.21-0.625,0.586-1.208,0.723
		c-0.582,0.295-1.305,0.43-2.345,0.512c-0.852,0.086-2.258,0.127-3.649,0.127c-1.566,0-2.771-0.041-3.62-0.127
		c-1.041-0.081-1.791-0.217-2.333-0.512c-0.588-0.137-1.04-0.513-1.211-0.723c-0.34-0.414-0.423-0.823-0.423-1.125v-64.37h-0.088
		l-22.952,64.332c-0.11,0.541-0.28,0.834-0.721,1.262c-0.444,0.431-0.957,0.612-1.578,0.919c-0.612,0.149-1.349,0.245-2.373,0.288
		c-0.851,0.043-2.032,0.056-3.524,0.056c-1.319,0-2.485-0.028-3.522-0.099c-1.041-0.069-1.777-0.18-2.387-0.523
		c-0.61-0.152-1.139-0.528-1.581-0.738c-0.237-0.414-0.596-0.863-0.68-1.163l-22.042-64.332h-0.084v64.37
		c0,0.302-0.068,0.711-0.411,1.125c-0.155,0.21-0.626,0.586-1.224,0.723c-0.609,0.295-1.332,0.431-2.357,0.513
		c-1.026,0.085-2.231,0.126-3.621,0.126c-1.566,0-2.773-0.041-3.644-0.126c-1.019-0.082-1.932-0.218-2.51-0.513
		c-0.586-0.137-0.867-0.513-1.211-0.723c-0.155-0.414-0.225-0.823-0.225-1.125v-70.367c0-2.162,0.556-3.794,1.677-4.921
		c1.067-0.934,2.486-1.484,4.304-1.484h10.486c1.833,0,3.496,0.099,4.963,0.308c1.293,0.398,2.458,0.928,3.494,1.593
		c0.836,0.665,1.778,1.677,2.403,2.843c0.626,1.166,1.206,2.513,1.72,4.229l16.965,47.063h0.169l17.752-46.804
		c0.539-1.738,1.123-3.254,1.734-4.434c0.625-1.169,1.305-2.188,2.248-2.872c0.749-0.68,1.803-1.222,2.938-1.62
		c1.151-0.209,2.432-0.308,4.008-0.308h10.712c1.123,0,2.135,0.099,2.856,0.291c0.724,0.375,1.553,0.843,1.889,1.406
		c0.54,0.563,0.985,1.199,1.165,1.923c0.373,0.721,0.457,1.72,0.457,2.785L881.585,643.741L881.585,643.741z M907.703,643.828
		c0,0.455-0.083,0.694-0.442,1.094c-0.152,0.213-0.626,0.571-1.222,0.71c-0.581,0.317-1.305,0.428-2.332,0.497
		c-0.849,0.069-2.26,0.099-3.646,0.099c-1.582,0-2.803-0.028-3.843-0.099c-0.834-0.069-1.749-0.18-2.33-0.497
		c-0.597-0.139-0.897-0.497-1.222-0.71c-0.167-0.398-0.251-0.639-0.251-1.094v-54.457c0-0.267,0.083-0.695,0.251-0.902
		c0.324-0.403,0.625-0.584,1.222-0.918c0.581-0.15,1.496-0.262,2.33-0.539c1.04-0.083,2.261-0.127,3.843-0.127
		c1.387,0,2.799,0.044,3.646,0.127c1.027,0.277,1.75,0.389,2.332,0.539c0.596,0.334,1.068,0.515,1.222,0.918
		c0.359,0.207,0.442,0.638,0.442,0.902V643.828z M908.923,570.756c0,3.23-0.61,5.246-1.844,6.594
		c-1.236,1.186-3.566,1.597-7.021,1.597c-3.467,0-5.813-0.398-6.991-1.547c-1.193-1.152-1.79-3.302-1.79-6.241
		c0-3.04,0.61-5.243,1.832-6.438c1.207-1.18,3.552-1.776,7.033-1.776c3.439,0,5.771,0.584,6.978,1.748
		C908.327,565.844,908.923,567.801,908.923,570.756L908.923,570.756z M969.357,643.828c0,0.455-0.084,0.694-0.252,1.094
		c-0.347,0.213-0.814,0.571-1.378,0.71c-0.592,0.317-1.311,0.428-2.364,0.497c-0.863,0.069-2.072,0.099-3.623,0.099
		c-1.594,0-2.814-0.028-3.867-0.099c-0.861-0.069-1.773-0.18-2.356-0.497c-0.557-0.139-0.851-0.497-1.195-0.71
		c-0.166-0.398-0.25-0.639-0.25-1.094v-30.976c0-2.733-0.318-4.896-0.583-6.285c-0.442-1.594-1.012-2.842-1.693-3.938
		c-0.72-1.106-1.705-1.854-2.855-2.457c-1.166-0.578-2.442-0.965-4.052-0.965c-1.886,0-3.967,0.857-5.882,2.203
		c-2.094,1.524-4.064,3.496-6.27,6.269v36.149c0,0.455-0.083,0.694-0.442,1.094c-0.153,0.213-0.625,0.571-1.221,0.71
		c-0.583,0.317-1.306,0.428-2.331,0.497c-0.847,0.069-2.26,0.099-3.648,0.099c-1.58,0-2.802-0.028-3.669-0.099
		c-1.006-0.069-1.919-0.18-2.354-0.497c-0.743-0.139-1.023-0.497-1.369-0.71c-0.168-0.398-0.25-0.639-0.25-1.094v-54.54
		c0-0.27,0.068-0.694,0.208-1.099c0.316-0.207,0.569-0.382,1.109-0.705c0.555-0.127,1.193-0.431,2.116-0.502
		c0.77-0.067,1.864-0.099,3.085-0.099c1.264,0,2.359,0.03,3.313,0.099c0.764,0.071,1.401,0.375,1.916,0.502
		c0.5,0.323,0.721,0.498,1.054,0.705c0.14,0.403,0.209,0.829,0.209,1.099v6.325c2.969-3.138,6.171-5.717,9.223-7.276
		c3.041-1.577,6.369-2.504,9.779-2.504c3.636,0,6.88,0.601,9.35,1.997c2.472,1.188,4.606,2.692,6.206,4.868
		c1.47,2.163,2.605,4.58,3.259,7.42c0.844,2.845,1.08,6.063,1.08,10.042v33.668H969.357z M994.227,643.828
		c0,0.455-0.084,0.694-0.442,1.094c-0.152,0.213-0.625,0.571-1.224,0.71c-0.582,0.317-1.305,0.428-2.33,0.497
		c-1.041,0.069-2.258,0.099-3.649,0.099c-1.578,0-2.803-0.028-3.838-0.099c-0.838-0.069-1.75-0.18-2.334-0.497
		c-0.597-0.139-1.049-0.497-1.217-0.71c-0.169-0.398-0.443-0.639-0.443-1.094v-54.457c0-0.267,0.275-0.695,0.443-0.902
		c0.168-0.403,0.62-0.584,1.217-0.918c0.584-0.15,1.496-0.262,2.334-0.539c1.035-0.083,2.26-0.127,3.838-0.127
		c1.393,0,2.608,0.044,3.649,0.127c1.025,0.277,1.748,0.389,2.33,0.539c0.599,0.334,1.07,0.515,1.224,0.918
		c0.358,0.207,0.442,0.638,0.442,0.902V643.828z M995.447,570.756c0,3.23-0.609,5.246-1.849,6.594
		c-1.233,1.186-3.563,1.597-7.02,1.597c-3.467,0-5.812-0.398-6.992-1.547c-1.188-1.152-1.979-3.302-1.979-6.241
		c0-3.04,0.803-5.243,2.024-6.438c1.207-1.18,3.551-1.776,7.031-1.776c3.44,0,5.771,0.584,6.977,1.748
		C994.848,565.844,995.447,567.801,995.447,570.756L995.447,570.756z M1075.91,605.476c0,6.492-0.926,12.334-2.404,17.519
		c-1.854,5.188-4.242,9.667-7.553,13.218c-3.295,3.567-7.113,6.368-11.818,8.213c-4.717,1.847-10.309,2.857-16.401,2.857
		c-6.154,0-11.539-0.739-16.128-2.389c-4.606-1.647-8.309-4.049-11.516-7.418c-2.994-3.164-5.297-7.508-6.891-12.443
		c-1.404-5.134-2.119-11.275-2.119-18.24c0-6.188,0.744-11.961,2.41-17.104c1.664-5.146,4.049-9.4,7.17-13.136
		c3.303-3.551,7.311-6.162,12.012-8.196c4.715-1.86,10.221-2.885,16.439-2.885c5.942,0,11.371,0.912,15.975,2.358
		c4.594,1.633,8.314,4.036,11.514,7.407c2.834,3.353,5.15,7.476,6.963,12.55C1074.994,592.711,1075.91,598.594,1075.91,605.476z
		 M1058.85,606.386c0-4.297-0.223-7.971-1.037-11.398c-0.438-3.429-1.557-6.338-3.37-8.724c-1.431-2.387-3.584-4.219-6.105-5.688
		c-2.514-1.263-5.84-1.898-9.678-1.898c-4.096,0-7.328,0.693-9.978,2.258c-2.541,1.373-4.746,3.48-6.412,5.911
		c-1.661,2.426-2.813,5.325-3.45,8.694c-0.642,3.387-0.863,6.881-0.863,10.516c0,4.229,0.223,8.17,0.848,11.625
		c0.625,3.45,1.748,6.378,3.357,8.792c1.604,2.405,3.59,4.412,6.27,5.658c2.513,1.236,5.854,1.861,9.693,1.861
		c4.063,0,7.438-0.68,10.002-2.244c2.541-1.362,4.744-3.442,6.217-5.926c1.855-2.456,3.006-5.387,3.455-8.781
		C1058.627,613.646,1058.85,610.093,1058.85,606.386z M1130.627,622.229c0,4.135-0.895,7.711-2.316,10.974
		c-1.809,3.051-3.592,5.754-6.514,7.739c-2.557,2.164-5.768,3.772-9.297,4.703c-3.521,1.096-7.213,1.636-11.068,1.636
		c-2.983,0-5.436-0.154-7.781-0.653c-2.334-0.499-4.479-1.051-6.063-1.677c-1.965-0.608-3.359-1.248-4.547-2.072
		c-1.197-0.702-2.154-1.311-2.512-1.851c-0.732-0.56-0.986-1.266-1.138-2.316c-0.543-0.862-0.608-2.387-0.608-4.222
		c0-1.233,0.028-2.315,0.086-3.251c0.061-0.785,0.522-1.436,0.646-1.991c0.125-0.54,0.291-0.982,0.486-1.136
		c0.598-0.153,0.832-0.414,1.109-0.414c0.766,0,1.688,0.414,2.387,1.066c1.08,0.636,2.359,1.522,4.215,2.258
		c1.477,0.748,3.553,1.621,5.838,2.262c2.277,0.654,4.801,1.071,7.947,1.071c1.697,0,3.639-0.35,5.057-0.849
		c1.814-0.323,3.074-1.134,4.187-1.898c0.744-0.768,1.651-1.849,2.43-3.068c0.377-1.236,0.566-2.733,0.566-4.339
		c0-1.774-0.314-3.194-1.361-4.618c-1.035-1.252-2.27-2.389-3.717-3.253c-1.433-1.049-3.396-2.063-5.506-2.838
		c-1.709-0.974-3.854-1.777-6.045-2.818c-2.189-1.037-4.345-2.161-6.05-3.381c-2.108-1.209-4.075-2.584-5.506-4.317
		c-1.446-1.73-2.682-3.867-3.721-6.228c-1.035-2.344-1.357-5.199-1.357-8.559c0-3.676,0.474-7.062,1.787-9.943
		c1.658-2.873,3.361-5.229,5.72-7.075c2.37-1.847,5.391-3.37,8.329-4.189c3.312-1.013,6.763-1.51,10.337-1.51
		c2.012,0,4.036,0.29,5.676,0.483c2.026,0.215,3.578,0.639,5.434,1.15c1.478,0.528,2.822,1.084,4.06,1.679
		c1.219,0.607,2.162,1.14,2.823,1.605c0.269,0.27,0.447,0.695,0.546,0.88c0.098,0.385,0.18,0.635,0.625,1.147
		c0.079,0.5,0.118,1.082,0.145,1.764c0.033,0.857,0.043,1.638,0.043,2.732c0,1.162-0.01,2.197-0.053,2.953
		c-0.045,0.738-0.115,1.377-0.596,2.104c-0.095,0.368-0.234,0.824-0.404,0.979c-0.178,0.358-0.803,0.44-1.107,0.44
		c-0.297,0-1.152-0.196-2.191-0.766c-1.038-0.565-2.233-1.348-3.565-2.02c-1.349-0.641-3.217-1.234-4.854-1.793
		c-2.026-0.566-4.157-0.746-6.434-0.746c-1.557,0-2.961,0.139-4.268,0.621c-1.59,0.47-2.689,1.069-3.287,1.764
		c-0.967,0.693-1.795,1.678-2.074,2.771c-0.293,1.078-0.43,2.042-0.43,3.211c0,1.745,0.315,3.341,1.342,4.574
		c1.025,1.414,2.277,2.4,3.736,3.452c1.463,1.04,3.45,1.859,5.588,2.829c1.737,0.951,3.896,1.791,6.088,2.815
		c2.192,0.849,4.356,1.974,6.477,3.191c1.754,1.412,3.729,2.787,5.193,4.521c1.822,1.734,3.076,3.846,4.109,6.199
		C1129.922,616.348,1130.627,618.96,1130.627,622.229L1130.627,622.229z"/>
</g>
</svg>
