<?xml version="1.0" encoding="UTF-8" standalone="no"?>
<svg
   inkscape:version="1.2.2 (b0a8486541, 2022-12-01)"
   sodipodi:docname="module-disconnect-32.svg"
   id="svg3234"
   height="32"
   width="32"
   version="1.1"
   xmlns:inkscape="http://www.inkscape.org/namespaces/inkscape"
   xmlns:sodipodi="http://sodipodi.sourceforge.net/DTD/sodipodi-0.dtd"
   xmlns:xlink="http://www.w3.org/1999/xlink"
   xmlns="http://www.w3.org/2000/svg"
   xmlns:svg="http://www.w3.org/2000/svg"
   xmlns:rdf="http://www.w3.org/1999/02/22-rdf-syntax-ns#"
   xmlns:cc="http://creativecommons.org/ns#"
   xmlns:dc="http://purl.org/dc/elements/1.1/">
  <sodipodi:namedview
     inkscape:current-layer="svg3234"
     inkscape:window-maximized="0"
     inkscape:window-y="0"
     inkscape:window-x="0"
     inkscape:cy="21.582638"
     inkscape:cx="14.317195"
     inkscape:zoom="9.359375"
     showgrid="false"
     id="namedview44"
     inkscape:window-height="1015"
     inkscape:window-width="950"
     inkscape:pageshadow="2"
     inkscape:pageopacity="0"
     guidetolerance="10"
     gridtolerance="10"
     objecttolerance="10"
     borderopacity="1"
     bordercolor="#666666"
     pagecolor="#ffffff"
     inkscape:showpageshadow="2"
     inkscape:pagecheckerboard="0"
     inkscape:deskcolor="#d1d1d1">
    <inkscape:grid
       id="grid919"
       type="xygrid" />
  </sodipodi:namedview>
  <defs
     id="defs3236">
    <linearGradient
       spreadMethod="reflect"
       gradientTransform="matrix(0.4581255,0,0,0.4388939,-31.619713,14.933095)"
       gradientUnits="userSpaceOnUse"
       xlink:href="#linearGradient3844"
       id="linearGradient3136"
       y2="-24.582239"
       x2="102.30806"
       y1="-2.3925467"
       x1="102.30806" />
    <linearGradient
       id="linearGradient3844">
      <stop
         offset="0"
         style="stop-color:#a5a6a8;stop-opacity:1"
         id="stop3846" />
      <stop
         offset="1"
         style="stop-color:#e8e8e8;stop-opacity:1"
         id="stop3848" />
    </linearGradient>
    <linearGradient
       gradientTransform="matrix(0.4581255,0,0,0.4388939,-31.619713,14.933095)"
       gradientUnits="userSpaceOnUse"
       xlink:href="#linearGradient2509"
       id="linearGradient3138"
       y2="-2.3757858"
       x2="109.95628"
       y1="-24.91135"
       x1="109.95628" />
    <linearGradient
       id="linearGradient2509">
      <stop
         offset="0"
         style="stop-color:#b3b3b3;stop-opacity:1"
         id="stop2511" />
      <stop
         offset="1"
         style="stop-color:#dadada;stop-opacity:1"
         id="stop2513" />
    </linearGradient>
    <linearGradient
       spreadMethod="reflect"
       gradientTransform="matrix(0.4578345,0,0,0.432286,-31.591968,18.911518)"
       gradientUnits="userSpaceOnUse"
       xlink:href="#linearGradient2793"
       id="linearGradient3141"
       y2="-7.6656942"
       x2="89.423676"
       y1="-7.6656942"
       x1="103.95014" />
    <linearGradient
       id="linearGradient2793">
      <stop
         offset="0"
         style="stop-color:#868688;stop-opacity:1"
         id="stop2795" />
      <stop
         offset="1"
         style="stop-color:#d9d9da;stop-opacity:1"
         id="stop2797" />
    </linearGradient>
    <linearGradient
       gradientTransform="translate(-78.157465,-9.546111)"
       gradientUnits="userSpaceOnUse"
       xlink:href="#linearGradient3858"
       id="linearGradient3143"
       y2="27.54611"
       x2="89.01844"
       y1="22.536863"
       x1="89.01844" />
    <linearGradient
       id="linearGradient3858">
      <stop
         offset="0"
         style="stop-color:#a0a0a0;stop-opacity:1"
         id="stop3860" />
      <stop
         offset="1"
         style="stop-color:#4a4a4a;stop-opacity:1"
         id="stop3862" />
    </linearGradient>
    <linearGradient
       spreadMethod="reflect"
       gradientTransform="matrix(0.4578345,0,0,0.432286,-31.591968,24.911518)"
       gradientUnits="userSpaceOnUse"
       xlink:href="#linearGradient2793"
       id="linearGradient3147"
       y2="-7.6656942"
       x2="89.423676"
       y1="-7.6656942"
       x1="103.95014" />
    <linearGradient
       gradientTransform="translate(-78.157465,-3.546111)"
       gradientUnits="userSpaceOnUse"
       xlink:href="#linearGradient3858"
       id="linearGradient3149"
       y2="27.54611"
       x2="89.01844"
       y1="22.536863"
       x1="89.01844" />
    <linearGradient
       spreadMethod="reflect"
       gradientTransform="matrix(0.4578345,0,0,0.432286,-31.591968,30.911518)"
       gradientUnits="userSpaceOnUse"
       xlink:href="#linearGradient2793"
       id="linearGradient3153"
       y2="-7.6656942"
       x2="89.423676"
       y1="-7.6656942"
       x1="103.95014" />
    <linearGradient
       gradientTransform="translate(-78.157465,2.453889)"
       gradientUnits="userSpaceOnUse"
       xlink:href="#linearGradient3858"
       id="linearGradient3155"
       y2="27.54611"
       x2="89.01844"
       y1="22.536863"
       x1="89.01844" />
    <linearGradient
       id="linearGradient23419">
      <stop
         offset="0"
         style="stop-color:#000000;stop-opacity:1"
         id="stop23421" />
      <stop
         offset="1"
         style="stop-color:#000000;stop-opacity:0"
         id="stop23423" />
    </linearGradient>
    <linearGradient
       gradientTransform="matrix(0.59999998,0,0,0.60526317,1.6000001,2.1710523)"
       gradientUnits="userSpaceOnUse"
       xlink:href="#linearGradient3125"
       id="linearGradient3098"
       y2="44.137077"
       x2="21.381216"
       y1="5.0524864"
       x1="21.381216" />
    <linearGradient
       id="linearGradient3125">
      <stop
         offset="0"
         style="stop-color:#ffffff;stop-opacity:1"
         id="stop3127" />
      <stop
         offset="0.08125819"
         style="stop-color:#ffffff;stop-opacity:0.23529412"
         id="stop3129" />
      <stop
         offset="0.92327863"
         style="stop-color:#ffffff;stop-opacity:0.15686275"
         id="stop3131" />
      <stop
         offset="1"
         style="stop-color:#ffffff;stop-opacity:0.39215687"
         id="stop3133" />
    </linearGradient>
    <radialGradient
       gradientTransform="matrix(0.5745243,0,0,0.2209368,2.59375,17.801069)"
       gradientUnits="userSpaceOnUse"
       xlink:href="#linearGradient23419"
       id="radialGradient3232"
       fy="41.63604"
       fx="23.334524"
       r="22.627417"
       cy="41.63604"
       cx="23.334524" />
    <radialGradient
       gradientTransform="matrix(0,0.68597915,-0.7462606,0,60.288383,-27.737493)"
       gradientUnits="userSpaceOnUse"
       xlink:href="#linearGradient3242-7-3-8-0-4-58-06"
       id="radialGradient3343"
       fy="48.709068"
       fx="65.325226"
       r="31.000002"
       cy="48.709068"
       cx="65.325226" />
    <linearGradient
       id="linearGradient3242-7-3-8-0-4-58-06">
      <stop
         id="stop3244-5-8-5-6-4-3-8"
         style="stop-color:#cdf87e;stop-opacity:1"
         offset="0" />
      <stop
         id="stop3246-9-5-1-5-3-0-7"
         style="stop-color:#a2e34f;stop-opacity:1"
         offset="0.26238" />
      <stop
         id="stop3248-7-2-0-7-5-35-9"
         style="stop-color:#68b723;stop-opacity:1"
         offset="0.66093999" />
      <stop
         id="stop3250-8-2-8-5-6-40-4"
         style="stop-color:#1d7e0d;stop-opacity:1"
         offset="1" />
    </linearGradient>
    <linearGradient
       gradientTransform="matrix(0.42269325,0,0,0.38513145,14.544843,15.082967)"
       gradientUnits="userSpaceOnUse"
       xlink:href="#linearGradient4154"
       id="linearGradient3030"
       y2="36.135799"
       x2="24.138529"
       y1="10.170639"
       x1="24.138529" />
    <linearGradient
       id="linearGradient4154">
      <stop
         offset="0"
         style="stop-color:#ffffff;stop-opacity:1"
         id="stop4156" />
      <stop
         offset="0"
         style="stop-color:#ffffff;stop-opacity:0.23529412"
         id="stop4158" />
      <stop
         offset="1"
         style="stop-color:#ffffff;stop-opacity:0.15686275"
         id="stop4160" />
      <stop
         offset="1"
         style="stop-color:#ffffff;stop-opacity:0.39215687"
         id="stop4162" />
    </linearGradient>
    <linearGradient
       gradientTransform="matrix(0.38833389,0,0,0.41842122,15.301011,14.318351)"
       gradientUnits="userSpaceOnUse"
       xlink:href="#linearGradient4333"
       id="linearGradient3030-1"
       y2="25.52846"
       x2="24.138529"
       y1="20.748587"
       x1="24.138529" />
    <linearGradient
       id="linearGradient4333">
      <stop
         id="stop4335"
         style="stop-color:#ffffff;stop-opacity:1"
         offset="0" />
      <stop
         id="stop4337"
         style="stop-color:#ffffff;stop-opacity:0.23529412"
         offset="0.00000003" />
      <stop
         id="stop4339"
         style="stop-color:#ffffff;stop-opacity:0.15686275"
         offset="1" />
      <stop
         id="stop4341"
         style="stop-color:#ffffff;stop-opacity:0.39215687"
         offset="1" />
    </linearGradient>
    <radialGradient
       cx="99.157013"
       cy="186.17059"
       r="62.769119"
       fx="99.157013"
       fy="186.17059"
       id="radialGradient3315"
       xlink:href="#linearGradient3820-7-2-2"
       gradientUnits="userSpaceOnUse"
       gradientTransform="matrix(0.07976601,0,0,0.0253801,16.097928,24.982131)" />
    <linearGradient
       id="linearGradient3820-7-2-2">
      <stop
         id="stop3822-2-6-36"
         style="stop-color:#3d3d3d;stop-opacity:1"
         offset="0" />
      <stop
         id="stop3864-8-7-6"
         style="stop-color:#686868;stop-opacity:0.49803922"
         offset="0.5" />
      <stop
         id="stop3824-1-2-4"
         style="stop-color:#686868;stop-opacity:0"
         offset="1" />
    </linearGradient>
    <radialGradient
       cx="0.96534902"
       cy="8.4497671"
       r="19.99999"
       fx="0.96534902"
       fy="8.4497671"
       id="radialGradient3092"
       xlink:href="#linearGradient2867-449-88-871-390-598-476-591-434-148-57-177-8-3-3-6-4-8-8-8-5"
       gradientUnits="userSpaceOnUse"
       gradientTransform="matrix(0,2.1620465,-2.2871873,-6.0777704e-8,43.333523,8.730842)" />
    <linearGradient
       id="linearGradient2867-449-88-871-390-598-476-591-434-148-57-177-8-3-3-6-4-8-8-8-5">
      <stop
         id="stop3750-1-0-7-6-6-1-3-9-3"
         style="stop-color:#ed5353;stop-opacity:1;"
         offset="0" />
      <stop
         id="stop3756-1-6-2-6-6-1-96-6-0"
         style="stop-color:#c6262e;stop-opacity:1;"
         offset="1" />
    </linearGradient>
    <linearGradient
       x1="71.204407"
       y1="6.2375584"
       x2="71.204407"
       y2="44.340794"
       id="linearGradient3089"
       xlink:href="#linearGradient4011-4"
       gradientUnits="userSpaceOnUse"
       gradientTransform="matrix(0.3321492,0,0,0.3321492,0.18105656,15.59544)" />
    <linearGradient
       id="linearGradient4011-4">
      <stop
         id="stop4013-8"
         style="stop-color:#ffffff;stop-opacity:1"
         offset="0" />
      <stop
         id="stop4015-5"
         style="stop-color:#ffffff;stop-opacity:0.23529412"
         offset="0.507761" />
      <stop
         id="stop4017-6"
         style="stop-color:#ffffff;stop-opacity:0.15686275"
         offset="0.83456558" />
      <stop
         id="stop4019-1"
         style="stop-color:#ffffff;stop-opacity:0.39215687"
         offset="1" />
    </linearGradient>
  </defs>
  <metadata
     id="metadata3239">
    <rdf:RDF>
      <cc:Work
         rdf:about="">
        <dc:format>image/svg+xml</dc:format>
        <dc:type
           rdf:resource="http://purl.org/dc/dcmitype/StillImage" />
      </cc:Work>
    </rdf:RDF>
  </metadata>
  <g
     id="layer1">
    <path
       style="opacity:0.3;fill:url(#radialGradient3232);fill-opacity:1;fill-rule:evenodd;stroke:none;stroke-width:2;marker:none;visibility:visible;display:inline;overflow:visible"
       id="path23417"
       d="m 29,27 c 0.0011,2.761299 -5.819514,5 -13,5 C 8.819514,32 2.998891,29.761299 3,27 2.99889,24.238701 8.819514,22 16,22 c 7.180486,0 13.00111,2.238701 13,5 z" />
    <path
       style="fill:url(#linearGradient3153);fill-opacity:1;stroke:url(#linearGradient3155);stroke-width:1;stroke-miterlimit:4;stroke-opacity:1;stroke-dasharray:none"
       id="path4834"
       d="m 27.490168,25.06775 c 0,2.446601 -5.148729,4.43225 -11.492687,4.43225 -6.343968,0 -11.492695,-1.985649 -11.492695,-4.43225 0.11446,-5.469422 -1.40472,-4.33998 11.492695,-4.43225 13.192787,-0.0952 11.330827,-1.126702 11.492687,4.43225 z" />
    <path
       style="fill:#868688;fill-opacity:1;stroke:#d8d8d8;stroke-width:1;stroke-miterlimit:4;stroke-opacity:1;stroke-dasharray:none"
       id="path4838"
       d="m 27.499999,21 c 0,2.485282 -5.148726,4.5 -11.499999,4.5 -6.351275,0 -11.500001,-2.014718 -11.500001,-4.5 0,-2.485281 5.148726,-4.5 11.500001,-4.5 6.351273,0 11.499999,2.014719 11.499999,4.5 l 0,0 z" />
    <path
       style="fill:url(#linearGradient3147);fill-opacity:1;stroke:url(#linearGradient3149);stroke-width:1;stroke-miterlimit:4;stroke-opacity:1;stroke-dasharray:none"
       id="path3866"
       d="m 27.490168,19.06775 c 0,2.446601 -5.148729,4.43225 -11.492687,4.43225 -6.343968,0 -11.492695,-1.985649 -11.492695,-4.43225 0.11446,-5.469422 -1.40472,-4.33998 11.492695,-4.43225 13.192787,-0.0952 11.330827,-1.126702 11.492687,4.43225 z" />
    <path
       style="fill:#868688;fill-opacity:1;stroke:#d8d8d8;stroke-width:1;stroke-miterlimit:4;stroke-opacity:1;stroke-dasharray:none"
       id="path3868"
       d="m 27.499999,15 c 0,2.485282 -5.148726,4.5 -11.499999,4.5 -6.351275,0 -11.500001,-2.014718 -11.500001,-4.5 0,-2.485281 5.148726,-4.5 11.500001,-4.5 6.351273,0 11.499999,2.014719 11.499999,4.5 l 0,0 z" />
    <path
       style="fill:url(#linearGradient3141);fill-opacity:1;stroke:url(#linearGradient3143);stroke-width:1;stroke-miterlimit:4;stroke-opacity:1;stroke-dasharray:none"
       id="path3878"
       d="M 27.490168,13.06775 C 27.490168,15.514351 22.341439,17.5 15.997481,17.5 9.653513,17.5 4.504786,15.514351 4.504786,13.06775 4.619246,7.598328 3.100066,8.72777 15.997481,8.6355 29.190268,8.540298 27.328308,7.508798 27.490168,13.06775 z" />
    <path
       style="fill:url(#linearGradient3136);fill-opacity:1;stroke:url(#linearGradient3138);stroke-width:1;stroke-miterlimit:4;stroke-opacity:1;stroke-dasharray:none"
       id="path3880"
       d="m 27.499999,9 c 0,2.485282 -5.148726,4.5 -11.499999,4.5 C 9.648725,13.5 4.499999,11.485282 4.499999,9 4.499999,6.514719 9.648725,4.5 16,4.5 22.351273,4.5 27.499999,6.514719 27.499999,9 l 0,0 z" />
    <rect
       style="opacity:0.5;color:#000000;fill:none;stroke:url(#linearGradient3098);stroke-width:0.99999994;stroke-opacity:1;marker:none;visibility:visible;display:inline;overflow:visible;enable-background:accumulate"
       id="rect3145"
       y="5.499999"
       x="5.5"
       ry="4"
       rx="17.5"
       height="23"
       width="21" />
  </g>
  <path
     d="m 29.014128,29.707158 a 5.006842,1.593086 0 1 1 -10.013683,0 5.006842,1.593086 0 1 1 10.013683,0 z"
     id="path3818-0-2"
     style="fill:url(#radialGradient3315);fill-opacity:1;stroke:none;stroke-width:1;stroke-dasharray:none" />
  <path
     d="m 24.007287,17.417899 c -3.641613,0 -6.599929,2.958315 -6.599929,6.599928 0,3.641614 2.958316,6.59993 6.599929,6.599929 3.641611,0 6.59993,-2.958315 6.599927,-6.599929 0,-3.641613 -2.958316,-6.599928 -6.599927,-6.599928 z"
     id="path2555"
     style="color:#000000;display:inline;overflow:visible;visibility:visible;fill:url(#radialGradient3092);fill-opacity:1;fill-rule:nonzero;stroke:none;stroke-width:1;stroke-dasharray:none;marker:none;enable-background:accumulate" />
  <path
     d="m 24.007287,17.417899 c -3.641613,0 -6.599929,2.958316 -6.599929,6.599929 0,3.641612 2.958316,6.599929 6.599929,6.599928 3.641611,0 6.599931,-2.958316 6.599927,-6.599928 0,-3.641613 -2.958316,-6.599929 -6.599927,-6.599929 z"
     id="path2555-6"
     style="color:#000000;clip-rule:nonzero;display:inline;overflow:visible;visibility:visible;opacity:0.5;isolation:auto;mix-blend-mode:normal;color-interpolation:sRGB;color-interpolation-filters:linearRGB;solid-color:#000000;solid-opacity:1;fill:none;fill-opacity:1;fill-rule:nonzero;stroke:#7a0000;stroke-width:1;stroke-linecap:round;stroke-linejoin:round;stroke-miterlimit:4;stroke-dasharray:none;stroke-dashoffset:0;stroke-opacity:1;marker:none;color-rendering:auto;image-rendering:auto;shape-rendering:auto;text-rendering:auto;enable-background:accumulate" />
  <path
     d="m 30.152047,24.01761 c 0,3.393767 -2.751306,6.144978 -6.144683,6.144978 -3.393688,0 -6.144839,-2.751242 -6.144839,-6.144978 0,-3.393611 2.751151,-6.144543 6.144839,-6.144543 3.393377,0 6.144683,2.750932 6.144683,6.144543 z"
     id="path8655"
     style="color:#000000;display:inline;overflow:visible;visibility:visible;opacity:0.3;fill:none;stroke:url(#linearGradient3089);stroke-width:1;stroke-linecap:round;stroke-linejoin:round;stroke-miterlimit:4;stroke-dasharray:none;stroke-dashoffset:0;stroke-opacity:1;marker:none;enable-background:accumulate" />
  <path
     style="color:#000000;clip-rule:nonzero;display:inline;overflow:visible;visibility:visible;opacity:0.15;isolation:auto;mix-blend-mode:normal;color-interpolation:sRGB;color-interpolation-filters:linearRGB;solid-color:#000000;solid-opacity:1;fill:#1c2c38;fill-opacity:1;fill-rule:nonzero;stroke:none;stroke-width:1;stroke-linecap:butt;stroke-linejoin:miter;stroke-miterlimit:4;stroke-dasharray:none;stroke-dashoffset:0;stroke-opacity:1;marker:none;color-rendering:auto;image-rendering:auto;shape-rendering:auto;text-rendering:auto;enable-background:accumulate"
     id="path4670"
     d="m 24.007286,19.283909 c -0.576842,0 -1.054352,0.479246 -1.054352,1.055241 v 0.854328 c -0.196027,-0.269783 -0.467674,-0.473836 -0.822325,-0.473836 -0.212492,0 -0.363326,0.0731 -0.456945,0.117347 a 0.46599912,0.46599912 0 0 0 -0.04178,0.02222 l -0.184023,0.111125 a 0.46599912,0.46599912 0 0 0 -0.016,0.0098 c -0.937481,0.618352 -1.584027,1.578481 -1.84378,2.685665 -0.0069,0.0068 -0.02133,0.02045 -0.02133,0.02045 -1.2e-5,1.6e-5 -0.08356,0.192007 -0.08357,0.192024 a 0.46599912,0.46599912 0 0 0 -0.0018,0.008 c -0.03017,0.179068 -0.01811,0.21535 -0.0018,0.103123 l 9.07e-4,-0.0027 c -0.02705,0.180423 -0.06046,0.385755 -0.06046,0.62141 0,2.456178 2.068127,4.439661 4.587234,4.439661 2.519108,0 4.587234,-1.983483 4.587235,-4.439661 0,-0.19623 -0.01677,-0.382177 -0.04001,-0.558291 a 0.46599912,0.46599912 0 0 0 -9.07e-4,-9.07e-4 c -0.01845,-0.13748 -0.04346,-0.190613 -0.03916,-0.166204 -0.212953,-1.208865 -0.928579,-2.240874 -1.931795,-2.902582 a 0.46599912,0.46599912 0 0 0 -0.016,-0.0098 L 26.38261,20.859216 a 0.46599912,0.46599912 0 0 0 -0.04178,-0.02222 c -0.09363,-0.04425 -0.244456,-0.117347 -0.456944,-0.117347 -0.354651,0 -0.626297,0.204052 -0.822324,0.473836 v -0.854329 c 0,-0.575995 -0.477511,-1.055241 -1.054353,-1.055241 z m -1.054352,3.154168 v 1.433955 c 0,0.575995 0.478356,1.054353 1.054352,1.054353 0.575995,0 1.054352,-0.478357 1.054352,-1.054353 v -1.433955 c 0.05312,0.06649 0.0962,0.143264 0.16091,0.195579 0.06874,0.05557 0.150322,0.112029 0.259587,0.158243 l -0.07645,-0.04178 c 0.479048,0.318769 0.831895,0.794863 0.987678,1.341499 0.04812,0.168844 0.05832,0.186737 0.016,0.03111 0.05052,0.18561 0.07645,0.372806 0.07645,0.57696 0,1.306718 -1.094446,2.368294 -2.478529,2.368294 -1.384084,0 -2.478529,-1.061576 -2.478529,-2.368294 0,-0.204153 0.02593,-0.391348 0.07645,-0.57696 a 0.46599912,0.46599912 0 0 0 0,-9.07e-4 c -0.04107,0.151458 -0.03353,0.143483 0.016,-0.03023 0.155784,-0.546636 0.50863,-1.02273 0.987678,-1.341499 l -0.07645,0.04178 c 0.109276,-0.04622 0.190856,-0.102675 0.259587,-0.158242 0.06471,-0.05231 0.107796,-0.129093 0.160908,-0.19558 z" />
  <path
     d="m 22.130418,21.185177 c -0.0927,0 -0.179017,0.03645 -0.25761,0.0736 l -0.184006,0.110404 c -0.903162,0.595714 -1.539728,1.516291 -1.729664,2.594495 -2.03e-4,0.0012 -0.0182,-0.0011 -0.0184,0 -0.005,0.0297 0.0044,0.06207 0,0.092 -0.02726,0.181847 -0.0552,0.361873 -0.0552,0.552021 0,2.19508 1.845371,3.974545 4.121751,3.974545 2.27638,0 4.12175,-1.779465 4.12175,-3.974545 0,-0.16885 -0.01523,-0.333381 -0.0368,-0.496819 -0.0068,-0.05083 -0.02796,-0.09708 -0.0368,-0.147205 -0.189936,-1.078204 -0.826501,-1.998781 -1.729663,-2.594495 L 26.14177,21.258779 c -0.07859,-0.03715 -0.164908,-0.0736 -0.25761,-0.0736 -0.335301,0 -0.607221,0.27192 -0.607221,0.607222 0,0.190826 0.101531,0.367119 0.239208,0.478418 0.04375,0.03538 0.09465,0.06978 0.147205,0.092 0.568961,0.378599 0.990599,0.944528 1.177643,1.600859 0.0035,0.01252 0.01499,0.02424 0.0184,0.0368 0.0612,0.224817 0.092,0.455269 0.092,0.699225 0,1.567915 -1.318122,2.833703 -2.944108,2.833703 -1.625986,0 -2.944108,-1.265788 -2.944108,-2.833703 0,-0.243956 0.03081,-0.474408 0.092,-0.699225 0.0035,-0.01309 0.01469,-0.02379 0.0184,-0.0368 0.187045,-0.656331 0.608682,-1.22226 1.177644,-1.600859 0.05255,-0.02222 0.103447,-0.05663 0.147205,-0.092 0.137677,-0.111299 0.239209,-0.287592 0.239209,-0.478418 0,-0.335302 -0.27192,-0.607222 -0.607222,-0.607222 z m 1.876868,-1.435252 c 0.326207,0 0.588822,0.262614 0.588822,0.588821 v 3.532929 c 0,0.326207 -0.262615,0.588821 -0.588822,0.588821 -0.326208,0 -0.588822,-0.262614 -0.588822,-0.588821 v -3.532929 c 0,-0.326207 0.262614,-0.588821 0.588822,-0.588821 z"
     id="path3782-3"
     style="color:#000000;clip-rule:nonzero;display:inline;overflow:visible;visibility:visible;opacity:0.3;isolation:auto;mix-blend-mode:normal;color-interpolation:sRGB;color-interpolation-filters:linearRGB;solid-color:#000000;solid-opacity:1;fill:#1c2c38;fill-opacity:1;fill-rule:nonzero;stroke:none;stroke-width:1;stroke-linecap:butt;stroke-linejoin:miter;stroke-miterlimit:4;stroke-dasharray:none;stroke-dashoffset:0;stroke-opacity:1;marker:none;color-rendering:auto;image-rendering:auto;shape-rendering:auto;text-rendering:auto;enable-background:accumulate" />
  <path
     d="m 22.130418,20.729917 c -0.0927,0 -0.179017,0.03645 -0.25761,0.0736 l -0.184006,0.110404 c -0.903162,0.595713 -1.539728,1.516291 -1.729664,2.594495 -2.03e-4,0.0012 -0.0182,-0.0011 -0.0184,0 -0.005,0.0297 0.0044,0.06207 0,0.092 -0.02726,0.181847 -0.0552,0.361872 -0.0552,0.55202 0,2.195081 1.845371,3.974546 4.121751,3.974546 2.27638,0 4.12175,-1.779465 4.12175,-3.974546 0,-0.168849 -0.01523,-0.333381 -0.0368,-0.496818 -0.0068,-0.05083 -0.02796,-0.09708 -0.0368,-0.147205 -0.189936,-1.078204 -0.826501,-1.998782 -1.729663,-2.594495 L 26.14177,20.803519 c -0.07859,-0.03715 -0.164908,-0.0736 -0.25761,-0.0736 -0.335301,0 -0.607221,0.27192 -0.607221,0.607222 0,0.190826 0.101531,0.367119 0.239208,0.478417 0.04375,0.03538 0.09465,0.06978 0.147205,0.092 0.568961,0.3786 0.990599,0.944528 1.177643,1.60086 0.0035,0.01252 0.01499,0.02424 0.0184,0.0368 0.0612,0.224816 0.092,0.455269 0.092,0.699225 0,1.567915 -1.318122,2.833703 -2.944108,2.833703 -1.625986,0 -2.944108,-1.265788 -2.944108,-2.833703 0,-0.243956 0.03081,-0.474409 0.092,-0.699225 0.0035,-0.01309 0.01469,-0.02379 0.0184,-0.0368 0.187045,-0.656332 0.608682,-1.22226 1.177644,-1.60086 0.05255,-0.02222 0.103447,-0.05663 0.147205,-0.092 0.137677,-0.111298 0.239209,-0.287591 0.239209,-0.478417 0,-0.335302 -0.27192,-0.607222 -0.607222,-0.607222 z m 1.876868,-1.435253 c 0.326207,0 0.588822,0.262614 0.588822,0.588822 v 3.532928 c 0,0.326207 -0.262615,0.588822 -0.588822,0.588822 -0.326208,0 -0.588822,-0.262615 -0.588822,-0.588822 v -3.532928 c 0,-0.326208 0.262614,-0.588822 0.588822,-0.588822 z"
     id="path3782"
     style="color:#000000;display:inline;overflow:visible;visibility:visible;fill:#ffffff;fill-opacity:1;fill-rule:nonzero;stroke:none;stroke-width:1;stroke-dasharray:none;marker:none;enable-background:accumulate" />
</svg>
