<?xml version="1.0" encoding="utf-8"?>
<!-- Generator: Adobe Illustrator 16.0.0, SVG Export Plug-In . SVG Version: 6.00 Build 0)  -->
<!DOCTYPE svg PUBLIC "-//W3C//DTD SVG 1.1//EN" "http://www.w3.org/Graphics/SVG/1.1/DTD/svg11.dtd">
<svg version="1.1" id="Layer_1" xmlns="http://www.w3.org/2000/svg" xmlns:xlink="http://www.w3.org/1999/xlink" x="0px" y="0px"
	 width="1920px" height="1080px" viewBox="0 0 1920 1080" enable-background="new 0 0 1920 1080" xml:space="preserve">
<g id="Layer_x0020_1">
	
		<radialGradient id="SVGID_1_" cx="1100.6465" cy="-48.0073" r="162.5605" gradientTransform="matrix(11.811 0 0 6.6437 -12039.7373 858.9454)" gradientUnits="userSpaceOnUse">
		<stop  offset="0" style="stop-color:#A00000"/>
		<stop  offset="0.6704" style="stop-color:#3B0003"/>
		<stop  offset="1" style="stop-color:#000001"/>
	</radialGradient>
	<rect fill="url(#SVGID_1_)" width="1920" height="1080"/>
	
		<linearGradient id="SVGID_2_" gradientUnits="userSpaceOnUse" x1="1141.5957" y1="153.9995" x2="1478.3087" y2="153.9995" gradientTransform="matrix(2.8346 0 0 2.8346 -2385.7583 241.0413)">
		<stop  offset="0" style="stop-color:#6B0000"/>
		<stop  offset="0.251" style="stop-color:#570000"/>
		<stop  offset="1" style="stop-color:#000000"/>
	</linearGradient>
	<path fill="url(#SVGID_2_)" d="M1804.707,1079.381l-765.958-765.437l-3.857-4.05l-4.054-3.857l-4.232-3.665l-4.401-3.462
		l-4.574-3.25l-4.736-3.03l-4.884-2.807l-5.028-2.575l-5.169-2.334l-5.298-2.087l-5.421-1.832l-5.534-1.572l-5.64-1.3l-5.747-1.026
		l-5.835-0.74l-5.924-0.452l-6.002-0.15l-0.663,0.002l-0.659,0.004l-0.651,0.01l-0.654,0.012l-0.652,0.016l-0.646,0.019
		l-0.636,0.022l-0.635,0.024l-0.627,0.031l-0.618,0.03l-0.611,0.035l-0.602,0.037l-0.594,0.04l-0.578,0.042l-0.569,0.045
		l-0.557,0.049l-1.026,0.105l-0.98,0.333l-0.916,0.537l-0.813,0.716l-0.688,0.87l-0.521,1.001l-0.342,1.108l-0.114,1.19v11.118
		l-4.483,0.792l-4.411,0.988l-4.333,1.177l-4.253,1.367l-4.175,1.544l-4.077,1.725l-3.988,1.896l-3.887,2.063l-3.784,2.226
		l-3.675,2.385l-3.564,2.54l-3.443,2.686l-3.324,2.83l-3.195,2.971l-3.064,3.107l-2.926,3.232l-2.787,3.364l-2.642,3.481
		l-2.49,3.596l-2.335,3.709l-2.173,3.817l-2.01,3.918l-1.845,4.014l-1.668,4.107l-1.484,4.198l-1.311,4.276l-1.114,4.358
		l-0.929,4.431l-0.724,4.501l-0.528,4.565l-0.316,4.623l-0.106,4.682l0.13,5.163l0.392,5.096l0.635,5.02l0.887,4.943l1.119,4.854
		l1.351,4.761l1.583,4.661l1.796,4.557l2.01,4.445l2.217,4.325l2.417,4.201l2.612,4.07l2.8,3.936l2.979,3.791l3.157,3.64
		l3.321,3.485l3.491,3.321c162.341,145.801,109.131,98.166,109.203,98.248l-0.356-0.064l-0.271-0.196l-0.293-0.188l-0.324-0.171
		l-0.343-0.154l-0.375-0.146l-0.397-0.129l-0.423-0.114l-0.448-0.104l-0.48-0.086l-0.494-0.077l-0.529-0.057l-0.546-0.051
		l-0.577-0.037l-0.604-0.02l-0.635-0.009l-0.635,0.009l-0.61,0.02l-0.587,0.037l-0.562,0.051l-0.537,0.063l-0.504,0.074l-0.48,0.094
		l-0.456,0.104l-0.432,0.117l-0.397,0.133l-0.375,0.15l-0.35,0.154l-0.326,0.182l-0.293,0.188l-0.269,0.202l-0.244,0.213
		l-0.439,0.498l-0.382,0.582l-0.326,0.676l-0.26,0.764l-0.204,0.847l-0.146,0.943l-0.091,1.028l-0.031,1.119l0.031,1.064
		l0.082,0.982l0.146,0.896l0.195,0.814l0.253,0.729l0.31,0.646l0.374,0.555l0.424,0.479l9.668,9.66l-0.153-0.017l-0.456-0.023
		l-0.48-0.021l-0.504-0.013l-0.521-0.008l-0.555-0.009l-0.554,0.009l-0.521,0.008l-0.505,0.013l-0.479,0.021l-0.456,0.023
		l-0.433,0.033l-0.397,0.041l-0.383,0.04l-0.352,0.048l-0.341,0.059l-0.318,0.057l-0.301,0.062l-0.285,0.07l-0.26,0.068
		l-0.252,0.077l-0.229,0.081l-0.221,0.082l-0.194,0.09l-0.188,0.089l-0.163,0.097l-0.146,0.104l-0.13,0.106l-0.115,0.11
		l-0.099,0.112l-0.08,0.119l-0.081,0.121l-0.065,0.131l-0.049,0.129l-0.04,0.14l-0.033,0.139l-0.016,0.138l-0.009,0.146v16.87
		l-15.121-15.113l-0.7-0.687l-0.748-0.646l-0.799-0.604l-0.838-0.557l-0.88-0.519l-0.932-0.471l-0.484-0.228l-0.496-0.208
		l-0.513-0.19l-0.521-0.179l-0.537-0.167l-0.555-0.149l-0.564-0.139l-0.582-0.123l-0.59-0.104l-0.606-0.092l-0.619-0.082
		l-0.635-0.064l-0.651-0.049l-0.658-0.032l-0.676-0.024l-0.688-0.009l-0.631,0.014l-0.627,0.027l-0.626,0.048l-0.623,0.066
		l-0.623,0.09l-0.614,0.104l-0.614,0.126l-0.61,0.138l-0.603,0.162l-0.605,0.179l-0.599,0.201l-0.598,0.222l-0.594,0.236
		l-0.59,0.261l-0.586,0.271l-0.587,0.298l-0.586,0.313l-0.586,0.333l-0.578,0.352l-0.581,0.37l-0.582,0.391l-0.578,0.405
		l-0.574,0.425l-0.574,0.444l-0.578,0.466l-0.094,0.08l-27.269-27.253l-0.244-0.211l-0.27-0.196l-0.297-0.188l-0.321-0.171
		l-0.347-0.155l-0.37-0.146l-0.397-0.129l-0.423-0.114l-0.452-0.104l-0.477-0.086l-0.497-0.077l-0.528-0.057l-0.555-0.051
		l-0.577-0.037l-0.604-0.02l-0.626-0.01l-0.639,0.01l-0.615,0.02l-0.586,0.037l-0.558,0.051l-0.532,0.063l-0.509,0.074l-0.479,0.094
		l-0.456,0.104l-0.427,0.117l-0.403,0.133l-0.374,0.15l-0.351,0.154l-0.321,0.182l-0.297,0.188l-0.272,0.202l-0.244,0.212
		l-0.439,0.499l-0.379,0.582l-0.322,0.676l-0.264,0.764l-0.208,0.847l-0.146,0.943l-0.085,1.027l-0.027,1.12l0.023,1.064
		l0.089,0.981l0.14,0.896l0.198,0.814l0.257,0.729l0.31,0.646l0.37,0.555l0.424,0.479l9.668,9.66l-0.15-0.017l-0.456-0.023
		l-0.479-0.021l-0.505-0.013l-0.525-0.008l-0.549-0.009l-0.553,0.009l-0.529,0.008l-0.521,0.013l-18.573-18.531l-0.208-0.188
		l-0.225-0.178l-0.243-0.163l-0.253-0.153l-0.261-0.131l-0.28-0.123l-0.294-0.113l-0.305-0.099l-0.317-0.09l-0.329-0.076
		l-0.347-0.062l-0.357-0.049l-0.383-0.032l-0.391-0.021l-0.402-0.005h-10.837l-0.553,0.005l-0.538,0.021l-0.521,0.032l-0.508,0.053
		l-0.493,0.062l-0.473,0.08l-0.455,0.096l-0.439,0.109l-0.415,0.125l-0.403,0.146l-0.391,0.168l-0.378,0.187l-0.366,0.202
		l-0.346,0.225l-0.338,0.244l-0.317,0.265l-0.309,0.285l-0.298,0.306l-0.289,0.324l-0.28,0.347l-0.272,0.369l-0.261,0.388
		l-0.252,0.406l-0.248,0.431l-0.232,0.455l-0.228,0.479l-0.229,0.504l-0.215,0.53l-0.216,0.552l-0.212,0.578l-0.203,0.602
		l-0.196,0.626l-8.65,23.03l-29.698-29.679l-0.342-0.297l-0.354-0.276l-0.378-0.256l-0.391-0.241l-0.412-0.215l-0.427-0.199
		l-0.448-0.178l-0.464-0.164l-0.48-0.144l-0.5-0.125l-0.517-0.109l-0.537-0.095l-0.57-0.08l-0.59-0.063l-0.619-0.053l-0.643-0.032
		l-0.667-0.02l-0.691-0.006H796.03l-0.675,0.024l-0.64,0.073l-0.604,0.13l-0.57,0.18l-0.529,0.229l-0.497,0.285l-0.468,0.332
		l-0.427,0.391l-0.391,0.436l-0.333,0.482l-0.285,0.527l-0.231,0.57l-0.179,0.62l-0.126,0.666l-0.077,0.708l-0.029,0.755v70.354
		l0.008,0.148l0.017,0.145l0.023,0.146l0.033,0.139l0.049,0.14l0.058,0.135l0.064,0.125l0.082,0.13l0.099,0.113l0.108,0.114
		l434.347,434.053"/>
	<g>
		<path fill="#FF0019" d="M937.073,293.042c-48.161,7.385-85.045,48.973-85.045,99.168c0,55.413,44.95,100.334,100.401,100.334
			c50.622,0,92.486-37.437,99.396-86.114h11.053c3.264,0,5.9-2.643,5.868-5.462c0.203-2.561,0.324-5.646,0.324-8.758
			c0-64.377-52.226-116.565-116.643-116.565c-3.523,0-7.016,0.156-9.954,0.419c-2.758-0.043-5.402,2.601-5.402,5.86L937.073,293.042
			L937.073,293.042z M973.713,375.739c-3.255,0-5.9-2.642-5.9-5.902l-0.016-61.833c34.597,6.259,61.967,33.307,68.682,67.734
			h-62.766V375.739z M937.073,392.21c0,7.852,6.373,14.22,14.229,14.22h69.062c-6.562,31.479-34.484,55.125-67.935,55.125
			c-38.329,0-69.397-31.045-69.397-69.347c0-33.027,23.105-60.664,54.041-67.646V392.21L937.073,392.21z M937.073,392.21v-67.646
			V392.21z M937.073,293.042v-11.118V293.042z M937.073,392.21v-67.646V392.21z M937.073,293.042v-11.118V293.042z"/>
		<path id="_1" fill="none" stroke="#FEFEFE" stroke-width="0.0762" stroke-miterlimit="22.9256" d="M937.073,293.042
			c-48.161,7.385-85.045,48.973-85.045,99.168c0,55.413,44.95,100.334,100.401,100.334c50.622,0,92.486-37.437,99.396-86.114h11.053
			c3.264,0,5.9-2.643,5.868-5.462c0.203-2.561,0.324-5.646,0.324-8.758c0-64.377-52.226-116.565-116.643-116.565
			c-3.523,0-7.016,0.156-9.954,0.419c-2.758-0.043-5.402,2.601-5.402,5.86 M973.713,375.739c-3.255,0-5.9-2.642-5.9-5.902
			l-0.016-61.833c34.597,6.259,61.967,33.307,68.682,67.734h-62.766V375.739z M937.073,392.21c0,7.852,6.373,14.22,14.229,14.22
			h69.062c-6.562,31.479-34.484,55.125-67.935,55.125c-38.329,0-69.397-31.045-69.397-69.347c0-33.027,23.105-60.664,54.041-67.646
			 M937.073,392.21v-67.646 M937.073,293.042v-11.118 M937.073,392.21v-67.646 M937.073,293.042v-11.118"/>
	</g>
	<path fill="#FF0031" d="M881.665,643.318c0,0.4-0.103,0.772-0.333,1.106c-0.229,0.314-0.643,0.587-1.229,0.788
		c-0.577,0.188-1.375,0.358-2.352,0.48c-0.977,0.127-2.229,0.188-3.727,0.188c-1.482,0-2.71-0.061-3.688-0.188
		c-0.984-0.122-1.754-0.294-2.335-0.48c-0.562-0.201-0.981-0.474-1.208-0.788c-0.249-0.334-0.375-0.706-0.375-1.106V579.05h-0.126
		l-22.813,64.212c-0.17,0.521-0.414,0.955-0.793,1.311c-0.375,0.354-0.854,0.624-1.502,0.828c-0.623,0.191-1.437,0.335-2.393,0.4
		c-0.98,0.063-2.168,0.08-3.54,0.08c-1.399,0-2.563-0.041-3.544-0.146s-1.794-0.271-2.417-0.497s-1.127-0.498-1.501-0.813
		c-0.354-0.334-0.602-0.728-0.729-1.163l-22.019-64.212h-0.13v64.269c0,0.4-0.103,0.772-0.33,1.106
		c-0.232,0.314-0.646,0.587-1.249,0.788c-0.626,0.188-1.417,0.358-2.376,0.48c-0.96,0.127-2.189,0.188-3.688,0.188
		c-1.48,0-2.71-0.061-3.69-0.188c-0.98-0.122-1.771-0.294-2.356-0.48c-0.578-0.201-0.997-0.474-1.229-0.788
		c-0.229-0.334-0.333-0.706-0.333-1.106v-70.353c0-2.082,0.545-3.659,1.651-4.766c1.1-1.105,2.561-1.645,4.412-1.645h10.502
		c1.876,0,3.5,0.147,4.834,0.457c1.355,0.313,2.52,0.813,3.5,1.521c0.956,0.708,1.795,1.644,2.438,2.812
		c0.646,1.167,1.229,2.604,1.709,4.308l17.021,47.034h0.248l17.628-46.932c0.521-1.706,1.107-3.137,1.73-4.324
		c0.646-1.172,1.375-2.124,2.209-2.855c0.83-0.729,1.831-1.248,2.954-1.562c1.147-0.31,2.481-0.457,3.979-0.457h10.836
		c1.104,0,2.039,0.147,2.833,0.438c0.793,0.271,1.46,0.688,1.957,1.248c0.521,0.545,0.899,1.208,1.168,2.002
		c0.272,0.787,0.396,1.706,0.396,2.723v70.352H881.665z M907.77,643.448c0,0.393-0.125,0.749-0.373,1.058
		c-0.232,0.319-0.647,0.566-1.25,0.772c-0.587,0.188-1.375,0.354-2.336,0.457c-0.977,0.104-2.229,0.146-3.728,0.146
		c-1.502,0-2.751-0.041-3.732-0.146c-0.956-0.104-1.75-0.271-2.332-0.457c-0.605-0.206-1.021-0.453-1.253-0.772
		c-0.248-0.309-0.375-0.665-0.375-1.058v-54.344c0-0.396,0.126-0.75,0.375-1.06c0.232-0.315,0.647-0.586,1.253-0.796
		c0.582-0.227,1.375-0.39,2.332-0.521c0.981-0.121,2.23-0.188,3.732-0.188c1.497,0,2.751,0.064,3.728,0.188
		c0.961,0.132,1.75,0.295,2.336,0.521c0.603,0.21,1.018,0.479,1.25,0.796c0.247,0.31,0.373,0.663,0.373,1.06V643.448z
		 M909.019,570.491c0,3.103-0.626,5.225-1.896,6.412c-1.271,1.188-3.605,1.772-7.04,1.772c-3.459,0-5.815-0.563-6.999-1.708
		c-1.213-1.146-1.815-3.209-1.815-6.166c0-3.102,0.628-5.245,1.876-6.454c1.229-1.187,3.586-1.791,7.062-1.791
		c3.418,0,5.754,0.585,6.981,1.746C908.417,565.452,909.019,567.515,909.019,570.491L909.019,570.491z M969.456,643.448
		c0,0.393-0.122,0.749-0.374,1.058c-0.229,0.319-0.643,0.566-1.204,0.772c-0.586,0.188-1.375,0.354-2.377,0.457
		c-1.001,0.104-2.229,0.146-3.69,0.146c-1.518,0-2.771-0.041-3.771-0.146c-0.997-0.104-1.791-0.271-2.373-0.457
		c-0.566-0.206-0.981-0.453-1.209-0.772c-0.251-0.309-0.374-0.665-0.374-1.058v-31.043c0-2.646-0.187-4.729-0.586-6.23
		c-0.375-1.518-0.937-2.806-1.668-3.872c-0.724-1.081-1.686-1.909-2.832-2.52c-1.164-0.578-2.499-0.871-4.041-0.871
		c-1.958,0-3.918,0.709-5.917,2.144c-1.982,1.419-4.065,3.499-6.21,6.205v36.188c0,0.393-0.126,0.749-0.375,1.058
		c-0.229,0.319-0.647,0.566-1.249,0.772c-0.586,0.188-1.375,0.354-2.336,0.457c-0.978,0.104-2.227,0.146-3.729,0.146
		c-1.498,0-2.751-0.041-3.728-0.146c-0.96-0.104-1.75-0.271-2.335-0.457c-0.604-0.206-1.022-0.453-1.25-0.772
		c-0.248-0.309-0.374-0.665-0.374-1.058v-54.467c0-0.397,0.102-0.747,0.313-1.064c0.188-0.31,0.563-0.563,1.083-0.77
		c0.542-0.188,1.208-0.354,2.043-0.458c0.83-0.103,1.896-0.147,3.142-0.147c1.314,0,2.376,0.046,3.23,0.147
		c0.854,0.104,1.521,0.271,2.002,0.458c0.456,0.206,0.789,0.46,1.001,0.77c0.204,0.317,0.31,0.667,0.31,1.064v6.288
		c3.003-3.246,6.063-5.666,9.188-7.288c3.105-1.627,6.356-2.437,9.73-2.437c3.707,0,6.832,0.604,9.375,1.832
		c2.544,1.206,4.586,2.873,6.173,4.975c1.563,2.081,2.687,4.543,3.37,7.351c0.69,2.813,1.041,6.183,1.041,10.117v33.628H969.456z
		 M994.271,643.448c0,0.393-0.132,0.749-0.375,1.058c-0.229,0.319-0.65,0.566-1.254,0.772c-0.586,0.188-1.375,0.354-2.336,0.457
		c-0.977,0.104-2.222,0.146-3.728,0.146c-1.497,0-2.751-0.041-3.728-0.146c-0.961-0.104-1.75-0.271-2.337-0.457
		c-0.602-0.206-1.018-0.453-1.245-0.772c-0.253-0.309-0.383-0.665-0.383-1.058v-54.344c0-0.396,0.13-0.75,0.383-1.06
		c0.229-0.315,0.645-0.586,1.245-0.796c0.587-0.227,1.376-0.39,2.337-0.521c0.977-0.121,2.229-0.188,3.728-0.188
		c1.506,0,2.751,0.064,3.728,0.188c0.961,0.132,1.75,0.295,2.336,0.521c0.604,0.21,1.025,0.479,1.254,0.796
		c0.243,0.31,0.375,0.663,0.375,1.06V643.448z M995.516,570.491c0,3.103-0.616,5.225-1.896,6.412
		c-1.271,1.188-3.596,1.772-7.039,1.772c-3.459,0-5.813-0.563-6.999-1.708c-1.205-1.146-1.815-3.209-1.815-6.166
		c0-3.102,0.627-5.245,1.88-6.454c1.229-1.187,3.581-1.791,7.058-1.791c3.418,0,5.755,0.585,6.982,1.746
		C994.914,565.452,995.516,567.515,995.516,570.491L995.516,570.491z M1075.836,605.117c0,6.54-0.813,12.388-2.441,17.555
		c-1.627,5.162-4.045,9.555-7.268,13.135c-3.215,3.602-7.186,6.351-11.923,8.244c-4.745,1.896-10.229,2.831-16.457,2.831
		c-6.146,0-11.499-0.813-16.063-2.417c-4.584-1.603-8.393-4.036-11.461-7.347c-3.044-3.29-5.331-7.479-6.853-12.555
		c-1.522-5.082-2.295-11.102-2.295-18.055c0-6.369,0.813-12.12,2.44-17.219c1.628-5.1,4.036-9.426,7.27-13.014
		c3.215-3.578,7.193-6.328,11.922-8.224c4.745-1.914,10.246-2.872,16.521-2.872c5.975,0,11.248,0.79,15.829,2.376
		c4.566,1.578,8.399,4.021,11.459,7.328c3.084,3.285,5.396,7.435,6.958,12.451C1075.039,592.374,1075.836,598.287,1075.836,605.117z
		 M1058.957,605.93c0-4.145-0.334-7.913-0.977-11.308c-0.651-3.396-1.75-6.308-3.313-8.722c-1.563-2.416-3.646-4.292-6.25-5.622
		c-2.604-1.313-5.86-1.978-9.75-1.978c-3.94,0-7.236,0.749-9.856,2.227c-2.645,1.477-4.793,3.477-6.421,5.957
		c-1.629,2.473-2.768,5.367-3.436,8.681c-0.667,3.333-1,6.83-1,10.533c0,4.308,0.333,8.184,0.976,11.619
		c0.651,3.434,1.75,6.37,3.297,8.824c1.539,2.44,3.604,4.295,6.209,5.579c2.604,1.272,5.877,1.919,9.809,1.919
		c3.938,0,7.234-0.728,9.854-2.208c2.646-1.454,4.794-3.456,6.423-5.976c1.618-2.519,2.768-5.455,3.435-8.807
		C1058.623,613.301,1058.957,609.717,1058.957,605.93z M1130.602,621.815c0,4.164-0.766,7.782-2.312,10.931
		c-1.563,3.123-3.646,5.726-6.291,7.828c-2.67,2.083-5.746,3.664-9.295,4.725c-3.54,1.063-7.332,1.583-11.37,1.583
		c-2.733,0-5.249-0.229-7.609-0.687c-2.335-0.46-4.395-0.999-6.185-1.646c-1.791-0.62-3.297-1.288-4.501-1.995
		c-1.212-0.712-2.067-1.335-2.604-1.854c-0.521-0.546-0.896-1.314-1.123-2.312c-0.235-1.002-0.334-2.416-0.334-4.295
		c0-1.269,0.041-2.309,0.122-3.163c0.081-0.854,0.212-1.538,0.399-2.082c0.187-0.521,0.432-0.896,0.724-1.122
		c0.318-0.228,0.668-0.333,1.083-0.333c0.57,0,1.375,0.333,2.417,1.021c1.042,0.662,2.376,1.415,4.004,2.225
		c1.629,0.813,3.582,1.563,5.853,2.229c2.255,0.689,4.876,1.024,7.854,1.024c1.964,0,3.712-0.231,5.26-0.69
		c1.562-0.48,2.872-1.124,3.954-1.978s1.896-1.895,2.482-3.145c0.563-1.249,0.846-2.647,0.846-4.183c0-1.79-0.472-3.335-1.457-4.604
		c-0.976-1.294-2.244-2.415-3.833-3.416c-1.563-0.998-3.353-1.938-5.354-2.807c-1.979-0.878-4.036-1.794-6.16-2.773
		c-2.125-0.976-4.191-2.083-6.169-3.327c-2.003-1.23-3.793-2.706-5.354-4.439c-1.588-1.725-2.856-3.766-3.834-6.141
		c-0.978-2.351-1.457-5.18-1.457-8.475c0-3.767,0.709-7.103,2.101-9.973c1.399-2.854,3.296-5.226,5.672-7.12
		c2.394-1.896,5.187-3.311,8.416-4.251c3.231-0.935,6.665-1.392,10.287-1.392c1.854,0,3.735,0.146,5.606,0.438
		c1.882,0.271,3.622,0.666,5.25,1.143c1.629,0.504,3.068,1.043,4.339,1.646c1.245,0.623,2.083,1.126,2.498,1.54
		c0.398,0.399,0.667,0.749,0.813,1.021c0.147,0.29,0.271,0.665,0.375,1.145c0.105,0.461,0.163,1.041,0.203,1.772
		c0.049,0.707,0.065,1.582,0.065,2.645c0,1.163-0.018,2.164-0.082,2.976c-0.064,0.813-0.171,1.481-0.316,2.021
		c-0.141,0.521-0.352,0.916-0.604,1.143c-0.269,0.252-0.626,0.374-1.082,0.374c-0.439,0-1.147-0.293-2.124-0.852
		c-0.978-0.563-2.189-1.186-3.605-1.873c-1.439-0.666-3.084-1.27-4.956-1.813c-1.88-0.562-3.915-0.829-6.17-0.829
		c-1.749,0-3.271,0.208-4.581,0.644c-1.294,0.416-2.377,1.022-3.256,1.771c-0.87,0.749-1.538,1.644-1.953,2.704
		c-0.439,1.061-0.644,2.183-0.644,3.354c0,1.75,0.473,3.271,1.433,4.538c0.961,1.289,2.255,2.433,3.857,3.434
		c1.604,0.979,3.436,1.915,5.479,2.789c2.018,0.879,4.102,1.813,6.226,2.771c2.132,0.979,4.216,2.086,6.234,3.331
		c2.043,1.253,3.85,2.729,5.461,4.457c1.579,1.727,2.873,3.748,3.85,6.101C1130.121,615.903,1130.602,618.651,1130.602,621.815
		L1130.602,621.815z"/>
</g>
</svg>
