<?xml version="1.0" encoding="utf-8"?>
<!-- Generator: Adobe Illustrator 16.0.0, SVG Export Plug-In . SVG Version: 6.00 Build 0)  -->
<!DOCTYPE svg PUBLIC "-//W3C//DTD SVG 1.1//EN" "http://www.w3.org/Graphics/SVG/1.1/DTD/svg11.dtd">
<svg version="1.1" id="Layer_1" xmlns="http://www.w3.org/2000/svg" xmlns:xlink="http://www.w3.org/1999/xlink" x="0px" y="0px"
	 width="1920px" height="1080px" viewBox="0 0 1920 1080" enable-background="new 0 0 1920 1080" xml:space="preserve">
<g id="Layer_0">
	
		<radialGradient id="SVGID_1_" cx="97.6055" cy="887.8164" r="677.3335" gradientTransform="matrix(2.8346 0 0 1.5945 683.3283 -875.6323)" gradientUnits="userSpaceOnUse">
		<stop  offset="0" style="stop-color:#A91183"/>
		<stop  offset="0.5768" style="stop-color:#6D0A7F"/>
		<stop  offset="1" style="stop-color:#18077D"/>
	</radialGradient>
	<rect x="0" fill="url(#SVGID_1_)" width="1920" height="1080"/>
	
		<linearGradient id="SVGID_2_" gradientUnits="userSpaceOnUse" x1="58.8633" y1="810.8232" x2="395.5498" y2="810.8232" gradientTransform="matrix(2.8346 0 0 2.8346 683.3283 -1620.4131)">
		<stop  offset="0" style="stop-color:#931080"/>
		<stop  offset="0.251" style="stop-color:#6B0C73"/>
		<stop  offset="1" style="stop-color:#470C4D;stop-opacity:0.7"/>
	</linearGradient>
	<path fill="url(#SVGID_2_)" d="M1804.57,1079.996l-765.893-765.888l-3.865-4.055l-4.053-3.859l-4.232-3.666l-4.41-3.467
		l-4.574-3.25l-4.736-3.033l-4.883-2.808l-5.029-2.576l-5.168-2.338l-5.297-2.087l-5.42-1.833l-5.534-1.57l-5.64-1.3l-5.745-1.029
		l-5.835-0.743l-5.92-0.45l-6-0.15h-0.663l-0.657,0.006l-0.655,0.008l-0.653,0.012l-0.651,0.016l-0.645,0.017l-0.639,0.02
		l-0.632,0.024l-0.625,0.031l-0.616,0.028l-0.612,0.035l-0.6,0.037l-0.592,0.041l-0.584,0.043l-0.565,0.047l-0.56,0.049
		l-1.025,0.104l-0.982,0.333l-0.912,0.537L938.651,278l-0.688,0.871l-0.525,0.999l-0.336,1.109l-0.118,1.192v11.125l-4.484,0.792
		l-4.411,0.987l-4.333,1.18l-4.254,1.367l-4.171,1.546l-4.079,1.723l-3.988,1.896l-3.888,2.067l-3.784,2.23l-3.674,2.386
		l-3.563,2.543l-3.442,2.686l-3.324,2.834l-3.196,2.97l-3.062,3.109l-2.93,3.232l-2.783,3.367l-2.641,3.483l-2.488,3.601
		l-2.338,3.713l-2.175,3.821l-2.008,3.92l-1.841,4.016l-1.667,4.107l-1.489,4.202l-1.308,4.282l-1.117,4.358l-0.924,4.433
		l-0.726,4.504l-0.525,4.568l-0.315,4.624l-0.11,4.684l0.13,5.166l0.387,5.101l0.639,5.025l0.883,4.946l1.121,4.858l1.349,4.767
		l1.581,4.663l1.794,4.558l2.008,4.445l2.218,4.329l2.417,4.206l2.608,4.075l2.8,3.937l2.979,3.792l3.155,3.642l3.324,3.487
		l3.487,3.324c162.332,145.888,109.125,98.226,109.198,98.307l-0.358-0.069l-0.268-0.195l-0.293-0.191l-0.318-0.17l-0.35-0.15
		l-0.374-0.146l-0.399-0.127l-0.423-0.113l-0.447-0.106l-0.472-0.089l-0.505-0.078l-0.521-0.061l-0.554-0.049l-0.578-0.033
		l-0.603-0.023l-0.626-0.009l-0.644,0.009l-0.609,0.023l-0.586,0.033l-0.563,0.049l-0.537,0.068l-0.504,0.078l-0.48,0.09
		L982.559,564l-0.424,0.113l-0.406,0.135l-0.375,0.15l-0.35,0.154l-0.326,0.18l-0.293,0.188l-0.268,0.203l-0.244,0.211l-0.439,0.505
		l-0.383,0.578l-0.317,0.675l-0.261,0.77l-0.203,0.846l-0.146,0.949l-0.09,1.025l-0.032,1.123l0.032,1.065l0.082,0.985l0.146,0.895
		l0.195,0.814l0.252,0.732l0.317,0.639l0.366,0.557l0.432,0.477l9.659,9.668l-0.154-0.021l-0.448-0.024l-0.479-0.016l-0.505-0.018
		l-0.521-0.008l-0.554-0.008l-0.553,0.008l-0.521,0.008l-0.504,0.018l-0.48,0.016l-0.456,0.024l-0.431,0.036l-0.399,0.041
		l-0.391,0.045l-0.35,0.049l-0.334,0.057l-0.317,0.057l-0.301,0.066l-0.285,0.068l-0.26,0.069l-0.253,0.081l-0.228,0.082
		l-0.22,0.085l-0.195,0.085l-0.188,0.09l-0.163,0.098l-0.146,0.102l-0.13,0.102l-0.114,0.115l-0.089,0.109l-0.09,0.117l-0.081,0.123
		l-0.065,0.126l-0.057,0.13l-0.041,0.135l-0.024,0.139l-0.024,0.138v0.146v16.876l-15.128-15.118l-0.7-0.684l-0.749-0.651
		l-0.793-0.602l-0.838-0.558l-0.883-0.517l-0.928-0.473l-0.484-0.228l-0.497-0.212l-0.513-0.188l-0.525-0.178l-0.537-0.172
		l-0.551-0.146l-0.566-0.139l-0.58-0.121l-0.592-0.105l-0.608-0.086l-0.621-0.086l-0.633-0.064l-0.651-0.049l-0.662-0.033
		l-0.675-0.023l-0.688-0.009l-0.629,0.009l-0.63,0.031l-0.625,0.049l-0.621,0.066l-0.621,0.089l-0.617,0.098l-0.612,0.13
		l-0.608,0.135l-0.608,0.162l-0.604,0.18l-0.6,0.203l-0.596,0.225l-0.596,0.235l-0.592,0.261l-0.586,0.272l-0.584,0.297l-0.584,0.31
		l-0.588,0.334l-0.582,0.35l-0.58,0.374l-0.58,0.391l-0.58,0.407l-0.574,0.423l-0.576,0.448l-0.574,0.463l-0.096,0.082
		l-27.267-27.271l-0.246-0.212l-0.267-0.195l-0.297-0.188l-0.322-0.17l-0.346-0.155l-0.37-0.146l-0.399-0.13l-0.425-0.114
		l-0.449-0.102l-0.477-0.085l-0.5-0.082l-0.525-0.057l-0.549-0.049l-0.58-0.041l-0.604-0.02l-0.628-0.009l-0.637,0.009l-0.612,0.02
		l-0.588,0.041l-0.56,0.049l-0.533,0.064l-0.509,0.074l-0.478,0.094l-0.454,0.102l-0.429,0.121l-0.405,0.131l-0.375,0.15
		l-0.35,0.154l-0.321,0.18l-0.295,0.188l-0.272,0.203l-0.244,0.215l-0.438,0.497l-0.38,0.586l-0.322,0.675l-0.26,0.766l-0.206,0.846
		l-0.145,0.944l-0.089,1.029l-0.028,1.119l0.028,1.066l0.089,0.984l0.141,0.896l0.195,0.813l0.258,0.732l0.309,0.644l0.371,0.561
		l0.425,0.473l9.666,9.668l-0.152-0.017l-0.454-0.024l-0.48-0.024l-0.504-0.009l-0.525-0.008l-0.549-0.008l-0.551,0.008
		l-0.525,0.008l-0.525,0.009l-18.567-18.538l-0.208-0.188l-0.226-0.179l-0.24-0.163l-0.254-0.154l-0.263-0.131l-0.281-0.121
		l-0.291-0.114l-0.303-0.094l-0.317-0.085l-0.334-0.082l-0.346-0.061l-0.358-0.053l-0.378-0.033l-0.393-0.021l-0.405-0.004h-10.832
		l-0.556,0.004l-0.541,0.021l-0.521,0.033l-0.508,0.057l-0.49,0.061l-0.472,0.086l-0.458,0.09l-0.437,0.109l-0.417,0.126
		l-0.405,0.146l-0.391,0.163l-0.38,0.188l-0.362,0.203l-0.346,0.228l-0.337,0.244l-0.32,0.265l-0.309,0.281l-0.295,0.305
		l-0.293,0.325l-0.279,0.347l-0.271,0.369l-0.263,0.387l-0.254,0.411l-0.246,0.436l-0.232,0.452l-0.23,0.476l-0.226,0.505
		l-0.216,0.529l-0.218,0.557l-0.207,0.578l-0.206,0.605l-0.195,0.627l-8.651,23.039l-29.696-29.695l-0.342-0.297l-0.354-0.273
		l-0.374-0.26l-0.391-0.244l-0.413-0.212l-0.429-0.203l-0.446-0.179l-0.466-0.163l-0.48-0.139l-0.5-0.126l-0.517-0.109l-0.537-0.09
		l-0.565-0.086l-0.592-0.061l-0.617-0.057l-0.643-0.033l-0.667-0.016l-0.692-0.009h-10.498l-0.679,0.024l-0.639,0.073l-0.602,0.13
		l-0.572,0.18l-0.529,0.231l-0.5,0.281l-0.466,0.333l-0.43,0.391l-0.388,0.436l-0.338,0.484l-0.283,0.525l-0.234,0.573l-0.179,0.618
		l-0.124,0.668l-0.08,0.708l-0.024,0.757v70.392l0.004,0.154l0.012,0.139l0.024,0.146l0.039,0.138l0.044,0.139l0.059,0.131
		l0.067,0.13l0.083,0.13l0.091,0.105l0.112,0.114l434.317,434.31"/>
	<g>
		<path fill="#FEFEFE" d="M937.001,293.195c-48.157,7.387-85.036,48.999-85.036,99.225c0,55.444,44.944,100.395,100.391,100.395
			c50.621,0,92.482-37.457,99.392-86.165h11.043c3.264,0,5.908-2.647,5.867-5.467c0.203-2.563,0.326-5.646,0.326-8.763
			c0-64.412-52.223-116.634-116.632-116.634c-3.526,0-7.013,0.159-9.955,0.421c-2.757-0.042-5.399,2.604-5.399,5.862v11.126H937.001
			z M973.639,375.94c-3.255,0-5.9-2.645-5.9-5.904l-0.016-61.872c34.594,6.262,61.963,33.33,68.676,67.775H973.639z M937.001,392.42
			c0,7.857,6.372,14.229,14.229,14.229h69.054c-6.559,31.498-34.48,55.157-67.929,55.157c-38.324,0-69.387-31.067-69.387-69.387
			c0-33.046,23.1-60.701,54.032-67.688V392.42L937.001,392.42z M937.001,392.42v-67.688V392.42z M937.001,293.195v-11.126V293.195z
			 M937.001,392.42v-67.688V392.42z M937.001,293.195v-11.126V293.195z"/>
		<path id="_1" fill="none" stroke="#FEFEFE" stroke-width="0.0762" stroke-miterlimit="22.9256" d="M937.001,293.195
			c-48.157,7.387-85.036,48.999-85.036,99.225c0,55.444,44.944,100.395,100.391,100.395c50.621,0,92.482-37.457,99.392-86.165
			h11.043c3.264,0,5.908-2.647,5.867-5.467c0.203-2.563,0.326-5.646,0.326-8.763c0-64.412-52.223-116.634-116.632-116.634
			c-3.526,0-7.013,0.159-9.955,0.421c-2.757-0.042-5.399,2.604-5.399,5.862 M973.639,375.94c-3.255,0-5.9-2.645-5.9-5.904
			l-0.016-61.872c34.594,6.262,61.963,33.33,68.676,67.775H973.639z M937.001,392.42c0,7.857,6.372,14.229,14.229,14.229h69.054
			c-6.559,31.498-34.48,55.157-67.929,55.157c-38.324,0-69.387-31.067-69.387-69.387c0-33.046,23.1-60.701,54.032-67.688
			 M937.001,392.42v-67.688 M937.001,293.195v-11.126 M937.001,392.42v-67.688 M937.001,293.195v-11.126"/>
	</g>
	<path fill="#FEFEFE" d="M881.598,643.677c0,0.399-0.104,0.773-0.334,1.106c-0.228,0.318-0.645,0.586-1.229,0.79
		c-0.584,0.187-1.375,0.358-2.354,0.479c-0.979,0.123-2.23,0.188-3.729,0.188c-1.479,0-2.708-0.064-3.687-0.188
		c-0.98-0.121-1.751-0.293-2.333-0.479c-0.563-0.204-0.98-0.472-1.208-0.79c-0.25-0.333-0.376-0.707-0.376-1.106v-64.309h-0.124
		L843.41,643.62c-0.167,0.521-0.417,0.952-0.791,1.31c-0.375,0.351-0.854,0.619-1.5,0.822c-0.627,0.195-1.438,0.334-2.397,0.407
		c-0.979,0.065-2.17,0.081-3.542,0.081c-1.396,0-2.562-0.041-3.542-0.146c-0.979-0.098-1.791-0.269-2.415-0.496
		c-0.625-0.229-1.125-0.496-1.501-0.814c-0.354-0.333-0.604-0.732-0.728-1.163l-22.021-64.247h-0.125v64.304
		c0,0.407-0.104,0.781-0.333,1.115c-0.23,0.31-0.647,0.586-1.249,0.781c-0.626,0.187-1.418,0.358-2.376,0.479
		c-0.958,0.131-2.187,0.188-3.687,0.188c-1.479,0-2.71-0.057-3.688-0.188c-0.979-0.121-1.77-0.293-2.354-0.479
		c-0.582-0.204-0.999-0.472-1.229-0.781c-0.23-0.334-0.334-0.708-0.334-1.115v-70.392c0-2.083,0.542-3.662,1.65-4.769
		c1.105-1.106,2.563-1.648,4.417-1.648h10.5c1.876,0,3.5,0.146,4.834,0.452c1.353,0.317,2.521,0.813,3.5,1.521
		c0.958,0.708,1.792,1.648,2.438,2.816c0.645,1.163,1.229,2.604,1.709,4.305l17.021,47.06h0.25l17.625-46.954
		c0.521-1.709,1.105-3.141,1.729-4.329c0.645-1.172,1.373-2.124,2.208-2.856c0.834-0.732,1.833-1.254,2.954-1.563
		c1.145-0.31,2.48-0.456,3.979-0.456h10.833c1.105,0,2.041,0.146,2.834,0.432c0.79,0.272,1.457,0.691,1.958,1.253
		c0.521,0.545,0.895,1.209,1.167,2.002c0.269,0.785,0.395,1.705,0.395,2.723V643.677L881.598,643.677z M907.703,643.807
		c0,0.391-0.126,0.749-0.376,1.059c-0.228,0.317-0.645,0.569-1.249,0.781c-0.584,0.188-1.375,0.35-2.333,0.447
		c-0.979,0.105-2.228,0.146-3.729,0.146c-1.5,0-2.75-0.041-3.733-0.146c-0.958-0.098-1.75-0.26-2.333-0.447
		c-0.608-0.212-1.021-0.456-1.249-0.781c-0.25-0.31-0.375-0.668-0.375-1.059v-54.375c0-0.396,0.124-0.75,0.375-1.059
		c0.228-0.317,0.645-0.586,1.249-0.797c0.584-0.229,1.375-0.391,2.333-0.521c0.979-0.118,2.23-0.188,3.733-0.188
		c1.501,0,2.751,0.069,3.729,0.188c0.958,0.131,1.75,0.293,2.333,0.521c0.604,0.211,1.021,0.479,1.249,0.797
		c0.25,0.309,0.376,0.663,0.376,1.059V643.807z M908.948,570.807c0,3.105-0.625,5.229-1.896,6.418
		c-1.27,1.188-3.603,1.773-7.042,1.773c-3.458,0-5.817-0.565-6.999-1.709c-1.208-1.147-1.813-3.215-1.813-6.168
		c0-3.102,0.625-5.25,1.874-6.454c1.229-1.188,3.584-1.798,7.063-1.798c3.416,0,5.75,0.586,6.979,1.749
		C908.343,565.766,908.948,567.824,908.948,570.807L908.948,570.807z M969.383,643.807c0,0.391-0.122,0.749-0.375,1.059
		c-0.228,0.317-0.643,0.569-1.204,0.781c-0.586,0.188-1.375,0.35-2.376,0.447c-1.001,0.105-2.23,0.146-3.687,0.146
		c-1.522,0-2.775-0.041-3.772-0.146c-1.001-0.098-1.792-0.26-2.376-0.447c-0.562-0.212-0.979-0.456-1.212-0.781
		c-0.249-0.31-0.375-0.668-0.375-1.059v-31.063c0-2.645-0.187-4.729-0.582-6.233c-0.376-1.514-0.938-2.808-1.668-3.874
		c-0.729-1.082-1.687-1.91-2.832-2.521c-1.168-0.577-2.5-0.87-4.042-0.87c-1.959,0-3.917,0.711-5.917,2.146
		c-1.979,1.424-4.063,3.507-6.209,6.209v36.205c0,0.391-0.124,0.749-0.374,1.059c-0.23,0.317-0.645,0.569-1.25,0.781
		c-0.584,0.188-1.375,0.35-2.333,0.447c-0.98,0.105-2.23,0.146-3.729,0.146c-1.5,0-2.751-0.041-3.729-0.146
		c-0.958-0.098-1.75-0.26-2.333-0.447c-0.604-0.212-1.021-0.456-1.251-0.781c-0.248-0.31-0.374-0.668-0.374-1.059v-54.498
		c0-0.398,0.105-0.748,0.313-1.066c0.188-0.309,0.562-0.561,1.083-0.769c0.541-0.187,1.208-0.354,2.042-0.46
		c0.834-0.098,1.896-0.146,3.146-0.146c1.313,0,2.376,0.049,3.229,0.146c0.854,0.105,1.521,0.273,1.996,0.46
		c0.46,0.208,0.792,0.46,1.001,0.769c0.208,0.318,0.312,0.668,0.312,1.066v6.291c3-3.243,6.063-5.664,9.188-7.291
		c3.105-1.629,6.354-2.434,9.729-2.434c3.709,0,6.834,0.605,9.377,1.83c2.539,1.205,4.582,2.873,6.169,4.977
		c1.563,2.084,2.686,4.545,3.377,7.354c0.684,2.813,1.042,6.191,1.042,10.121V643.807L969.383,643.807z M994.195,643.807
		c0,0.391-0.122,0.749-0.374,1.059c-0.228,0.317-0.651,0.569-1.253,0.781c-0.586,0.188-1.376,0.35-2.336,0.447
		c-0.977,0.105-2.222,0.146-3.735,0.146c-1.497,0-2.751-0.041-3.728-0.146c-0.96-0.098-1.75-0.26-2.336-0.447
		c-0.602-0.212-1.017-0.456-1.244-0.781c-0.261-0.31-0.383-0.668-0.383-1.059v-54.375c0-0.396,0.122-0.75,0.383-1.059
		c0.228-0.317,0.643-0.586,1.244-0.797c0.586-0.229,1.376-0.391,2.336-0.521c0.977-0.118,2.23-0.188,3.728-0.188
		c1.505,0,2.751,0.069,3.735,0.188c0.952,0.131,1.75,0.293,2.336,0.521c0.602,0.211,1.025,0.479,1.253,0.797
		c0.252,0.309,0.374,0.663,0.374,1.059V643.807z M995.449,570.807c0,3.105-0.627,5.229-1.896,6.418
		c-1.277,1.188-3.605,1.773-7.048,1.773c-3.458,0-5.811-0.565-6.999-1.709c-1.204-1.147-1.814-3.215-1.814-6.168
		c0-3.102,0.627-5.25,1.88-6.454c1.229-1.188,3.581-1.798,7.056-1.798c3.418,0,5.754,0.586,6.982,1.749
		C994.838,565.766,995.449,567.824,995.449,570.807L995.449,570.807z M1075.754,605.453c0,6.543-0.813,12.402-2.441,17.562
		c-1.627,5.167-4.044,9.562-7.267,13.143c-3.214,3.605-7.187,6.356-11.914,8.252c-4.753,1.896-10.229,2.832-16.464,2.832
		c-6.144,0-11.498-0.813-16.056-2.417c-4.59-1.604-8.398-4.036-11.466-7.349c-3.036-3.296-5.322-7.487-6.854-12.565
		c-1.521-5.086-2.286-11.107-2.286-18.066c0-6.369,0.806-12.123,2.433-17.226c1.629-5.106,4.045-9.437,7.268-13.021
		c3.215-3.581,7.194-6.34,11.922-8.232c4.745-1.916,10.246-2.868,16.521-2.868c5.98,0,11.246,0.785,15.828,2.372
		c4.564,1.579,8.398,4.021,11.458,7.332c3.085,3.288,5.403,7.438,6.966,12.46C1074.965,592.703,1075.754,598.619,1075.754,605.453z
		 M1058.877,606.267c0-4.15-0.334-7.917-0.977-11.313c-0.644-3.398-1.75-6.312-3.313-8.729s-3.646-4.293-6.25-5.623
		c-2.604-1.318-5.852-1.982-9.75-1.982c-3.938,0-7.234,0.749-9.855,2.227c-2.645,1.473-4.793,3.475-6.42,5.961
		c-1.628,2.479-2.768,5.371-3.435,8.684c-0.667,3.34-1.001,6.838-1.001,10.541c0,4.305,0.334,8.186,0.977,11.62
		c0.65,3.435,1.75,6.372,3.296,8.83c1.538,2.441,3.604,4.297,6.21,5.583c2.604,1.277,5.875,1.928,9.806,1.928
		s7.227-0.732,9.854-2.213c2.646-1.457,4.785-3.459,6.414-5.981c1.627-2.515,2.766-5.461,3.434-8.806
		C1058.535,613.64,1058.877,610.059,1058.877,606.267z M1130.523,622.16c0,4.166-0.773,7.788-2.319,10.938
		c-1.563,3.125-3.646,5.729-6.291,7.837c-2.669,2.083-5.745,3.662-9.285,4.728c-3.548,1.059-7.341,1.579-11.377,1.579
		c-2.734,0-5.249-0.228-7.608-0.684c-2.328-0.464-4.395-1.001-6.178-1.651c-1.799-0.619-3.295-1.286-4.5-1.994
		c-1.213-0.708-2.066-1.335-2.604-1.855c-0.521-0.545-0.896-1.311-1.132-2.312c-0.228-1.001-0.333-2.417-0.333-4.297
		c0-1.27,0.049-2.312,0.121-3.165c0.082-0.855,0.212-1.539,0.398-2.084c0.188-0.521,0.439-0.895,0.725-1.123
		c0.318-0.228,0.668-0.334,1.091-0.334c0.569,0,1.376,0.334,2.417,1.018c1.041,0.668,2.377,1.424,4.004,2.23
		c1.627,0.813,3.572,1.563,5.852,2.229c2.246,0.691,4.866,1.025,7.854,1.025c1.961,0,3.711-0.236,5.256-0.692
		c1.563-0.479,2.865-1.123,3.955-1.977c1.083-0.855,1.896-1.896,2.482-3.15c0.562-1.253,0.847-2.652,0.847-4.19
		c0-1.79-0.472-3.337-1.456-4.599c-0.977-1.302-2.246-2.416-3.842-3.418c-1.563-1-3.354-1.936-5.347-2.807
		c-1.985-0.879-4.044-1.799-6.161-2.775c-2.123-0.977-4.19-2.084-6.168-3.328c-2.002-1.237-3.793-2.711-5.355-4.443
		c-1.578-1.726-2.855-3.766-3.832-6.146c-0.977-2.348-1.457-5.18-1.457-8.477c0-3.768,0.708-7.104,2.1-9.98
		c1.4-2.861,3.296-5.229,5.672-7.125c2.393-1.896,5.184-3.313,8.415-4.256c3.231-0.936,6.665-1.392,10.294-1.392
		c1.848,0,3.729,0.146,5.6,0.431c1.88,0.277,3.629,0.668,5.249,1.148c1.636,0.504,3.067,1.041,4.337,1.647
		c1.246,0.622,2.084,1.127,2.507,1.542c0.399,0.398,0.659,0.749,0.806,1.018c0.146,0.293,0.269,0.667,0.375,1.143
		c0.105,0.461,0.162,1.042,0.211,1.779c0.049,0.707,0.065,1.578,0.065,2.645c0,1.164-0.017,2.164-0.081,2.979
		c-0.074,0.813-0.172,1.48-0.318,2.018c-0.138,0.521-0.35,0.92-0.609,1.144c-0.261,0.257-0.619,0.374-1.083,0.374
		c-0.431,0-1.147-0.289-2.124-0.854c-0.977-0.563-2.189-1.185-3.605-1.868c-1.432-0.667-3.084-1.273-4.955-1.819
		c-1.872-0.564-3.906-0.83-6.16-0.83c-1.75,0-3.271,0.208-4.582,0.644c-1.303,0.419-2.377,1.021-3.256,1.774
		c-0.871,0.752-1.537,1.647-1.953,2.705c-0.439,1.063-0.643,2.182-0.643,3.357c0,1.75,0.473,3.271,1.432,4.541
		c0.961,1.289,2.255,2.434,3.857,3.434c1.604,0.98,3.436,1.917,5.478,2.792c2.019,0.879,4.102,1.819,6.226,2.771
		c2.132,0.975,4.215,2.09,6.233,3.335c2.034,1.253,3.85,2.726,5.461,4.46c1.579,1.725,2.872,3.743,3.849,6.104
		C1130.035,616.244,1130.523,618.994,1130.523,622.16L1130.523,622.16z"/>
</g>
</svg>
