<?xml version="1.0" encoding="UTF-8" standalone="no"?>
<svg
   inkscape:version="1.2.2 (b0a8486541, 2022-12-01)"
   sodipodi:docname="module-disconnect-16.svg"
   id="svg3202"
   height="16"
   width="16"
   version="1.1"
   xmlns:inkscape="http://www.inkscape.org/namespaces/inkscape"
   xmlns:sodipodi="http://sodipodi.sourceforge.net/DTD/sodipodi-0.dtd"
   xmlns:xlink="http://www.w3.org/1999/xlink"
   xmlns="http://www.w3.org/2000/svg"
   xmlns:svg="http://www.w3.org/2000/svg"
   xmlns:rdf="http://www.w3.org/1999/02/22-rdf-syntax-ns#"
   xmlns:cc="http://creativecommons.org/ns#"
   xmlns:dc="http://purl.org/dc/elements/1.1/">
  <sodipodi:namedview
     inkscape:current-layer="svg3202"
     inkscape:window-maximized="1"
     inkscape:window-y="0"
     inkscape:window-x="0"
     inkscape:cy="1.3889816"
     inkscape:cx="-0.10684474"
     inkscape:zoom="18.71875"
     showgrid="false"
     id="namedview51"
     inkscape:window-height="1025"
     inkscape:window-width="1920"
     inkscape:pageshadow="2"
     inkscape:pageopacity="0"
     guidetolerance="10"
     gridtolerance="10"
     objecttolerance="10"
     borderopacity="1"
     bordercolor="#666666"
     pagecolor="#ffffff"
     inkscape:showpageshadow="2"
     inkscape:pagecheckerboard="0"
     inkscape:deskcolor="#d1d1d1" />
  <defs
     id="defs3204">
    <linearGradient
       gradientTransform="matrix(0.31428569,0,0,0.34210527,0.45714243,15.618423)"
       gradientUnits="userSpaceOnUse"
       xlink:href="#linearGradient3125"
       id="linearGradient3110"
       y2="44.137077"
       x2="21.381216"
       y1="5.0524864"
       x1="21.381216" />
    <linearGradient
       id="linearGradient3125">
      <stop
         offset="0"
         style="stop-color:#ffffff;stop-opacity:1"
         id="stop3127" />
      <stop
         offset="0.08125819"
         style="stop-color:#ffffff;stop-opacity:0.23529412"
         id="stop3129" />
      <stop
         offset="0.92327863"
         style="stop-color:#ffffff;stop-opacity:0.15686275"
         id="stop3131" />
      <stop
         offset="1"
         style="stop-color:#ffffff;stop-opacity:0.39215687"
         id="stop3133" />
    </linearGradient>
    <linearGradient
       id="linearGradient2793">
      <stop
         offset="0"
         style="stop-color:#868688;stop-opacity:1"
         id="stop2795" />
      <stop
         offset="1"
         style="stop-color:#d9d9da;stop-opacity:1"
         id="stop2797" />
    </linearGradient>
    <linearGradient
       id="linearGradient3858">
      <stop
         offset="0"
         style="stop-color:#a0a0a0;stop-opacity:1"
         id="stop3860" />
      <stop
         offset="1"
         style="stop-color:#4a4a4a;stop-opacity:1"
         id="stop3862" />
    </linearGradient>
    <linearGradient
       id="linearGradient2793-4">
      <stop
         offset="0"
         style="stop-color:#868688;stop-opacity:1"
         id="stop2795-9" />
      <stop
         offset="1"
         style="stop-color:#d9d9da;stop-opacity:1"
         id="stop2797-8" />
    </linearGradient>
    <linearGradient
       id="linearGradient3858-22">
      <stop
         offset="0"
         style="stop-color:#a0a0a0;stop-opacity:1"
         id="stop3860-52" />
      <stop
         offset="1"
         style="stop-color:#4a4a4a;stop-opacity:1"
         id="stop3862-32" />
    </linearGradient>
    <linearGradient
       id="linearGradient2793-3-0">
      <stop
         offset="0"
         style="stop-color:#868688;stop-opacity:1"
         id="stop2795-3-9" />
      <stop
         offset="1"
         style="stop-color:#d9d9da;stop-opacity:1"
         id="stop2797-7-4" />
    </linearGradient>
    <linearGradient
       id="linearGradient3858-4-6">
      <stop
         offset="0"
         style="stop-color:#a0a0a0;stop-opacity:1"
         id="stop3860-9-8" />
      <stop
         offset="1"
         style="stop-color:#4a4a4a;stop-opacity:1"
         id="stop3862-9-2" />
    </linearGradient>
    <linearGradient
       id="linearGradient3844-4-1">
      <stop
         offset="0"
         style="stop-color:#a5a6a8;stop-opacity:1"
         id="stop3846-6-6" />
      <stop
         offset="1"
         style="stop-color:#e8e8e8;stop-opacity:1"
         id="stop3848-9-0" />
    </linearGradient>
    <linearGradient
       id="linearGradient2509-9-1">
      <stop
         offset="0"
         style="stop-color:#b3b3b3;stop-opacity:1"
         id="stop2511-0-9" />
      <stop
         offset="1"
         style="stop-color:#dadada;stop-opacity:1"
         id="stop2513-3-1" />
    </linearGradient>
    <linearGradient
       spreadMethod="reflect"
       gradientTransform="matrix(0.25894051,0,0,0.19506397,-18.915491,21.136932)"
       gradientUnits="userSpaceOnUse"
       xlink:href="#linearGradient3844-4-1"
       id="linearGradient3029"
       y2="-24.582239"
       x2="102.30806"
       y1="-2.3925467"
       x1="102.30806" />
    <linearGradient
       gradientTransform="matrix(0.25894051,0,0,0.19506397,-18.915491,21.136932)"
       gradientUnits="userSpaceOnUse"
       xlink:href="#linearGradient2509-9-1"
       id="linearGradient3031"
       y2="-2.3757858"
       x2="109.95628"
       y1="-24.91135"
       x1="109.95628" />
    <linearGradient
       spreadMethod="reflect"
       gradientTransform="matrix(0.25763669,0,0,0.2519943,-18.787395,24.390022)"
       gradientUnits="userSpaceOnUse"
       xlink:href="#linearGradient2793-3-0"
       id="linearGradient3034"
       y2="-7.6656942"
       x2="89.423676"
       y1="-7.6656942"
       x1="103.95014" />
    <linearGradient
       gradientTransform="matrix(0.56272887,0,0,0.58293421,-44.991146,7.8010968)"
       gradientUnits="userSpaceOnUse"
       xlink:href="#linearGradient3858-4-6"
       id="linearGradient3036"
       y2="27.54611"
       x2="89.01844"
       y1="22.536863"
       x1="89.01844" />
    <linearGradient
       spreadMethod="reflect"
       gradientTransform="matrix(0.25763669,0,0,0.25599322,-18.787395,28.335879)"
       gradientUnits="userSpaceOnUse"
       xlink:href="#linearGradient2793-4"
       id="linearGradient3040"
       y2="-7.6656942"
       x2="89.423676"
       y1="-7.6656942"
       x1="103.95014" />
    <linearGradient
       gradientTransform="matrix(0.56272887,0,0,0.59218484,-44.991146,11.483703)"
       gradientUnits="userSpaceOnUse"
       xlink:href="#linearGradient3858-22"
       id="linearGradient3042"
       y2="27.54611"
       x2="89.01844"
       y1="22.536863"
       x1="89.01844" />
    <linearGradient
       spreadMethod="reflect"
       gradientTransform="matrix(0.25763669,0,0,0.25599322,-18.787395,32.335879)"
       gradientUnits="userSpaceOnUse"
       xlink:href="#linearGradient2793"
       id="linearGradient3046"
       y2="-7.6656942"
       x2="89.423676"
       y1="-7.6656942"
       x1="103.95014" />
    <linearGradient
       gradientTransform="matrix(0.56272887,0,0,0.59218484,-44.991146,15.483703)"
       gradientUnits="userSpaceOnUse"
       xlink:href="#linearGradient3858"
       id="linearGradient3048"
       y2="27.54611"
       x2="89.01844"
       y1="22.536863"
       x1="89.01844" />
    <radialGradient
       cx="64.575233"
       cy="48.605404"
       r="31.000002"
       fx="64.575233"
       fy="48.605404"
       id="radialGradient3259"
       xlink:href="#linearGradient3242-7-3-8-0-4-58-06"
       gradientUnits="userSpaceOnUse"
       gradientTransform="matrix(0,0.38528829,-0.41958841,0,32.389496,-16.793007)" />
    <linearGradient
       id="linearGradient3242-7-3-8-0-4-58-06">
      <stop
         id="stop3244-5-8-5-6-4-3-8"
         style="stop-color:#cdf87e;stop-opacity:1"
         offset="0" />
      <stop
         id="stop3246-9-5-1-5-3-0-7"
         style="stop-color:#a2e34f;stop-opacity:1"
         offset="0.26238" />
      <stop
         id="stop3248-7-2-0-7-5-35-9"
         style="stop-color:#68b723;stop-opacity:1"
         offset="0.66093999" />
      <stop
         id="stop3250-8-2-8-5-6-40-4"
         style="stop-color:#1d7e0d;stop-opacity:1"
         offset="1" />
    </linearGradient>
    <radialGradient
       cx="99.157013"
       cy="186.17059"
       r="62.769119"
       fx="99.157013"
       fy="186.17059"
       id="radialGradient3315"
       xlink:href="#linearGradient3820-7-2-2"
       gradientUnits="userSpaceOnUse"
       gradientTransform="matrix(0.04342458,0,0,0.01381692,7.5982081,12.429084)" />
    <linearGradient
       id="linearGradient3820-7-2-2">
      <stop
         id="stop3822-2-6-36"
         style="stop-color:#3d3d3d;stop-opacity:1"
         offset="0" />
      <stop
         id="stop3864-8-7-6"
         style="stop-color:#686868;stop-opacity:0.49803922"
         offset="0.5" />
      <stop
         id="stop3824-1-2-4"
         style="stop-color:#686868;stop-opacity:0"
         offset="1" />
    </linearGradient>
    <radialGradient
       cx="0.96534902"
       cy="8.4497671"
       r="19.99999"
       fx="0.96534902"
       fy="8.4497671"
       id="radialGradient3092"
       xlink:href="#linearGradient2867-449-88-871-390-598-476-591-434-148-57-177-8-3-3-6-4-8-8-8-5"
       gradientUnits="userSpaceOnUse"
       gradientTransform="matrix(0,1.177017,-1.2451435,-3.3087349e-8,22.42525,3.5818919)" />
    <linearGradient
       id="linearGradient2867-449-88-871-390-598-476-591-434-148-57-177-8-3-3-6-4-8-8-8-5">
      <stop
         id="stop3750-1-0-7-6-6-1-3-9-3"
         style="stop-color:#ed5353;stop-opacity:1;"
         offset="0" />
      <stop
         id="stop3756-1-6-2-6-6-1-96-6-0"
         style="stop-color:#c6262e;stop-opacity:1;"
         offset="1" />
    </linearGradient>
    <linearGradient
       x1="71.204407"
       y1="6.2375584"
       x2="71.204407"
       y2="44.340794"
       id="linearGradient3089"
       xlink:href="#linearGradient4011-4"
       gradientUnits="userSpaceOnUse"
       gradientTransform="matrix(0.16833279,0,0,0.16823492,-0.1710395,7.6399588)" />
    <linearGradient
       id="linearGradient4011-4">
      <stop
         id="stop4013-8"
         style="stop-color:#ffffff;stop-opacity:1"
         offset="0" />
      <stop
         id="stop4015-5"
         style="stop-color:#ffffff;stop-opacity:0.23529412"
         offset="0.507761" />
      <stop
         id="stop4017-6"
         style="stop-color:#ffffff;stop-opacity:0.15686275"
         offset="0.83456558" />
      <stop
         id="stop4019-1"
         style="stop-color:#ffffff;stop-opacity:0.39215687"
         offset="1" />
    </linearGradient>
  </defs>
  <metadata
     id="metadata3207">
    <rdf:RDF>
      <cc:Work
         rdf:about="">
        <dc:format>image/svg+xml</dc:format>
        <dc:type
           rdf:resource="http://purl.org/dc/dcmitype/StillImage" />
      </cc:Work>
    </rdf:RDF>
  </metadata>
  <g
     id="layer1"
     transform="translate(0,-16)">
    <path
       style="fill:url(#linearGradient3046);fill-opacity:1;stroke:url(#linearGradient3048);stroke-width:0.99999988;stroke-miterlimit:4;stroke-opacity:1;stroke-dasharray:none"
       id="path4834"
       d="m 14.459827,29.5 c 0,1.198813 -2.897339,2 -6.4672665,2 -3.5699332,0 -6.4672704,-0.801187 -6.4672704,-2 0,-4.634373 -0.79047651,-3.194781 6.4672704,-3.249422 C 15.416523,26.194208 14.459827,24.840267 14.459827,29.5 z" />
    <path
       style="fill:none;stroke:#d8d8d8;stroke-width:1;stroke-miterlimit:4;stroke-opacity:1;stroke-dasharray:none"
       id="path4838"
       d="m 14.5,26.5 c 0,1.10457 -2.91015,2 -6.4999994,2 C 4.4101495,28.5 1.5,27.60457 1.5,26.5 c 0,-1.10457 2.9101495,-2 6.5000006,-2 C 11.58985,24.5 14.5,25.39543 14.5,26.5 l 0,0 z" />
    <path
       style="fill:url(#linearGradient3040);fill-opacity:1;stroke:url(#linearGradient3042);stroke-width:0.99999988;stroke-miterlimit:4;stroke-opacity:1;stroke-dasharray:none"
       id="path4834-7"
       d="m 14.459827,25.5 c 0,1.157142 -2.897339,2 -6.4672665,2 -3.5699332,0 -6.4672704,-0.801187 -6.4672704,-2 0,-4.634373 -0.79047651,-3.194781 6.4672704,-3.249422 C 15.416523,22.194208 14.459827,20.840267 14.459827,25.5 z" />
    <path
       style="fill:none;stroke:#d8d8d8;stroke-width:1;stroke-miterlimit:4;stroke-opacity:1;stroke-dasharray:none"
       id="path4838-3"
       d="m 14.5,22.5 c 0,1.10457 -2.91015,2 -6.4999994,2 C 4.4101495,24.5 1.5,23.60457 1.5,22.5 c 0,-1.10457 2.9101495,-2 6.5000006,-2 C 11.58985,20.5 14.5,21.39543 14.5,22.5 l 0,0 z" />
    <path
       style="fill:url(#linearGradient3034);fill-opacity:1;stroke:url(#linearGradient3036);stroke-width:0.99999988;stroke-miterlimit:4;stroke-opacity:1;stroke-dasharray:none"
       id="path3878"
       d="m 14.459827,21.5 c 0,1.217851 -2.897339,2 -6.4672665,2 -3.5699332,0 -6.4672704,-0.948833 -6.4672704,-2 0,-4.344467 -0.79047651,-3.046433 6.4672704,-3.10022 7.4239625,-0.0555 6.4672665,-0.829521 6.4672665,3.10022 z" />
    <path
       style="fill:url(#linearGradient3029);fill-opacity:1;stroke:url(#linearGradient3031);stroke-width:0.99999994;stroke-miterlimit:4;stroke-opacity:1;stroke-dasharray:none"
       id="path3880"
       d="m 14.5,18.5 c 0,1.104569 -2.91015,2 -6.4999994,2 C 4.4101495,20.5 1.5,19.604569 1.5,18.5 c 0,-1.104569 2.9101495,-2 6.5000006,-2 C 11.58985,16.5 14.5,17.395431 14.5,18.5 l 0,0 z" />
    <rect
       style="opacity:0.5;color:#000000;fill:none;stroke:url(#linearGradient3110);stroke-width:1;stroke-opacity:1;marker:none;visibility:visible;display:inline;overflow:visible;enable-background:accumulate"
       id="rect3145"
       y="17.5"
       x="2.5"
       ry="1.5"
       rx="17.5"
       height="13"
       width="11" />
  </g>
  <path
     d="m 14.629779,15.001386 a 2.7257226,0.86727525 0 1 1 -5.4514423,0 2.7257226,0.86727525 0 1 1 5.4514423,0 z"
     id="path3818-0-2"
     style="fill:url(#radialGradient3315);fill-opacity:1;stroke:none;stroke-width:0.704263;stroke-dasharray:none" />
  <path
     d="m 11.904057,8.3111233 c -1.9824907,0 -3.5929958,1.6105032 -3.5929958,3.5929937 0,1.982493 1.6105051,3.592999 3.5929958,3.592998 1.982492,0 3.592998,-1.610505 3.592997,-3.592998 0,-1.9824905 -1.610505,-3.5929937 -3.592997,-3.5929937 z"
     id="path2555"
     style="color:#000000;display:inline;overflow:visible;visibility:visible;fill:url(#radialGradient3092);fill-opacity:1;fill-rule:nonzero;stroke:none;stroke-width:0.704263;stroke-dasharray:none;marker:none;enable-background:accumulate" />
  <path
     d="m 11.904057,8.3111233 c -1.9824907,0 -3.5929958,1.6105042 -3.5929958,3.5929947 0,1.982492 1.6105051,3.592998 3.5929958,3.592997 1.982492,0 3.593,-1.610505 3.592997,-3.592997 0,-1.9824905 -1.610505,-3.5929947 -3.592997,-3.5929947 z"
     id="path2555-6"
     style="color:#000000;clip-rule:nonzero;display:inline;overflow:visible;visibility:visible;opacity:0.5;isolation:auto;mix-blend-mode:normal;color-interpolation:sRGB;color-interpolation-filters:linearRGB;solid-color:#000000;solid-opacity:1;fill:none;fill-opacity:1;fill-rule:nonzero;stroke:#7a0000;stroke-width:1;stroke-linecap:round;stroke-linejoin:round;stroke-miterlimit:4;stroke-dasharray:none;stroke-dashoffset:0;stroke-opacity:1;marker:none;color-rendering:auto;image-rendering:auto;shape-rendering:auto;text-rendering:auto;enable-background:accumulate" />
  <path
     d="m 15.018213,11.905818 c 0,1.718957 -1.394358,3.112456 -3.114116,3.112456 -1.719917,0 -3.1141944,-1.393516 -3.1141944,-3.112456 0,-1.71888 1.3942774,-3.112232 3.1141944,-3.112232 1.719758,0 3.114116,1.393352 3.114116,3.112232 z"
     id="path8655"
     style="color:#000000;display:inline;overflow:visible;visibility:visible;opacity:0.3;fill:none;stroke:url(#linearGradient3089);stroke-width:0.957683;stroke-linecap:round;stroke-linejoin:round;stroke-miterlimit:4;stroke-dasharray:none;stroke-dashoffset:0;stroke-opacity:1;marker:none;enable-background:accumulate" />
  <path
     style="color:#000000;clip-rule:nonzero;display:inline;overflow:visible;visibility:visible;opacity:0.15;isolation:auto;mix-blend-mode:normal;color-interpolation:sRGB;color-interpolation-filters:linearRGB;solid-color:#000000;solid-opacity:1;fill:#1c2c38;fill-opacity:1;fill-rule:nonzero;stroke:none;stroke-width:0.704263;stroke-linecap:butt;stroke-linejoin:miter;stroke-miterlimit:4;stroke-dasharray:none;stroke-dashoffset:0;stroke-opacity:1;marker:none;color-rendering:auto;image-rendering:auto;shape-rendering:auto;text-rendering:auto;enable-background:accumulate"
     id="path4670"
     d="m 11.904057,9.3269785 c -0.314033,0 -0.57399,0.2609012 -0.57399,0.5744703 v 0.4650942 c -0.106717,-0.14687 -0.254601,-0.257956 -0.447672,-0.257956 -0.115681,0 -0.197795,0.0398 -0.248761,0.06388 a 0.25368967,0.25368967 0 0 0 -0.02275,0.0121 l -0.100181,0.0605 a 0.25368967,0.25368967 0 0 0 -0.0087,0.0054 c -0.5103629,0.33663 -0.8623397,0.859324 -1.0037486,1.462074 -0.00373,0.0037 -0.011613,0.01114 -0.011613,0.01114 -6.3e-6,8e-6 -0.045488,0.104528 -0.045495,0.104538 a 0.25368967,0.25368967 0 0 0 -9.859e-4,0.0044 c -0.016423,0.09749 -0.00986,0.117236 -9.86e-4,0.05614 l 4.937e-4,-0.0015 c -0.014726,0.09822 -0.032917,0.210005 -0.032917,0.338295 0,1.337142 1.1258838,2.416949 2.4972848,2.416949 1.371401,0 2.497288,-1.079807 2.497288,-2.416949 0,-0.106827 -0.0091,-0.208057 -0.02178,-0.303933 a 0.25368967,0.25368967 0 0 0 -4.93e-4,-4.93e-4 c -0.01004,-0.07485 -0.02366,-0.10377 -0.02132,-0.09048 -0.115932,-0.658105 -0.505519,-1.219931 -1.051669,-1.580164 a 0.25368967,0.25368967 0 0 0 -0.0087,-0.0054 l -0.100178,-0.06049 a 0.25368967,0.25368967 0 0 0 -0.02275,-0.0121 c -0.05098,-0.02409 -0.133082,-0.06388 -0.24876,-0.06388 -0.193072,0 -0.340956,0.111085 -0.447673,0.257955 V 9.9014748 c 0,-0.3135701 -0.259956,-0.5744712 -0.573989,-0.5744712 z m -0.57399,1.7171235 v 0.780644 c 0,0.313572 0.260418,0.57399 0.57399,0.57399 0.313571,0 0.573989,-0.260417 0.573989,-0.57399 v -0.780644 c 0.02892,0.0362 0.05237,0.07799 0.0876,0.106473 0.03742,0.03026 0.08183,0.06099 0.141319,0.08615 l -0.04162,-0.02275 c 0.260793,0.173538 0.452884,0.432723 0.537692,0.730311 0.0262,0.09192 0.03175,0.10166 0.0087,0.01694 0.0275,0.101046 0.04162,0.202955 0.04162,0.314097 0,0.711376 -0.595817,1.289298 -1.349311,1.289298 -0.753494,0 -1.349309,-0.577922 -1.349309,-1.289298 0,-0.111141 0.01411,-0.21305 0.04162,-0.314097 a 0.25368967,0.25368967 0 0 0 0,-4.94e-4 c -0.02236,0.08245 -0.01825,0.07811 0.0087,-0.01646 0.08481,-0.297589 0.276898,-0.556774 0.537692,-0.730312 l -0.04162,0.02275 c 0.05949,-0.02516 0.103902,-0.0559 0.14132,-0.08615 0.03523,-0.02848 0.05869,-0.07028 0.0876,-0.106474 z" />
  <path
     d="m 10.88229,10.362024 c -0.05047,0 -0.09746,0.01985 -0.140243,0.04007 l -0.100172,0.0601 c -0.491681,0.324306 -0.8382243,0.825467 -0.9416255,1.412442 -1.099e-4,6.52e-4 -0.00991,-5.99e-4 -0.010015,0 -0.00275,0.01617 0.00239,0.03379 0,0.05009 -0.014839,0.099 -0.030051,0.197004 -0.030051,0.30052 0,1.195 1.0046165,2.16374 2.2438765,2.16374 1.23926,0 2.243878,-0.96874 2.243878,-2.16374 0,-0.09192 -0.0083,-0.181493 -0.02004,-0.270468 -0.0037,-0.02767 -0.01522,-0.05285 -0.02004,-0.08014 -0.103401,-0.586974 -0.449947,-1.088136 -0.941628,-1.412442 l -0.100171,-0.0601 c -0.04278,-0.02023 -0.08978,-0.04007 -0.140243,-0.04007 -0.182538,0 -0.330571,0.148033 -0.330571,0.330572 0,0.103885 0.05527,0.199859 0.130225,0.26045 0.02382,0.01926 0.05152,0.03799 0.08014,0.05009 0.309742,0.20611 0.539282,0.514201 0.641109,0.871507 0.0019,0.0068 0.0082,0.0132 0.01001,0.02004 0.03332,0.122391 0.05009,0.247849 0.05009,0.380658 0,0.853572 -0.717585,1.542667 -1.602771,1.542667 -0.885187,0 -1.602772,-0.689095 -1.602772,-1.542667 0,-0.132809 0.01678,-0.258267 0.05009,-0.380658 0.0019,-0.0071 0.008,-0.01295 0.01002,-0.02004 0.101827,-0.357306 0.331366,-0.665397 0.641108,-0.871507 0.02861,-0.0121 0.05632,-0.03083 0.08014,-0.05009 0.07495,-0.06059 0.130226,-0.156565 0.130226,-0.26045 0,-0.182539 -0.148034,-0.330572 -0.330571,-0.330572 z m 1.021767,-0.7813468 c 0.177586,0 0.320554,0.1429667 0.320554,0.3205526 v 1.9233222 c 0,0.177588 -0.142968,0.320554 -0.320554,0.320554 -0.177588,0 -0.320554,-0.142966 -0.320554,-0.320554 V 9.9012298 c 0,-0.1775859 0.142966,-0.3205526 0.320554,-0.3205526 z"
     id="path3782-3"
     style="color:#000000;clip-rule:nonzero;display:inline;overflow:visible;visibility:visible;opacity:0.3;isolation:auto;mix-blend-mode:normal;color-interpolation:sRGB;color-interpolation-filters:linearRGB;solid-color:#000000;solid-opacity:1;fill:#1c2c38;fill-opacity:1;fill-rule:nonzero;stroke:none;stroke-width:0.704263;stroke-linecap:butt;stroke-linejoin:miter;stroke-miterlimit:4;stroke-dasharray:none;stroke-dashoffset:0;stroke-opacity:1;marker:none;color-rendering:auto;image-rendering:auto;shape-rendering:auto;text-rendering:auto;enable-background:accumulate" />
  <path
     d="m 10.88229,10.114181 c -0.05047,0 -0.09746,0.01985 -0.140243,0.04007 l -0.100172,0.0601 c -0.491681,0.324306 -0.8382243,0.825469 -0.9416255,1.412442 -1.099e-4,6.54e-4 -0.00991,-5.99e-4 -0.010015,0 -0.00275,0.01617 0.00239,0.03379 0,0.05009 -0.014839,0.099 -0.030051,0.197003 -0.030051,0.300519 0,1.195001 1.0046165,2.163741 2.2438765,2.163741 1.23926,0 2.243878,-0.96874 2.243878,-2.163741 0,-0.09192 -0.0083,-0.181492 -0.02004,-0.270467 -0.0037,-0.02767 -0.01522,-0.05285 -0.02004,-0.08014 -0.103401,-0.586974 -0.449947,-1.088136 -0.941628,-1.412442 l -0.100171,-0.0601 c -0.04278,-0.02023 -0.08978,-0.04007 -0.140243,-0.04007 -0.182538,0 -0.330571,0.148033 -0.330571,0.330571 0,0.103886 0.05527,0.19986 0.130225,0.26045 0.02382,0.01926 0.05152,0.03799 0.08014,0.05009 0.309742,0.20611 0.539282,0.514201 0.641109,0.871508 0.0019,0.0068 0.0082,0.0132 0.01001,0.02004 0.03332,0.12239 0.05009,0.247848 0.05009,0.380658 0,0.853572 -0.717585,1.542667 -1.602771,1.542667 -0.885187,0 -1.602772,-0.689095 -1.602772,-1.542667 0,-0.13281 0.01678,-0.258268 0.05009,-0.380658 0.0019,-0.0071 0.008,-0.01295 0.01002,-0.02004 0.101827,-0.357307 0.331366,-0.665398 0.641108,-0.871508 0.02861,-0.0121 0.05632,-0.03083 0.08014,-0.05009 0.07495,-0.06059 0.130226,-0.156564 0.130226,-0.26045 0,-0.182538 -0.148034,-0.330571 -0.330571,-0.330571 z m 1.021767,-0.7813479 c 0.177586,0 0.320554,0.1429674 0.320554,0.3205543 v 1.9233216 c 0,0.177586 -0.142968,0.320554 -0.320554,0.320554 -0.177588,0 -0.320554,-0.142968 -0.320554,-0.320554 V 9.6533874 c 0,-0.1775869 0.142966,-0.3205543 0.320554,-0.3205543 z"
     id="path3782"
     style="color:#000000;display:inline;overflow:visible;visibility:visible;fill:#ffffff;fill-opacity:1;fill-rule:nonzero;stroke:none;stroke-width:0.704263;stroke-dasharray:none;marker:none;enable-background:accumulate" />
</svg>
