/* XPM */
static char * close_xpm[] = {
"18 18 119 2",
"  	c None",
". 	c #E7E7E7",
"+ 	c #E4E4E4",
"@ 	c #E4E5E4",
"# 	c #E4E4E5",
"$ 	c #E5E4E4",
"% 	c #E0E1E1",
"& 	c #E1E1E1",
"* 	c #E1E0E1",
"= 	c #E1E1E0",
"- 	c #DEDDDD",
"; 	c #DEDEDE",
"> 	c #DDDEDE",
", 	c #DDDDDE",
"' 	c #DEDDDE",
") 	c #DEDEDD",
"! 	c #DDDEDD",
"~ 	c #DBDBDB",
"{ 	c #DADADA",
"] 	c #DBDBDA",
"^ 	c #D4D4D4",
"/ 	c #9E9E9E",
"( 	c #DBDADA",
"_ 	c #DADBDB",
": 	c #DBDADB",
"< 	c #DADADB",
"[ 	c #D7D7D7",
"} 	c #D8D7D7",
"| 	c #D7D8D8",
"1 	c #A0A0A0",
"2 	c #939393",
"3 	c #989898",
"4 	c #969696",
"5 	c #D7D7D8",
"6 	c #D8D8D7",
"7 	c #D4D5D4",
"8 	c #D4D5D5",
"9 	c #D5D5D4",
"0 	c #D4D4D5",
"a 	c #ACACAC",
"b 	c #9D9D9D",
"c 	c #9C9C9C",
"d 	c #ADADAD",
"e 	c #DAD9D9",
"f 	c #D5D4D5",
"g 	c #D1D1D1",
"h 	c #D2D1D1",
"i 	c #D1D2D1",
"j 	c #E3E3E3",
"k 	c #B2B2B2",
"l 	c #A2A2A2",
"m 	c #A3A3A3",
"n 	c #B5B5B5",
"o 	c #EEEEEE",
"p 	c #D3D4D3",
"q 	c #CECECE",
"r 	c #B8B8B8",
"s 	c #B4B4B4",
"t 	c #CACBCB",
"u 	c #CBCBCA",
"v 	c #CACACB",
"w 	c #CBCBCB",
"x 	c #AEAEAE",
"y 	c #B0B0B0",
"z 	c #BEBEBE",
"A 	c #CACBCA",
"B 	c #CBCACB",
"C 	c #C8C8C8",
"D 	c #C8C8C7",
"E 	c #C7C8C8",
"F 	c #C8C7C8",
"G 	c #B9B9B9",
"H 	c #B7B7B7",
"I 	c #C2C2C2",
"J 	c #EDEDED",
"K 	c #C0C0C0",
"L 	c #C7C7C7",
"M 	c #C7C7C8",
"N 	c #C4C5C5",
"O 	c #C5C4C4",
"P 	c #C4C4C4",
"Q 	c #C5C5C4",
"R 	c #EAEAEA",
"S 	c #CACACA",
"T 	c #CCCCCC",
"U 	c #CCCDCD",
"V 	c #C4C5C4",
"W 	c #C4C4C5",
"X 	c #C1C1C1",
"Y 	c #C2C1C1",
"Z 	c #F2F2F2",
"` 	c #C5C5C5",
" .	c #C1C1C2",
"..	c #C1C2C1",
"+.	c #C5C5C6",
"@.	c #BEBEBF",
"#.	c #BEBFBE",
"$.	c #BFBEBE",
"%.	c #BBBBBB",
"&.	c #BBBABB",
"*.	c #BABBBB",
"=.	c #BBBBBA",
"-.	c #BABBBA",
";.	c #B7B8B8",
">.	c #B8B8B7",
",.	c #B8B7B7",
"'.	c #B7B8B7",
").	c #B4B5B4",
"!.	c #B5B5B4",
"~.	c #B4B5B5",
"{.	c #B5B4B5",
"].	c #B5B4B4",
"^.	c #B2B1B1",
"/.	c #B1B1B2",
"(.	c #B1B2B2",
"_.	c #B1B2B1",
":.	c #B1B1B1",
"<.	c #B2B2B1",
"[.	c #B2B1B2",
". . . . . . . . . . . . . . . . . . ",
"+ + + + + + + + @ @ # + + $ + @ @ + ",
"% & & & * & & & % & % & & = = & & & ",
"- ; ; > , ; > ' ' ) ; , ! > ; ! ' ; ",
"~ { ~ ] ~ ^ / ( _ : ~ / ^ _ ~ _ < < ",
"[ } | } [ 1 2 3 } } 4 2 1 | [ | 5 6 ",
"7 ^ 8 ^ 9 0 a b / c b d e ^ ^ ^ f ^ ",
"g h i h h g j k l m n o p g g g h g ",
"q q q q q q q r a a s q q q q q q q ",
"t u t v w u x y z z y d t A u u u B ",
"C D E F C G H I o J K H G L E D M L ",
"N O P Q P R S o T U o S R P P V Q W ",
"X X X X Y Y Z `  ...+.Z Y X X  ...X ",
"z z z z z z z @.z z z z z z z #.$.z ",
"%.%.&.%.%.&.%.%.%.%.%.*.%.%.=.&.-.%.",
"r ;.>.>.,.r ,.'.r r r ;.,.r ;.;.r r ",
").!.~.~.!.{.].).].~.!.!.{.n ).!.~.!.",
"^.^./.^./.(._.(.:._.^.:.:.<.[./.:.[."};
