/* XPM */
static char * close_unfocus_xpm[] = {
"24 24 24 1",
" 	c #CECECE",
".	c #BDBDBD",
"+	c #9E9E9E",
"@	c #BABABA",
"#	c #969696",
"$	c #9D9D9D",
"%	c #9B9B9B",
"&	c #E4E4E4",
"*	c #ADADAD",
"=	c #A3A3A3",
"-	c #A0A0A0",
";	c #AEAEAE",
">	c #B2B2B2",
",	c #A4A4A4",
"'	c #B6B6B6",
")	c #B9B9B9",
"!	c #B5B5B5",
"~	c #B1B1B1",
"{	c #BEBEBE",
"]	c #B0B0B0",
"^	c #B7B7B7",
"/	c #C2C2C2",
"(	c #C1C1C1",
"_	c #B8B8B8",
"                        ",
"                        ",
"                        ",
"                        ",
"                        ",
"                        ",
"                        ",
"                        ",
"        .+    +@        ",
"        ##$  %#+        ",
"        &*+=-+;&        ",
"         &>=,'&         ",
"          )**!          ",
"         ~~{{>]         ",
"        ~^/&&(_~        ",
"        .~&  &~)        ",
"        &&    &&        ",
"                        ",
"                        ",
"                        ",
"                        ",
"                        ",
"                        ",
"                        "};
