/* XPM */
static char * close_pressed_xpm[] = {
"24 24 24 1",
" 	c #CECECE",
".	c #6897BC",
"+	c #6B9ABF",
"@	c #6B99BF",
"#	c #6A9ABF",
"$	c #E4E4E4",
"%	c #6E9DC2",
"&	c #6D9DC2",
"*	c #6D9CC2",
"=	c #70A0C5",
"-	c #71A0C6",
";	c #70A0C6",
">	c #71A0C5",
",	c #74A3C9",
"'	c #73A3C9",
")	c #77A6CC",
"!	c #76A7CC",
"~	c #76A6CC",
"{	c #7AA9CF",
"]	c #7AAACF",
"^	c #79A9CF",
"/	c #7DACD2",
"(	c #7CADD2",
"_	c #7DADD2",
"                        ",
"                        ",
"                        ",
"                        ",
"                        ",
"                        ",
"                        ",
"                        ",
"        ..    ..        ",
"        ++@  +#@        ",
"        $%&%*%%$        ",
"         $=-;>$         ",
"          ,,''          ",
"         )!))~)         ",
"        {]{$$^^^        ",
"        /($  $_(        ",
"        $$    $$        ",
"                        ",
"                        ",
"                        ",
"                        ",
"                        ",
"                        ",
"                        "};
