/* XPM */
static char * close_pressed_xpm[] = {
"18 18 106 2",
"  	c None",
". 	c #E7E7E7",
"+ 	c #E4E4E4",
"@ 	c #E4E5E4",
"# 	c #E4E4E5",
"$ 	c #E5E4E4",
"% 	c #E0E1E1",
"& 	c #E1E1E1",
"* 	c #E1E0E1",
"= 	c #E1E1E0",
"- 	c #DEDDDD",
"; 	c #DEDEDE",
"> 	c #DDDEDE",
", 	c #DDDDDE",
"' 	c #DEDDDE",
") 	c #DEDEDD",
"! 	c #DDDEDD",
"~ 	c #DBDBDB",
"{ 	c #DADADA",
"] 	c #DBDBDA",
"^ 	c #D4D4D4",
"/ 	c #747272",
"( 	c #DBDADA",
"_ 	c #DADBDB",
": 	c #DBDADB",
"< 	c #DADADB",
"[ 	c #D7D7D7",
"} 	c #D8D7D7",
"| 	c #D7D8D8",
"1 	c #D7D7D8",
"2 	c #D8D8D7",
"3 	c #D4D5D4",
"4 	c #D4D5D5",
"5 	c #D5D5D4",
"6 	c #D4D4D5",
"7 	c #D7D6D6",
"8 	c #D5D4D5",
"9 	c #D1D1D1",
"0 	c #D2D1D1",
"a 	c #D1D2D1",
"b 	c #E3E3E3",
"c 	c #8F8E8E",
"d 	c #B5B5B5",
"e 	c #ECECEC",
"f 	c #CECECE",
"g 	c #AFAFAF",
"h 	c #CACBCB",
"i 	c #CBCBCA",
"j 	c #CACACB",
"k 	c #CBCBCB",
"l 	c #8C8A8A",
"m 	c #CACBCA",
"n 	c #CBCACB",
"o 	c #C8C8C8",
"p 	c #C8C8C7",
"q 	c #C7C8C8",
"r 	c #C8C7C8",
"s 	c #939292",
"t 	c #EEEEEE",
"u 	c #EDEDED",
"v 	c #C7C7C7",
"w 	c #C7C7C8",
"x 	c #C4C5C5",
"y 	c #C5C4C4",
"z 	c #C4C4C4",
"A 	c #C5C5C4",
"B 	c #EAEAEA",
"C 	c #CACACA",
"D 	c #CCCCCC",
"E 	c #CCCDCD",
"F 	c #A1A0A0",
"G 	c #C4C5C4",
"H 	c #C4C4C5",
"I 	c #C1C1C1",
"J 	c #C2C1C1",
"K 	c #F2F2F2",
"L 	c #C5C5C5",
"M 	c #C1C1C2",
"N 	c #C1C2C1",
"O 	c #C5C5C6",
"P 	c #BEBEBE",
"Q 	c #BEBEBF",
"R 	c #BEBFBE",
"S 	c #BFBEBE",
"T 	c #BBBBBB",
"U 	c #BBBABB",
"V 	c #BABBBB",
"W 	c #BBBBBA",
"X 	c #BABBBA",
"Y 	c #B8B8B8",
"Z 	c #B7B8B8",
"` 	c #B8B8B7",
" .	c #B8B7B7",
"..	c #B7B8B7",
"+.	c #B4B5B4",
"@.	c #B5B5B4",
"#.	c #B4B5B5",
"$.	c #B5B4B5",
"%.	c #B5B4B4",
"&.	c #B2B1B1",
"*.	c #B1B1B2",
"=.	c #B1B2B2",
"-.	c #B1B2B1",
";.	c #B1B1B1",
">.	c #B2B2B1",
",.	c #B2B1B2",
". . . . . . . . . . . . . . . . . . ",
"+ + + + + + + + @ @ # + + $ + @ @ + ",
"% & & & * & & & % & % & & = = & & & ",
"- ; ; > , ; > ' ' ) ; , ! > ; ! ' ; ",
"~ { ~ ] ~ ^ / ( _ : ~ / ^ _ ~ _ < < ",
"[ } | } [ / / / } } / / / | [ | 1 2 ",
"3 ^ 4 ^ 5 6 / / / / / / 7 ^ ^ ^ 8 ^ ",
"9 0 a 0 0 9 b c / / d e a 9 9 9 0 9 ",
"f f f f f f f / / / g f f f f f f f ",
"h i h j k i / / / / l / h m i i i n ",
"o p q r o / / s t u / / / v q p w v ",
"x y z A z B C t D E t F B z z G A H ",
"I I I I J J K L M N O K J I I M N I ",
"P P P P P P P Q P P P P P P P R S P ",
"T T U T T U T T T T T V T T W U X T ",
"Y Z ` `  .Y  ...Y Y Y Z  .Y Z Z Y Y ",
"+.@.#.#.@.$.%.+.%.#.@.@.$.d +.@.#.@.",
"&.&.*.&.*.=.-.=.;.-.&.;.;.>.,.*.;.,."};
