/* XPM */
static char * max_xpm[] = {
"18 18 101 2",
"  	c None",
". 	c #E7E7E7",
"+ 	c #E4E4E4",
"@ 	c #E4E5E4",
"# 	c #E4E4E5",
"$ 	c #E5E4E4",
"% 	c #E0E1E1",
"& 	c #E1E1E1",
"* 	c #E1E0E1",
"= 	c #E1E1E0",
"- 	c #DEDDDD",
"; 	c #DEDEDE",
"> 	c #DDDEDE",
", 	c #DDDDDE",
"' 	c #DEDDDE",
") 	c #DEDEDD",
"! 	c #DDDEDD",
"~ 	c #DBDBDB",
"{ 	c #DADADA",
"] 	c #DBDBDA",
"^ 	c #DBDADB",
"/ 	c #DADBDB",
"( 	c #DBDADA",
"_ 	c #969696",
": 	c #DADADB",
"< 	c #D7D7D7",
"[ 	c #D8D7D7",
"} 	c #D7D8D8",
"| 	c #D7D8D7",
"1 	c #D7D7D8",
"2 	c #9F9F9F",
"3 	c #D8D8D7",
"4 	c #D4D5D4",
"5 	c #D4D4D4",
"6 	c #D4D5D5",
"7 	c #D5D5D4",
"8 	c #D4D4D5",
"9 	c #ACACAC",
"0 	c #D5D4D4",
"a 	c #D5D4D5",
"b 	c #D1D1D1",
"c 	c #D2D1D1",
"d 	c #D1D2D1",
"e 	c #CECECE",
"f 	c #CACBCB",
"g 	c #CBCBCA",
"h 	c #CACACB",
"i 	c #CBCBCB",
"j 	c #ECECEC",
"k 	c #CACBCA",
"l 	c #CBCACB",
"m 	c #C8C8C8",
"n 	c #C8C8C7",
"o 	c #C7C8C8",
"p 	c #C8C7C8",
"q 	c #C7C8C7",
"r 	c #C7C7C7",
"s 	c #C7C7C8",
"t 	c #C4C5C5",
"u 	c #C5C4C4",
"v 	c #C4C4C4",
"w 	c #C5C5C4",
"x 	c #C5C5C5",
"y 	c #C5C4C5",
"z 	c #C4C5C4",
"A 	c #C4C4C5",
"B 	c #C1C1C1",
"C 	c #C2C1C1",
"D 	c #C2C1C2",
"E 	c #EEEFEF",
"F 	c #EFEFEF",
"G 	c #C1C1C2",
"H 	c #C2C2C1",
"I 	c #C1C2C1",
"J 	c #BEBEBE",
"K 	c #BEBEBF",
"L 	c #BEBFBE",
"M 	c #BFBEBE",
"N 	c #BBBBBB",
"O 	c #BBBABB",
"P 	c #BABBBB",
"Q 	c #BBBBBA",
"R 	c #BABBBA",
"S 	c #B8B8B8",
"T 	c #B7B8B8",
"U 	c #B8B8B7",
"V 	c #B8B7B7",
"W 	c #B7B8B7",
"X 	c #B4B5B4",
"Y 	c #B5B5B4",
"Z 	c #B4B5B5",
"` 	c #B5B4B5",
" .	c #B5B4B4",
"..	c #B5B5B5",
"+.	c #B2B1B1",
"@.	c #B1B1B2",
"#.	c #B1B2B2",
"$.	c #B1B2B1",
"%.	c #B1B1B1",
"&.	c #B2B2B1",
"*.	c #B2B1B2",
". . . . . . . . . . . . . . . . . . ",
"+ + + + + + + + @ @ # + + $ + @ @ + ",
"% & & & * & & & % & % & & = = & & & ",
"- ; ; > , ; > ' ' ) ; , ! > ; ! ' ; ",
"~ { ~ ] ~ ^ / ( _ _ ~ ~ ~ / ~ / : : ",
"< [ } [ < | 1 [ 2 2 } < [ } < } 1 3 ",
"4 5 6 5 7 8 8 5 9 9 5 6 0 5 5 5 a 5 ",
"b c d c c _ _ _ 9 9 _ _ _ b b b c b ",
"e e e e e 9 9 9 9 9 9 9 9 e e e e e ",
"f g f h i j j j 9 9 j j j k g g g l ",
"m n o p m m m q 9 9 n p o r o n s r ",
"t u v w v w v u 9 9 x y v v v z w A ",
"B B B B C C D B E F G H C B B G I B ",
"J J J J J J J K J J J J J J J L M J ",
"N N O N N O N N N N N P N N Q O R N ",
"S T U U V S V W S S S T V S T T S S ",
"X Y Z Z Y `  .X  .Z Y Y ` ..X Y Z Y ",
"+.+.@.+.@.#.$.#.%.$.+.%.%.&.*.@.%.*."};
