/* XPM */
static char * max_pressed_xpm[] = {
"24 24 22 1",
" 	c #CECECE",
".	c #6897BC",
"+	c #6A9ABF",
"@	c #6A99BF",
"#	c #6E9DC3",
"$	c #71A0C6",
"%	c #71A0C5",
"&	c #71A1C6",
"*	c #70A0C6",
"=	c #70A0C5",
"-	c #74A4C9",
";	c #74A4C8",
">	c #74A3C9",
",	c #73A3C9",
"'	c #74A3C8",
")	c #E4E4E4",
"!	c #77A6CD",
"~	c #76A6CC",
"{	c #7AAACF",
"]	c #7AA9CF",
"^	c #7DACD3",
"/	c #7DADD2",
"                        ",
"                        ",
"                        ",
"                        ",
"                        ",
"                        ",
"                        ",
"                        ",
"           ..           ",
"           +@           ",
"           ##           ",
"        $%&%**=$        ",
"        --;>,>>'        ",
"        )))!~)))        ",
"           {]           ",
"           ^/           ",
"           ))           ",
"                        ",
"                        ",
"                        ",
"                        ",
"                        ",
"                        ",
"                        "};
