/* XPM */
static char * max_pressed_xpm[] = {
"18 18 100 2",
"  	c None",
". 	c #E7E7E7",
"+ 	c #E4E4E4",
"@ 	c #E4E5E4",
"# 	c #E4E4E5",
"$ 	c #E5E4E4",
"% 	c #E0E1E1",
"& 	c #E1E1E1",
"* 	c #E1E0E1",
"= 	c #E1E1E0",
"- 	c #DEDDDD",
"; 	c #DEDEDE",
"> 	c #DDDEDE",
", 	c #DDDDDE",
"' 	c #DEDDDE",
") 	c #DEDEDD",
"! 	c #DDDEDD",
"~ 	c #DBDBDB",
"{ 	c #DADADA",
"] 	c #DBDBDA",
"^ 	c #DBDADB",
"/ 	c #DADBDB",
"( 	c #DBDADA",
"_ 	c #939393",
": 	c #DADADB",
"< 	c #D7D7D7",
"[ 	c #D8D7D7",
"} 	c #D7D8D8",
"| 	c #D7D8D7",
"1 	c #D7D7D8",
"2 	c #747272",
"3 	c #D8D8D7",
"4 	c #D4D5D4",
"5 	c #D4D4D4",
"6 	c #D4D5D5",
"7 	c #D5D5D4",
"8 	c #D4D4D5",
"9 	c #D5D4D4",
"0 	c #D5D4D5",
"a 	c #D1D1D1",
"b 	c #D2D1D1",
"c 	c #D1D2D1",
"d 	c #CECECE",
"e 	c #CACBCB",
"f 	c #CBCBCA",
"g 	c #CACACB",
"h 	c #CBCBCB",
"i 	c #ECECEC",
"j 	c #CACBCA",
"k 	c #CBCACB",
"l 	c #C8C8C8",
"m 	c #C8C8C7",
"n 	c #C7C8C8",
"o 	c #C8C7C8",
"p 	c #C7C8C7",
"q 	c #C7C7C7",
"r 	c #C7C7C8",
"s 	c #C4C5C5",
"t 	c #C5C4C4",
"u 	c #C4C4C4",
"v 	c #C5C5C4",
"w 	c #C5C5C5",
"x 	c #C5C4C5",
"y 	c #C4C5C4",
"z 	c #C4C4C5",
"A 	c #C1C1C1",
"B 	c #C2C1C1",
"C 	c #C2C1C2",
"D 	c #EEEFEF",
"E 	c #EFEFEF",
"F 	c #C1C1C2",
"G 	c #C2C2C1",
"H 	c #C1C2C1",
"I 	c #BEBEBE",
"J 	c #BEBEBF",
"K 	c #BEBFBE",
"L 	c #BFBEBE",
"M 	c #BBBBBB",
"N 	c #BBBABB",
"O 	c #BABBBB",
"P 	c #BBBBBA",
"Q 	c #BABBBA",
"R 	c #B8B8B8",
"S 	c #B7B8B8",
"T 	c #B8B8B7",
"U 	c #B8B7B7",
"V 	c #B7B8B7",
"W 	c #B4B5B4",
"X 	c #B5B5B4",
"Y 	c #B4B5B5",
"Z 	c #B5B4B5",
"` 	c #B5B4B4",
" .	c #B5B5B5",
"..	c #B2B1B1",
"+.	c #B1B1B2",
"@.	c #B1B2B2",
"#.	c #B1B2B1",
"$.	c #B1B1B1",
"%.	c #B2B2B1",
"&.	c #B2B1B2",
". . . . . . . . . . . . . . . . . . ",
"+ + + + + + + + @ @ # + + $ + @ @ + ",
"% & & & * & & & % & % & & = = & & & ",
"- ; ; > , ; > ' ' ) ; , ! > ; ! ' ; ",
"~ { ~ ] ~ ^ / ( _ _ ~ ~ ~ / ~ / : : ",
"< [ } [ < | 1 [ 2 2 } < [ } < } 1 3 ",
"4 5 6 5 7 8 8 5 2 2 5 6 9 5 5 5 0 5 ",
"a b c b b _ _ _ 2 2 _ _ _ a a a b a ",
"d d d d d 2 2 2 2 2 2 2 2 d d d d d ",
"e f e g h i i i 2 2 i i i j f f f k ",
"l m n o l l l p 2 2 m o n q n m r q ",
"s t u v u v u t 2 2 w x u u u y v z ",
"A A A A B B C A D E F G B A A F H A ",
"I I I I I I I J I I I I I I I K L I ",
"M M N M M N M M M M M O M M P N Q M ",
"R S T T U R U V R R R S U R S S R R ",
"W X Y Y X Z ` W ` Y X X Z  .W X Y X ",
"....+...+.@.#.@.$.#...$.$.%.&.+.$.&."};
