/* XPM */
static char * max_unfocus_xpm[] = {
"24 24 12 1",
" 	c #CECECE",
".	c #8C8C8C",
"+	c #949494",
"@	c #9C9C9C",
"#	c #A4A4A4",
"$	c #A5A5A5",
"%	c #ABABAB",
"&	c #ADADAD",
"*	c #E4E4E4",
"=	c #B5B5B5",
"-	c #BEBEBE",
";	c #C6C6C6",
"                        ",
"                        ",
"                        ",
"                        ",
"                        ",
"                        ",
"                        ",
"                        ",
"           ..           ",
"           ++           ",
"           @@           ",
"        ###$$###        ",
"        %%%&&%%%        ",
"        ***==***        ",
"           --           ",
"           ;;           ",
"           **           ",
"                        ",
"                        ",
"                        ",
"                        ",
"                        ",
"                        ",
"                        "};
