/* XPM */
static char * min_xpm[] = {
"24 24 4 1",
" 	c #CECECE",
".	c #888888",
"+	c #919191",
"@	c #E4E4E4",
"                        ",
"                        ",
"                        ",
"                        ",
"                        ",
"                        ",
"                        ",
"                        ",
"                        ",
"                        ",
"                        ",
"        ........        ",
"        ++++++++        ",
"        @@@@@@@@        ",
"                        ",
"                        ",
"                        ",
"                        ",
"                        ",
"                        ",
"                        ",
"                        ",
"                        ",
"                        "};
