/* XPM */
static char * min_xpm[] = {
"18 18 100 2",
"  	c None",
". 	c #E7E7E7",
"+ 	c #E4E4E4",
"@ 	c #E4E5E4",
"# 	c #E4E4E5",
"$ 	c #E5E4E4",
"% 	c #E0E1E1",
"& 	c #E1E1E1",
"* 	c #E1E0E1",
"= 	c #E1E1E0",
"- 	c #DEDDDD",
"; 	c #DEDEDE",
"> 	c #DDDEDE",
", 	c #DDDDDE",
"' 	c #DEDDDE",
") 	c #DEDEDD",
"! 	c #DDDEDD",
"~ 	c #DBDBDB",
"{ 	c #DADADA",
"] 	c #DBDBDA",
"^ 	c #DBDADB",
"/ 	c #DADBDB",
"( 	c #DBDADA",
"_ 	c #DADADB",
": 	c #D7D7D7",
"< 	c #D8D7D7",
"[ 	c #D7D8D8",
"} 	c #D7D8D7",
"| 	c #D7D7D8",
"1 	c #D8D8D7",
"2 	c #D4D5D4",
"3 	c #D4D4D4",
"4 	c #D4D5D5",
"5 	c #D5D5D4",
"6 	c #D4D4D5",
"7 	c #D5D4D5",
"8 	c #D5D5D5",
"9 	c #D5D4D4",
"0 	c #D1D1D1",
"a 	c #D2D1D1",
"b 	c #D1D2D1",
"c 	c #969696",
"d 	c #CECECE",
"e 	c #ACACAC",
"f 	c #CACBCB",
"g 	c #CBCBCA",
"h 	c #CACACB",
"i 	c #CBCBCB",
"j 	c #ECECEC",
"k 	c #CACBCA",
"l 	c #CBCACB",
"m 	c #C8C8C8",
"n 	c #C8C8C7",
"o 	c #C7C8C8",
"p 	c #C8C7C8",
"q 	c #C7C8C7",
"r 	c #C8C7C7",
"s 	c #C7C7C7",
"t 	c #C7C7C8",
"u 	c #C4C5C5",
"v 	c #C5C4C4",
"w 	c #C4C4C4",
"x 	c #C5C5C4",
"y 	c #C5C5C5",
"z 	c #C5C4C5",
"A 	c #C4C5C4",
"B 	c #C4C4C5",
"C 	c #C1C1C1",
"D 	c #C2C1C1",
"E 	c #C2C1C2",
"F 	c #C1C1C2",
"G 	c #C1C2C1",
"H 	c #C2C2C1",
"I 	c #BEBEBE",
"J 	c #BEBEBF",
"K 	c #BEBFBE",
"L 	c #BFBEBE",
"M 	c #BBBBBB",
"N 	c #BBBABB",
"O 	c #BABBBB",
"P 	c #BBBBBA",
"Q 	c #BABBBA",
"R 	c #B8B8B8",
"S 	c #B7B8B8",
"T 	c #B8B8B7",
"U 	c #B8B7B7",
"V 	c #B7B8B7",
"W 	c #B4B5B4",
"X 	c #B5B5B4",
"Y 	c #B4B5B5",
"Z 	c #B5B4B5",
"` 	c #B5B4B4",
" .	c #B5B5B5",
"..	c #B2B1B1",
"+.	c #B1B1B2",
"@.	c #B1B2B2",
"#.	c #B1B2B1",
"$.	c #B1B1B1",
"%.	c #B2B2B1",
"&.	c #B2B1B2",
". . . . . . . . . . . . . . . . . . ",
"+ + + + + + + + @ @ # + + $ + @ @ + ",
"% & & & * & & & % & % & & = = & & & ",
"- ; ; > , ; > ' ' ) ; , ! > ; ! ' ; ",
"~ { ~ ] ~ ^ / ( / ^ ~ ~ ~ / ~ / _ _ ",
": < [ < : } | < < < [ : < [ : [ | 1 ",
"2 3 4 3 5 6 6 3 7 8 3 4 9 3 3 3 7 3 ",
"0 a b a a c c c c c c c c 0 0 0 a 0 ",
"d d d d d e e e e e e e e d d d d d ",
"f g f h i j j j j j j j j k g g g l ",
"m n o p m m m q n r n p o s o n t s ",
"u v w x w x w v w u y z w w w A x B ",
"C C C C D D E C F G F H D C C F G C ",
"I I I I I I I J I I I I I I I K L I ",
"M M N M M N M M M M M O M M P N Q M ",
"R S T T U R U V R R R S U R S S R R ",
"W X Y Y X Z ` W ` Y X X Z  .W X Y X ",
"....+...+.@.#.@.$.#...$.$.%.&.+.$.&."};
