/* XPM */
static char * min_pressed_xpm[] = {
"24 24 11 1",
" 	c #CECECE",
".	c #72A2C8",
"+	c #72A2C7",
"@	c #73A2C8",
"#	c #73A2C7",
"$	c #75A4CA",
"%	c #74A4CA",
"&	c #75A4C9",
"*	c #74A4C9",
"=	c #74A5C9",
"-	c #E4E4E4",
"                        ",
"                        ",
"                        ",
"                        ",
"                        ",
"                        ",
"                        ",
"                        ",
"                        ",
"                        ",
"                        ",
"        ..+@+#+@        ",
"        $%%$%&*=        ",
"        --------        ",
"                        ",
"                        ",
"                        ",
"                        ",
"                        ",
"                        ",
"                        ",
"                        ",
"                        ",
"                        "};
