/* XPM */
static char * stick_xpm[] = {
"18 18 98 2",
"  	c None",
". 	c #E7E7E7",
"+ 	c #E4E4E4",
"@ 	c #E4E5E4",
"# 	c #E4E4E5",
"$ 	c #E5E4E4",
"% 	c #E0E1E1",
"& 	c #E1E1E1",
"* 	c #E1E0E1",
"= 	c #E1E1E0",
"- 	c #DEDDDD",
"; 	c #DEDEDE",
"> 	c #DDDEDE",
", 	c #DDDDDE",
"' 	c #DEDDDE",
") 	c #DEDEDD",
"! 	c #DDDEDD",
"~ 	c #DBDBDB",
"{ 	c #DADADA",
"] 	c #DBDBDA",
"^ 	c #DBDADB",
"/ 	c #DADBDB",
"( 	c #DBDADA",
"_ 	c #DADADB",
": 	c #D7D7D7",
"< 	c #D8D7D7",
"[ 	c #D7D8D8",
"} 	c #D7D8D7",
"| 	c #D7D7D8",
"1 	c #D8D8D7",
"2 	c #D4D5D4",
"3 	c #D4D4D4",
"4 	c #D4D5D5",
"5 	c #D5D5D4",
"6 	c #D4D4D5",
"7 	c #D5D4D5",
"8 	c #D5D5D5",
"9 	c #D5D4D4",
"0 	c #D1D1D1",
"a 	c #D2D1D1",
"b 	c #D1D2D1",
"c 	c #D1D1D2",
"d 	c #CECECE",
"e 	c #939393",
"f 	c #CACBCB",
"g 	c #CBCBCA",
"h 	c #CACACB",
"i 	c #CBCBCB",
"j 	c #CACBCA",
"k 	c #CBCACB",
"l 	c #C8C8C8",
"m 	c #C8C8C7",
"n 	c #C7C8C8",
"o 	c #C8C7C8",
"p 	c #EDEDED",
"q 	c #C7C7C7",
"r 	c #C7C7C8",
"s 	c #C4C5C5",
"t 	c #C5C4C4",
"u 	c #C4C4C4",
"v 	c #C5C5C4",
"w 	c #C5C5C5",
"x 	c #C5C4C5",
"y 	c #C4C5C4",
"z 	c #C4C4C5",
"A 	c #C1C1C1",
"B 	c #C2C1C1",
"C 	c #C2C1C2",
"D 	c #C1C1C2",
"E 	c #C1C2C1",
"F 	c #C2C2C1",
"G 	c #BEBEBE",
"H 	c #BEBEBF",
"I 	c #BEBFBE",
"J 	c #BFBEBE",
"K 	c #BBBBBB",
"L 	c #BBBABB",
"M 	c #BABBBB",
"N 	c #BBBBBA",
"O 	c #BABBBA",
"P 	c #B8B8B8",
"Q 	c #B7B8B8",
"R 	c #B8B8B7",
"S 	c #B8B7B7",
"T 	c #B7B8B7",
"U 	c #B4B5B4",
"V 	c #B5B5B4",
"W 	c #B4B5B5",
"X 	c #B5B4B5",
"Y 	c #B5B4B4",
"Z 	c #B5B5B5",
"` 	c #B2B1B1",
" .	c #B1B1B2",
"..	c #B1B2B2",
"+.	c #B1B2B1",
"@.	c #B1B1B1",
"#.	c #B2B2B1",
"$.	c #B2B1B2",
". . . . . . . . . . . . . . . . . . ",
"+ + + + + + + + @ @ # + + $ + @ @ + ",
"% & & & * & & & % & % & & = = & & & ",
"- ; ; > , ; > ' ' ) ; , ! > ; ! ' ; ",
"~ { ~ ] ~ ^ / ( / ^ ~ ~ ~ / ~ / _ _ ",
": < [ < : } | < < < [ : < [ : [ | 1 ",
"2 3 4 3 5 6 6 3 7 8 3 4 9 3 3 3 7 3 ",
"0 a b a a 0 b 0 0 0 c 0 b 0 0 0 a 0 ",
"d d d d d d d e e e d d d d d d d d ",
"f g f h i g h e e e i i f j g g g k ",
"l m n o l l l p p p m o n q n m r q ",
"s t u v u v u t u s w x u u u y v z ",
"A A A A B B C A D E D F B A A D E A ",
"G G G G G G G H G G G G G G G I J G ",
"K K L K K L K K K K K M K K N L O K ",
"P Q R R S P S T P P P Q S P Q Q P P ",
"U V W W V X Y U Y W V V X Z U V W V ",
"` `  .`  ...+...@.+.` @.@.#.$. .@.$."};
