/* XPM */
static char * stuck_pressed_xpm[] = {
"24 24 4 1",
" 	c #CECECE",
".	c #72A2C7",
"+	c #74A4C9",
"@	c #E4E4E4",
"                        ",
"                        ",
"                        ",
"                        ",
"                        ",
"                        ",
"                        ",
"                        ",
"                        ",
"                        ",
"         .....          ",
"         .....          ",
"         .....          ",
"         +++++          ",
"         @@@@@          ",
"                        ",
"                        ",
"                        ",
"                        ",
"                        ",
"                        ",
"                        ",
"                        ",
"                        "};
