/* XPM */
static char * stuck_xpm[] = {
"18 18 96 2",
"  	c None",
". 	c #E7E7E7",
"+ 	c #E4E4E4",
"@ 	c #E4E5E4",
"# 	c #E4E4E5",
"$ 	c #E5E4E4",
"% 	c #E0E1E1",
"& 	c #E1E1E1",
"* 	c #E1E0E1",
"= 	c #E1E1E0",
"- 	c #DEDDDD",
"; 	c #DEDEDE",
"> 	c #DDDEDE",
", 	c #DDDDDE",
"' 	c #DEDDDE",
") 	c #DEDEDD",
"! 	c #DDDEDD",
"~ 	c #DBDBDB",
"{ 	c #DADADA",
"] 	c #DBDBDA",
"^ 	c #DBDADB",
"/ 	c #DADBDB",
"( 	c #DBDADA",
"_ 	c #DADADB",
": 	c #D7D7D7",
"< 	c #D8D7D7",
"[ 	c #D7D8D8",
"} 	c #D7D8D7",
"| 	c #D7D7D8",
"1 	c #D8D8D7",
"2 	c #D4D5D4",
"3 	c #D4D4D4",
"4 	c #D4D5D5",
"5 	c #D5D5D4",
"6 	c #D4D4D5",
"7 	c #D5D4D5",
"8 	c #D5D5D5",
"9 	c #D5D4D4",
"0 	c #D1D1D1",
"a 	c #D2D1D1",
"b 	c #D1D2D1",
"c 	c #747272",
"d 	c #CECECE",
"e 	c #CACBCB",
"f 	c #CBCBCA",
"g 	c #CACACB",
"h 	c #CBCBCB",
"i 	c #CACBCA",
"j 	c #CBCACB",
"k 	c #C8C8C8",
"l 	c #C8C8C7",
"m 	c #C7C8C8",
"n 	c #C8C7C8",
"o 	c #C7C7C7",
"p 	c #C7C7C8",
"q 	c #C4C5C5",
"r 	c #C5C4C4",
"s 	c #C4C4C4",
"t 	c #C5C5C4",
"u 	c #ECECEC",
"v 	c #C5C4C5",
"w 	c #C4C5C4",
"x 	c #C4C4C5",
"y 	c #C1C1C1",
"z 	c #C2C1C1",
"A 	c #C2C1C2",
"B 	c #C1C1C2",
"C 	c #C1C2C1",
"D 	c #C2C2C1",
"E 	c #BEBEBE",
"F 	c #BEBEBF",
"G 	c #BEBFBE",
"H 	c #BFBEBE",
"I 	c #BBBBBB",
"J 	c #BBBABB",
"K 	c #BABBBB",
"L 	c #BBBBBA",
"M 	c #BABBBA",
"N 	c #B8B8B8",
"O 	c #B7B8B8",
"P 	c #B8B8B7",
"Q 	c #B8B7B7",
"R 	c #B7B8B7",
"S 	c #B4B5B4",
"T 	c #B5B5B4",
"U 	c #B4B5B5",
"V 	c #B5B4B5",
"W 	c #B5B4B4",
"X 	c #B5B5B5",
"Y 	c #B2B1B1",
"Z 	c #B1B1B2",
"` 	c #B1B2B2",
" .	c #B1B2B1",
"..	c #B1B1B1",
"+.	c #B2B2B1",
"@.	c #B2B1B2",
". . . . . . . . . . . . . . . . . . ",
"+ + + + + + + + @ @ # + + $ + @ @ + ",
"% & & & * & & & % & % & & = = & & & ",
"- ; ; > , ; > ' ' ) ; , ! > ; ! ' ; ",
"~ { ~ ] ~ ^ / ( / ^ ~ ~ ~ / ~ / _ _ ",
": < [ < : } | < < < [ : < [ : [ | 1 ",
"2 3 4 3 5 6 6 3 7 8 3 4 9 3 3 3 7 3 ",
"0 a b a a 0 c c c c c 0 b 0 0 0 a 0 ",
"d d d d d d c c c c c d d d d d d d ",
"e f e g h f c c c c c h e i f f f j ",
"k l m n k k c c c c c n m o m l p o ",
"q r s t s t u u u u u v s s s w t x ",
"y y y y z z A y B C B D z y y B C y ",
"E E E E E E E F E E E E E E E G H E ",
"I I J I I J I I I I I K I I L J M I ",
"N O P P Q N Q R N N N O Q N O O N N ",
"S T U U T V W S W U T T V X S T U T ",
"Y Y Z Y Z `  .` .. .Y ....+.@.Z ..@."};
