<?xml version="1.0" encoding="UTF-8"?>
<!DOCTYPE svg PUBLIC "-//W3C//DTD SVG 1.1//EN" "http://www.w3.org/Graphics/SVG/1.1/DTD/svg11.dtd">
<!-- Creator: CorelDRAW -->
<svg xmlns="http://www.w3.org/2000/svg" xml:space="preserve" width="1920px" height="1080px" version="1.1" style="shape-rendering:geometricPrecision; text-rendering:geometricPrecision; image-rendering:optimizeQuality; fill-rule:evenodd; clip-rule:evenodd"
viewBox="0 0 1920 1080"
 xmlns:xlink="http://www.w3.org/1999/xlink"
 xmlns:xodm="http://www.corel.com/coreldraw/odm/2003">
 <defs>
  <style type="text/css">
   <![CDATA[
    .fil4 {fill:none}
    .fil3 {fill:#2B2A29}
    .fil2 {fill:#E23324}
    .fil1 {fill:#E31E24}
    .fil0 {fill:#008DD2}
   ]]>
  </style>
 </defs>
 <g id="Layer_x0020_1">
  <metadata id="CorelCorpID_0Corel-Layer"/>
  <rect class="fil0" width="1920" height="1080"/>
  <rect class="fil1" width="1920" height="1080"/>
  <g id="_2336650345568">
   <polygon class="fil2" points="1690.2,841.97 1840.2,841.97 1840.2,991.97 1690.2,991.97 "/>
   <g>
    <g>
     <path class="fil3" d="M1736.75 844.55c0,-1.42 -1.16,-2.58 -2.58,-2.58 -1.43,0 -2.59,1.16 -2.59,2.58 0,1.43 1.16,2.59 2.59,2.59 1.42,0 2.58,-1.16 2.58,-2.59z"/>
     <path class="fil3" d="M1741.92 844.55c0,-1.42 -1.15,-2.58 -2.58,-2.58 -1.43,0 -2.59,1.16 -2.59,2.58 0,1.43 1.16,2.59 2.59,2.59 1.43,0 2.58,-1.16 2.58,-2.59z"/>
     <path class="fil3" d="M1747.1 844.55c0,-1.42 -1.16,-2.58 -2.59,-2.58 -1.43,0 -2.59,1.16 -2.59,2.58 0,1.43 1.16,2.59 2.59,2.59 1.43,0 2.59,-1.16 2.59,-2.59z"/>
     <path class="fil3" d="M1767.79 844.55c0,-1.42 -1.16,-2.58 -2.59,-2.58 -1.43,0 -2.59,1.16 -2.59,2.58 0,1.43 1.16,2.59 2.59,2.59 1.43,0 2.59,-1.16 2.59,-2.59z"/>
     <path class="fil3" d="M1772.96 844.55c0,-1.42 -1.16,-2.58 -2.59,-2.58 -1.43,0 -2.58,1.16 -2.58,2.58 0,1.43 1.15,2.59 2.58,2.59 1.43,0 2.59,-1.16 2.59,-2.59z"/>
     <path class="fil3" d="M1778.13 844.55c0,-1.42 -1.16,-2.58 -2.58,-2.58 -1.43,0 -2.59,1.16 -2.59,2.58 0,1.43 1.16,2.59 2.59,2.59 1.42,0 2.58,-1.16 2.58,-2.59z"/>
     <path class="fil3" d="M1783.3 844.55c0,-1.42 -1.15,-2.58 -2.58,-2.58 -1.43,0 -2.59,1.16 -2.59,2.58 0,1.43 1.16,2.59 2.59,2.59 1.43,0 2.58,-1.16 2.58,-2.59z"/>
     <path class="fil3" d="M1788.48 844.55c0,-1.42 -1.16,-2.58 -2.59,-2.58 -1.43,0 -2.59,1.16 -2.59,2.58 0,1.43 1.16,2.59 2.59,2.59 1.43,0 2.59,-1.16 2.59,-2.59z"/>
     <path class="fil3" d="M1736.75 849.73c0,-1.43 -1.16,-2.59 -2.58,-2.59 -1.43,0 -2.59,1.16 -2.59,2.59 0,1.42 1.16,2.58 2.59,2.58 1.42,0 2.58,-1.16 2.58,-2.58z"/>
     <path class="fil3" d="M1741.92 849.73c0,-1.43 -1.15,-2.59 -2.58,-2.59 -1.43,0 -2.59,1.16 -2.59,2.59 0,1.42 1.16,2.58 2.59,2.58 1.43,0 2.58,-1.16 2.58,-2.58z"/>
     <path class="fil3" d="M1747.1 849.73c0,-1.43 -1.16,-2.59 -2.59,-2.59 -1.43,0 -2.59,1.16 -2.59,2.59 0,1.42 1.16,2.58 2.59,2.58 1.43,0 2.59,-1.16 2.59,-2.58z"/>
     <path class="fil3" d="M1762.61 849.73c0,-1.43 -1.15,-2.59 -2.58,-2.59 -1.43,0 -2.59,1.16 -2.59,2.59 0,1.42 1.16,2.58 2.59,2.58 1.43,0 2.58,-1.16 2.58,-2.58z"/>
     <path class="fil3" d="M1767.79 849.73c0,-1.43 -1.16,-2.59 -2.59,-2.59 -1.43,0 -2.59,1.16 -2.59,2.59 0,1.42 1.16,2.58 2.59,2.58 1.43,0 2.59,-1.16 2.59,-2.58z"/>
     <path class="fil3" d="M1778.13 849.73c0,-1.43 -1.16,-2.59 -2.58,-2.59 -1.43,0 -2.59,1.16 -2.59,2.59 0,1.42 1.16,2.58 2.59,2.58 1.42,0 2.58,-1.16 2.58,-2.58z"/>
     <path class="fil3" d="M1788.48 849.73c0,-1.43 -1.16,-2.59 -2.59,-2.59 -1.43,0 -2.59,1.16 -2.59,2.59 0,1.42 1.16,2.58 2.59,2.58 1.43,0 2.59,-1.16 2.59,-2.58z"/>
     <path class="fil3" d="M1793.65 849.73c0,-1.43 -1.16,-2.59 -2.59,-2.59 -1.43,0 -2.58,1.16 -2.58,2.59 0,1.42 1.15,2.58 2.58,2.58 1.43,0 2.59,-1.16 2.59,-2.58z"/>
     <path class="fil3" d="M1747.1 854.9c0,-1.43 -1.16,-2.59 -2.59,-2.59 -1.43,0 -2.59,1.16 -2.59,2.59 0,1.43 1.16,2.58 2.59,2.58 1.43,0 2.59,-1.15 2.59,-2.58z"/>
     <path class="fil3" d="M1757.44 854.9c0,-1.43 -1.16,-2.59 -2.59,-2.59 -1.42,0 -2.58,1.16 -2.58,2.59 0,1.43 1.16,2.58 2.58,2.58 1.43,0 2.59,-1.15 2.59,-2.58z"/>
     <path class="fil3" d="M1772.96 854.9c0,-1.43 -1.16,-2.59 -2.59,-2.59 -1.43,0 -2.58,1.16 -2.58,2.59 0,1.43 1.15,2.58 2.58,2.58 1.43,0 2.59,-1.15 2.59,-2.58z"/>
     <path class="fil3" d="M1778.13 854.9c0,-1.43 -1.16,-2.59 -2.58,-2.59 -1.43,0 -2.59,1.16 -2.59,2.59 0,1.43 1.16,2.58 2.59,2.58 1.42,0 2.58,-1.15 2.58,-2.58z"/>
     <path class="fil3" d="M1783.3 854.9c0,-1.43 -1.15,-2.59 -2.58,-2.59 -1.43,0 -2.59,1.16 -2.59,2.59 0,1.43 1.16,2.58 2.59,2.58 1.43,0 2.58,-1.15 2.58,-2.58z"/>
     <path class="fil3" d="M1788.48 854.9c0,-1.43 -1.16,-2.59 -2.59,-2.59 -1.43,0 -2.59,1.16 -2.59,2.59 0,1.43 1.16,2.58 2.59,2.58 1.43,0 2.59,-1.15 2.59,-2.58z"/>
     <path class="fil3" d="M1793.65 854.9c0,-1.43 -1.16,-2.59 -2.59,-2.59 -1.43,0 -2.58,1.16 -2.58,2.59 0,1.43 1.15,2.58 2.58,2.58 1.43,0 2.59,-1.15 2.59,-2.58z"/>
     <path class="fil3" d="M1798.82 854.9c0,-1.43 -1.16,-2.59 -2.59,-2.59 -1.42,0 -2.58,1.16 -2.58,2.59 0,1.43 1.16,2.58 2.58,2.58 1.43,0 2.59,-1.15 2.59,-2.58z"/>
     <path class="fil3" d="M1736.75 860.07c0,-1.43 -1.16,-2.59 -2.58,-2.59 -1.43,0 -2.59,1.16 -2.59,2.59 0,1.43 1.16,2.59 2.59,2.59 1.42,0 2.58,-1.16 2.58,-2.59z"/>
     <path class="fil3" d="M1752.27 860.07c0,-1.43 -1.16,-2.59 -2.59,-2.59 -1.43,0 -2.58,1.16 -2.58,2.59 0,1.43 1.15,2.59 2.58,2.59 1.43,0 2.59,-1.16 2.59,-2.59z"/>
     <path class="fil3" d="M1757.44 860.07c0,-1.43 -1.16,-2.59 -2.59,-2.59 -1.42,0 -2.58,1.16 -2.58,2.59 0,1.43 1.16,2.59 2.58,2.59 1.43,0 2.59,-1.16 2.59,-2.59z"/>
     <path class="fil3" d="M1762.61 860.07c0,-1.43 -1.15,-2.59 -2.58,-2.59 -1.43,0 -2.59,1.16 -2.59,2.59 0,1.43 1.16,2.59 2.59,2.59 1.43,0 2.58,-1.16 2.58,-2.59z"/>
     <path class="fil3" d="M1767.79 860.07c0,-1.43 -1.16,-2.59 -2.59,-2.59 -1.43,0 -2.59,1.16 -2.59,2.59 0,1.43 1.16,2.59 2.59,2.59 1.43,0 2.59,-1.16 2.59,-2.59z"/>
     <path class="fil3" d="M1788.48 860.07c0,-1.43 -1.16,-2.59 -2.59,-2.59 -1.43,0 -2.59,1.16 -2.59,2.59 0,1.43 1.16,2.59 2.59,2.59 1.43,0 2.59,-1.16 2.59,-2.59z"/>
     <path class="fil3" d="M1736.75 865.24c0,-1.43 -1.16,-2.58 -2.58,-2.58 -1.43,0 -2.59,1.15 -2.59,2.58 0,1.43 1.16,2.59 2.59,2.59 1.42,0 2.58,-1.16 2.58,-2.59z"/>
     <path class="fil3" d="M1741.92 865.24c0,-1.43 -1.15,-2.58 -2.58,-2.58 -1.43,0 -2.59,1.15 -2.59,2.58 0,1.43 1.16,2.59 2.59,2.59 1.43,0 2.58,-1.16 2.58,-2.59z"/>
     <path class="fil3" d="M1752.27 865.24c0,-1.43 -1.16,-2.58 -2.59,-2.58 -1.43,0 -2.58,1.15 -2.58,2.58 0,1.43 1.15,2.59 2.58,2.59 1.43,0 2.59,-1.16 2.59,-2.59z"/>
     <path class="fil3" d="M1762.61 865.24c0,-1.43 -1.15,-2.58 -2.58,-2.58 -1.43,0 -2.59,1.15 -2.59,2.58 0,1.43 1.16,2.59 2.59,2.59 1.43,0 2.58,-1.16 2.58,-2.59z"/>
     <path class="fil3" d="M1767.79 865.24c0,-1.43 -1.16,-2.58 -2.59,-2.58 -1.43,0 -2.59,1.15 -2.59,2.58 0,1.43 1.16,2.59 2.59,2.59 1.43,0 2.59,-1.16 2.59,-2.59z"/>
     <path class="fil3" d="M1772.96 865.24c0,-1.43 -1.16,-2.58 -2.59,-2.58 -1.43,0 -2.58,1.15 -2.58,2.58 0,1.43 1.15,2.59 2.58,2.59 1.43,0 2.59,-1.16 2.59,-2.59z"/>
     <path class="fil3" d="M1778.13 865.24c0,-1.43 -1.16,-2.58 -2.58,-2.58 -1.43,0 -2.59,1.15 -2.59,2.58 0,1.43 1.16,2.59 2.59,2.59 1.42,0 2.58,-1.16 2.58,-2.59z"/>
     <path class="fil3" d="M1788.48 865.24c0,-1.43 -1.16,-2.58 -2.59,-2.58 -1.43,0 -2.59,1.15 -2.59,2.58 0,1.43 1.16,2.59 2.59,2.59 1.43,0 2.59,-1.16 2.59,-2.59z"/>
     <path class="fil3" d="M1736.75 870.41c0,-1.42 -1.16,-2.58 -2.58,-2.58 -1.43,0 -2.59,1.16 -2.59,2.58 0,1.43 1.16,2.59 2.59,2.59 1.42,0 2.58,-1.16 2.58,-2.59z"/>
     <path class="fil3" d="M1747.1 870.41c0,-1.42 -1.16,-2.58 -2.59,-2.58 -1.43,0 -2.59,1.16 -2.59,2.58 0,1.43 1.16,2.59 2.59,2.59 1.43,0 2.59,-1.16 2.59,-2.59z"/>
     <path class="fil3" d="M1757.44 870.41c0,-1.42 -1.16,-2.58 -2.59,-2.58 -1.42,0 -2.58,1.16 -2.58,2.58 0,1.43 1.16,2.59 2.58,2.59 1.43,0 2.59,-1.16 2.59,-2.59z"/>
     <path class="fil3" d="M1762.61 870.41c0,-1.42 -1.15,-2.58 -2.58,-2.58 -1.43,0 -2.59,1.16 -2.59,2.58 0,1.43 1.16,2.59 2.59,2.59 1.43,0 2.58,-1.16 2.58,-2.59z"/>
     <path class="fil3" d="M1767.79 870.41c0,-1.42 -1.16,-2.58 -2.59,-2.58 -1.43,0 -2.59,1.16 -2.59,2.58 0,1.43 1.16,2.59 2.59,2.59 1.43,0 2.59,-1.16 2.59,-2.59z"/>
     <path class="fil3" d="M1772.96 870.41c0,-1.42 -1.16,-2.58 -2.59,-2.58 -1.43,0 -2.58,1.16 -2.58,2.58 0,1.43 1.15,2.59 2.58,2.59 1.43,0 2.59,-1.16 2.59,-2.59z"/>
     <path class="fil3" d="M1793.65 870.41c0,-1.42 -1.16,-2.58 -2.59,-2.58 -1.43,0 -2.58,1.16 -2.58,2.58 0,1.43 1.15,2.59 2.58,2.59 1.43,0 2.59,-1.16 2.59,-2.59z"/>
     <path class="fil3" d="M1736.75 875.59c0,-1.43 -1.16,-2.59 -2.58,-2.59 -1.43,0 -2.59,1.16 -2.59,2.59 0,1.43 1.16,2.58 2.59,2.58 1.42,0 2.58,-1.15 2.58,-2.58z"/>
     <path class="fil3" d="M1747.1 875.59c0,-1.43 -1.16,-2.59 -2.59,-2.59 -1.43,0 -2.59,1.16 -2.59,2.59 0,1.43 1.16,2.58 2.59,2.58 1.43,0 2.59,-1.15 2.59,-2.58z"/>
     <path class="fil3" d="M1757.44 875.59c0,-1.43 -1.16,-2.59 -2.59,-2.59 -1.42,0 -2.58,1.16 -2.58,2.59 0,1.43 1.16,2.58 2.58,2.58 1.43,0 2.59,-1.15 2.59,-2.58z"/>
     <path class="fil3" d="M1767.79 875.59c0,-1.43 -1.16,-2.59 -2.59,-2.59 -1.43,0 -2.59,1.16 -2.59,2.59 0,1.43 1.16,2.58 2.59,2.58 1.43,0 2.59,-1.15 2.59,-2.58z"/>
     <path class="fil3" d="M1778.13 875.59c0,-1.43 -1.16,-2.59 -2.58,-2.59 -1.43,0 -2.59,1.16 -2.59,2.59 0,1.43 1.16,2.58 2.59,2.58 1.42,0 2.58,-1.15 2.58,-2.58z"/>
     <path class="fil3" d="M1788.48 875.59c0,-1.43 -1.16,-2.59 -2.59,-2.59 -1.43,0 -2.59,1.16 -2.59,2.59 0,1.43 1.16,2.58 2.59,2.58 1.43,0 2.59,-1.15 2.59,-2.58z"/>
     <path class="fil3" d="M1798.82 875.59c0,-1.43 -1.16,-2.59 -2.59,-2.59 -1.42,0 -2.58,1.16 -2.58,2.59 0,1.43 1.16,2.58 2.58,2.58 1.43,0 2.59,-1.15 2.59,-2.58z"/>
     <path class="fil3" d="M1762.61 880.76c0,-1.43 -1.15,-2.59 -2.58,-2.59 -1.43,0 -2.59,1.16 -2.59,2.59 0,1.43 1.16,2.59 2.59,2.59 1.43,0 2.58,-1.16 2.58,-2.59z"/>
     <path class="fil3" d="M1783.3 880.76c0,-1.43 -1.15,-2.59 -2.58,-2.59 -1.43,0 -2.59,1.16 -2.59,2.59 0,1.43 1.16,2.59 2.59,2.59 1.43,0 2.58,-1.16 2.58,-2.59z"/>
     <path class="fil3" d="M1788.48 880.76c0,-1.43 -1.16,-2.59 -2.59,-2.59 -1.43,0 -2.59,1.16 -2.59,2.59 0,1.43 1.16,2.59 2.59,2.59 1.43,0 2.59,-1.16 2.59,-2.59z"/>
     <path class="fil3" d="M1710.89 885.93c0,-1.43 -1.16,-2.58 -2.59,-2.58 -1.43,0 -2.58,1.15 -2.58,2.58 0,1.43 1.15,2.59 2.58,2.59 1.43,0 2.59,-1.16 2.59,-2.59z"/>
     <path class="fil3" d="M1726.41 885.93c0,-1.43 -1.16,-2.58 -2.59,-2.58 -1.43,0 -2.59,1.15 -2.59,2.58 0,1.43 1.16,2.59 2.59,2.59 1.43,0 2.59,-1.16 2.59,-2.59z"/>
     <path class="fil3" d="M1752.27 885.93c0,-1.43 -1.16,-2.58 -2.59,-2.58 -1.43,0 -2.58,1.15 -2.58,2.58 0,1.43 1.15,2.59 2.58,2.59 1.43,0 2.59,-1.16 2.59,-2.59z"/>
     <path class="fil3" d="M1778.13 885.93c0,-1.43 -1.16,-2.58 -2.58,-2.58 -1.43,0 -2.59,1.15 -2.59,2.58 0,1.43 1.16,2.59 2.59,2.59 1.42,0 2.58,-1.16 2.58,-2.59z"/>
     <path class="fil3" d="M1783.3 885.93c0,-1.43 -1.15,-2.58 -2.58,-2.58 -1.43,0 -2.59,1.15 -2.59,2.58 0,1.43 1.16,2.59 2.59,2.59 1.43,0 2.58,-1.16 2.58,-2.59z"/>
     <path class="fil3" d="M1788.48 885.93c0,-1.43 -1.16,-2.58 -2.59,-2.58 -1.43,0 -2.59,1.15 -2.59,2.58 0,1.43 1.16,2.59 2.59,2.59 1.43,0 2.59,-1.16 2.59,-2.59z"/>
     <path class="fil3" d="M1793.65 885.93c0,-1.43 -1.16,-2.58 -2.59,-2.58 -1.43,0 -2.58,1.15 -2.58,2.58 0,1.43 1.15,2.59 2.58,2.59 1.43,0 2.59,-1.16 2.59,-2.59z"/>
     <path class="fil3" d="M1798.82 885.93c0,-1.43 -1.16,-2.58 -2.59,-2.58 -1.42,0 -2.58,1.15 -2.58,2.58 0,1.43 1.16,2.59 2.58,2.59 1.43,0 2.59,-1.16 2.59,-2.59z"/>
     <path class="fil3" d="M1814.34 885.93c0,-1.43 -1.16,-2.58 -2.59,-2.58 -1.43,0 -2.58,1.15 -2.58,2.58 0,1.43 1.15,2.59 2.58,2.59 1.43,0 2.59,-1.16 2.59,-2.59z"/>
     <path class="fil3" d="M1819.51 885.93c0,-1.43 -1.16,-2.58 -2.59,-2.58 -1.42,0 -2.58,1.15 -2.58,2.58 0,1.43 1.16,2.59 2.58,2.59 1.43,0 2.59,-1.16 2.59,-2.59z"/>
     <path class="fil3" d="M1824.68 885.93c0,-1.43 -1.15,-2.58 -2.58,-2.58 -1.43,0 -2.59,1.15 -2.59,2.58 0,1.43 1.16,2.59 2.59,2.59 1.43,0 2.58,-1.16 2.58,-2.59z"/>
     <path class="fil3" d="M1835.03 885.93c0,-1.43 -1.16,-2.58 -2.59,-2.58 -1.43,0 -2.59,1.15 -2.59,2.58 0,1.43 1.16,2.59 2.59,2.59 1.43,0 2.59,-1.16 2.59,-2.59z"/>
     <path class="fil3" d="M1840.2 885.93c0,-1.43 -1.16,-2.58 -2.59,-2.58 -1.42,0 -2.58,1.15 -2.58,2.58 0,1.43 1.16,2.59 2.58,2.59 1.43,0 2.59,-1.16 2.59,-2.59z"/>
     <path class="fil3" d="M1700.55 891.1c0,-1.42 -1.16,-2.58 -2.59,-2.58 -1.43,0 -2.59,1.16 -2.59,2.58 0,1.43 1.16,2.59 2.59,2.59 1.43,0 2.59,-1.16 2.59,-2.59z"/>
     <path class="fil3" d="M1705.72 891.1c0,-1.42 -1.16,-2.58 -2.59,-2.58 -1.43,0 -2.58,1.16 -2.58,2.58 0,1.43 1.15,2.59 2.58,2.59 1.43,0 2.59,-1.16 2.59,-2.59z"/>
     <path class="fil3" d="M1710.89 891.1c0,-1.42 -1.16,-2.58 -2.59,-2.58 -1.43,0 -2.58,1.16 -2.58,2.58 0,1.43 1.15,2.59 2.58,2.59 1.43,0 2.59,-1.16 2.59,-2.59z"/>
     <path class="fil3" d="M1716.06 891.1c0,-1.42 -1.16,-2.58 -2.58,-2.58 -1.43,0 -2.59,1.16 -2.59,2.58 0,1.43 1.16,2.59 2.59,2.59 1.42,0 2.58,-1.16 2.58,-2.59z"/>
     <path class="fil3" d="M1731.58 891.1c0,-1.42 -1.16,-2.58 -2.59,-2.58 -1.42,0 -2.58,1.16 -2.58,2.58 0,1.43 1.16,2.59 2.58,2.59 1.43,0 2.59,-1.16 2.59,-2.59z"/>
     <path class="fil3" d="M1747.1 891.1c0,-1.42 -1.16,-2.58 -2.59,-2.58 -1.43,0 -2.59,1.16 -2.59,2.58 0,1.43 1.16,2.59 2.59,2.59 1.43,0 2.59,-1.16 2.59,-2.59z"/>
     <path class="fil3" d="M1752.27 891.1c0,-1.42 -1.16,-2.58 -2.59,-2.58 -1.43,0 -2.58,1.16 -2.58,2.58 0,1.43 1.15,2.59 2.58,2.59 1.43,0 2.59,-1.16 2.59,-2.59z"/>
     <path class="fil3" d="M1762.61 891.1c0,-1.42 -1.15,-2.58 -2.58,-2.58 -1.43,0 -2.59,1.16 -2.59,2.58 0,1.43 1.16,2.59 2.59,2.59 1.43,0 2.58,-1.16 2.58,-2.59z"/>
     <path class="fil3" d="M1767.79 891.1c0,-1.42 -1.16,-2.58 -2.59,-2.58 -1.43,0 -2.59,1.16 -2.59,2.58 0,1.43 1.16,2.59 2.59,2.59 1.43,0 2.59,-1.16 2.59,-2.59z"/>
     <path class="fil3" d="M1772.96 891.1c0,-1.42 -1.16,-2.58 -2.59,-2.58 -1.43,0 -2.58,1.16 -2.58,2.58 0,1.43 1.15,2.59 2.58,2.59 1.43,0 2.59,-1.16 2.59,-2.59z"/>
     <path class="fil3" d="M1788.48 891.1c0,-1.42 -1.16,-2.58 -2.59,-2.58 -1.43,0 -2.59,1.16 -2.59,2.58 0,1.43 1.16,2.59 2.59,2.59 1.43,0 2.59,-1.16 2.59,-2.59z"/>
     <path class="fil3" d="M1793.65 891.1c0,-1.42 -1.16,-2.58 -2.59,-2.58 -1.43,0 -2.58,1.16 -2.58,2.58 0,1.43 1.15,2.59 2.58,2.59 1.43,0 2.59,-1.16 2.59,-2.59z"/>
     <path class="fil3" d="M1803.99 891.1c0,-1.42 -1.16,-2.58 -2.58,-2.58 -1.43,0 -2.59,1.16 -2.59,2.58 0,1.43 1.16,2.59 2.59,2.59 1.42,0 2.58,-1.16 2.58,-2.59z"/>
     <path class="fil3" d="M1814.34 891.1c0,-1.42 -1.16,-2.58 -2.59,-2.58 -1.43,0 -2.58,1.16 -2.58,2.58 0,1.43 1.15,2.59 2.58,2.59 1.43,0 2.59,-1.16 2.59,-2.59z"/>
     <path class="fil3" d="M1824.68 891.1c0,-1.42 -1.15,-2.58 -2.58,-2.58 -1.43,0 -2.59,1.16 -2.59,2.58 0,1.43 1.16,2.59 2.59,2.59 1.43,0 2.58,-1.16 2.58,-2.59z"/>
     <path class="fil3" d="M1840.2 891.1c0,-1.42 -1.16,-2.58 -2.59,-2.58 -1.42,0 -2.58,1.16 -2.58,2.58 0,1.43 1.16,2.59 2.58,2.59 1.43,0 2.59,-1.16 2.59,-2.59z"/>
     <path class="fil3" d="M1700.55 896.28c0,-1.43 -1.16,-2.59 -2.59,-2.59 -1.43,0 -2.59,1.16 -2.59,2.59 0,1.43 1.16,2.58 2.59,2.58 1.43,0 2.59,-1.15 2.59,-2.58z"/>
     <path class="fil3" d="M1710.89 896.28c0,-1.43 -1.16,-2.59 -2.59,-2.59 -1.43,0 -2.58,1.16 -2.58,2.59 0,1.43 1.15,2.58 2.58,2.58 1.43,0 2.59,-1.15 2.59,-2.58z"/>
     <path class="fil3" d="M1721.23 896.28c0,-1.43 -1.15,-2.59 -2.58,-2.59 -1.43,0 -2.59,1.16 -2.59,2.59 0,1.43 1.16,2.58 2.59,2.58 1.43,0 2.58,-1.15 2.58,-2.58z"/>
     <path class="fil3" d="M1726.41 896.28c0,-1.43 -1.16,-2.59 -2.59,-2.59 -1.43,0 -2.59,1.16 -2.59,2.59 0,1.43 1.16,2.58 2.59,2.58 1.43,0 2.59,-1.15 2.59,-2.58z"/>
     <path class="fil3" d="M1731.58 896.28c0,-1.43 -1.16,-2.59 -2.59,-2.59 -1.42,0 -2.58,1.16 -2.58,2.59 0,1.43 1.16,2.58 2.58,2.58 1.43,0 2.59,-1.15 2.59,-2.58z"/>
     <path class="fil3" d="M1736.75 896.28c0,-1.43 -1.16,-2.59 -2.58,-2.59 -1.43,0 -2.59,1.16 -2.59,2.59 0,1.43 1.16,2.58 2.59,2.58 1.42,0 2.58,-1.15 2.58,-2.58z"/>
     <path class="fil3" d="M1747.1 896.28c0,-1.43 -1.16,-2.59 -2.59,-2.59 -1.43,0 -2.59,1.16 -2.59,2.59 0,1.43 1.16,2.58 2.59,2.58 1.43,0 2.59,-1.15 2.59,-2.58z"/>
     <path class="fil3" d="M1757.44 896.28c0,-1.43 -1.16,-2.59 -2.59,-2.59 -1.42,0 -2.58,1.16 -2.58,2.59 0,1.43 1.16,2.58 2.58,2.58 1.43,0 2.59,-1.15 2.59,-2.58z"/>
     <path class="fil3" d="M1772.96 896.28c0,-1.43 -1.16,-2.59 -2.59,-2.59 -1.43,0 -2.58,1.16 -2.58,2.59 0,1.43 1.15,2.58 2.58,2.58 1.43,0 2.59,-1.15 2.59,-2.58z"/>
     <path class="fil3" d="M1783.3 896.28c0,-1.43 -1.15,-2.59 -2.58,-2.59 -1.43,0 -2.59,1.16 -2.59,2.59 0,1.43 1.16,2.58 2.59,2.58 1.43,0 2.58,-1.15 2.58,-2.58z"/>
     <path class="fil3" d="M1788.48 896.28c0,-1.43 -1.16,-2.59 -2.59,-2.59 -1.43,0 -2.59,1.16 -2.59,2.59 0,1.43 1.16,2.58 2.59,2.58 1.43,0 2.59,-1.15 2.59,-2.58z"/>
     <path class="fil3" d="M1793.65 896.28c0,-1.43 -1.16,-2.59 -2.59,-2.59 -1.43,0 -2.58,1.16 -2.58,2.59 0,1.43 1.15,2.58 2.58,2.58 1.43,0 2.59,-1.15 2.59,-2.58z"/>
     <path class="fil3" d="M1809.17 896.28c0,-1.43 -1.16,-2.59 -2.59,-2.59 -1.43,0 -2.59,1.16 -2.59,2.59 0,1.43 1.16,2.58 2.59,2.58 1.43,0 2.59,-1.15 2.59,-2.58z"/>
     <path class="fil3" d="M1814.34 896.28c0,-1.43 -1.16,-2.59 -2.59,-2.59 -1.43,0 -2.58,1.16 -2.58,2.59 0,1.43 1.15,2.58 2.58,2.58 1.43,0 2.59,-1.15 2.59,-2.58z"/>
     <path class="fil3" d="M1835.03 896.28c0,-1.43 -1.16,-2.59 -2.59,-2.59 -1.43,0 -2.59,1.16 -2.59,2.59 0,1.43 1.16,2.58 2.59,2.58 1.43,0 2.59,-1.15 2.59,-2.58z"/>
     <path class="fil3" d="M1695.37 901.45c0,-1.43 -1.16,-2.59 -2.58,-2.59 -1.43,0 -2.59,1.16 -2.59,2.59 0,1.43 1.16,2.59 2.59,2.59 1.42,0 2.58,-1.16 2.58,-2.59z"/>
     <path class="fil3" d="M1705.72 901.45c0,-1.43 -1.16,-2.59 -2.59,-2.59 -1.43,0 -2.58,1.16 -2.58,2.59 0,1.43 1.15,2.59 2.58,2.59 1.43,0 2.59,-1.16 2.59,-2.59z"/>
     <path class="fil3" d="M1741.92 901.45c0,-1.43 -1.15,-2.59 -2.58,-2.59 -1.43,0 -2.59,1.16 -2.59,2.59 0,1.43 1.16,2.59 2.59,2.59 1.43,0 2.58,-1.16 2.58,-2.59z"/>
     <path class="fil3" d="M1752.27 901.45c0,-1.43 -1.16,-2.59 -2.59,-2.59 -1.43,0 -2.58,1.16 -2.58,2.59 0,1.43 1.15,2.59 2.58,2.59 1.43,0 2.59,-1.16 2.59,-2.59z"/>
     <path class="fil3" d="M1772.96 901.45c0,-1.43 -1.16,-2.59 -2.59,-2.59 -1.43,0 -2.58,1.16 -2.58,2.59 0,1.43 1.15,2.59 2.58,2.59 1.43,0 2.59,-1.16 2.59,-2.59z"/>
     <path class="fil3" d="M1778.13 901.45c0,-1.43 -1.16,-2.59 -2.58,-2.59 -1.43,0 -2.59,1.16 -2.59,2.59 0,1.43 1.16,2.59 2.59,2.59 1.42,0 2.58,-1.16 2.58,-2.59z"/>
     <path class="fil3" d="M1793.65 901.45c0,-1.43 -1.16,-2.59 -2.59,-2.59 -1.43,0 -2.58,1.16 -2.58,2.59 0,1.43 1.15,2.59 2.58,2.59 1.43,0 2.59,-1.16 2.59,-2.59z"/>
     <path class="fil3" d="M1798.82 901.45c0,-1.43 -1.16,-2.59 -2.59,-2.59 -1.42,0 -2.58,1.16 -2.58,2.59 0,1.43 1.16,2.59 2.58,2.59 1.43,0 2.59,-1.16 2.59,-2.59z"/>
     <path class="fil3" d="M1803.99 901.45c0,-1.43 -1.16,-2.59 -2.58,-2.59 -1.43,0 -2.59,1.16 -2.59,2.59 0,1.43 1.16,2.59 2.59,2.59 1.42,0 2.58,-1.16 2.58,-2.59z"/>
     <path class="fil3" d="M1809.17 901.45c0,-1.43 -1.16,-2.59 -2.59,-2.59 -1.43,0 -2.59,1.16 -2.59,2.59 0,1.43 1.16,2.59 2.59,2.59 1.43,0 2.59,-1.16 2.59,-2.59z"/>
     <path class="fil3" d="M1814.34 901.45c0,-1.43 -1.16,-2.59 -2.59,-2.59 -1.43,0 -2.58,1.16 -2.58,2.59 0,1.43 1.15,2.59 2.58,2.59 1.43,0 2.59,-1.16 2.59,-2.59z"/>
     <path class="fil3" d="M1819.51 901.45c0,-1.43 -1.16,-2.59 -2.59,-2.59 -1.42,0 -2.58,1.16 -2.58,2.59 0,1.43 1.16,2.59 2.58,2.59 1.43,0 2.59,-1.16 2.59,-2.59z"/>
     <path class="fil3" d="M1824.68 901.45c0,-1.43 -1.15,-2.59 -2.58,-2.59 -1.43,0 -2.59,1.16 -2.59,2.59 0,1.43 1.16,2.59 2.59,2.59 1.43,0 2.58,-1.16 2.58,-2.59z"/>
     <path class="fil3" d="M1829.85 901.45c0,-1.43 -1.15,-2.59 -2.58,-2.59 -1.43,0 -2.59,1.16 -2.59,2.59 0,1.43 1.16,2.59 2.59,2.59 1.43,0 2.58,-1.16 2.58,-2.59z"/>
     <path class="fil3" d="M1835.03 901.45c0,-1.43 -1.16,-2.59 -2.59,-2.59 -1.43,0 -2.59,1.16 -2.59,2.59 0,1.43 1.16,2.59 2.59,2.59 1.43,0 2.59,-1.16 2.59,-2.59z"/>
     <path class="fil3" d="M1700.55 906.62c0,-1.43 -1.16,-2.58 -2.59,-2.58 -1.43,0 -2.59,1.15 -2.59,2.58 0,1.43 1.16,2.59 2.59,2.59 1.43,0 2.59,-1.16 2.59,-2.59z"/>
     <path class="fil3" d="M1705.72 906.62c0,-1.43 -1.16,-2.58 -2.59,-2.58 -1.43,0 -2.58,1.15 -2.58,2.58 0,1.43 1.15,2.59 2.58,2.59 1.43,0 2.59,-1.16 2.59,-2.59z"/>
     <path class="fil3" d="M1710.89 906.62c0,-1.43 -1.16,-2.58 -2.59,-2.58 -1.43,0 -2.58,1.15 -2.58,2.58 0,1.43 1.15,2.59 2.58,2.59 1.43,0 2.59,-1.16 2.59,-2.59z"/>
     <path class="fil3" d="M1726.41 906.62c0,-1.43 -1.16,-2.58 -2.59,-2.58 -1.43,0 -2.59,1.15 -2.59,2.58 0,1.43 1.16,2.59 2.59,2.59 1.43,0 2.59,-1.16 2.59,-2.59z"/>
     <path class="fil3" d="M1731.58 906.62c0,-1.43 -1.16,-2.58 -2.59,-2.58 -1.42,0 -2.58,1.15 -2.58,2.58 0,1.43 1.16,2.59 2.58,2.59 1.43,0 2.59,-1.16 2.59,-2.59z"/>
     <path class="fil3" d="M1736.75 906.62c0,-1.43 -1.16,-2.58 -2.58,-2.58 -1.43,0 -2.59,1.15 -2.59,2.58 0,1.43 1.16,2.59 2.59,2.59 1.42,0 2.58,-1.16 2.58,-2.59z"/>
     <path class="fil3" d="M1747.1 906.62c0,-1.43 -1.16,-2.58 -2.59,-2.58 -1.43,0 -2.59,1.15 -2.59,2.58 0,1.43 1.16,2.59 2.59,2.59 1.43,0 2.59,-1.16 2.59,-2.59z"/>
     <path class="fil3" d="M1752.27 906.62c0,-1.43 -1.16,-2.58 -2.59,-2.58 -1.43,0 -2.58,1.15 -2.58,2.58 0,1.43 1.15,2.59 2.58,2.59 1.43,0 2.59,-1.16 2.59,-2.59z"/>
     <path class="fil3" d="M1767.79 906.62c0,-1.43 -1.16,-2.58 -2.59,-2.58 -1.43,0 -2.59,1.15 -2.59,2.58 0,1.43 1.16,2.59 2.59,2.59 1.43,0 2.59,-1.16 2.59,-2.59z"/>
     <path class="fil3" d="M1772.96 906.62c0,-1.43 -1.16,-2.58 -2.59,-2.58 -1.43,0 -2.58,1.15 -2.58,2.58 0,1.43 1.15,2.59 2.58,2.59 1.43,0 2.59,-1.16 2.59,-2.59z"/>
     <path class="fil3" d="M1778.13 906.62c0,-1.43 -1.16,-2.58 -2.58,-2.58 -1.43,0 -2.59,1.15 -2.59,2.58 0,1.43 1.16,2.59 2.59,2.59 1.42,0 2.58,-1.16 2.58,-2.59z"/>
     <path class="fil3" d="M1788.48 906.62c0,-1.43 -1.16,-2.58 -2.59,-2.58 -1.43,0 -2.59,1.15 -2.59,2.58 0,1.43 1.16,2.59 2.59,2.59 1.43,0 2.59,-1.16 2.59,-2.59z"/>
     <path class="fil3" d="M1798.82 906.62c0,-1.43 -1.16,-2.58 -2.59,-2.58 -1.42,0 -2.58,1.15 -2.58,2.58 0,1.43 1.16,2.59 2.58,2.59 1.43,0 2.59,-1.16 2.59,-2.59z"/>
     <path class="fil3" d="M1809.17 906.62c0,-1.43 -1.16,-2.58 -2.59,-2.58 -1.43,0 -2.59,1.15 -2.59,2.58 0,1.43 1.16,2.59 2.59,2.59 1.43,0 2.59,-1.16 2.59,-2.59z"/>
     <path class="fil3" d="M1814.34 906.62c0,-1.43 -1.16,-2.58 -2.59,-2.58 -1.43,0 -2.58,1.15 -2.58,2.58 0,1.43 1.15,2.59 2.58,2.59 1.43,0 2.59,-1.16 2.59,-2.59z"/>
     <path class="fil3" d="M1700.55 911.79c0,-1.42 -1.16,-2.58 -2.59,-2.58 -1.43,0 -2.59,1.16 -2.59,2.58 0,1.43 1.16,2.59 2.59,2.59 1.43,0 2.59,-1.16 2.59,-2.59z"/>
     <path class="fil3" d="M1731.58 911.79c0,-1.42 -1.16,-2.58 -2.59,-2.58 -1.42,0 -2.58,1.16 -2.58,2.58 0,1.43 1.16,2.59 2.58,2.59 1.43,0 2.59,-1.16 2.59,-2.59z"/>
     <path class="fil3" d="M1736.75 911.79c0,-1.42 -1.16,-2.58 -2.58,-2.58 -1.43,0 -2.59,1.16 -2.59,2.58 0,1.43 1.16,2.59 2.59,2.59 1.42,0 2.58,-1.16 2.58,-2.59z"/>
     <path class="fil3" d="M1752.27 911.79c0,-1.42 -1.16,-2.58 -2.59,-2.58 -1.43,0 -2.58,1.16 -2.58,2.58 0,1.43 1.15,2.59 2.58,2.59 1.43,0 2.59,-1.16 2.59,-2.59z"/>
     <path class="fil3" d="M1762.61 911.79c0,-1.42 -1.15,-2.58 -2.58,-2.58 -1.43,0 -2.59,1.16 -2.59,2.58 0,1.43 1.16,2.59 2.59,2.59 1.43,0 2.58,-1.16 2.58,-2.59z"/>
     <path class="fil3" d="M1772.96 911.79c0,-1.42 -1.16,-2.58 -2.59,-2.58 -1.43,0 -2.58,1.16 -2.58,2.58 0,1.43 1.15,2.59 2.58,2.59 1.43,0 2.59,-1.16 2.59,-2.59z"/>
     <path class="fil3" d="M1778.13 911.79c0,-1.42 -1.16,-2.58 -2.58,-2.58 -1.43,0 -2.59,1.16 -2.59,2.58 0,1.43 1.16,2.59 2.59,2.59 1.42,0 2.58,-1.16 2.58,-2.59z"/>
     <path class="fil3" d="M1783.3 911.79c0,-1.42 -1.15,-2.58 -2.58,-2.58 -1.43,0 -2.59,1.16 -2.59,2.58 0,1.43 1.16,2.59 2.59,2.59 1.43,0 2.58,-1.16 2.58,-2.59z"/>
     <path class="fil3" d="M1788.48 911.79c0,-1.42 -1.16,-2.58 -2.59,-2.58 -1.43,0 -2.59,1.16 -2.59,2.58 0,1.43 1.16,2.59 2.59,2.59 1.43,0 2.59,-1.16 2.59,-2.59z"/>
     <path class="fil3" d="M1793.65 911.79c0,-1.42 -1.16,-2.58 -2.59,-2.58 -1.43,0 -2.58,1.16 -2.58,2.58 0,1.43 1.15,2.59 2.58,2.59 1.43,0 2.59,-1.16 2.59,-2.59z"/>
     <path class="fil3" d="M1798.82 911.79c0,-1.42 -1.16,-2.58 -2.59,-2.58 -1.42,0 -2.58,1.16 -2.58,2.58 0,1.43 1.16,2.59 2.58,2.59 1.43,0 2.59,-1.16 2.59,-2.59z"/>
     <path class="fil3" d="M1803.99 911.79c0,-1.42 -1.16,-2.58 -2.58,-2.58 -1.43,0 -2.59,1.16 -2.59,2.58 0,1.43 1.16,2.59 2.59,2.59 1.42,0 2.58,-1.16 2.58,-2.59z"/>
     <path class="fil3" d="M1814.34 911.79c0,-1.42 -1.16,-2.58 -2.59,-2.58 -1.43,0 -2.58,1.16 -2.58,2.58 0,1.43 1.15,2.59 2.58,2.59 1.43,0 2.59,-1.16 2.59,-2.59z"/>
     <path class="fil3" d="M1824.68 911.79c0,-1.42 -1.15,-2.58 -2.58,-2.58 -1.43,0 -2.59,1.16 -2.59,2.58 0,1.43 1.16,2.59 2.59,2.59 1.43,0 2.58,-1.16 2.58,-2.59z"/>
     <path class="fil3" d="M1695.37 916.97c0,-1.43 -1.16,-2.59 -2.58,-2.59 -1.43,0 -2.59,1.16 -2.59,2.59 0,1.42 1.16,2.58 2.59,2.58 1.42,0 2.58,-1.16 2.58,-2.58z"/>
     <path class="fil3" d="M1710.89 916.97c0,-1.43 -1.16,-2.59 -2.59,-2.59 -1.43,0 -2.58,1.16 -2.58,2.59 0,1.42 1.15,2.58 2.58,2.58 1.43,0 2.59,-1.16 2.59,-2.58z"/>
     <path class="fil3" d="M1721.23 916.97c0,-1.43 -1.15,-2.59 -2.58,-2.59 -1.43,0 -2.59,1.16 -2.59,2.59 0,1.42 1.16,2.58 2.59,2.58 1.43,0 2.58,-1.16 2.58,-2.58z"/>
     <path class="fil3" d="M1726.41 916.97c0,-1.43 -1.16,-2.59 -2.59,-2.59 -1.43,0 -2.59,1.16 -2.59,2.59 0,1.42 1.16,2.58 2.59,2.58 1.43,0 2.59,-1.16 2.59,-2.58z"/>
     <path class="fil3" d="M1736.75 916.97c0,-1.43 -1.16,-2.59 -2.58,-2.59 -1.43,0 -2.59,1.16 -2.59,2.59 0,1.42 1.16,2.58 2.59,2.58 1.42,0 2.58,-1.16 2.58,-2.58z"/>
     <path class="fil3" d="M1741.92 916.97c0,-1.43 -1.15,-2.59 -2.58,-2.59 -1.43,0 -2.59,1.16 -2.59,2.59 0,1.42 1.16,2.58 2.59,2.58 1.43,0 2.58,-1.16 2.58,-2.58z"/>
     <path class="fil3" d="M1757.44 916.97c0,-1.43 -1.16,-2.59 -2.59,-2.59 -1.42,0 -2.58,1.16 -2.58,2.59 0,1.42 1.16,2.58 2.58,2.58 1.43,0 2.59,-1.16 2.59,-2.58z"/>
     <path class="fil3" d="M1778.13 916.97c0,-1.43 -1.16,-2.59 -2.58,-2.59 -1.43,0 -2.59,1.16 -2.59,2.59 0,1.42 1.16,2.58 2.59,2.58 1.42,0 2.58,-1.16 2.58,-2.58z"/>
     <path class="fil3" d="M1783.3 916.97c0,-1.43 -1.15,-2.59 -2.58,-2.59 -1.43,0 -2.59,1.16 -2.59,2.59 0,1.42 1.16,2.58 2.59,2.58 1.43,0 2.58,-1.16 2.58,-2.58z"/>
     <path class="fil3" d="M1798.82 916.97c0,-1.43 -1.16,-2.59 -2.59,-2.59 -1.42,0 -2.58,1.16 -2.58,2.59 0,1.42 1.16,2.58 2.58,2.58 1.43,0 2.59,-1.16 2.59,-2.58z"/>
     <path class="fil3" d="M1803.99 916.97c0,-1.43 -1.16,-2.59 -2.58,-2.59 -1.43,0 -2.59,1.16 -2.59,2.59 0,1.42 1.16,2.58 2.59,2.58 1.42,0 2.58,-1.16 2.58,-2.58z"/>
     <path class="fil3" d="M1835.03 916.97c0,-1.43 -1.16,-2.59 -2.59,-2.59 -1.43,0 -2.59,1.16 -2.59,2.59 0,1.42 1.16,2.58 2.59,2.58 1.43,0 2.59,-1.16 2.59,-2.58z"/>
     <path class="fil3" d="M1840.2 916.97c0,-1.43 -1.16,-2.59 -2.59,-2.59 -1.42,0 -2.58,1.16 -2.58,2.59 0,1.42 1.16,2.58 2.58,2.58 1.43,0 2.59,-1.16 2.59,-2.58z"/>
     <path class="fil3" d="M1700.55 922.14c0,-1.43 -1.16,-2.59 -2.59,-2.59 -1.43,0 -2.59,1.16 -2.59,2.59 0,1.43 1.16,2.59 2.59,2.59 1.43,0 2.59,-1.16 2.59,-2.59z"/>
     <path class="fil3" d="M1705.72 922.14c0,-1.43 -1.16,-2.59 -2.59,-2.59 -1.43,0 -2.58,1.16 -2.58,2.59 0,1.43 1.15,2.59 2.58,2.59 1.43,0 2.59,-1.16 2.59,-2.59z"/>
     <path class="fil3" d="M1710.89 922.14c0,-1.43 -1.16,-2.59 -2.59,-2.59 -1.43,0 -2.58,1.16 -2.58,2.59 0,1.43 1.15,2.59 2.58,2.59 1.43,0 2.59,-1.16 2.59,-2.59z"/>
     <path class="fil3" d="M1721.23 922.14c0,-1.43 -1.15,-2.59 -2.58,-2.59 -1.43,0 -2.59,1.16 -2.59,2.59 0,1.43 1.16,2.59 2.59,2.59 1.43,0 2.58,-1.16 2.58,-2.59z"/>
     <path class="fil3" d="M1747.1 922.14c0,-1.43 -1.16,-2.59 -2.59,-2.59 -1.43,0 -2.59,1.16 -2.59,2.59 0,1.43 1.16,2.59 2.59,2.59 1.43,0 2.59,-1.16 2.59,-2.59z"/>
     <path class="fil3" d="M1752.27 922.14c0,-1.43 -1.16,-2.59 -2.59,-2.59 -1.43,0 -2.58,1.16 -2.58,2.59 0,1.43 1.15,2.59 2.58,2.59 1.43,0 2.59,-1.16 2.59,-2.59z"/>
     <path class="fil3" d="M1757.44 922.14c0,-1.43 -1.16,-2.59 -2.59,-2.59 -1.42,0 -2.58,1.16 -2.58,2.59 0,1.43 1.16,2.59 2.58,2.59 1.43,0 2.59,-1.16 2.59,-2.59z"/>
     <path class="fil3" d="M1762.61 922.14c0,-1.43 -1.15,-2.59 -2.58,-2.59 -1.43,0 -2.59,1.16 -2.59,2.59 0,1.43 1.16,2.59 2.59,2.59 1.43,0 2.58,-1.16 2.58,-2.59z"/>
     <path class="fil3" d="M1767.79 922.14c0,-1.43 -1.16,-2.59 -2.59,-2.59 -1.43,0 -2.59,1.16 -2.59,2.59 0,1.43 1.16,2.59 2.59,2.59 1.43,0 2.59,-1.16 2.59,-2.59z"/>
     <path class="fil3" d="M1772.96 922.14c0,-1.43 -1.16,-2.59 -2.59,-2.59 -1.43,0 -2.58,1.16 -2.58,2.59 0,1.43 1.15,2.59 2.58,2.59 1.43,0 2.59,-1.16 2.59,-2.59z"/>
     <path class="fil3" d="M1783.3 922.14c0,-1.43 -1.15,-2.59 -2.58,-2.59 -1.43,0 -2.59,1.16 -2.59,2.59 0,1.43 1.16,2.59 2.59,2.59 1.43,0 2.58,-1.16 2.58,-2.59z"/>
     <path class="fil3" d="M1788.48 922.14c0,-1.43 -1.16,-2.59 -2.59,-2.59 -1.43,0 -2.59,1.16 -2.59,2.59 0,1.43 1.16,2.59 2.59,2.59 1.43,0 2.59,-1.16 2.59,-2.59z"/>
     <path class="fil3" d="M1793.65 922.14c0,-1.43 -1.16,-2.59 -2.59,-2.59 -1.43,0 -2.58,1.16 -2.58,2.59 0,1.43 1.15,2.59 2.58,2.59 1.43,0 2.59,-1.16 2.59,-2.59z"/>
     <path class="fil3" d="M1798.82 922.14c0,-1.43 -1.16,-2.59 -2.59,-2.59 -1.42,0 -2.58,1.16 -2.58,2.59 0,1.43 1.16,2.59 2.58,2.59 1.43,0 2.59,-1.16 2.59,-2.59z"/>
     <path class="fil3" d="M1803.99 922.14c0,-1.43 -1.16,-2.59 -2.58,-2.59 -1.43,0 -2.59,1.16 -2.59,2.59 0,1.43 1.16,2.59 2.59,2.59 1.42,0 2.58,-1.16 2.58,-2.59z"/>
     <path class="fil3" d="M1809.17 922.14c0,-1.43 -1.16,-2.59 -2.59,-2.59 -1.43,0 -2.59,1.16 -2.59,2.59 0,1.43 1.16,2.59 2.59,2.59 1.43,0 2.59,-1.16 2.59,-2.59z"/>
     <path class="fil3" d="M1814.34 922.14c0,-1.43 -1.16,-2.59 -2.59,-2.59 -1.43,0 -2.58,1.16 -2.58,2.59 0,1.43 1.15,2.59 2.58,2.59 1.43,0 2.59,-1.16 2.59,-2.59z"/>
     <path class="fil3" d="M1840.2 922.14c0,-1.43 -1.16,-2.59 -2.59,-2.59 -1.42,0 -2.58,1.16 -2.58,2.59 0,1.43 1.16,2.59 2.58,2.59 1.43,0 2.59,-1.16 2.59,-2.59z"/>
     <path class="fil3" d="M1695.37 927.31c0,-1.43 -1.16,-2.58 -2.58,-2.58 -1.43,0 -2.59,1.15 -2.59,2.58 0,1.43 1.16,2.59 2.59,2.59 1.42,0 2.58,-1.16 2.58,-2.59z"/>
     <path class="fil3" d="M1700.55 927.31c0,-1.43 -1.16,-2.58 -2.59,-2.58 -1.43,0 -2.59,1.15 -2.59,2.58 0,1.43 1.16,2.59 2.59,2.59 1.43,0 2.59,-1.16 2.59,-2.59z"/>
     <path class="fil3" d="M1716.06 927.31c0,-1.43 -1.16,-2.58 -2.58,-2.58 -1.43,0 -2.59,1.15 -2.59,2.58 0,1.43 1.16,2.59 2.59,2.59 1.42,0 2.58,-1.16 2.58,-2.59z"/>
     <path class="fil3" d="M1721.23 927.31c0,-1.43 -1.15,-2.58 -2.58,-2.58 -1.43,0 -2.59,1.15 -2.59,2.58 0,1.43 1.16,2.59 2.59,2.59 1.43,0 2.58,-1.16 2.58,-2.59z"/>
     <path class="fil3" d="M1726.41 927.31c0,-1.43 -1.16,-2.58 -2.59,-2.58 -1.43,0 -2.59,1.15 -2.59,2.58 0,1.43 1.16,2.59 2.59,2.59 1.43,0 2.59,-1.16 2.59,-2.59z"/>
     <path class="fil3" d="M1731.58 927.31c0,-1.43 -1.16,-2.58 -2.59,-2.58 -1.42,0 -2.58,1.15 -2.58,2.58 0,1.43 1.16,2.59 2.58,2.59 1.43,0 2.59,-1.16 2.59,-2.59z"/>
     <path class="fil3" d="M1736.75 927.31c0,-1.43 -1.16,-2.58 -2.58,-2.58 -1.43,0 -2.59,1.15 -2.59,2.58 0,1.43 1.16,2.59 2.59,2.59 1.42,0 2.58,-1.16 2.58,-2.59z"/>
     <path class="fil3" d="M1741.92 927.31c0,-1.43 -1.15,-2.58 -2.58,-2.58 -1.43,0 -2.59,1.15 -2.59,2.58 0,1.43 1.16,2.59 2.59,2.59 1.43,0 2.58,-1.16 2.58,-2.59z"/>
     <path class="fil3" d="M1757.44 927.31c0,-1.43 -1.16,-2.58 -2.59,-2.58 -1.42,0 -2.58,1.15 -2.58,2.58 0,1.43 1.16,2.59 2.58,2.59 1.43,0 2.59,-1.16 2.59,-2.59z"/>
     <path class="fil3" d="M1767.79 927.31c0,-1.43 -1.16,-2.58 -2.59,-2.58 -1.43,0 -2.59,1.15 -2.59,2.58 0,1.43 1.16,2.59 2.59,2.59 1.43,0 2.59,-1.16 2.59,-2.59z"/>
     <path class="fil3" d="M1772.96 927.31c0,-1.43 -1.16,-2.58 -2.59,-2.58 -1.43,0 -2.58,1.15 -2.58,2.58 0,1.43 1.15,2.59 2.58,2.59 1.43,0 2.59,-1.16 2.59,-2.59z"/>
     <path class="fil3" d="M1783.3 927.31c0,-1.43 -1.15,-2.58 -2.58,-2.58 -1.43,0 -2.59,1.15 -2.59,2.58 0,1.43 1.16,2.59 2.59,2.59 1.43,0 2.58,-1.16 2.58,-2.59z"/>
     <path class="fil3" d="M1788.48 927.31c0,-1.43 -1.16,-2.58 -2.59,-2.58 -1.43,0 -2.59,1.15 -2.59,2.58 0,1.43 1.16,2.59 2.59,2.59 1.43,0 2.59,-1.16 2.59,-2.59z"/>
     <path class="fil3" d="M1798.82 927.31c0,-1.43 -1.16,-2.58 -2.59,-2.58 -1.42,0 -2.58,1.15 -2.58,2.58 0,1.43 1.16,2.59 2.58,2.59 1.43,0 2.59,-1.16 2.59,-2.59z"/>
     <path class="fil3" d="M1803.99 927.31c0,-1.43 -1.16,-2.58 -2.58,-2.58 -1.43,0 -2.59,1.15 -2.59,2.58 0,1.43 1.16,2.59 2.59,2.59 1.42,0 2.58,-1.16 2.58,-2.59z"/>
     <path class="fil3" d="M1809.17 927.31c0,-1.43 -1.16,-2.58 -2.59,-2.58 -1.43,0 -2.59,1.15 -2.59,2.58 0,1.43 1.16,2.59 2.59,2.59 1.43,0 2.59,-1.16 2.59,-2.59z"/>
     <path class="fil3" d="M1835.03 927.31c0,-1.43 -1.16,-2.58 -2.59,-2.58 -1.43,0 -2.59,1.15 -2.59,2.58 0,1.43 1.16,2.59 2.59,2.59 1.43,0 2.59,-1.16 2.59,-2.59z"/>
     <path class="fil3" d="M1840.2 927.31c0,-1.43 -1.16,-2.58 -2.59,-2.58 -1.42,0 -2.58,1.15 -2.58,2.58 0,1.43 1.16,2.59 2.58,2.59 1.43,0 2.59,-1.16 2.59,-2.59z"/>
     <path class="fil3" d="M1700.55 932.48c0,-1.42 -1.16,-2.58 -2.59,-2.58 -1.43,0 -2.59,1.16 -2.59,2.58 0,1.43 1.16,2.59 2.59,2.59 1.43,0 2.59,-1.16 2.59,-2.59z"/>
     <path class="fil3" d="M1705.72 932.48c0,-1.42 -1.16,-2.58 -2.59,-2.58 -1.43,0 -2.58,1.16 -2.58,2.58 0,1.43 1.15,2.59 2.58,2.59 1.43,0 2.59,-1.16 2.59,-2.59z"/>
     <path class="fil3" d="M1710.89 932.48c0,-1.42 -1.16,-2.58 -2.59,-2.58 -1.43,0 -2.58,1.16 -2.58,2.58 0,1.43 1.15,2.59 2.58,2.59 1.43,0 2.59,-1.16 2.59,-2.59z"/>
     <path class="fil3" d="M1736.75 932.48c0,-1.42 -1.16,-2.58 -2.58,-2.58 -1.43,0 -2.59,1.16 -2.59,2.58 0,1.43 1.16,2.59 2.59,2.59 1.42,0 2.58,-1.16 2.58,-2.59z"/>
     <path class="fil3" d="M1741.92 932.48c0,-1.42 -1.15,-2.58 -2.58,-2.58 -1.43,0 -2.59,1.16 -2.59,2.58 0,1.43 1.16,2.59 2.59,2.59 1.43,0 2.58,-1.16 2.58,-2.59z"/>
     <path class="fil3" d="M1747.1 932.48c0,-1.42 -1.16,-2.58 -2.59,-2.58 -1.43,0 -2.59,1.16 -2.59,2.58 0,1.43 1.16,2.59 2.59,2.59 1.43,0 2.59,-1.16 2.59,-2.59z"/>
     <path class="fil3" d="M1762.61 932.48c0,-1.42 -1.15,-2.58 -2.58,-2.58 -1.43,0 -2.59,1.16 -2.59,2.58 0,1.43 1.16,2.59 2.59,2.59 1.43,0 2.58,-1.16 2.58,-2.59z"/>
     <path class="fil3" d="M1783.3 932.48c0,-1.42 -1.15,-2.58 -2.58,-2.58 -1.43,0 -2.59,1.16 -2.59,2.58 0,1.43 1.16,2.59 2.59,2.59 1.43,0 2.58,-1.16 2.58,-2.59z"/>
     <path class="fil3" d="M1788.48 932.48c0,-1.42 -1.16,-2.58 -2.59,-2.58 -1.43,0 -2.59,1.16 -2.59,2.58 0,1.43 1.16,2.59 2.59,2.59 1.43,0 2.59,-1.16 2.59,-2.59z"/>
     <path class="fil3" d="M1793.65 932.48c0,-1.42 -1.16,-2.58 -2.59,-2.58 -1.43,0 -2.58,1.16 -2.58,2.58 0,1.43 1.15,2.59 2.58,2.59 1.43,0 2.59,-1.16 2.59,-2.59z"/>
     <path class="fil3" d="M1803.99 932.48c0,-1.42 -1.16,-2.58 -2.58,-2.58 -1.43,0 -2.59,1.16 -2.59,2.58 0,1.43 1.16,2.59 2.59,2.59 1.42,0 2.58,-1.16 2.58,-2.59z"/>
     <path class="fil3" d="M1835.03 932.48c0,-1.42 -1.16,-2.58 -2.59,-2.58 -1.43,0 -2.59,1.16 -2.59,2.58 0,1.43 1.16,2.59 2.59,2.59 1.43,0 2.59,-1.16 2.59,-2.59z"/>
     <path class="fil3" d="M1840.2 932.48c0,-1.42 -1.16,-2.58 -2.59,-2.58 -1.42,0 -2.58,1.16 -2.58,2.58 0,1.43 1.16,2.59 2.58,2.59 1.43,0 2.59,-1.16 2.59,-2.59z"/>
     <path class="fil3" d="M1695.37 937.66c0,-1.43 -1.16,-2.59 -2.58,-2.59 -1.43,0 -2.59,1.16 -2.59,2.59 0,1.42 1.16,2.58 2.59,2.58 1.42,0 2.58,-1.16 2.58,-2.58z"/>
     <path class="fil3" d="M1705.72 937.66c0,-1.43 -1.16,-2.59 -2.59,-2.59 -1.43,0 -2.58,1.16 -2.58,2.59 0,1.42 1.15,2.58 2.58,2.58 1.43,0 2.59,-1.16 2.59,-2.58z"/>
     <path class="fil3" d="M1710.89 937.66c0,-1.43 -1.16,-2.59 -2.59,-2.59 -1.43,0 -2.58,1.16 -2.58,2.59 0,1.42 1.15,2.58 2.58,2.58 1.43,0 2.59,-1.16 2.59,-2.58z"/>
     <path class="fil3" d="M1716.06 937.66c0,-1.43 -1.16,-2.59 -2.58,-2.59 -1.43,0 -2.59,1.16 -2.59,2.59 0,1.42 1.16,2.58 2.59,2.58 1.42,0 2.58,-1.16 2.58,-2.58z"/>
     <path class="fil3" d="M1721.23 937.66c0,-1.43 -1.15,-2.59 -2.58,-2.59 -1.43,0 -2.59,1.16 -2.59,2.59 0,1.42 1.16,2.58 2.59,2.58 1.43,0 2.58,-1.16 2.58,-2.58z"/>
     <path class="fil3" d="M1726.41 937.66c0,-1.43 -1.16,-2.59 -2.59,-2.59 -1.43,0 -2.59,1.16 -2.59,2.59 0,1.42 1.16,2.58 2.59,2.58 1.43,0 2.59,-1.16 2.59,-2.58z"/>
     <path class="fil3" d="M1736.75 937.66c0,-1.43 -1.16,-2.59 -2.58,-2.59 -1.43,0 -2.59,1.16 -2.59,2.59 0,1.42 1.16,2.58 2.59,2.58 1.42,0 2.58,-1.16 2.58,-2.58z"/>
     <path class="fil3" d="M1767.79 937.66c0,-1.43 -1.16,-2.59 -2.59,-2.59 -1.43,0 -2.59,1.16 -2.59,2.59 0,1.42 1.16,2.58 2.59,2.58 1.43,0 2.59,-1.16 2.59,-2.58z"/>
     <path class="fil3" d="M1788.48 937.66c0,-1.43 -1.16,-2.59 -2.59,-2.59 -1.43,0 -2.59,1.16 -2.59,2.59 0,1.42 1.16,2.58 2.59,2.58 1.43,0 2.59,-1.16 2.59,-2.58z"/>
     <path class="fil3" d="M1793.65 937.66c0,-1.43 -1.16,-2.59 -2.59,-2.59 -1.43,0 -2.58,1.16 -2.58,2.59 0,1.42 1.15,2.58 2.58,2.58 1.43,0 2.59,-1.16 2.59,-2.58z"/>
     <path class="fil3" d="M1798.82 937.66c0,-1.43 -1.16,-2.59 -2.59,-2.59 -1.42,0 -2.58,1.16 -2.58,2.59 0,1.42 1.16,2.58 2.58,2.58 1.43,0 2.59,-1.16 2.59,-2.58z"/>
     <path class="fil3" d="M1803.99 937.66c0,-1.43 -1.16,-2.59 -2.58,-2.59 -1.43,0 -2.59,1.16 -2.59,2.59 0,1.42 1.16,2.58 2.59,2.58 1.42,0 2.58,-1.16 2.58,-2.58z"/>
     <path class="fil3" d="M1814.34 937.66c0,-1.43 -1.16,-2.59 -2.59,-2.59 -1.43,0 -2.58,1.16 -2.58,2.59 0,1.42 1.15,2.58 2.58,2.58 1.43,0 2.59,-1.16 2.59,-2.58z"/>
     <path class="fil3" d="M1819.51 937.66c0,-1.43 -1.16,-2.59 -2.59,-2.59 -1.42,0 -2.58,1.16 -2.58,2.59 0,1.42 1.16,2.58 2.58,2.58 1.43,0 2.59,-1.16 2.59,-2.58z"/>
     <path class="fil3" d="M1835.03 937.66c0,-1.43 -1.16,-2.59 -2.59,-2.59 -1.43,0 -2.59,1.16 -2.59,2.59 0,1.42 1.16,2.58 2.59,2.58 1.43,0 2.59,-1.16 2.59,-2.58z"/>
     <path class="fil3" d="M1840.2 937.66c0,-1.43 -1.16,-2.59 -2.59,-2.59 -1.42,0 -2.58,1.16 -2.58,2.59 0,1.42 1.16,2.58 2.58,2.58 1.43,0 2.59,-1.16 2.59,-2.58z"/>
     <path class="fil3" d="M1710.89 942.83c0,-1.43 -1.16,-2.59 -2.59,-2.59 -1.43,0 -2.58,1.16 -2.58,2.59 0,1.43 1.15,2.58 2.58,2.58 1.43,0 2.59,-1.15 2.59,-2.58z"/>
     <path class="fil3" d="M1731.58 942.83c0,-1.43 -1.16,-2.59 -2.59,-2.59 -1.42,0 -2.58,1.16 -2.58,2.59 0,1.43 1.16,2.58 2.58,2.58 1.43,0 2.59,-1.15 2.59,-2.58z"/>
     <path class="fil3" d="M1741.92 942.83c0,-1.43 -1.15,-2.59 -2.58,-2.59 -1.43,0 -2.59,1.16 -2.59,2.59 0,1.43 1.16,2.58 2.59,2.58 1.43,0 2.58,-1.15 2.58,-2.58z"/>
     <path class="fil3" d="M1752.27 942.83c0,-1.43 -1.16,-2.59 -2.59,-2.59 -1.43,0 -2.58,1.16 -2.58,2.59 0,1.43 1.15,2.58 2.58,2.58 1.43,0 2.59,-1.15 2.59,-2.58z"/>
     <path class="fil3" d="M1757.44 942.83c0,-1.43 -1.16,-2.59 -2.59,-2.59 -1.42,0 -2.58,1.16 -2.58,2.59 0,1.43 1.16,2.58 2.58,2.58 1.43,0 2.59,-1.15 2.59,-2.58z"/>
     <path class="fil3" d="M1772.96 942.83c0,-1.43 -1.16,-2.59 -2.59,-2.59 -1.43,0 -2.58,1.16 -2.58,2.59 0,1.43 1.15,2.58 2.58,2.58 1.43,0 2.59,-1.15 2.59,-2.58z"/>
     <path class="fil3" d="M1778.13 942.83c0,-1.43 -1.16,-2.59 -2.58,-2.59 -1.43,0 -2.59,1.16 -2.59,2.59 0,1.43 1.16,2.58 2.59,2.58 1.42,0 2.58,-1.15 2.58,-2.58z"/>
     <path class="fil3" d="M1783.3 942.83c0,-1.43 -1.15,-2.59 -2.58,-2.59 -1.43,0 -2.59,1.16 -2.59,2.59 0,1.43 1.16,2.58 2.59,2.58 1.43,0 2.58,-1.15 2.58,-2.58z"/>
     <path class="fil3" d="M1793.65 942.83c0,-1.43 -1.16,-2.59 -2.59,-2.59 -1.43,0 -2.58,1.16 -2.58,2.59 0,1.43 1.15,2.58 2.58,2.58 1.43,0 2.59,-1.15 2.59,-2.58z"/>
     <path class="fil3" d="M1798.82 942.83c0,-1.43 -1.16,-2.59 -2.59,-2.59 -1.42,0 -2.58,1.16 -2.58,2.59 0,1.43 1.16,2.58 2.58,2.58 1.43,0 2.59,-1.15 2.59,-2.58z"/>
     <path class="fil3" d="M1824.68 942.83c0,-1.43 -1.15,-2.59 -2.58,-2.59 -1.43,0 -2.59,1.16 -2.59,2.59 0,1.43 1.16,2.58 2.59,2.58 1.43,0 2.58,-1.15 2.58,-2.58z"/>
     <path class="fil3" d="M1835.03 942.83c0,-1.43 -1.16,-2.59 -2.59,-2.59 -1.43,0 -2.59,1.16 -2.59,2.59 0,1.43 1.16,2.58 2.59,2.58 1.43,0 2.59,-1.15 2.59,-2.58z"/>
     <path class="fil3" d="M1695.37 948c0,-1.43 -1.16,-2.59 -2.58,-2.59 -1.43,0 -2.59,1.16 -2.59,2.59 0,1.43 1.16,2.59 2.59,2.59 1.42,0 2.58,-1.16 2.58,-2.59z"/>
     <path class="fil3" d="M1710.89 948c0,-1.43 -1.16,-2.59 -2.59,-2.59 -1.43,0 -2.58,1.16 -2.58,2.59 0,1.43 1.15,2.59 2.58,2.59 1.43,0 2.59,-1.16 2.59,-2.59z"/>
     <path class="fil3" d="M1726.41 948c0,-1.43 -1.16,-2.59 -2.59,-2.59 -1.43,0 -2.59,1.16 -2.59,2.59 0,1.43 1.16,2.59 2.59,2.59 1.43,0 2.59,-1.16 2.59,-2.59z"/>
     <path class="fil3" d="M1731.58 948c0,-1.43 -1.16,-2.59 -2.59,-2.59 -1.42,0 -2.58,1.16 -2.58,2.59 0,1.43 1.16,2.59 2.58,2.59 1.43,0 2.59,-1.16 2.59,-2.59z"/>
     <path class="fil3" d="M1736.75 948c0,-1.43 -1.16,-2.59 -2.58,-2.59 -1.43,0 -2.59,1.16 -2.59,2.59 0,1.43 1.16,2.59 2.59,2.59 1.42,0 2.58,-1.16 2.58,-2.59z"/>
     <path class="fil3" d="M1747.1 948c0,-1.43 -1.16,-2.59 -2.59,-2.59 -1.43,0 -2.59,1.16 -2.59,2.59 0,1.43 1.16,2.59 2.59,2.59 1.43,0 2.59,-1.16 2.59,-2.59z"/>
     <path class="fil3" d="M1762.61 948c0,-1.43 -1.15,-2.59 -2.58,-2.59 -1.43,0 -2.59,1.16 -2.59,2.59 0,1.43 1.16,2.59 2.59,2.59 1.43,0 2.58,-1.16 2.58,-2.59z"/>
     <path class="fil3" d="M1772.96 948c0,-1.43 -1.16,-2.59 -2.59,-2.59 -1.43,0 -2.58,1.16 -2.58,2.59 0,1.43 1.15,2.59 2.58,2.59 1.43,0 2.59,-1.16 2.59,-2.59z"/>
     <path class="fil3" d="M1778.13 948c0,-1.43 -1.16,-2.59 -2.58,-2.59 -1.43,0 -2.59,1.16 -2.59,2.59 0,1.43 1.16,2.59 2.59,2.59 1.42,0 2.58,-1.16 2.58,-2.59z"/>
     <path class="fil3" d="M1793.65 948c0,-1.43 -1.16,-2.59 -2.59,-2.59 -1.43,0 -2.58,1.16 -2.58,2.59 0,1.43 1.15,2.59 2.58,2.59 1.43,0 2.59,-1.16 2.59,-2.59z"/>
     <path class="fil3" d="M1824.68 948c0,-1.43 -1.15,-2.59 -2.58,-2.59 -1.43,0 -2.59,1.16 -2.59,2.59 0,1.43 1.16,2.59 2.59,2.59 1.43,0 2.58,-1.16 2.58,-2.59z"/>
     <path class="fil3" d="M1829.85 948c0,-1.43 -1.15,-2.59 -2.58,-2.59 -1.43,0 -2.59,1.16 -2.59,2.59 0,1.43 1.16,2.59 2.59,2.59 1.43,0 2.58,-1.16 2.58,-2.59z"/>
     <path class="fil3" d="M1840.2 948c0,-1.43 -1.16,-2.59 -2.59,-2.59 -1.42,0 -2.58,1.16 -2.58,2.59 0,1.43 1.16,2.59 2.58,2.59 1.43,0 2.59,-1.16 2.59,-2.59z"/>
     <path class="fil3" d="M1736.75 953.17c0,-1.42 -1.16,-2.58 -2.58,-2.58 -1.43,0 -2.59,1.16 -2.59,2.58 0,1.43 1.16,2.59 2.59,2.59 1.42,0 2.58,-1.16 2.58,-2.59z"/>
     <path class="fil3" d="M1741.92 953.17c0,-1.42 -1.15,-2.58 -2.58,-2.58 -1.43,0 -2.59,1.16 -2.59,2.58 0,1.43 1.16,2.59 2.59,2.59 1.43,0 2.58,-1.16 2.58,-2.59z"/>
     <path class="fil3" d="M1747.1 953.17c0,-1.42 -1.16,-2.58 -2.59,-2.58 -1.43,0 -2.59,1.16 -2.59,2.58 0,1.43 1.16,2.59 2.59,2.59 1.43,0 2.59,-1.16 2.59,-2.59z"/>
     <path class="fil3" d="M1752.27 953.17c0,-1.42 -1.16,-2.58 -2.59,-2.58 -1.43,0 -2.58,1.16 -2.58,2.58 0,1.43 1.15,2.59 2.58,2.59 1.43,0 2.59,-1.16 2.59,-2.59z"/>
     <path class="fil3" d="M1757.44 953.17c0,-1.42 -1.16,-2.58 -2.59,-2.58 -1.42,0 -2.58,1.16 -2.58,2.58 0,1.43 1.16,2.59 2.58,2.59 1.43,0 2.59,-1.16 2.59,-2.59z"/>
     <path class="fil3" d="M1772.96 953.17c0,-1.42 -1.16,-2.58 -2.59,-2.58 -1.43,0 -2.58,1.16 -2.58,2.58 0,1.43 1.15,2.59 2.58,2.59 1.43,0 2.59,-1.16 2.59,-2.59z"/>
     <path class="fil3" d="M1778.13 953.17c0,-1.42 -1.16,-2.58 -2.58,-2.58 -1.43,0 -2.59,1.16 -2.59,2.58 0,1.43 1.16,2.59 2.59,2.59 1.42,0 2.58,-1.16 2.58,-2.59z"/>
     <path class="fil3" d="M1788.48 953.17c0,-1.42 -1.16,-2.58 -2.59,-2.58 -1.43,0 -2.59,1.16 -2.59,2.58 0,1.43 1.16,2.59 2.59,2.59 1.43,0 2.59,-1.16 2.59,-2.59z"/>
     <path class="fil3" d="M1793.65 953.17c0,-1.42 -1.16,-2.58 -2.59,-2.58 -1.43,0 -2.58,1.16 -2.58,2.58 0,1.43 1.15,2.59 2.58,2.59 1.43,0 2.59,-1.16 2.59,-2.59z"/>
     <path class="fil3" d="M1835.03 953.17c0,-1.42 -1.16,-2.58 -2.59,-2.58 -1.43,0 -2.59,1.16 -2.59,2.58 0,1.43 1.16,2.59 2.59,2.59 1.43,0 2.59,-1.16 2.59,-2.59z"/>
     <path class="fil3" d="M1840.2 953.17c0,-1.42 -1.16,-2.58 -2.59,-2.58 -1.42,0 -2.58,1.16 -2.58,2.58 0,1.43 1.16,2.59 2.58,2.59 1.43,0 2.59,-1.16 2.59,-2.59z"/>
     <path class="fil3" d="M1783.3 958.35c0,-1.43 -1.15,-2.59 -2.58,-2.59 -1.43,0 -2.59,1.16 -2.59,2.59 0,1.42 1.16,2.58 2.59,2.58 1.43,0 2.58,-1.16 2.58,-2.58z"/>
     <path class="fil3" d="M1824.68 958.35c0,-1.43 -1.15,-2.59 -2.58,-2.59 -1.43,0 -2.59,1.16 -2.59,2.59 0,1.42 1.16,2.58 2.59,2.58 1.43,0 2.58,-1.16 2.58,-2.58z"/>
     <path class="fil3" d="M1829.85 958.35c0,-1.43 -1.15,-2.59 -2.58,-2.59 -1.43,0 -2.59,1.16 -2.59,2.59 0,1.42 1.16,2.58 2.59,2.58 1.43,0 2.58,-1.16 2.58,-2.58z"/>
     <path class="fil3" d="M1835.03 958.35c0,-1.43 -1.16,-2.59 -2.59,-2.59 -1.43,0 -2.59,1.16 -2.59,2.59 0,1.42 1.16,2.58 2.59,2.58 1.43,0 2.59,-1.16 2.59,-2.58z"/>
     <path class="fil3" d="M1741.92 963.52c0,-1.43 -1.15,-2.59 -2.58,-2.59 -1.43,0 -2.59,1.16 -2.59,2.59 0,1.43 1.16,2.58 2.59,2.58 1.43,0 2.58,-1.15 2.58,-2.58z"/>
     <path class="fil3" d="M1752.27 963.52c0,-1.43 -1.16,-2.59 -2.59,-2.59 -1.43,0 -2.58,1.16 -2.58,2.59 0,1.43 1.15,2.58 2.58,2.58 1.43,0 2.59,-1.15 2.59,-2.58z"/>
     <path class="fil3" d="M1767.79 963.52c0,-1.43 -1.16,-2.59 -2.59,-2.59 -1.43,0 -2.59,1.16 -2.59,2.59 0,1.43 1.16,2.58 2.59,2.58 1.43,0 2.59,-1.15 2.59,-2.58z"/>
     <path class="fil3" d="M1772.96 963.52c0,-1.43 -1.16,-2.59 -2.59,-2.59 -1.43,0 -2.58,1.16 -2.58,2.59 0,1.43 1.15,2.58 2.58,2.58 1.43,0 2.59,-1.15 2.59,-2.58z"/>
     <path class="fil3" d="M1778.13 963.52c0,-1.43 -1.16,-2.59 -2.58,-2.59 -1.43,0 -2.59,1.16 -2.59,2.59 0,1.43 1.16,2.58 2.59,2.58 1.42,0 2.58,-1.15 2.58,-2.58z"/>
     <path class="fil3" d="M1783.3 963.52c0,-1.43 -1.15,-2.59 -2.58,-2.59 -1.43,0 -2.59,1.16 -2.59,2.59 0,1.43 1.16,2.58 2.59,2.58 1.43,0 2.58,-1.15 2.58,-2.58z"/>
     <path class="fil3" d="M1788.48 963.52c0,-1.43 -1.16,-2.59 -2.59,-2.59 -1.43,0 -2.59,1.16 -2.59,2.59 0,1.43 1.16,2.58 2.59,2.58 1.43,0 2.59,-1.15 2.59,-2.58z"/>
     <path class="fil3" d="M1829.85 963.52c0,-1.43 -1.15,-2.59 -2.58,-2.59 -1.43,0 -2.59,1.16 -2.59,2.59 0,1.43 1.16,2.58 2.59,2.58 1.43,0 2.58,-1.15 2.58,-2.58z"/>
     <path class="fil3" d="M1741.92 968.69c0,-1.43 -1.15,-2.59 -2.58,-2.59 -1.43,0 -2.59,1.16 -2.59,2.59 0,1.43 1.16,2.59 2.59,2.59 1.43,0 2.58,-1.16 2.58,-2.59z"/>
     <path class="fil3" d="M1747.1 968.69c0,-1.43 -1.16,-2.59 -2.59,-2.59 -1.43,0 -2.59,1.16 -2.59,2.59 0,1.43 1.16,2.59 2.59,2.59 1.43,0 2.59,-1.16 2.59,-2.59z"/>
     <path class="fil3" d="M1752.27 968.69c0,-1.43 -1.16,-2.59 -2.59,-2.59 -1.43,0 -2.58,1.16 -2.58,2.59 0,1.43 1.15,2.59 2.58,2.59 1.43,0 2.59,-1.16 2.59,-2.59z"/>
     <path class="fil3" d="M1757.44 968.69c0,-1.43 -1.16,-2.59 -2.59,-2.59 -1.42,0 -2.58,1.16 -2.58,2.59 0,1.43 1.16,2.59 2.58,2.59 1.43,0 2.59,-1.16 2.59,-2.59z"/>
     <path class="fil3" d="M1772.96 968.69c0,-1.43 -1.16,-2.59 -2.59,-2.59 -1.43,0 -2.58,1.16 -2.58,2.59 0,1.43 1.15,2.59 2.58,2.59 1.43,0 2.59,-1.16 2.59,-2.59z"/>
     <path class="fil3" d="M1778.13 968.69c0,-1.43 -1.16,-2.59 -2.58,-2.59 -1.43,0 -2.59,1.16 -2.59,2.59 0,1.43 1.16,2.59 2.59,2.59 1.42,0 2.58,-1.16 2.58,-2.59z"/>
     <path class="fil3" d="M1783.3 968.69c0,-1.43 -1.15,-2.59 -2.58,-2.59 -1.43,0 -2.59,1.16 -2.59,2.59 0,1.43 1.16,2.59 2.59,2.59 1.43,0 2.58,-1.16 2.58,-2.59z"/>
     <path class="fil3" d="M1788.48 968.69c0,-1.43 -1.16,-2.59 -2.59,-2.59 -1.43,0 -2.59,1.16 -2.59,2.59 0,1.43 1.16,2.59 2.59,2.59 1.43,0 2.59,-1.16 2.59,-2.59z"/>
     <path class="fil3" d="M1824.68 968.69c0,-1.43 -1.15,-2.59 -2.58,-2.59 -1.43,0 -2.59,1.16 -2.59,2.59 0,1.43 1.16,2.59 2.59,2.59 1.43,0 2.58,-1.16 2.58,-2.59z"/>
     <path class="fil3" d="M1736.75 973.86c0,-1.43 -1.16,-2.58 -2.58,-2.58 -1.43,0 -2.59,1.15 -2.59,2.58 0,1.43 1.16,2.59 2.59,2.59 1.42,0 2.58,-1.16 2.58,-2.59z"/>
     <path class="fil3" d="M1741.92 973.86c0,-1.43 -1.15,-2.58 -2.58,-2.58 -1.43,0 -2.59,1.15 -2.59,2.58 0,1.43 1.16,2.59 2.59,2.59 1.43,0 2.58,-1.16 2.58,-2.59z"/>
     <path class="fil3" d="M1747.1 973.86c0,-1.43 -1.16,-2.58 -2.59,-2.58 -1.43,0 -2.59,1.15 -2.59,2.58 0,1.43 1.16,2.59 2.59,2.59 1.43,0 2.59,-1.16 2.59,-2.59z"/>
     <path class="fil3" d="M1767.79 973.86c0,-1.43 -1.16,-2.58 -2.59,-2.58 -1.43,0 -2.59,1.15 -2.59,2.58 0,1.43 1.16,2.59 2.59,2.59 1.43,0 2.59,-1.16 2.59,-2.59z"/>
     <path class="fil3" d="M1783.3 973.86c0,-1.43 -1.15,-2.58 -2.58,-2.58 -1.43,0 -2.59,1.15 -2.59,2.58 0,1.43 1.16,2.59 2.59,2.59 1.43,0 2.58,-1.16 2.58,-2.59z"/>
     <path class="fil3" d="M1793.65 973.86c0,-1.43 -1.16,-2.58 -2.59,-2.58 -1.43,0 -2.58,1.15 -2.58,2.58 0,1.43 1.15,2.59 2.58,2.59 1.43,0 2.59,-1.16 2.59,-2.59z"/>
     <path class="fil3" d="M1798.82 973.86c0,-1.43 -1.16,-2.58 -2.59,-2.58 -1.42,0 -2.58,1.15 -2.58,2.58 0,1.43 1.16,2.59 2.58,2.59 1.43,0 2.59,-1.16 2.59,-2.59z"/>
     <path class="fil3" d="M1803.99 973.86c0,-1.43 -1.16,-2.58 -2.58,-2.58 -1.43,0 -2.59,1.15 -2.59,2.58 0,1.43 1.16,2.59 2.59,2.59 1.42,0 2.58,-1.16 2.58,-2.59z"/>
     <path class="fil3" d="M1809.17 973.86c0,-1.43 -1.16,-2.58 -2.59,-2.58 -1.43,0 -2.59,1.15 -2.59,2.58 0,1.43 1.16,2.59 2.59,2.59 1.43,0 2.59,-1.16 2.59,-2.59z"/>
     <path class="fil3" d="M1819.51 973.86c0,-1.43 -1.16,-2.58 -2.59,-2.58 -1.42,0 -2.58,1.15 -2.58,2.58 0,1.43 1.16,2.59 2.58,2.59 1.43,0 2.59,-1.16 2.59,-2.59z"/>
     <path class="fil3" d="M1840.2 973.86c0,-1.43 -1.16,-2.58 -2.59,-2.58 -1.42,0 -2.58,1.15 -2.58,2.58 0,1.43 1.16,2.59 2.58,2.59 1.43,0 2.59,-1.16 2.59,-2.59z"/>
     <path class="fil3" d="M1741.92 979.04c0,-1.43 -1.15,-2.59 -2.58,-2.59 -1.43,0 -2.59,1.16 -2.59,2.59 0,1.42 1.16,2.58 2.59,2.58 1.43,0 2.58,-1.16 2.58,-2.58z"/>
     <path class="fil3" d="M1752.27 979.04c0,-1.43 -1.16,-2.59 -2.59,-2.59 -1.43,0 -2.58,1.16 -2.58,2.59 0,1.42 1.15,2.58 2.58,2.58 1.43,0 2.59,-1.16 2.59,-2.58z"/>
     <path class="fil3" d="M1757.44 979.04c0,-1.43 -1.16,-2.59 -2.59,-2.59 -1.42,0 -2.58,1.16 -2.58,2.59 0,1.42 1.16,2.58 2.58,2.58 1.43,0 2.59,-1.16 2.59,-2.58z"/>
     <path class="fil3" d="M1767.79 979.04c0,-1.43 -1.16,-2.59 -2.59,-2.59 -1.43,0 -2.59,1.16 -2.59,2.59 0,1.42 1.16,2.58 2.59,2.58 1.43,0 2.59,-1.16 2.59,-2.58z"/>
     <path class="fil3" d="M1783.3 979.04c0,-1.43 -1.15,-2.59 -2.58,-2.59 -1.43,0 -2.59,1.16 -2.59,2.59 0,1.42 1.16,2.58 2.59,2.58 1.43,0 2.58,-1.16 2.58,-2.58z"/>
     <path class="fil3" d="M1788.48 979.04c0,-1.43 -1.16,-2.59 -2.59,-2.59 -1.43,0 -2.59,1.16 -2.59,2.59 0,1.42 1.16,2.58 2.59,2.58 1.43,0 2.59,-1.16 2.59,-2.58z"/>
     <path class="fil3" d="M1793.65 979.04c0,-1.43 -1.16,-2.59 -2.59,-2.59 -1.43,0 -2.58,1.16 -2.58,2.59 0,1.42 1.15,2.58 2.58,2.58 1.43,0 2.59,-1.16 2.59,-2.58z"/>
     <path class="fil3" d="M1798.82 979.04c0,-1.43 -1.16,-2.59 -2.59,-2.59 -1.42,0 -2.58,1.16 -2.58,2.59 0,1.42 1.16,2.58 2.58,2.58 1.43,0 2.59,-1.16 2.59,-2.58z"/>
     <path class="fil3" d="M1819.51 979.04c0,-1.43 -1.16,-2.59 -2.59,-2.59 -1.42,0 -2.58,1.16 -2.58,2.59 0,1.42 1.16,2.58 2.58,2.58 1.43,0 2.59,-1.16 2.59,-2.58z"/>
     <path class="fil3" d="M1829.85 979.04c0,-1.43 -1.15,-2.59 -2.58,-2.59 -1.43,0 -2.59,1.16 -2.59,2.59 0,1.42 1.16,2.58 2.59,2.58 1.43,0 2.58,-1.16 2.58,-2.58z"/>
     <path class="fil3" d="M1840.2 979.04c0,-1.43 -1.16,-2.59 -2.59,-2.59 -1.42,0 -2.58,1.16 -2.58,2.59 0,1.42 1.16,2.58 2.58,2.58 1.43,0 2.59,-1.16 2.59,-2.58z"/>
     <path class="fil3" d="M1741.92 984.21c0,-1.43 -1.15,-2.59 -2.58,-2.59 -1.43,0 -2.59,1.16 -2.59,2.59 0,1.43 1.16,2.58 2.59,2.58 1.43,0 2.58,-1.15 2.58,-2.58z"/>
     <path class="fil3" d="M1747.1 984.21c0,-1.43 -1.16,-2.59 -2.59,-2.59 -1.43,0 -2.59,1.16 -2.59,2.59 0,1.43 1.16,2.58 2.59,2.58 1.43,0 2.59,-1.15 2.59,-2.58z"/>
     <path class="fil3" d="M1752.27 984.21c0,-1.43 -1.16,-2.59 -2.59,-2.59 -1.43,0 -2.58,1.16 -2.58,2.59 0,1.43 1.15,2.58 2.58,2.58 1.43,0 2.59,-1.15 2.59,-2.58z"/>
     <path class="fil3" d="M1757.44 984.21c0,-1.43 -1.16,-2.59 -2.59,-2.59 -1.42,0 -2.58,1.16 -2.58,2.59 0,1.43 1.16,2.58 2.58,2.58 1.43,0 2.59,-1.15 2.59,-2.58z"/>
     <path class="fil3" d="M1772.96 984.21c0,-1.43 -1.16,-2.59 -2.59,-2.59 -1.43,0 -2.58,1.16 -2.58,2.59 0,1.43 1.15,2.58 2.58,2.58 1.43,0 2.59,-1.15 2.59,-2.58z"/>
     <path class="fil3" d="M1778.13 984.21c0,-1.43 -1.16,-2.59 -2.58,-2.59 -1.43,0 -2.59,1.16 -2.59,2.59 0,1.43 1.16,2.58 2.59,2.58 1.42,0 2.58,-1.15 2.58,-2.58z"/>
     <path class="fil3" d="M1803.99 984.21c0,-1.43 -1.16,-2.59 -2.58,-2.59 -1.43,0 -2.59,1.16 -2.59,2.59 0,1.43 1.16,2.58 2.59,2.58 1.42,0 2.58,-1.15 2.58,-2.58z"/>
     <path class="fil3" d="M1814.34 984.21c0,-1.43 -1.16,-2.59 -2.59,-2.59 -1.43,0 -2.58,1.16 -2.58,2.59 0,1.43 1.15,2.58 2.58,2.58 1.43,0 2.59,-1.15 2.59,-2.58z"/>
     <path class="fil3" d="M1835.03 984.21c0,-1.43 -1.16,-2.59 -2.59,-2.59 -1.43,0 -2.59,1.16 -2.59,2.59 0,1.43 1.16,2.58 2.59,2.58 1.43,0 2.59,-1.15 2.59,-2.58z"/>
     <path class="fil3" d="M1752.27 989.38c0,-1.43 -1.16,-2.59 -2.59,-2.59 -1.43,0 -2.58,1.16 -2.58,2.59 0,1.43 1.15,2.59 2.58,2.59 1.43,0 2.59,-1.16 2.59,-2.59z"/>
     <path class="fil3" d="M1757.44 989.38c0,-1.43 -1.16,-2.59 -2.59,-2.59 -1.42,0 -2.58,1.16 -2.58,2.59 0,1.43 1.16,2.59 2.58,2.59 1.43,0 2.59,-1.16 2.59,-2.59z"/>
     <path class="fil3" d="M1762.61 989.38c0,-1.43 -1.15,-2.59 -2.58,-2.59 -1.43,0 -2.59,1.16 -2.59,2.59 0,1.43 1.16,2.59 2.59,2.59 1.43,0 2.58,-1.16 2.58,-2.59z"/>
     <path class="fil3" d="M1772.96 989.38c0,-1.43 -1.16,-2.59 -2.59,-2.59 -1.43,0 -2.58,1.16 -2.58,2.59 0,1.43 1.15,2.59 2.58,2.59 1.43,0 2.59,-1.16 2.59,-2.59z"/>
     <path class="fil3" d="M1783.3 989.38c0,-1.43 -1.15,-2.59 -2.58,-2.59 -1.43,0 -2.59,1.16 -2.59,2.59 0,1.43 1.16,2.59 2.59,2.59 1.43,0 2.58,-1.16 2.58,-2.59z"/>
     <path class="fil3" d="M1788.48 989.38c0,-1.43 -1.16,-2.59 -2.59,-2.59 -1.43,0 -2.59,1.16 -2.59,2.59 0,1.43 1.16,2.59 2.59,2.59 1.43,0 2.59,-1.16 2.59,-2.59z"/>
     <path class="fil3" d="M1793.65 989.38c0,-1.43 -1.16,-2.59 -2.59,-2.59 -1.43,0 -2.58,1.16 -2.58,2.59 0,1.43 1.15,2.59 2.58,2.59 1.43,0 2.59,-1.16 2.59,-2.59z"/>
     <path class="fil3" d="M1798.82 989.38c0,-1.43 -1.16,-2.59 -2.59,-2.59 -1.42,0 -2.58,1.16 -2.58,2.59 0,1.43 1.16,2.59 2.58,2.59 1.43,0 2.59,-1.16 2.59,-2.59z"/>
     <path class="fil3" d="M1803.99 989.38c0,-1.43 -1.16,-2.59 -2.58,-2.59 -1.43,0 -2.59,1.16 -2.59,2.59 0,1.43 1.16,2.59 2.59,2.59 1.42,0 2.58,-1.16 2.58,-2.59z"/>
     <path class="fil3" d="M1819.51 989.38c0,-1.43 -1.16,-2.59 -2.59,-2.59 -1.42,0 -2.58,1.16 -2.58,2.59 0,1.43 1.16,2.59 2.58,2.59 1.43,0 2.59,-1.16 2.59,-2.59z"/>
     <path class="fil3" d="M1835.03 989.38c0,-1.43 -1.16,-2.59 -2.59,-2.59 -1.43,0 -2.59,1.16 -2.59,2.59 0,1.43 1.16,2.59 2.59,2.59 1.43,0 2.59,-1.16 2.59,-2.59z"/>
    </g>
    <g>
     <path class="fil3" d="M1690.2 841.97l36.21 0 0 36.2 -36.21 0 0 -36.2zm10.35 5.17l-5.18 0 0 25.86 25.86 0 0 -25.86 -20.68 0zm103.44 -5.17l36.21 0 0 36.2 -36.21 0 0 -36.2zm10.35 5.17l-5.17 0 0 25.86 25.86 0 0 -25.86 -20.69 0zm-20.69 98.27l25.86 0 0 25.87 -25.86 0 0 -25.87zm10.34 5.18l-5.17 0 0 15.51 15.52 0 0 -15.51 -10.35 0zm-113.79 5.17l36.21 0 0 36.21 -36.21 0 0 -36.21zm10.35 5.17l-5.18 0 0 25.86 25.86 0 0 -25.86 -20.68 0z"/>
    </g>
    <g>
     <path class="fil3" d="M1700.55 852.31l15.51 0 0 15.52 -15.51 0 0 -15.52zm113.79 0l15.51 0 0 15.52 -15.51 0 0 -15.52zm-10.35 103.45l5.18 0 0 5.17 -5.18 0 0 -5.17zm-103.44 10.34l15.51 0 0 15.52 -15.51 0 0 -15.52z"/>
    </g>
   </g>
  </g>
  <path class="fil3" d="M575.56 628.63c14.53,15.58 47.42,33.67 67.93,19.57 33.91,-23.32 89.18,-172.4 87.02,-235.7 -0.02,-0.58 36.28,-12.36 47.91,-15.9 -0.71,33.08 -2.24,79.35 -3.17,93.34 -1.51,22.59 -2.74,46.57 -1.23,69.71 16.07,-34.85 32.86,-77.91 35.06,-92.56 15.6,-0.2 18.31,-1.2 35.11,-4.6 0.19,8.72 -13.61,67.54 -14.46,85.6 -3.62,77.06 47.32,-9.76 45.71,-46.91 12.75,-0.41 19.9,-0.96 31.52,-4.66 -4.06,24.34 -4.54,13.39 -5.78,39.76 -0.13,2.93 -0.31,7.46 -0.24,12.18 12.76,-26.71 29.52,-73.98 48.29,-53.19 1.09,1.21 1.95,3.16 2.61,5.66 20.14,-20.45 43.4,-19.98 42,11.83 -0.13,3.13 -0.38,6.02 -0.7,8.71 12.61,-14.48 17.17,-31.31 20.02,-38.81 12.62,-0.84 17.08,-2.02 23.38,-3.37 -7.46,18.92 -20.77,60.48 -15.7,60.13 6.36,3.27 45.52,-67.84 50.4,-67.02 35.42,5.89 15.62,4.95 -0.27,26.44 -5.17,7 -43.04,61.01 -55.12,60.23 -8.15,-0.52 -8.86,-14.27 -8.67,-25.71 -9.37,17.64 -15.8,32.66 -22.8,34.05 -24.29,4.84 -9.06,-38.29 -10.8,-57.74 -11.11,8.34 -17.1,21.09 -20.78,31.24 -1.29,14.59 -3.68,27.53 -5.73,30.02 -7.93,9.58 -20.67,5.21 -22.03,-10.94 -7.18,13.9 -15.27,25.78 -23.35,28.2 -10.99,3.29 -17.92,-1.83 -22.2,-10.82 -9.77,16.19 -22.48,29.12 -38.4,31.71 -22.74,3.71 -34.17,-8.77 -39.23,-27.81 -13.19,24.76 -29.51,41.14 -48.34,28.49 -9.47,-6.35 -14.19,-25.32 -16.14,-49.01 -2.27,5.91 -4.56,11.74 -6.86,17.46 -17.56,43.71 -41.42,98.39 -89.23,117.24 -36.81,14.52 -91.04,2.98 -126.05,-41.32 11.5,-4.06 38.55,-15.66 60.32,-25.5zm397.24 -122.88c-0.07,-0.18 -0.13,-0.36 -0.2,-0.53 -0.02,0.18 0.05,0.36 0.2,0.53zm-43.89 3.24l-0.04 -0.64c-0.02,0.21 0,0.42 0.04,0.64z"/>
  <path class="fil4" d="M548.11 644.1c0,12.45 83.38,64.67 124.89,3.65 41.51,-61.02 86.76,-216.06 89.15,-220.89 -10.81,88.2 -7.63,157.76 -0.4,166.44 19.07,22.91 55.18,-105.46 62.37,-121.76 -6.36,43.13 -23.74,118.29 8.65,122.58 32.38,4.3 54.2,-69.51 55.95,-79.89 2.99,-17.69 -9.01,54.66 6.73,61.09 15.73,6.44 50,-120 45.6,-52.17 -1.48,22.79 -1.08,51.24 -5.34,36.9 -0.09,-0.3 5.68,-39.41 31.74,-59 26.06,-19.58 13.2,37.39 12.51,40.01 -17.09,64.73 39.44,-51.38 40.53,-51.86 0.62,19.89 -21.34,84.02 12.21,48.02 1.09,-1.17 46.02,-45.75 47.47,-48 10.54,-16.37 19.48,-26.99 31.5,-38.27"/>
  <path class="fil3" d="M1114.64 473.53c-47.71,109.42 62.24,67.27 89.54,-22.13 -23.61,3.96 -52.59,9.3 -63.79,10.42 -80.74,8.08 -93.56,-47.53 -41.51,-81.86 33.24,-21.92 95.04,-27.63 124.22,0.98 2.22,2.17 4.2,4.47 5.99,6.85 35.88,-78.87 157.37,-24.59 116.6,21.93 -9.54,10.88 -41.69,21.32 -78.29,29.99 15.85,13.36 38.14,30.71 39.97,72.55 2.56,58.89 -64.73,84.15 -111.51,93.52 -87.27,17.5 -239.08,15.52 -431.74,92.74 130.07,-73.11 279.6,-79.32 424.08,-115 32.26,-7.97 89.53,-39.06 92.18,-69.45 3,-34.37 -25.59,-46.93 -42.09,-62.17 -16.36,67.72 -94.29,142.23 -147.17,117.43 -39.06,-18.32 -31.85,-63.97 -19.88,-96.93 1.49,0.41 18.09,3.49 43.4,1.13zm94.68 -52.87c-1.39,-40.8 -95.01,-33.21 -103.18,-5.8 -8.17,27.42 60.73,12.71 103.18,5.8zm44.03 -13.4c32.63,-6.78 59.58,-13.87 66.55,-18.27 -9.53,-11.58 -55.62,-20.24 -66.55,18.27z"/>
  <path class="fil4" d="M1091.67 480.95c-34.1,81.39 42.09,107.46 110.46,4.19 30.72,-46.4 18.97,-85.86 0.37,-94.86 -79.72,-38.57 -165.47,52.96 -80.34,54.45 29.97,0.53 180.23,-26.28 204.89,-40.82 43.77,-25.81 -66.5,-77.24 -88.37,1.03 -12.68,45.37 38.57,38.16 52.29,91.27 12.55,48.58 -12.3,68.63 -98.94,98.44 -86.63,29.81 -301.09,43.96 -427.91,103.87"/>
  <g id="_2336650342256">
   <path class="fil3" d="M874.79 456.18c-3.96,-24.03 10.06,-37.19 32.07,-45.08 18.86,24.22 8.16,26.56 14.27,34.56l0.7 -0.26c0.88,-3.35 0.58,-1.25 -0.08,-6.38 4.74,12.97 -1.93,27.32 -14.9,32.06 -12.97,4.74 -27.32,-1.93 -32.06,-14.9z"/>
  </g>
  <path class="fil4" d="M898.27 447.6c-2.39,-6.56 7.62,-27.84 8.59,-36.5"/>
  <g id="_2336650342976">
   <path class="fil3" d="M1015.82 446.52c6.03,-12.07 1.68,-5.72 15.02,-17.54 9.37,14.88 6.85,7.98 9.88,19.7 -0.59,6.87 -6.65,11.97 -13.52,11.37 -6.88,-0.59 -11.98,-6.65 -11.38,-13.53z"/>
  </g>
  <path class="fil4" d="M1028.27 447.6c0.27,-3.06 1.6,-9.95 2.57,-18.62"/>
 </g>
</svg>
