#define bullet_width 7
#define bullet_height 7
static unsigned char bullet_bits[] = {
   0x06, 0x0c, 0x18, 0x30, 0x18, 0x0c, 0x06 };
